<svg width="66" height="126" viewBox="0 0 66 126" fill="none" xmlns="http://www.w3.org/2000/svg">
<path d="M65.3469 96.7347C65.3086 96.6964 59.9002 93.3291 58.2508 84.3367C57.4453 80.0893 56.2563 76.5689 54.6069 73.6607C54.185 72.9337 53.7247 72.2066 53.2261 71.5179C53.0726 71.3265 52.9192 71.0969 52.7658 70.9056L52.7274 70.8673L52.6891 70.8291C52.5356 70.6378 52.4206 70.4847 52.2671 70.2934L52.1521 70.1786C51.9986 70.0255 51.8452 69.8342 51.7301 69.6811L51.6918 69.6429L51.6534 69.5663C51.5 69.4133 51.3466 69.2219 51.1931 69.0689L51.1548 69.0306L51.1164 68.9923C50.9246 68.801 50.7328 68.6097 50.5411 68.4184C50.1575 68.0357 49.7355 67.6913 49.2753 67.3469L49.1602 67.2321C49.0068 67.1173 48.815 66.9643 48.6615 66.8495C48.6232 66.8112 48.5465 66.773 48.5081 66.7347L48.4698 66.6964C48.3163 66.5816 48.1629 66.4668 48.0095 66.352L47.7793 66.199C47.6259 66.0842 47.4725 66.0077 47.319 65.8929H47.2807L47.204 65.8546L47.0505 65.7781C46.8971 65.6633 46.7437 65.5867 46.5903 65.5102L46.5135 65.4719C46.4752 65.4337 46.3985 65.3954 46.3601 65.3954C49.2369 64.4388 51.8836 63.023 54.2617 61.1862C59.2481 57.3597 62.9688 51.6199 64.388 45.4592C64.4264 45.2679 64.4647 45.0383 64.5031 44.8469L64.5414 44.7321V44.6556V44.5791L64.5798 44.4643V44.426C64.5798 44.3878 64.5798 44.3112 64.6182 44.273V44.2347L64.6565 44.0434C64.6949 43.8903 64.6949 43.7372 64.7332 43.5842V43.5459V43.4694V43.4311C64.7716 43.2398 64.7716 43.0485 64.8099 42.8571V42.8189V42.7806V42.6276V42.5893C64.8099 42.551 64.8099 42.5128 64.8099 42.4745L64.8483 42.2449V42.1684V42.0918V42.0153C64.8483 41.9005 64.8483 41.7857 64.8867 41.6327V41.5944V41.4796C64.8867 41.3265 64.8867 41.1352 64.8867 40.9821V40.9439V40.9056V40.7143V40.6378V40.5612V40.2934V40.2551C64.8867 40.0638 64.8867 39.9107 64.8867 39.7194V39.6429V39.5663C64.8867 39.4133 64.8483 39.2602 64.8483 39.1071V38.9924L64.8099 38.7628V38.7245C64.7716 38.4184 64.7332 38.1122 64.6949 37.8061C64.6565 37.6148 64.6565 37.4235 64.6182 37.2321V37.1556C64.5798 36.9643 64.5414 36.773 64.5031 36.5816C63.2373 30.2679 59.0564 24.2219 52.037 18.6735C48.0095 15.4592 44.097 11.9005 40.2997 8.45663L40.2613 8.41837C38.4202 6.73469 36.5407 5.01275 34.5844 3.29082C34.3159 3.06122 34.0474 2.79337 33.7789 2.52551C32.6282 1.37755 31.209 0 29.1761 0H29.1377C26.6061 0.0382653 24.8801 3.13775 24.7266 3.40561C24.7266 3.44388 24.6883 3.44388 24.6883 3.48214C22.7321 8.18877 19.1265 12.6658 8.04124 24.2985C7.88781 24.4898 7.69602 24.6429 7.54259 24.8342L7.42752 24.949L7.38916 24.9872C7.27409 25.102 7.19738 25.2168 7.08231 25.3316L6.96723 25.4464L6.92888 25.4847L6.89052 25.5612C6.81381 25.676 6.69873 25.7908 6.62202 25.8673C6.5453 25.9439 6.50695 26.0204 6.43023 26.0969C6.35352 26.2117 6.23845 26.3265 6.16173 26.4413L6.08502 26.5179L5.96995 26.6327C5.85487 26.7857 5.7398 26.9388 5.62473 27.0918L5.4713 27.3214V27.3597L5.39459 27.4745L5.24116 27.6658C5.16444 27.7423 5.12609 27.8571 5.04937 27.9337L4.85759 28.2015C4.78087 28.2781 4.74251 28.3929 4.6658 28.4694L4.62744 28.5077C4.58909 28.5842 4.55073 28.6224 4.51237 28.699C4.43566 28.8138 4.35894 28.8903 4.32058 29.0051L4.24387 29.0816L4.20551 29.1582L4.16715 29.1964C3.89865 29.6173 3.66851 30 3.43837 30.4209V30.4592L3.40001 30.4974L3.3233 30.6122L3.16987 30.8801V30.9184L3.13151 30.9566V30.9949L3.0548 31.1097L3.01644 31.1862C2.97808 31.2628 2.93973 31.301 2.93973 31.3776L2.90137 31.4541V31.4923C2.82465 31.6454 2.74794 31.7602 2.70958 31.9133C2.44108 32.449 2.17258 33.023 1.94244 33.5969C-0.627497 39.9107 -0.090496 45.4209 0.446505 48.176L0.484862 48.3291C0.484862 48.4056 0.52322 48.4821 0.52322 48.5587C0.561577 48.6735 0.561577 48.7883 0.599935 48.9031C0.599935 48.9796 0.599934 49.0179 0.638291 49.0561V49.0944C0.638291 49.0944 0.638291 49.1327 0.638291 49.1709V49.2474L0.676648 49.324V49.3622V49.4005V49.4388V49.477L0.715006 49.5536C0.791721 49.8214 0.830077 50.0893 0.945149 50.3954L0.983507 50.4719L1.02186 50.625C1.09858 50.8546 1.17529 51.0842 1.25201 51.352V51.3903L1.29036 51.4668C1.36708 51.7347 1.48215 52.0026 1.55887 52.2704C1.59722 52.3087 1.59722 52.3852 1.63558 52.4235L1.67394 52.4617C1.75065 52.6531 1.82737 52.8827 1.94244 53.074L1.98079 53.1505L2.01915 53.2653C2.13422 53.5332 2.24929 53.7628 2.36437 53.9923C2.36437 54.0306 2.40272 54.0689 2.40272 54.1071L2.44108 54.1454L2.47944 54.1837C2.59451 54.375 2.67122 54.5663 2.7863 54.7577L2.90137 54.949C3.0548 55.2168 3.16987 55.4082 3.28494 55.5995L3.3233 55.676L3.36165 55.7143C3.47673 55.9056 3.5918 56.0587 3.70687 56.25C3.74523 56.2883 3.78359 56.3648 3.82194 56.4031L3.8603 56.4413C3.97537 56.6327 4.09044 56.7857 4.24387 56.9388L4.28223 56.977L4.35894 57.0918C4.51237 57.2832 4.6658 57.4362 4.78087 57.6276L4.89594 57.7806L4.97266 57.8571C5.08773 57.9719 5.2028 58.125 5.31787 58.2398L5.39459 58.3163L5.50966 58.4311C5.66309 58.5842 5.81652 58.7755 6.0083 58.9286C6.04666 58.9668 6.12338 59.0434 6.16173 59.0816L6.20009 59.1199L6.23845 59.1582C6.35352 59.273 6.46859 59.3495 6.5453 59.4643C6.62202 59.5408 6.69873 59.6173 6.77545 59.6939C6.92888 59.8469 7.12066 60 7.27409 60.1148L7.46588 60.2679L7.54259 60.1913C7.65766 60.2679 7.73438 60.3444 7.84945 60.4592C7.92617 60.5357 8.04124 60.6122 8.15631 60.6888C8.23302 60.7653 8.3481 60.8418 8.42481 60.9184L8.46317 60.9566C8.6166 61.0714 8.77002 61.1862 8.92345 61.301L9.00017 61.3393C9.07688 61.3776 9.1536 61.4541 9.23031 61.4923C9.34538 61.5689 9.46045 61.6454 9.57553 61.7219L9.76731 61.8367L9.84403 61.875C10.0358 61.9898 10.266 62.1429 10.4577 62.2577L10.5345 62.2959L10.5728 62.3342L10.6879 62.4107C10.803 62.4872 10.9564 62.5638 11.0715 62.6403C11.1482 62.6786 11.2249 62.7168 11.3016 62.7551C11.7235 62.9847 12.1838 63.2143 12.6441 63.4439L12.8359 63.5204C15.5593 64.7449 18.6662 65.7015 22.1567 66.3138C19.6635 68.074 15.1373 71.7857 12.4523 77.3724C10.9947 80.3954 9.53717 84.9872 8.34809 88.699C7.42752 91.6071 6.5453 94.4005 6.04666 95.1275C5.01101 96.6582 2.55615 97.3852 2.55615 97.4235C2.36437 97.5 2.17258 97.6531 2.09587 97.8444C2.01915 98.0357 2.01915 98.2653 2.13422 98.4566C3.63016 101.097 5.54802 102.589 8.07959 103.048C8.6166 103.125 9.15359 103.163 9.72895 103.163C10.3427 103.163 10.918 103.125 11.4167 103.087H11.455C11.6852 103.048 11.9153 103.048 12.1071 103.048C12.1838 103.048 12.2222 103.048 12.2989 103.048H12.3372H12.414C12.4523 103.048 12.4907 103.048 12.529 103.048C12.5674 103.048 12.6441 103.048 12.7208 103.087C12.7592 103.087 12.7975 103.125 12.8742 103.125C12.9126 103.125 12.9893 103.163 13.0277 103.202L13.066 103.24C13.1044 103.278 13.1811 103.278 13.2195 103.316C13.2578 103.355 13.3345 103.393 13.3729 103.431L13.4112 103.469C13.4496 103.508 13.5263 103.546 13.5647 103.584C13.603 103.622 13.6797 103.661 13.7181 103.699L13.7565 103.737C13.7948 103.775 13.8715 103.814 13.9099 103.89C14.3702 104.311 14.7538 104.77 14.9839 105.115C14.7538 105.421 14.0633 106.339 13.4112 106.722C13.1811 106.875 13.066 107.105 13.066 107.372C13.066 107.449 13.1811 108.827 14.8305 109.401C15.2524 109.936 16.5949 111.276 20.3923 112.117C19.9703 117.398 20.469 122.411 20.469 122.449C20.469 122.64 20.584 122.832 20.7758 122.946C24.1129 125.281 26.9513 125.587 27.0664 125.587H27.2199H27.2582C28.1404 125.702 29.2528 125.816 30.3651 125.816C32.3597 125.816 33.7789 125.395 34.7762 124.592C35.6201 123.865 35.7735 123.061 35.7352 122.526C35.6584 121.224 34.4694 120.038 33.4337 119.388C33.357 119.311 33.2419 119.273 33.1269 119.196C32.8967 118.469 32.6282 117.513 32.3981 116.327C32.6666 116.48 32.9351 116.633 33.2419 116.786C35.1982 117.704 37.2694 118.048 38.9188 118.24C39.1489 118.278 39.3407 118.278 39.5709 118.316C39.5325 118.469 39.4558 118.584 39.4175 118.699C39.3024 118.776 39.1873 118.814 39.1106 118.852C38.0366 119.464 36.8092 120.612 36.6557 121.913C36.579 122.449 36.6941 123.253 37.4996 124.018C38.5352 124.974 40.1462 125.434 42.4477 125.434C43.3682 125.434 44.2505 125.357 44.9792 125.319H45.1327C45.4395 125.281 48.2013 125.051 51.5383 122.908C51.7301 122.793 51.8452 122.602 51.8452 122.411C51.9219 121.913 52.5356 117.283 52.3438 112.27C54.4151 112.003 57.2536 111.237 59.2481 109.171C59.4783 108.941 59.5166 108.559 59.3249 108.291C58.8646 107.602 57.5221 105.383 57.2919 104.082C57.407 103.852 57.6371 103.24 57.9824 102.781C58.0207 102.704 58.0974 102.628 58.1741 102.513C58.2509 102.436 58.2892 102.36 58.3659 102.321C58.4043 102.283 58.4043 102.283 58.4426 102.283H58.481C58.5194 102.283 58.5194 102.245 58.5577 102.207C58.5577 102.207 58.5961 102.168 58.6344 102.168H58.6728C58.7111 102.168 58.7111 102.168 58.7879 102.13H58.8262H58.9029H58.9796H59.0564H59.1331H59.2098L59.4783 102.092C60.092 102.015 60.8975 101.862 61.7797 101.594C61.8564 101.556 61.9715 101.518 62.0866 101.48H62.1249H62.1633C62.24 101.441 62.3167 101.403 62.3934 101.403L62.4318 101.365C62.5469 101.327 62.6236 101.288 62.7386 101.212C64.1962 100.485 65.1551 99.3367 65.6154 97.8061C65.7305 97.2321 65.6154 96.8878 65.3469 96.7347Z" fill="#838080"/>
<path d="M30.4802 125.357C29.3678 125.357 28.2554 125.242 27.3732 125.127H27.2198C27.1814 125.127 24.3814 124.821 21.121 122.525C21.0443 122.487 21.0059 122.372 20.9676 122.296C20.9676 122.257 20.4689 117.245 20.8909 112.002C20.8909 111.849 20.7758 111.696 20.6223 111.658C16.8633 110.854 15.5976 109.592 15.214 109.056C15.1756 109.018 15.0989 108.941 15.0606 108.941C13.6413 108.482 13.5646 107.296 13.5646 107.258C13.5646 107.143 13.603 107.028 13.718 106.951C14.4468 106.53 15.1373 105.574 15.4058 105.191C15.4825 105.076 15.4825 104.923 15.4058 104.809C15.1373 104.464 14.7537 103.928 14.2551 103.508C14.2167 103.469 14.14 103.393 14.1016 103.354L14.0633 103.316C14.0249 103.278 13.9482 103.24 13.9098 103.163C13.8331 103.125 13.7948 103.087 13.718 103.048L13.6797 103.01C13.603 102.972 13.5646 102.934 13.4879 102.895C13.4112 102.857 13.3728 102.819 13.2961 102.819L13.2578 102.78C13.181 102.742 13.1427 102.742 13.066 102.704C12.9893 102.666 12.9509 102.666 12.8742 102.666H12.8358C12.7591 102.627 12.6824 102.627 12.644 102.627C12.6057 102.627 12.5673 102.627 12.4906 102.627H12.4139H12.3755H12.3372H12.2988C12.2221 102.627 12.1838 102.627 12.107 102.627C11.8769 102.627 11.6468 102.666 11.3783 102.666H11.3399C10.8413 102.704 10.3043 102.742 9.69054 102.742C9.11518 102.742 8.61654 102.704 8.1179 102.627C5.73975 102.206 3.8986 100.791 2.44103 98.2269C2.40267 98.1504 2.40267 98.0356 2.44103 97.9208C2.47938 97.8442 2.5561 97.7677 2.67117 97.7294C2.70953 97.7294 5.2411 96.9641 6.39182 95.3187C6.92882 94.5534 7.77268 91.8748 8.73161 88.8136C9.92068 85.1401 11.3399 80.5483 12.7975 77.5254C15.5208 71.9386 20.0086 68.2269 22.5019 66.5432C22.6169 66.4667 22.6553 66.3136 22.6553 66.1988C22.6169 66.084 22.5402 65.9692 22.3868 65.931C18.8963 65.3187 15.751 64.3621 13.0276 63.1376L12.8358 63.0611C12.3755 62.8315 11.9153 62.6019 11.4933 62.4106C11.4166 62.3723 11.3399 62.334 11.2632 62.2958C11.1481 62.2192 10.9947 62.1427 10.8796 62.0662C10.8413 62.0279 10.8029 62.0279 10.7645 61.9896L10.7262 61.9514L10.6495 61.9131C10.4577 61.7983 10.2275 61.6835 10.0358 61.5305L9.95904 61.4922L9.76726 61.3774C9.65219 61.3009 9.53711 61.2243 9.42204 61.1478C9.34533 61.1095 9.26861 61.033 9.1919 60.9947L9.11518 60.9565C8.96175 60.8417 8.80833 60.7269 8.6549 60.6121C8.53983 60.5356 8.42475 60.459 8.30968 60.3825C8.19461 60.306 8.1179 60.2294 8.04118 60.1529C7.92611 60.0764 7.84939 59.9999 7.73432 59.9233L7.69597 59.8851C7.61925 59.8468 7.5809 59.7703 7.50418 59.732C7.35075 59.5789 7.15896 59.4641 7.00554 59.3111C6.92882 59.2345 6.85211 59.158 6.77539 59.1198C6.66032 59.005 6.54525 58.9284 6.46853 58.8136L6.43018 58.7754C6.35346 58.6988 6.31511 58.6606 6.23839 58.584C6.08496 58.431 5.93153 58.2779 5.77811 58.0866L5.70139 57.9718L5.62468 57.8953C5.5096 57.7805 5.39453 57.6274 5.27946 57.5126L5.20275 57.4361L5.08767 57.283C4.93425 57.1299 4.78082 56.9386 4.66575 56.7473L4.58903 56.6325L4.55067 56.5942C4.4356 56.4412 4.32053 56.2499 4.1671 56.0968C4.12874 56.0203 4.05203 55.9437 4.01367 55.9055C3.8986 55.7524 3.78353 55.5611 3.66846 55.408L3.6301 55.3697L3.59174 55.2932C3.47667 55.1019 3.3616 54.9106 3.20817 54.6427L3.0931 54.4514C2.97803 54.2601 2.90131 54.107 2.78624 53.9157L2.74788 53.8774C2.70953 53.8391 2.70953 53.8009 2.67117 53.7626C2.5561 53.533 2.44103 53.3034 2.32596 53.0356L2.2876 52.9208L2.24924 52.8442C2.17253 52.6529 2.09581 52.4616 1.98074 52.232L1.94238 52.1937C1.90403 52.1555 1.90403 52.0789 1.90403 52.0407C1.78896 51.7728 1.71224 51.5432 1.63552 51.2754L1.59717 51.1988V51.1606C1.52045 50.931 1.44374 50.7014 1.36703 50.4718C1.32867 50.3953 1.32867 50.3187 1.29031 50.2422C1.2136 49.9361 1.13688 49.6682 1.09852 49.4004V49.3621V49.3238V49.2856V49.2473V49.209V49.1708C1.09852 49.1325 1.06017 49.0942 1.06017 49.0177V48.9794C1.06017 48.9794 1.06017 48.9412 1.06017 48.9029V48.8646L1.02181 48.7116C1.02181 48.7116 1.02181 48.7498 1.02181 48.7881C1.02181 48.7498 1.02181 48.7499 1.02181 48.7116C0.983452 48.5968 0.983452 48.5203 0.945095 48.3672C0.945095 48.2907 0.906738 48.2141 0.906738 48.1376L0.86838 47.9845C0.331379 45.306 -0.205621 39.8723 2.36431 33.6351C2.59446 33.0611 2.86296 32.4871 3.13146 31.9514C3.20817 31.7983 3.24653 31.6835 3.32324 31.5687V31.5305L3.3616 31.4539C3.39996 31.3774 3.43831 31.2626 3.51503 31.1861L3.59174 31.0713V31.033L3.6301 30.9947L3.66846 30.9565C3.74517 30.8417 3.78353 30.7269 3.86024 30.5738V30.5356V30.4973C4.09039 30.0764 4.32053 29.6937 4.58903 29.3111L4.62739 29.2728C4.66575 29.2345 4.7041 29.1963 4.7041 29.1197C4.78082 29.005 4.81917 28.9284 4.89589 28.8136C4.93425 28.7371 5.01096 28.6606 5.04932 28.584C5.12603 28.5075 5.16439 28.3927 5.2411 28.3162L5.43289 28.0866C5.5096 28.0101 5.54796 27.8953 5.62468 27.8187C5.70139 27.7039 5.7781 27.6274 5.85482 27.5126V27.4743L6.00825 27.2447C6.12332 27.0917 6.23839 26.9386 6.35346 26.7856L6.43018 26.6708L6.50689 26.5942C6.58361 26.4794 6.69868 26.3646 6.77539 26.2499C6.85211 26.1733 6.89046 26.0968 6.96718 26.0585C7.04389 25.9437 7.15896 25.8289 7.23568 25.7524L7.27404 25.7141C7.3124 25.6759 7.35075 25.6376 7.38911 25.5611C7.50418 25.4463 7.58089 25.3315 7.69597 25.2167L7.73432 25.1402L7.8494 25.0254C8.00283 24.8723 8.15625 24.681 8.30968 24.5279C19.4716 12.857 23.0772 8.34169 25.0334 3.59679V3.55852C25.1101 3.44373 26.7595 0.382504 29.0993 0.344238H29.1377C31.0172 0.344238 32.3597 1.68352 33.472 2.79322C33.7405 3.06108 34.009 3.32893 34.2775 3.55852C36.1954 5.2422 38.1132 7.0024 39.9544 8.68608C43.7518 12.13 47.6642 15.7269 51.7301 18.9412C58.6727 24.4514 62.8153 30.4208 64.0427 36.658C64.0811 36.8493 64.1194 37.0407 64.1578 37.232V37.2703V37.3085C64.1962 37.4998 64.2345 37.6529 64.2345 37.8442C64.2729 38.1504 64.3112 38.4565 64.3496 38.7626V38.8009L64.3879 39.0305V39.1453C64.3879 39.2983 64.4263 39.4514 64.4263 39.6044V39.6427V39.7192C64.4263 39.8723 64.4263 40.0636 64.4263 40.2167V40.255C64.4263 40.3315 64.4263 40.408 64.4263 40.5228V40.5993V40.6376V40.8289V40.8672V40.9055C64.4263 41.0585 64.4263 41.2116 64.4263 41.4029V41.5177V41.556C64.4263 41.709 64.4263 41.8238 64.3879 41.9769V42.0534V42.13L64.3496 42.3595C64.3496 42.3978 64.3496 42.4361 64.3496 42.4743V42.5126V42.6657V42.7039V42.7422C64.3496 42.9335 64.3112 43.1248 64.2729 43.3162V43.3544V43.3927V43.4692V43.5075C64.2345 43.6606 64.2345 43.8136 64.1962 43.9667V44.005L64.1578 44.1963V44.2345C64.1578 44.3111 64.1578 44.3493 64.1194 44.3876V44.4259L64.0811 44.5407V44.5789V44.6555L64.0427 44.7703C64.0044 44.9616 63.966 45.1529 63.9277 45.3442C62.5084 51.4284 58.9029 57.0917 53.9548 60.88C51.5766 62.6784 48.93 64.0942 46.0532 65.0509C45.9381 65.0891 45.8614 65.2039 45.823 65.3187C45.823 65.4335 45.8614 65.5866 45.9765 65.6249L46.0148 65.6631C46.0915 65.7014 46.1299 65.7396 46.2066 65.7779L46.2833 65.8162C46.4368 65.8927 46.5902 66.0075 46.7436 66.084C46.8203 66.1223 46.897 66.1988 46.9738 66.2371H47.0121C47.1655 66.3519 47.319 66.4284 47.434 66.5432L47.6642 66.6963C47.8176 66.8111 47.9711 66.9259 48.1245 67.0024L48.1628 67.0407C48.2395 67.0789 48.2779 67.1172 48.3163 67.1555C48.4697 67.2703 48.6615 67.4233 48.8149 67.5381C48.8149 67.5381 48.8149 67.5381 48.8533 67.5381L48.9683 67.6146C49.3903 67.959 49.8122 68.3034 50.1958 68.6861C50.3876 68.8774 50.5793 69.0687 50.7711 69.2218L50.8095 69.2601L50.8478 69.2983C51.0013 69.4514 51.1547 69.6044 51.3081 69.7958L51.3465 69.8723L51.3848 69.9106C51.5383 70.0636 51.6917 70.2167 51.8068 70.408L51.9218 70.5228C52.0753 70.6759 52.1903 70.8672 52.3438 71.0585L52.3821 71.0968L52.4205 71.1351C52.5739 71.3264 52.7273 71.5177 52.8808 71.7473C53.3794 72.3978 53.8397 73.1249 54.2233 73.8519C55.8726 76.7218 57.0617 80.1657 57.8289 84.3749C59.5166 93.5585 65.04 97.0024 65.1167 97.0407C65.2318 97.1172 65.3085 97.2703 65.2702 97.4233C64.8482 98.8391 63.9277 99.9106 62.5852 100.599C62.4701 100.638 62.3934 100.676 62.3167 100.752H62.2783C62.2016 100.791 62.1249 100.829 62.0098 100.867H61.9714C61.8564 100.905 61.7797 100.944 61.6646 100.982C60.8207 101.25 60.0152 101.403 59.4399 101.479L59.1714 101.518H59.0946H59.0179H58.9412H58.8645H58.7878H58.7494C58.7111 101.518 58.6727 101.556 58.6344 101.556C58.596 101.556 58.596 101.556 58.5576 101.594H58.5193C58.4809 101.633 58.4426 101.632 58.4426 101.632H58.4042C58.3659 101.671 58.3275 101.671 58.3275 101.709L58.2891 101.747C58.2508 101.747 58.2508 101.786 58.2124 101.824C58.1357 101.9 58.059 101.977 57.9823 102.053C57.9056 102.168 57.8289 102.245 57.7521 102.36C57.4069 102.857 57.1384 103.431 57.0234 103.737C56.985 103.814 56.985 103.852 57.0234 103.928C57.2919 105.536 59.0946 108.252 59.0946 108.291C59.1714 108.405 59.1714 108.597 59.0563 108.712C57.1384 110.701 54.3383 111.428 52.3438 111.696C52.1903 111.735 52.0369 111.849 52.0369 112.041C52.1903 117.053 51.615 121.645 51.5383 122.181C51.5383 122.296 51.4616 122.372 51.3848 122.411C48.0094 124.592 45.2093 124.783 45.171 124.783H45.0175C44.2888 124.821 43.4065 124.898 42.5243 124.898C40.2996 124.898 38.7653 124.477 37.8064 123.597C37.116 122.946 37.0009 122.258 37.0776 121.837C37.1927 120.65 38.3434 119.655 39.3407 119.081C39.4557 119.043 39.5325 118.967 39.6475 118.928C39.7242 118.89 39.7626 118.814 39.801 118.775C39.8777 118.622 39.916 118.469 39.9927 118.278C40.0311 118.163 40.0311 118.087 39.9544 117.972C39.916 117.895 39.801 117.819 39.6859 117.819C39.4557 117.78 39.2256 117.78 38.9955 117.742C37.4228 117.551 35.3515 117.245 33.4337 116.326C33.0884 116.173 32.8199 116.02 32.5514 115.829C32.5131 115.791 32.4364 115.791 32.3597 115.791C32.2829 115.791 32.2446 115.791 32.1679 115.829C32.0528 115.905 32.0144 116.02 32.0144 116.173C32.2829 117.436 32.5131 118.469 32.7816 119.235C32.8199 119.311 32.8583 119.388 32.935 119.426C33.0501 119.502 33.1652 119.541 33.2419 119.617C34.2008 120.229 35.2748 121.301 35.3899 122.449C35.4282 122.908 35.3132 123.597 34.5844 124.209C33.7022 124.974 32.3597 125.357 30.4802 125.357Z" fill="#838080"/>
<path d="M21.3125 122.258C21.3125 122.258 20.6988 115.906 21.4659 109.86L31.0169 111.199C31.0169 111.199 31.8991 119.235 33.2416 120.689L21.3125 122.258Z" fill="#838080"/>
<path d="M21.4288 109.86C20.6617 115.906 21.2754 122.258 21.2754 122.258L23.0015 122.028C22.196 119.158 22.2343 115.944 22.3494 114.107C23.27 114.299 24.459 114.452 25.8399 114.452C27.6043 114.452 29.7907 114.643 31.4784 114.873C31.1332 112.883 30.9798 111.199 30.9798 111.199L21.4288 109.86Z" fill="#838080"/>
<path d="M21.3125 122.258C21.3125 122.258 23.3838 118.852 28.025 118.623C29.8278 118.546 31.6306 118.967 33.1649 119.924C34.6225 120.842 36.0417 122.64 34.4307 123.98C32.6662 125.472 29.3675 125.051 27.2579 124.783C27.2579 124.783 24.5345 124.515 21.3125 122.258Z" fill="#838080"/>
<path d="M24.5742 120.574C24.5742 120.574 28.525 117.398 33.2046 120.689C33.2046 120.689 30.0977 119.885 24.5742 120.574Z" fill="#838080"/>
<path d="M51.2313 122.181C51.2313 122.181 52.1135 115.867 51.6149 109.821L42.0256 110.816C42.0256 110.816 40.7981 118.814 39.3789 120.229L51.2313 122.181Z" fill="#838080"/>
<path d="M51.6157 109.783C52.1527 115.829 51.2321 122.143 51.2321 122.143L49.506 121.837C50.4266 119.005 50.5417 115.791 50.5033 113.954C49.5827 114.107 48.3937 114.222 46.9744 114.145C45.21 114.069 43.0237 114.184 41.3359 114.337C41.7579 112.385 41.988 110.702 41.988 110.702L51.6157 109.783Z" fill="#838080"/>
<path d="M51.2327 122.181C51.2327 122.181 49.2765 118.699 44.6736 118.316C42.8708 118.163 41.0297 118.508 39.4954 119.426C37.9995 120.268 36.5419 122.066 38.0378 123.444C39.7255 124.974 43.0626 124.707 45.1723 124.515C45.1723 124.477 47.8956 124.324 51.2327 122.181Z" fill="#838080"/>
<path d="M48.0093 120.383C48.0093 120.383 44.2119 117.053 39.3789 120.153C39.3789 120.191 42.5242 119.502 48.0093 120.383Z" fill="#838080"/>
<path d="M15.9431 104.962C15.9431 104.962 14.9458 106.569 13.9102 107.181C13.9102 107.181 13.9869 108.291 15.4061 108.635C15.4061 108.635 16.1732 110.357 20.9295 111.314C25.6858 112.309 26.6064 111.505 28.7544 111.926C30.9024 112.347 41.2205 117.245 49.6207 111.544C49.6207 111.544 55.5661 111.888 58.8648 108.521C58.8648 108.521 56.8702 105.498 56.7168 103.852C56.525 102.169 56.2182 98.3037 56.2182 98.3037L54.6839 86.3267L46.859 72.4747L40.5684 66.3139C40.5684 66.3139 35.6971 65.0512 35.2368 65.319C34.7765 65.5869 29.4448 69.2604 29.4448 69.2604C29.4448 69.2604 18.7048 85.5996 18.7048 86.0206C18.6665 86.4415 17.1705 96.0078 17.1705 96.0078L15.9431 104.962Z" fill="#838080"/>
<path d="M15.9431 104.962C15.9431 104.962 14.9458 106.569 13.9102 107.181C13.9102 107.181 13.9869 108.291 15.4061 108.635C15.4061 108.635 16.1732 110.357 20.9295 111.314C25.6858 112.309 26.6064 111.505 28.7544 111.926C30.9024 112.347 41.2205 117.245 49.6207 111.543C49.6207 111.543 55.5661 111.888 58.8648 108.52C58.8648 108.52 56.8702 105.497 56.7168 103.852C56.525 102.168 56.2182 98.3034 56.2182 98.3034L55.451 92.181L18.1295 89.9233C17.7075 92.7167 17.1705 95.931 17.1705 95.931L15.9431 104.962Z" fill="#838080"/>
<path d="M22.5787 90.8799C22.5787 90.8799 21.5814 101.441 16.9785 108.75C16.9785 108.75 20.3156 111.314 24.7267 110.587C24.7267 110.587 27.4884 97.6529 27.1048 92.5253L22.5787 90.8799ZM29.7898 94.2473L28.524 93.5968L28.2172 96.1605C26.913 104.847 27.5268 110.625 27.5268 110.625C28.9843 110.587 30.557 111.237 30.557 111.237C28.2939 105.344 29.7898 94.2473 29.7898 94.2473ZM51.9219 90.0381L48.815 92.8697C48.815 92.8697 51.7302 101.594 50.2726 109.936C50.2726 109.936 53.5713 110.969 57.2536 108.023C57.292 108.023 52.8425 100.446 51.9219 90.0381Z" fill="#838080"/>
<path d="M49.545 107.449C49.6218 107.334 49.6601 107.219 49.6601 107.066C49.6985 106.913 49.6601 106.798 49.6218 106.684C49.6218 106.607 49.5834 106.531 49.5834 106.454C49.5834 106.416 49.5834 106.416 49.545 106.378C49.545 106.339 49.5067 106.263 49.4683 106.224C49.4683 106.186 49.43 106.186 49.43 106.148C49.43 106.11 49.3916 106.071 49.3916 106.033C49.5067 103.584 49.2765 101.059 47.7423 98.9923C47.4354 98.5714 47.0518 98.1888 46.6299 97.8444C46.8984 97.653 47.2436 97.5382 47.4354 97.3852C47.9724 97.0408 48.3176 96.4668 48.5478 95.9311C48.8163 95.3954 49.008 94.7831 49.1998 94.1709C49.7368 93.6734 52.4218 91.1479 53.0739 88.0867C53.8027 84.6811 48.356 79.1709 48.356 79.1709C48.356 79.1709 47.8573 84.6428 44.4052 89.9235C44.4052 89.9235 43.7915 90.3061 43.8298 90.8035C43.8298 90.8035 43.9065 90.8035 44.0216 90.7653C43.9065 90.9566 43.7915 91.1479 43.523 91.1862C43.2928 91.2245 43.0627 91.3393 42.8325 91.4158C42.3339 91.6454 41.8736 91.9898 41.49 92.3342C40.9914 92.7933 40.5311 93.2908 40.1475 93.8648C40.1092 93.8265 40.0708 93.7882 40.0325 93.75C39.6872 93.3673 39.2653 93.0612 38.8817 92.7168C38.1529 92.1046 37.2324 91.5306 36.3118 91.2245C36.3885 91.2245 36.4269 91.2245 36.5036 91.2245C36.5036 91.2245 34.9309 90.4209 33.8953 89.6173C32.8597 88.8138 27.8732 84.6046 27.4513 79.8979L23.5388 82.653L21.084 86.8622C21.084 86.8622 22.8101 90.3061 25.6101 92.5255C28.7171 94.9745 31.3254 95.4719 31.3254 95.4719C31.3254 95.4719 31.3637 95.4336 31.4021 95.3571C31.5939 96.4668 32.3994 97.5 33.4734 97.8061C31.7089 99.4132 30.75 101.786 30.7116 104.158C30.6733 104.196 30.6733 104.235 30.6349 104.273C30.6349 104.311 30.5966 104.311 30.5966 104.349C30.5582 104.388 30.5582 104.426 30.5199 104.426C30.5199 104.464 30.4815 104.503 30.4815 104.541C30.4815 104.579 30.4431 104.617 30.4431 104.617C30.4431 104.656 30.4048 104.694 30.4048 104.732C30.4048 104.77 30.3664 104.77 30.3664 104.809C30.3281 104.885 30.3281 104.962 30.2897 105.038C30.1746 105.689 30.5582 106.263 31.0569 106.722C31.0569 109.247 31.3254 111.429 31.5555 112.844C35.2762 113.992 41.5667 115.523 47.3587 112.844C47.8957 111.467 48.2793 110.013 48.5478 108.559C49.008 108.253 49.3533 107.908 49.545 107.449ZM39.3037 98.6862L39.2653 98.801C39.2653 98.7627 39.2653 98.7245 39.2653 98.6862H39.3037ZM47.2053 104.388C45.0572 103.393 42.6791 102.972 40.3393 102.704C37.9995 102.436 35.5447 102.398 33.2432 102.895C33.0131 102.934 32.7829 103.01 32.5528 103.087C32.5528 103.048 32.5528 103.048 32.5528 103.01C32.5911 102.857 32.5911 102.704 32.6295 102.551V102.474C32.6679 102.321 32.7062 102.168 32.7446 102.015V101.977C32.7829 101.824 32.8597 101.671 32.898 101.518C32.9747 101.365 33.0131 101.212 33.0898 101.097L33.1282 101.059C33.2049 100.906 33.2816 100.791 33.3583 100.638L33.3967 100.599C33.4734 100.485 33.5501 100.332 33.6268 100.217L33.6652 100.179C33.7419 100.064 33.8569 99.9107 33.9337 99.7959V99.7576C34.1254 99.4898 34.3556 99.2602 34.6241 99.0306C34.7392 98.9158 34.8542 98.8393 34.9693 98.7245C35.0077 98.801 35.0077 98.8775 34.9693 98.9158C34.8159 99.2985 34.5857 99.6046 34.3556 99.949C34.3172 99.9872 34.3556 100.025 34.3939 100.064C35.046 100.485 35.9666 100.561 36.6954 100.217C37.4625 100.179 38.268 100.293 38.8434 99.6811C38.8817 99.7194 38.9201 99.7194 38.9584 99.6811C39.3804 99.4898 39.764 99.2219 40.0325 98.8775L40.0708 98.9158C40.301 98.7245 40.4927 98.5331 40.6845 98.3036C40.7612 98.3036 40.8763 98.3418 40.953 98.3418C41.1065 98.3418 41.1065 98.4566 41.1448 98.5714C41.2215 98.7627 41.4133 98.8775 41.6051 98.9541C41.912 99.1071 42.3339 99.1837 42.6791 99.0689C42.6791 99.1071 42.7175 99.1071 42.7558 99.0689V99.1071C43.101 99.4898 43.7531 99.6811 44.175 99.375C44.2134 99.4132 44.2517 99.375 44.2901 99.3367L44.3668 99.4132V99.4515C44.9038 99.7959 45.4025 99.8724 46.0162 99.7576C46.0545 99.7576 46.0545 99.7194 46.0929 99.7194C46.1313 99.7576 46.208 99.8342 46.2463 99.8724C47.3587 101.135 47.6272 102.857 47.6272 104.541C47.5121 104.541 47.3587 104.464 47.2053 104.388Z" fill="#838080"/>
<path d="M54.6834 86.3267L46.8586 72.4747L40.568 66.3139C40.568 66.3139 35.6966 65.0512 35.2363 65.319C34.776 65.5869 29.4444 69.2604 29.4444 69.2604C29.4444 69.2604 18.7044 85.5996 18.7044 86.0206C18.666 86.4415 17.1701 96.0078 17.1701 96.0078L15.981 105.038C15.981 105.038 15.9427 105.077 15.9043 105.153L16.1344 105.191C16.1344 105.191 19.2414 99.9874 20.5839 93.3292C21.9264 86.6328 28.8307 81.3905 31.4773 78.7884C34.124 76.1864 36.4638 74.2731 37.3076 70.0257L37.5378 68.5333C37.5378 68.5333 41.2584 74.0053 44.7106 76.99C48.1627 79.9746 52.2286 84.49 53.4944 93.9415C54.0697 98.342 55.3739 101.556 56.7547 103.776C56.563 102.015 56.2561 98.3803 56.2561 98.3803L54.6834 86.3267Z" fill="#838080"/>
<path d="M43.8287 70.829C42.3711 68.5331 38.8806 68.2652 37.423 65.9311C37.2312 65.6249 36.7326 65.7397 36.6942 66.0459V66.0841C35.5052 68.4566 32.0147 68.8775 30.8256 71.2499C29.9434 72.9719 31.3626 74.5408 33.3955 74.7704C35.8887 75.0382 37.0011 72.8953 37.308 70.676C37.8833 72.8188 39.1875 74.8086 41.6423 74.4642C43.6369 74.1581 44.8643 72.551 43.8287 70.829ZM33.4339 74.0816C32.2448 74.0433 31.2859 73.3163 31.2859 72.2831C31.2859 71.2499 32.2064 70.4846 33.0503 69.9107C34.2394 69.0688 35.5435 68.4948 36.4641 67.5382C36.9244 69.6045 36.6559 74.1964 33.4339 74.0816ZM37.0394 67.0408C37.0011 67.0408 37.0011 67.0025 36.9627 67.0025C37.0011 66.926 37.0778 66.8494 37.1162 66.7729C37.1545 66.8112 37.1929 66.8494 37.2312 66.8877C37.1545 66.926 37.0778 66.9642 37.0394 67.0408ZM41.4889 73.8137C38.3052 74.0433 37.5381 69.4897 37.7682 67.4234C38.8039 68.3418 40.1464 68.8392 41.4505 69.6428C42.3711 70.1785 43.33 70.9056 43.4451 71.9387C43.5218 72.9336 42.6396 73.6989 41.4889 73.8137ZM37.6915 78.2525C38.1902 78.2908 38.6505 78.1377 38.9957 77.8698C39.571 77.602 39.9546 77.0663 39.993 76.4158C40.0697 75.4209 39.2642 74.579 38.2285 74.5408C38.1518 74.5408 38.0367 74.5408 37.96 74.5408H37.9217C36.8477 74.4642 35.8887 75.2678 35.8504 76.2627C35.7737 77.2959 36.6175 78.176 37.6915 78.2525ZM38.3052 79.4387C38.2285 79.4387 38.1135 79.4387 38.0367 79.4387H37.9984C36.9244 79.3622 35.9654 80.1658 35.9271 81.1607C35.8504 82.1938 36.6942 83.0739 37.7682 83.1505C38.2669 83.1887 38.7272 83.0357 39.0724 82.7678C39.6477 82.4999 40.0313 81.9642 40.0697 81.3137C40.108 80.3571 39.3409 79.5152 38.3052 79.4387Z" fill="#838080"/>
<path d="M39.8021 76.1096C39.7253 77.1428 38.8048 77.9081 37.7308 77.8698C36.6568 77.7933 35.8129 76.9132 35.8896 75.88C35.9663 74.8469 36.8869 74.0816 37.9609 74.1581C39.0733 74.1964 39.8788 75.0765 39.8021 76.1096Z" fill="#838080"/>
<path d="M40.0319 75.9948C39.9552 76.9897 39.0729 77.7167 38.0373 77.6402C37.0017 77.5637 36.2345 76.7218 36.2729 75.7652C36.3496 74.7703 37.2318 74.0433 38.2674 74.1198C39.3414 74.1963 40.1086 75.0382 40.0319 75.9948Z" fill="#838080"/>
<path d="M38.6891 75.0383C38.6891 75.2679 38.459 75.4592 38.1905 75.4592C37.922 75.4592 37.7302 75.2296 37.7686 75C37.7686 74.7704 37.9987 74.5791 38.2672 74.5791C38.5357 74.5791 38.7275 74.8087 38.6891 75.0383Z" fill="#838080"/>
<path d="M38.5739 76.7219C38.5739 76.9515 38.3438 77.1428 38.0753 77.1428C37.8068 77.1428 37.615 76.9132 37.6533 76.6836C37.6533 76.454 37.8835 76.2627 38.152 76.2627C38.4205 76.2627 38.6123 76.4923 38.5739 76.7219Z" fill="#838080"/>
<path d="M39.8392 81.0078C39.7624 82.0409 38.8419 82.8062 37.7679 82.7297C36.6939 82.6532 35.85 81.7731 35.9267 80.7399C36.0034 79.7067 36.924 78.9414 37.998 79.018C39.072 79.0945 39.9159 79.9746 39.8392 81.0078Z" fill="#838080"/>
<path d="M40.0709 80.9313C39.9942 81.9262 39.112 82.6532 38.0764 82.5767C37.0407 82.5002 36.2736 81.6583 36.3119 80.7017C36.3886 79.7068 37.2709 78.9798 38.3065 79.0563C39.3421 79.0946 40.1476 79.9364 40.0709 80.9313Z" fill="#838080"/>
<path d="M38.7282 79.9743C38.7282 80.2039 38.4981 80.3952 38.2296 80.3952C37.9611 80.3952 37.7693 80.1656 37.8076 79.9361C37.8076 79.7065 38.0378 79.5151 38.3063 79.5151C38.5364 79.5151 38.7282 79.7447 38.7282 79.9743Z" fill="#838080"/>
<path d="M38.613 81.6584C38.613 81.888 38.3828 82.0793 38.1143 82.0793C37.8458 82.0793 37.654 81.8497 37.6924 81.6201C37.6924 81.3905 37.9225 81.1992 38.191 81.1992C38.4212 81.1992 38.613 81.4288 38.613 81.6584Z" fill="#838080"/>
<path d="M46.3601 104.847C45.7081 104.809 41.7573 104.196 40.0695 104.12C38.9955 104.043 37.0777 104.541 35.7352 105C35.6968 104.847 35.6968 104.732 35.6968 104.732C35.6968 104.464 31.5926 104.082 31.5926 104.082C31.3241 109.362 32.4365 113.571 32.4365 113.571C32.3214 114.681 35.2749 115.906 39.0723 116.326C40.6833 116.518 42.3326 116.556 43.9436 116.288C44.4806 116.212 45.0176 116.097 45.4779 115.829C45.9382 115.599 46.0149 115.37 46.2834 114.949C47.9711 112.232 48.8533 109.247 49.2369 106.071C49.2753 106.11 47.0122 104.885 46.3601 104.847Z" fill="#838080"/>
<path d="M32.3223 107.219C32.3223 107.219 40.1088 110.701 47.9337 108.712C47.9337 108.712 47.8953 112.041 45.5555 115.408C45.5555 115.408 40.4924 117.436 33.6264 114.375C33.6264 114.375 32.399 111.543 32.3223 107.219Z" fill="#838080"/>
<path d="M44.5576 113.878L45.9768 112.921L46.5905 113.419C46.4754 113.189 46.322 112.998 46.1686 112.806L46.5905 112.5C46.4371 112.577 46.2453 112.653 46.0919 112.73C45.8617 112.424 45.6316 112.156 45.3631 111.926L46.6289 111.046C46.1686 111.123 45.6316 111.39 45.1329 111.697C44.9795 111.582 44.8644 111.467 44.711 111.352C44.5959 111.237 44.4041 111.123 44.2124 110.97L45.7466 109.86C45.0946 110.089 44.4425 110.357 43.8288 110.74C43.4452 110.51 43.0616 110.357 42.7548 110.396L43.4452 110.97C42.9082 111.276 42.4479 111.658 41.9876 112.041C41.4506 111.735 40.952 111.505 40.415 111.276L41.7575 112.232C41.1438 112.806 40.5684 113.38 40.1465 113.993L42.1411 112.5L43.0233 113.151C42.4479 113.61 41.8726 114.107 41.489 114.643L43.3301 113.342L44.2124 113.993C44.0206 114.146 43.8288 114.337 43.637 114.528L44.2891 114.069L45.5549 114.949C45.248 114.528 44.9028 114.184 44.5576 113.878ZM42.4096 112.232L43.8288 111.199L44.711 111.888C44.3274 112.156 43.9439 112.424 43.637 112.615C43.5219 112.692 43.4068 112.768 43.3301 112.845C43.0233 112.653 42.7164 112.424 42.4096 112.232ZM43.637 113.074L45.0179 112.118L45.8617 112.806C45.3247 113.074 44.8644 113.38 44.4425 113.763C44.174 113.533 43.9055 113.304 43.637 113.074Z" fill="#838080"/>
<path d="M42.8707 110.931L41.3364 111.275L42.0652 111.696L42.8707 110.931ZM44.3282 111.926L43.7912 111.582L42.909 112.194L43.3693 112.615L44.3282 111.926ZM45.4406 112.844L44.9803 112.576L44.1364 113.112L44.52 113.533L45.4406 112.844ZM45.6324 114.451L45.9392 113.342L44.9803 113.877L45.6324 114.451ZM44.0981 114.604L45.0187 114.758L44.3666 114.337L44.0981 114.604ZM42.4104 114.26L43.4844 114.298L43.8679 113.916L43.3309 113.571L42.4104 114.26ZM42.1035 112.729L41.0679 113.533L41.835 113.877L42.6022 113.15L42.1035 112.729ZM40.8377 111.926L40.7227 112.844L41.298 112.27L40.8377 111.926ZM46.0543 110.931L44.6735 110.854L45.1337 111.237L46.0543 110.931ZM45.7858 111.888L46.0927 112.309L46.3995 111.505L45.7858 111.888Z" fill="#838080"/>
<path d="M34.1238 114.375L35.006 113.763L35.3896 114.145C35.3129 113.992 35.1978 113.839 35.0827 113.724L35.7348 113.265L36.8088 114.337C36.617 113.916 36.2718 113.495 35.965 113.112L36.617 112.653L37.8061 113.878C37.576 113.38 37.2691 112.883 36.8855 112.462L37.9212 111.735C37.5376 111.888 37.154 112.079 36.7705 112.309C36.502 112.003 36.2335 111.735 35.9266 111.467L36.4636 111.046C36.2718 111.008 36.0033 111.122 35.7348 111.276C35.3896 111.008 35.006 110.778 34.6225 110.625L35.4663 111.467C35.3129 111.582 35.1978 111.658 35.1211 111.735C35.006 111.811 34.9293 111.888 34.8142 112.003C34.5457 111.773 34.2389 111.582 33.9704 111.505L34.6225 112.156C34.4307 112.347 34.2772 112.538 34.0854 112.73C34.0087 112.653 33.8937 112.615 33.8169 112.538L34.0471 112.768C33.932 112.921 33.8169 113.074 33.7402 113.227L34.1622 112.883L34.9293 113.648C34.5841 113.878 34.354 114.107 34.1238 114.375ZM35.7348 112.921C35.6581 112.844 35.6197 112.806 35.543 112.73C35.3896 112.577 35.1595 112.347 34.9677 112.156L35.6197 111.658L36.4252 112.462C36.1951 112.615 35.965 112.768 35.7348 112.921ZM34.9293 113.571C34.6992 113.304 34.4307 113.036 34.1622 112.844L34.7375 112.385L35.5047 113.112C35.3129 113.265 35.1211 113.418 34.9293 113.571Z" fill="#838080"/>
<path d="M36.7324 112.079L37.2694 111.773L36.2721 111.467L36.7324 112.079ZM35.7351 112.768L36.0804 112.462L35.5817 111.964L35.1981 112.194L35.7351 112.768ZM34.8913 113.38L35.1981 113.074L34.7378 112.653L34.431 112.844L34.8913 113.38ZM34.5844 113.648L34.0474 113.227L34.1241 114.03L34.5844 113.648ZM34.9296 113.992L34.4693 114.298L35.0447 114.222L34.9296 113.992ZM35.6584 113.495L35.2749 113.724L35.4666 114.03H36.1954L35.6584 113.495ZM36.1571 113.189L36.579 113.801L37.1544 113.571L36.5406 112.921L36.1571 113.189ZM37.1544 112.538L37.4612 112.997V112.27L37.1544 112.538ZM34.7762 111.696L35.1214 111.39L34.2776 111.428L34.7762 111.696ZM33.9707 111.849L34.0858 112.423L34.3159 112.117L33.9707 111.849Z" fill="#838080"/>
<path d="M46.6295 114.49C46.5144 114.681 46.3993 114.872 46.2459 115.064C46.0158 115.37 45.7473 115.638 45.3253 115.752C44.7883 115.982 43.8678 116.135 43.5226 116.173C42.065 116.403 40.569 116.326 39.1115 116.173C37.6539 116.02 36.1963 115.714 34.8155 115.217C33.9716 114.911 33.0127 114.566 32.5524 113.724C32.514 113.648 32.2072 112.883 32.2455 112.844C31.9387 113.112 31.7085 113.456 31.6318 113.877C31.44 114.911 32.7825 115.714 33.5497 116.097C35.2374 116.9 37.1169 117.245 38.9964 117.474C40.8375 117.704 42.7938 117.704 44.6349 117.321C45.5555 117.13 46.5528 116.709 46.898 115.867C46.9363 115.791 46.9747 115.676 46.9747 115.561C47.0131 115.446 46.9747 115.331 46.9363 115.255C46.9363 114.949 46.7446 114.681 46.6295 114.49Z" fill="#838080"/>
<path d="M32.5137 114.796L33.3959 115.829C33.3959 115.829 35.3905 116.403 35.5439 116.403C35.6973 116.403 38.0755 117.054 38.0755 117.054L40.9139 117.015C40.9139 117.015 45.2866 116.709 45.3633 116.671C45.4401 116.633 45.9387 116.25 45.9387 116.25C45.9387 116.25 43.5606 116.977 39.6865 116.786C35.8507 116.633 32.5137 114.796 32.5137 114.796Z" fill="#838080"/>
<path d="M45.7467 116.365C44.6727 116.747 42.6781 117.13 39.4561 116.939C35.3903 116.709 33.0505 115.217 32.1299 114.451C31.9381 114.298 31.7463 114.107 31.6312 113.877C31.4778 114.911 32.8203 115.676 33.5491 116.059C35.2368 116.862 37.1163 117.207 38.9958 117.436C40.837 117.666 42.7932 117.666 44.6343 117.283C45.5549 117.092 46.5522 116.671 46.8974 115.829C46.9358 115.752 46.9741 115.676 46.9741 115.561C46.7056 115.906 46.2453 116.212 45.7467 116.365Z" fill="#838080"/>
<path d="M40.7979 116.441C40.7979 116.518 40.7979 116.594 40.8362 116.671L41.6034 116.709C41.6034 116.671 41.565 116.518 41.565 116.441C41.2965 116.403 41.028 116.403 40.7979 116.441ZM41.8719 116.479C41.7184 116.518 41.7951 116.594 41.7951 116.709H42.5623C42.5623 116.633 42.5239 116.556 42.5239 116.479C42.3705 116.479 42.0636 116.403 41.8719 116.479ZM39.7239 116.365C39.7239 116.479 39.7239 116.594 39.7239 116.671L40.5294 116.709C40.491 116.633 40.5294 116.518 40.5294 116.441C40.2609 116.365 39.9924 116.365 39.7239 116.365ZM42.9075 116.403C42.7541 116.441 42.7924 116.518 42.8308 116.671L43.5596 116.556C43.5596 116.479 43.5212 116.403 43.4829 116.326C43.3294 116.326 43.0609 116.365 42.9075 116.403ZM45.1322 115.982C44.9788 115.944 44.787 116.135 44.6336 116.135C44.6719 116.25 44.6719 116.326 44.7103 116.441L45.4774 116.326C45.4774 116.25 45.2089 115.982 45.1322 115.982ZM43.7514 116.25C43.7514 116.326 43.7514 116.479 43.7897 116.518L44.5185 116.479C44.4801 116.365 44.4418 116.288 44.4034 116.173C44.2117 116.212 43.9815 116.212 43.7514 116.25ZM38.5348 116.288C38.5348 116.365 38.5348 116.518 38.5348 116.594L39.3403 116.671C39.3403 116.594 39.3403 116.441 39.3403 116.365C39.1101 116.326 38.8416 116.288 38.5348 116.288ZM34.584 115.255C34.4689 115.255 34.4306 115.37 34.3922 115.485L35.0826 115.752C35.121 115.714 35.1977 115.485 35.2361 115.408C35.0826 115.332 34.7758 115.217 34.584 115.255ZM33.6251 114.796C33.51 114.872 33.4333 114.987 33.3566 115.102L34.1621 115.408C34.2004 115.332 34.2388 115.102 34.2388 114.987C34.047 114.911 33.8168 114.872 33.6251 114.796ZM33.0113 114.375C32.8963 114.375 32.7045 114.528 32.5511 114.528L33.2031 114.987C33.3182 114.872 33.3949 114.758 33.4716 114.681C33.4333 114.604 33.1264 114.375 33.0113 114.375ZM36.5402 115.867C36.4251 115.905 36.5018 116.02 36.4251 116.135L37.2306 116.326C37.2306 116.212 37.269 116.097 37.269 115.982C37.1539 115.944 36.6936 115.829 36.5402 115.867ZM38.3046 116.173C38.1512 116.059 37.7293 116.059 37.5758 116.097C37.5375 116.212 37.5758 116.326 37.5375 116.403L38.343 116.518C38.343 116.556 38.3813 116.326 38.3813 116.288C38.343 116.173 38.3813 116.25 38.3046 116.173ZM35.4278 115.867L36.1566 116.059C36.1566 115.944 36.195 115.867 36.195 115.752C36.0032 115.638 35.7347 115.599 35.5046 115.561C35.4662 115.638 35.4662 115.752 35.4278 115.867ZM45.4391 115.905C45.3624 116.02 45.5158 116.097 45.5542 116.212L46.1295 116.02C46.0144 115.944 45.8994 115.829 45.8227 115.714C45.7459 115.752 45.5158 115.829 45.4391 115.905ZM46.3213 115.255C46.2062 115.293 46.1295 115.485 46.0144 115.561C46.0528 115.676 46.1679 115.791 46.2446 115.905L46.7432 115.599C46.7049 115.485 46.4364 115.255 46.3213 115.255ZM46.6282 114.796C46.5514 114.872 46.4364 115.025 46.4747 115.102C46.4747 115.102 46.6282 115.217 46.6665 115.217C46.7432 115.293 46.7816 115.37 46.8583 115.446L46.935 115.293C46.8583 115.102 46.7816 114.949 46.6282 114.796ZM32.3976 113.763C32.2442 113.801 32.0524 113.992 31.9757 114.107L32.3976 114.413C32.3976 114.298 32.6661 114.145 32.7428 114.069C32.5511 113.992 32.6278 113.724 32.3976 113.763ZM32.3593 113.571C32.2825 113.457 32.2826 113.265 32.2058 113.15C31.9373 113.265 31.9373 113.533 31.8223 113.763L31.8606 113.954C32.014 113.763 32.2058 113.61 32.3593 113.571Z" fill="#838080"/>
<path d="M49.3134 105.957C49.1599 107.372 45.0557 108.099 40.146 107.564C35.2746 107.028 31.4389 105.459 31.5923 104.043C31.7841 102.627 35.85 101.9 40.7597 102.436C45.6694 102.934 49.5052 104.502 49.3134 105.957Z" fill="#838080"/>
<path d="M47.4734 106.875C46.6296 105.153 44.7117 104.082 42.2952 103.929C42.2568 103.929 42.1801 103.929 42.1418 103.929C42.1034 103.929 42.1034 103.929 42.065 103.929H41.9883C41.4513 103.623 40.7609 103.431 40.0321 103.393C39.0732 103.316 38.1142 103.546 37.4622 103.967C37.3471 103.967 37.1937 103.929 37.0786 103.929C35.621 103.852 34.3552 104.197 33.4347 104.962C33.3579 105.038 33.2812 105.191 33.3579 105.306C33.3963 105.383 33.473 105.459 33.5497 105.498L35.0457 106.492C35.084 106.531 35.1224 106.531 35.1607 106.531L36.3498 106.76C36.3498 106.837 36.3498 106.913 36.3882 106.99C36.4265 107.066 36.5032 107.105 36.6183 107.143C38.2293 107.373 40.6842 107.717 40.8376 107.755C40.876 107.755 40.9143 107.755 40.9527 107.755C41.2979 107.794 42.5637 107.602 42.9473 107.526L47.0131 107.411C47.0515 107.449 47.0898 107.449 47.1666 107.449C47.2816 107.449 47.3967 107.411 47.4734 107.296C47.5118 107.143 47.5118 106.99 47.4734 106.875Z" fill="#838080"/>
<path d="M42.1019 104.235L41.8334 104.197C40.8362 103.584 38.5731 103.508 37.5374 104.273C36.1566 104.12 34.699 104.273 33.625 105.153L35.1976 106.186L36.7319 106.492L36.6169 106.76C36.6169 106.76 40.6827 107.334 40.8745 107.373C41.0663 107.411 42.5239 107.22 42.8691 107.143L47.1267 107.028C46.1678 105.077 44.2116 104.426 42.1019 104.235Z" fill="#838080"/>
<path d="M37.5374 104.235C36.1566 104.043 34.699 104.235 33.625 105.153V105.191C35.1976 104.043 37.2689 104.158 39.0717 104.617C38.6114 104.464 38.1128 104.35 37.6141 104.273C38.7265 103.546 40.6827 103.584 41.8334 104.196C40.6827 103.469 38.6882 103.431 37.5374 104.235ZM47.2035 107.028C46.3212 105.191 44.2116 104.311 42.1403 104.235C42.1019 104.235 42.1019 104.273 42.1403 104.273C43.1376 104.426 44.1349 104.579 45.0555 105.038C45.976 105.497 46.6665 106.225 47.1267 107.066C47.1267 107.105 47.2035 107.066 47.2035 107.028Z" fill="#838080"/>
<path d="M50.1198 105.612C49.928 104.503 48.7006 103.776 47.7033 103.316C45.5553 102.321 43.1771 101.901 40.8374 101.633C38.4976 101.365 36.0427 101.327 33.7413 101.824C32.4755 102.092 31.0563 102.628 30.7878 103.967C30.5193 105.23 32.2453 106.186 33.2426 106.645C35.3906 107.64 37.7688 108.061 40.1086 108.329C42.4484 108.597 44.9032 108.635 47.2047 108.138C48.3554 107.908 49.6212 107.411 50.0431 106.339C50.1198 106.225 50.1582 106.11 50.1582 105.957C50.1965 105.842 50.1582 105.727 50.1198 105.612ZM45.7471 106.799C43.9059 107.066 42.0264 106.952 40.1853 106.76C38.3441 106.569 36.503 106.186 34.7769 105.574C34.2783 105.383 32.3988 104.77 32.4371 104.082C32.4755 103.584 34.6618 103.24 35.1605 103.202C37.0016 102.934 38.8811 103.049 40.7223 103.24C42.5634 103.431 44.4046 103.814 46.1307 104.426C46.6293 104.617 48.5088 105.23 48.4704 105.918C48.3937 106.416 46.3224 106.684 45.7471 106.799Z" fill="#838080"/>
<path d="M37.8067 102.589L42.1794 102.972L47.1275 104.273L48.2399 104.77L48.47 104.464C48.47 104.464 46.0919 102.972 41.2588 102.321C36.4258 101.671 32.9353 102.627 32.9353 102.627L32.2833 103.546L34.1244 103.087L37.8067 102.589ZM40.952 107.564C36.0806 107.334 31.8613 105.115 31.8613 105.115L32.9737 106.339C32.9737 106.339 35.5053 107.028 35.6971 107.066C35.8888 107.066 38.8807 107.832 38.8807 107.832L42.4479 107.793C42.4479 107.793 47.9714 107.449 48.0864 107.411C48.2015 107.372 48.8152 106.913 48.8152 106.913C48.8152 106.913 45.8234 107.793 40.952 107.564Z" fill="#838080"/>
<path d="M50.1191 105.612C50.0424 105.268 49.889 104.962 49.6972 104.694C49.5821 104.923 49.2752 105.574 49.1218 105.65C49.0451 105.689 48.6999 105.65 48.3547 105.574C48.4314 105.689 48.4697 105.765 48.4697 105.88C48.4314 106.071 48.1245 106.224 47.741 106.377C47.856 106.454 48.3163 106.76 48.5465 107.028C47.1656 107.449 44.6724 107.946 40.6065 107.717C35.4283 107.411 32.4748 105.574 31.3624 104.694C31.5926 104.617 32.0528 104.502 32.5515 104.388C32.4748 104.273 32.4364 104.196 32.4364 104.081C32.4364 103.967 32.5515 103.89 32.7049 103.775C32.5131 103.699 32.3981 103.622 32.3981 103.622C32.3981 103.622 31.9761 103.01 31.5926 102.666C31.1706 102.972 30.8638 103.393 30.7487 103.967C30.4802 105.229 32.2063 106.186 33.2036 106.645C35.3516 107.64 37.7297 108.061 40.0695 108.329C42.4093 108.597 44.8642 108.635 47.1656 108.138C48.3163 107.908 49.5821 107.411 50.004 106.339C50.0807 106.224 50.1191 106.11 50.1191 105.956C50.1958 105.842 50.1575 105.727 50.1191 105.612ZM34.2392 103.316C34.6611 103.24 35.0064 103.201 35.1598 103.163C37.0009 102.895 38.8804 103.01 40.7216 103.201C42.5627 103.393 44.4039 103.775 46.13 104.388C46.5135 104.541 47.741 104.923 48.278 105.459C48.4314 105.115 48.5465 104.655 48.5465 104.655C48.5465 104.655 45.9382 103.125 41.0668 102.513C36.1954 101.9 32.7433 102.895 32.7433 102.895L32.9351 103.699C32.8967 103.699 33.4721 103.469 34.2392 103.316Z" fill="#838080"/>
<path d="M32.4757 104.579C32.3223 104.579 32.0922 104.732 31.9004 104.771L32.7059 105.306C32.821 105.191 32.936 105.038 33.0511 104.924C32.9744 104.885 32.5908 104.618 32.4757 104.579ZM33.2429 105.115C33.1278 105.23 33.0128 105.345 32.8977 105.459L33.895 105.842C33.9717 105.727 34.01 105.498 34.01 105.345C33.7799 105.23 33.473 105.191 33.2429 105.115ZM34.4703 105.651C34.3169 105.651 34.2402 105.765 34.2018 105.957L35.084 106.301C35.1608 106.263 35.2375 105.995 35.2758 105.88C35.084 105.765 34.7005 105.651 34.4703 105.651ZM35.506 106.416L36.4265 106.646C36.4265 106.531 36.4649 106.416 36.5033 106.301C36.2348 106.148 35.9279 106.148 35.621 106.072C35.5827 106.148 35.5827 106.301 35.506 106.416ZM36.9635 106.416C36.8101 106.493 36.8868 106.607 36.8485 106.722L37.8458 106.952C37.8458 106.799 37.8841 106.684 37.9225 106.531C37.6923 106.493 37.1553 106.339 36.9635 106.416ZM39.1499 106.799C38.9581 106.684 38.4211 106.646 38.191 106.684C38.1526 106.799 38.191 106.952 38.1143 107.066L39.1499 107.22C39.1499 107.258 39.1883 106.99 39.1883 106.913C39.1883 106.799 39.265 106.875 39.1499 106.799ZM39.4951 106.952C39.4951 107.066 39.5335 107.22 39.4951 107.296L40.5308 107.411C40.5308 107.334 40.5308 107.143 40.5308 107.028C40.1856 106.952 39.8403 106.952 39.4951 106.952ZM40.9527 106.99C40.9527 107.105 40.9143 107.258 40.9527 107.373L41.9883 107.411C41.95 107.334 41.9883 107.181 41.9883 107.066C41.6431 107.028 41.2979 107.028 40.9527 106.99ZM42.2952 107.105C42.2952 107.22 42.2952 107.296 42.3336 107.411L43.3308 107.449C43.3308 107.411 43.2925 107.22 43.2925 107.105C42.9473 107.105 42.6021 107.105 42.2952 107.105ZM43.6761 107.181C43.4843 107.258 43.5993 107.296 43.5993 107.487H44.5966C44.5966 107.373 44.5583 107.296 44.5583 107.181C44.2898 107.181 43.9062 107.105 43.6761 107.181ZM44.9802 107.105C44.7884 107.181 44.8268 107.258 44.9035 107.449L45.8241 107.334C45.8241 107.22 45.7474 107.143 45.7474 107.028C45.5172 106.99 45.2104 107.028 44.9802 107.105ZM46.0542 106.913C46.0158 107.028 46.0542 107.181 46.1309 107.258L47.0131 107.181C46.9748 107.066 46.8981 106.952 46.8597 106.799C46.5912 106.875 46.3227 106.875 46.0542 106.913ZM47.7803 106.569C47.5885 106.531 47.3584 106.722 47.1282 106.76C47.1666 106.875 47.1666 106.99 47.2433 107.105L48.2022 106.952C48.2022 106.913 47.8954 106.607 47.7803 106.569ZM33.473 102.015C33.2813 102.054 33.0511 102.092 32.8593 102.169L32.6675 102.589C32.9744 102.589 33.3196 102.436 33.6265 102.36C33.5881 102.245 33.5498 102.092 33.473 102.015ZM33.7799 102.245L34.6238 102.169C34.547 102.092 34.547 101.901 34.4703 101.862C34.3936 101.824 34.2018 101.901 34.1251 101.901C33.895 101.939 33.473 101.977 33.7799 102.245ZM35.4676 101.748C35.3525 101.671 35.1608 101.786 35.0457 101.824C34.969 101.824 34.7772 101.824 34.7388 101.901C34.7388 101.939 34.8539 102.13 34.8539 102.13L35.621 102.092C35.621 102.015 35.5443 101.786 35.4676 101.748ZM36.7334 102.015C36.6567 101.977 36.6567 101.748 36.6183 101.633C36.3498 101.709 36.0813 101.671 35.8128 101.709C35.7745 101.824 35.8128 101.939 35.8512 102.054L36.7334 102.015ZM37.769 101.633C37.6923 101.556 37.4622 101.595 37.3855 101.595C37.0403 101.595 36.7718 101.556 36.9635 101.977L37.8458 102.015C37.769 101.939 37.8074 101.671 37.769 101.633ZM38.9965 101.977C38.9965 101.901 39.0348 101.671 38.9581 101.595C38.8814 101.518 38.6513 101.595 38.5745 101.595C38.4595 101.595 38.2293 101.518 38.1526 101.633C38.1143 101.709 38.191 101.862 38.1526 101.977H38.9965ZM40.2239 102.13C40.1856 102.015 40.1856 101.862 40.2239 101.748C39.9938 101.709 39.7253 101.671 39.4951 101.671C39.4568 101.786 39.5335 101.901 39.4568 101.977L40.2239 102.13ZM40.4924 101.824C40.4924 101.939 40.454 102.054 40.4924 102.13L41.1061 102.169C41.1445 102.092 41.1445 101.977 41.1445 101.901C40.9143 101.824 40.6842 101.824 40.4924 101.824ZM42.1801 102.283C42.2185 102.207 42.2568 102.092 42.2568 102.015C42.0651 101.977 41.6815 101.786 41.4897 101.862C41.3363 101.901 41.413 102.015 41.413 102.169L42.1801 102.283ZM43.0623 102.169C42.7938 102.13 42.6021 102.054 42.6021 102.398L43.3308 102.551C43.4459 102.207 43.4459 102.207 43.0623 102.169ZM44.3665 102.398C44.2131 102.36 43.9062 102.207 43.7911 102.245C43.6761 102.283 43.6761 102.436 43.6377 102.551L44.2898 102.704C44.2898 102.666 44.3665 102.513 44.3665 102.398ZM45.3254 102.666C45.2103 102.628 44.7884 102.436 44.6733 102.475C44.5583 102.513 44.5966 102.666 44.5583 102.781L45.172 102.972C45.2104 102.934 45.3254 102.781 45.3254 102.666ZM45.5939 102.743C45.4788 102.781 45.4788 102.934 45.4405 103.049L46.0542 103.278C46.1309 103.24 46.2076 103.01 46.2076 102.896C46.0926 102.857 45.7473 102.704 45.5939 102.743ZM47.2049 103.278C47.1282 103.163 46.7063 103.163 46.5912 103.087C46.5529 103.163 46.4761 103.316 46.4761 103.355L47.0515 103.623C47.0899 103.623 47.2433 103.355 47.2049 103.278ZM48.1255 103.699C47.9721 103.623 47.6652 103.47 47.4734 103.47C47.4351 103.546 47.3967 103.623 47.3584 103.737L47.9337 103.967C48.0104 103.967 48.0871 103.776 48.1255 103.699Z" fill="#838080"/>
<path d="M32.936 103.469C32.8592 100.408 34.5086 97.3086 37.8073 96.5433C40.7225 95.8546 44.8267 96.5816 46.7829 98.8775C48.3939 100.753 48.2405 103.584 48.0871 105.842C48.0103 106.913 49.7748 107.028 49.8131 105.957C50.0049 103.201 49.9666 100.293 48.2021 97.9209C46.0925 95.0893 41.528 94.4005 38.1525 94.7831C33.7415 95.3188 31.0565 99.375 31.1715 103.355C31.2482 104.426 32.9743 104.541 32.936 103.469Z" fill="#838080"/>
<path d="M33.0124 99.4134C32.1302 101.365 32.2837 103.814 32.2837 103.814L32.7823 103.049L32.9357 101.441L33.4727 99.8343L34.9687 97.5001L34.8536 97.1558C34.8536 97.1558 33.7796 97.768 33.0124 99.4134ZM47.1279 97.7297L46.9361 97.4619L46.5909 98.1507C46.5909 98.1507 47.0895 98.6481 47.2046 98.6481C47.3197 98.6481 48.7389 102.857 48.7389 102.857L48.969 105.383C49.8896 100.064 47.1279 97.7297 47.1279 97.7297Z" fill="#838080"/>
<path d="M47.0513 97.9975C47.128 97.7297 47.3198 97.5001 47.5499 97.347C47.5883 97.3088 47.6266 97.2705 47.665 97.2705C47.2814 96.8878 46.8211 96.5434 46.3608 96.2373C46.2841 96.2373 46.2458 96.2756 46.1691 96.2756C45.6321 96.4286 45.2868 97.0026 45.2101 97.5766C45.8238 97.921 46.3608 98.3419 46.7828 98.8394C48.3938 100.714 48.2403 103.546 48.0869 105.804C48.0486 106.263 48.3554 106.531 48.739 106.645V106.569C49.813 102.092 48.0102 99.1837 47.0513 97.9975ZM35.3907 95.8164C35.3523 95.8164 35.2756 95.8164 35.1605 95.8164C34.5852 96.1608 34.0482 96.5817 33.5879 97.0792C33.8564 97.2705 34.355 97.3087 34.777 97.4235C32.629 98.8394 32.2454 103.508 32.207 104.197C32.629 104.197 32.9742 103.967 32.9742 103.469C32.8975 100.714 34.2783 97.8445 37.0017 96.8113C36.6181 96.3139 36.0044 95.9312 35.3907 95.8164Z" fill="#838080"/>
<path d="M47.6639 97.5001L47.357 97.768L47.894 98.4185L48.3159 98.1889L47.6639 97.5001ZM48.431 98.495L48.0858 98.6863L48.5077 99.5664L48.968 99.4516L48.431 98.495ZM49.1214 99.8726L48.7379 99.8343L48.968 100.714L49.4283 100.676L49.1214 99.8726ZM49.505 101.021L49.0831 101.097L49.1981 101.977H49.6968L49.505 101.021ZM49.7735 103.431L49.6968 102.36L49.2365 102.283V103.393L49.7735 103.431ZM49.3132 103.776L49.2365 104.771H49.7351L49.6968 103.89L49.3132 103.776ZM49.6968 105.153L49.1981 105.077L49.0447 105.88L49.6968 105.918V105.153ZM49.0831 106.531C49.5817 106.492 49.6968 106.11 49.6968 106.11L49.1214 106.072L49.0831 106.531ZM33.1265 97.9593L33.6251 98.1123L34.1238 97.4618L33.5484 97.2705L33.1265 97.9593ZM32.6278 98.6863L33.1648 98.9159L33.4717 98.2654L33.0498 98.1123L32.6278 98.6863ZM32.1675 99.5664L32.7429 99.796L32.973 99.069L32.5895 98.9159L32.1675 99.5664ZM31.784 100.714L32.2826 100.829L32.5128 100.026L32.0525 99.9108L31.784 100.714ZM31.5155 101.786L32.1675 101.862L32.2826 101.059L31.784 100.944L31.5155 101.786ZM32.0525 102.13L31.5155 101.977L31.4004 102.934L32.0525 102.972V102.13ZM32.0141 103.929L32.0525 103.202L31.5155 103.125C31.5922 103.967 32.0141 103.929 32.0141 103.929Z" fill="#838080"/>
<path d="M49.7358 92.6785C49.2755 93.9796 48.9686 95.7015 47.6261 96.4285C46.2453 97.2321 46.7056 97.0408 46.5521 98.6479C46.0535 98.8775 45.3631 98.6862 44.9411 98.3801L44.7877 98.227C44.3658 98.5714 43.6754 98.4183 43.3301 98.0357L43.2918 97.9209C42.7164 98.1505 41.7575 97.8444 41.6808 97.1938C41.4506 97.2321 41.2588 97.1556 41.0287 97.1556L40.4917 94.9362L40.1465 93.7882C40.9136 92.3724 42.5246 90.3444 44.3274 90.1148C44.4425 89.9234 44.6343 89.6173 44.711 89.3495C44.711 89.3495 46.322 89.1964 46.4371 89.2347C46.5521 89.3112 48.5084 89.8086 48.5084 89.8852L49.7358 92.6785Z" fill="#838080"/>
<path d="M43.1002 95.8162C45.6317 96.8111 48.2784 96.3136 49.0072 94.7065C49.736 93.0993 48.24 90.9565 45.6701 89.9616C45.3249 89.8085 44.9797 89.732 44.6344 89.6172C44.5577 89.8085 44.4427 89.9998 44.3659 90.1146C42.6015 90.3442 41.0289 92.2958 40.2617 93.6733C40.8371 94.5534 41.8344 95.3187 43.1002 95.8162Z" fill="#838080"/>
<path d="M47.627 96.4666C49.0079 95.7013 49.2764 94.0177 49.7367 92.7166L48.5476 89.9615C48.5092 89.885 46.5914 89.3876 46.4763 89.311C46.3612 89.2345 44.7502 89.4258 44.7502 89.4258C44.7119 89.6172 44.5584 89.8468 44.4434 90.0381C47.8188 90.1911 49.0846 92.7549 49.0846 92.7549C48.701 94.9743 47.4352 95.8544 46.4763 96.5049C45.5174 97.1554 46.1694 98.7626 46.1694 98.7626V98.8008C46.3229 98.8008 46.4763 98.7626 46.5914 98.686C46.7064 97.0789 46.2845 97.232 47.627 96.4666Z" fill="#838080"/>
<path d="M44.0973 90.2677C44.174 90.2294 44.4042 90.2677 44.4425 90.1529C44.5576 89.885 44.711 89.6554 44.7877 89.3876C44.7877 89.3493 44.7494 89.3493 44.7494 89.3876C44.5959 89.732 44.5192 90.0381 44.0973 90.1146C43.8672 90.1529 43.637 90.2677 43.4069 90.3442C42.9082 90.5738 42.4479 90.9182 42.0644 91.2626C41.2972 91.9514 40.5684 92.8315 40.1465 93.7881C40.1081 93.8264 40.2232 93.8646 40.2232 93.8264C40.8369 92.8697 41.4506 91.9131 42.3712 91.1861C42.8699 90.7651 43.4452 90.4208 44.0973 90.2677ZM49.6974 92.6784C49.3522 93.4054 49.2372 94.209 48.8919 94.9743C48.5084 95.8162 47.8563 96.2371 47.0892 96.7728C46.8207 96.9641 46.6289 97.1937 46.5522 97.4998C46.5138 97.7294 46.5138 97.9973 46.5138 98.2269C46.5138 98.5713 46.3604 98.6861 45.9768 98.6861C45.6316 98.6861 45.2864 98.533 44.9795 98.3799C44.9412 98.3417 44.9028 98.4182 44.9412 98.4182C45.4782 98.7626 45.9768 98.8391 46.5905 98.7243C46.6289 98.7243 46.6672 98.6861 46.6672 98.6478C46.7056 98.1886 46.5905 97.6529 46.7439 97.1937C46.859 96.7728 47.5878 96.5432 47.9714 96.3136C48.5084 95.9692 48.8536 95.3952 49.0837 94.8595C49.3906 94.1708 49.6591 93.4437 49.8509 92.7167C49.8509 92.6401 49.7358 92.6019 49.6974 92.6784ZM44.8261 98.2651C44.6343 97.6146 44.4809 96.7728 44.8644 96.1988C44.7494 96.3136 44.6726 96.5049 44.5192 96.6197C44.4425 96.658 44.5192 96.8876 44.5192 96.9641C44.5192 97.4233 44.5959 97.8442 44.711 98.2651C44.2507 98.533 43.7137 98.4182 43.3302 98.0738L43.2918 98.1121C43.637 98.4947 44.2891 98.6861 44.711 98.3799C44.7877 98.3799 44.8644 98.3417 44.8261 98.2651ZM43.3302 97.9973V97.9208C43.2534 97.5764 43.1384 97.2702 43.0233 96.9259C42.8315 96.2753 43.0616 95.8162 43.4836 95.357C43.1384 95.7014 42.8315 96.0075 42.8315 96.5049C42.8699 97.0024 43.0616 97.4998 43.2151 97.959C42.6397 98.0356 41.8726 97.9208 41.7575 97.2702L41.7191 97.232C41.6424 96.7345 41.6808 96.2753 41.6808 95.7779C41.6808 95.7396 41.6041 95.7014 41.6041 95.7779C41.5657 96.2753 41.5274 96.7728 41.6424 97.232C41.4506 97.232 41.2589 97.232 41.0671 97.1937C41.0287 97.1937 41.0287 97.232 41.0671 97.232C41.2205 97.2702 41.3739 97.2702 41.5657 97.3085C41.7191 97.3085 41.7191 97.4233 41.7575 97.5381C41.8342 97.7294 42.026 97.8442 42.2178 97.9208C42.5246 98.0738 42.9466 98.1503 43.2918 98.0355C43.2534 98.0738 43.3302 98.0355 43.3302 97.9973Z" fill="#838080"/>
<path d="M44.365 89.694C44.365 89.694 45.5541 89.3496 47.4336 90.421C49.3131 91.4925 49.5816 93.1761 49.5816 93.1761C49.5816 93.1761 52.842 90.421 53.5707 87.0154C54.2995 83.6098 48.8528 78.0996 48.8528 78.0996C48.8528 78.0996 48.3542 83.6098 44.902 88.8522C44.9404 88.8522 44.3267 89.2348 44.365 89.694Z" fill="#838080"/>
<path d="M45.3633 89.0053C45.3633 89.0053 47.7031 85.9058 48.7004 81.7349C48.7004 81.7349 51.347 83.4185 52.0374 87.5129C52.0374 87.5129 51.0018 89.9236 49.6976 91.0333C49.6976 91.0716 48.0099 88.8139 45.3633 89.0053Z" fill="#838080"/>
<path d="M41.2202 93.4057C39.9161 92.143 38.3818 90.6889 36.4639 90.1149L35.6584 90.0767L33.9707 90.6124L32.7049 91.5307L31.861 93.4823C31.7843 95.2042 32.935 96.8114 34.8529 96.8114L35.1981 97.194C35.3515 97.3088 35.505 97.5767 35.6584 97.6915C35.505 98.1506 35.2748 98.495 34.968 98.8777C35.6584 99.3369 36.5406 99.2986 37.1927 99.0307V99.069C38.1133 98.9542 39.1489 99.1455 39.5708 98.0358C39.6476 97.8828 39.6476 97.7297 39.6476 97.5767L39.7626 97.6149L39.4174 98.5716C39.8393 98.342 40.1846 98.1124 40.4147 97.8062L40.5681 97.8445C41.949 96.7348 42.6011 94.745 41.2202 93.4057Z" fill="#838080"/>
<path d="M35.1978 94.8981C37.1924 96.3139 39.8774 96.0843 41.2199 94.4006C41.3733 94.2093 41.4884 94.018 41.5651 93.8267C41.45 93.6736 41.335 93.5588 41.2199 93.4057C39.9158 92.143 38.3815 90.6889 36.4636 90.1149L35.6581 90.0767L33.9704 90.6124L33.28 91.1098C33.1649 92.4874 33.8553 93.9415 35.1978 94.8981Z" fill="#838080"/>
<path d="M36.1961 97.4619C36.1194 97.0409 35.4673 96.2756 34.4317 96.1226C33.396 95.9695 32.6672 94.1328 32.6672 94.1328C33.6645 91.4542 36.9249 90.3445 36.9249 90.3445L36.9632 90.268C36.8098 90.2297 36.6564 90.1532 36.503 90.1149L35.6975 90.0767L34.0097 90.6124L32.744 91.5307L31.9001 93.4823C31.8234 95.2042 32.9741 96.8114 34.892 96.8114L35.2372 97.194C35.3906 97.3088 35.544 97.5767 35.6975 97.6915C35.544 98.1506 35.3139 98.495 35.007 98.8777C35.1988 98.9925 35.429 99.1073 35.6591 99.1455L35.6975 99.1073C36.1194 98.8012 36.2728 97.8828 36.1961 97.4619Z" fill="#838080"/>
<path d="M32.7442 95.7782C32.1689 95.1277 31.9771 94.2858 31.9387 93.4823C31.9387 93.4057 31.8237 93.4057 31.8237 93.4823C31.7086 95.1277 32.9744 96.9644 34.8922 96.8114C34.01 96.6966 33.3196 96.4287 32.7442 95.7782ZM41.6047 93.7119C41.2979 93.3292 40.9143 93.0231 40.5691 92.6787C40.2239 92.296 39.802 91.9899 39.4184 91.6455C38.5745 90.9568 37.5772 90.3445 36.5032 90.0767C36.4265 90.0767 36.3882 90.1532 36.4649 90.1915C38.2677 90.8802 39.7252 92.0665 41.0677 93.3675C42.4486 94.7068 41.8732 96.5818 40.6075 97.8062C40.7225 97.6532 40.8376 97.4619 40.9143 97.2705C41.1445 96.62 40.876 96.0078 40.6075 95.4338C41.1445 96.6583 40.6842 97.6914 39.6102 98.3802C39.9937 97.6914 39.6485 96.8114 39.2266 96.1991H39.1882C39.3417 96.5435 39.5335 96.8879 39.6102 97.2323C39.7252 97.6914 39.4184 98.2654 39.0732 98.6098C38.6896 98.9542 37.9992 98.9542 37.4622 98.9925L37.5005 98.9542C38.2677 98.4185 38.2293 97.6532 37.6923 96.9644C38.5362 98.1889 37.3854 99.1838 36.0429 99.1073C35.7361 99.1073 35.4292 98.9925 35.1607 98.8394C35.1607 98.8394 35.5827 98.1889 35.621 98.1124C35.8512 97.6149 35.6594 97.5001 35.2374 97.1557C35.3909 97.3088 35.6594 97.5384 35.5443 97.768C35.3909 98.1506 35.1607 98.4568 34.9306 98.8011C34.8922 98.8394 34.9306 98.8777 34.9689 98.9159C35.621 99.3369 36.5416 99.4134 37.2704 99.069C38.0375 99.0307 38.843 99.1455 39.4184 98.5333C39.4567 98.5716 39.4951 98.5716 39.5335 98.5333C39.9554 98.342 40.339 98.0741 40.6075 97.7297L40.6458 97.768C41.8732 96.8879 42.6787 95.0894 41.6047 93.7119Z" fill="#838080"/>
<path d="M31.8234 94.4006C31.8234 94.4006 33.6262 90.3828 37.04 90.1532C37.04 90.1532 35.4673 89.3496 34.4317 88.5461C33.3961 87.7425 28.4096 83.5333 27.9877 78.8267L24.0369 81.62L21.582 85.8292C21.582 85.8292 23.3081 89.2731 26.1082 91.4925C29.2151 93.9415 31.8234 94.4006 31.8234 94.4006Z" fill="#838080"/>
<path d="M31.824 92.5257C31.824 92.5257 33.3966 90.3446 35.6213 89.8471C35.6213 89.8471 30.3664 86.8242 28.0649 82.041C28.0649 82.041 25.5717 83.1507 24.2676 86.2502C24.2676 86.2885 26.4923 90.6507 31.824 92.5257Z" fill="#838080"/>
<path d="M24.918 65.3956C24.918 65.3956 17.0931 69.49 13.1423 77.6405C10.4957 83.1507 7.92573 93.6737 6.6983 95.4721C5.47087 97.2706 2.82422 98.0359 2.82422 98.0359C6.1613 103.929 10.956 102.054 12.7204 102.245C14.4465 102.436 16.0191 105.038 16.0191 105.038C18.9343 99.2987 19.2028 93.4441 20.6987 89.0818C22.1946 84.7196 27.7564 80.0895 27.7564 80.0895C34.584 74.8089 37.6526 66.6201 37.6526 66.6201C37.6526 66.6201 42.4472 72.666 46.2062 75.9186C50.4639 79.6303 53.4558 84.9874 53.6092 89.541C53.7243 94.0946 56.2942 103.163 56.6778 104.005C56.6778 104.005 57.4833 101.671 58.5956 101.327C59.708 100.982 63.8506 101.135 65.0013 97.3471C65.0013 97.3471 59.3244 94.0181 57.56 84.49C55.7955 74.9619 51.9215 69.0308 44.4418 65.166L24.918 65.3956Z" fill="#838080"/>
<path d="M53.9558 74.0436C51.7694 70.217 48.6625 67.3471 44.4048 65.166L24.9193 65.4339C24.9193 65.4339 17.0945 69.5283 13.1437 77.6788C13.1053 77.7936 13.0286 77.9084 12.9902 78.0232L13.1053 78.0614C13.1053 78.0614 17.0945 70.5614 25.6098 67.5002C25.6098 67.5002 31.3633 68.2272 37.0402 67.9594C37.4238 67.1175 37.6156 66.6201 37.6156 66.6201C37.6156 66.6201 37.9991 67.0793 38.6129 67.8446C40.8376 67.6533 42.9472 67.3089 44.5966 66.6966C44.6349 66.6584 49.8132 69.0308 53.9558 74.0436Z" fill="#838080"/>
<path d="M22.3882 80.7783C22.3882 80.7783 18.5525 83.4569 16.2127 90.0768C13.9496 96.5054 11.4564 101.901 8.23438 102.245C10.1139 102.551 11.8016 102.13 12.6838 102.245C13.3359 102.322 13.9496 102.743 14.4866 103.202C14.9085 101.709 15.7524 98.4569 16.2894 95.3191C17.0182 91.1099 19.2813 83.763 22.3882 80.7783Z" fill="#838080"/>
<path d="M58.5576 101.288C59.2097 101.097 60.9358 101.059 62.4317 100.294C59.67 98.6481 56.1411 93.0996 55.7575 89.0053C55.3356 84.5665 52.3438 79.1328 52.3438 79.1328C52.3438 79.1328 54.3383 84.2221 54.7219 89.0818C55.0671 93.291 56.985 100.408 57.4836 102.207C57.8288 101.786 58.174 101.441 58.5576 101.288Z" fill="#838080"/>
<path d="M9.4225 99.8725C9.4225 99.8725 11.7623 87.0536 14.3322 79.0562C14.3322 79.0562 10.8034 86.0204 9.72935 91.3393C8.61699 96.6582 9.4225 99.8725 9.4225 99.8725Z" fill="#838080"/>
<path d="M61.5505 98.6096C61.5505 98.6096 59.8244 94.0943 58.9422 91.8367C58.06 89.579 56.7559 85.6377 56.7559 85.6377C56.7559 85.6377 57.7148 94.9362 61.5505 98.6096Z" fill="#838080"/>
<path d="M43.8282 70.829C42.3706 68.5331 38.8801 68.2652 37.4225 65.9311C37.2307 65.6249 36.7321 65.7397 36.6938 66.0459V66.0841C35.5047 68.4566 32.0142 68.8775 30.8251 71.2499C30.0196 72.8953 31.2087 74.3494 33.0115 74.6938C33.1649 74.5025 33.3183 74.2729 33.4717 74.0816C32.2827 74.0433 31.3237 73.3163 31.3237 72.2831C31.3237 71.2499 32.2443 70.4846 33.0882 69.9107C34.2772 69.0688 35.5814 68.4948 36.502 67.5382C36.5787 67.8826 36.617 68.3035 36.6554 68.801C37.3075 67.4617 37.6527 66.6198 37.6527 66.6198C37.6527 66.6198 38.1897 67.3086 39.0719 68.3035C39.839 68.7627 40.6445 69.1453 41.45 69.6045C42.3706 70.1402 43.3296 70.8673 43.4446 71.9005C43.483 72.2831 43.4063 72.6658 43.1761 72.9336C43.3295 73.0867 43.5213 73.278 43.6748 73.4311C44.2885 72.7806 44.4419 71.8239 43.8282 70.829ZM37.039 67.0408C37.0006 67.0408 37.0006 67.0025 36.9622 67.0025C37.0006 66.926 37.0773 66.8494 37.1157 66.7729C37.154 66.8112 37.1924 66.8494 37.2307 66.8877C37.154 66.926 37.0773 66.9642 37.039 67.0408Z" fill="#838080"/>
<path d="M37.8073 66.8113C37.5004 68.8011 38.2292 73.6608 41.5279 73.393C42.717 73.3164 43.5992 72.5511 43.4841 71.4797C43.3691 70.4465 42.3718 69.7195 41.4896 69.1838C39.7251 68.1123 37.884 67.5384 36.81 65.8164C36.5798 65.4338 37.2703 65.1659 37.5004 65.5486C38.958 67.8828 42.4485 68.1506 43.9061 70.4465C44.9801 72.1302 43.7143 73.7756 41.7197 74.0435C37.8073 74.6174 36.7716 68.9924 37.1169 66.7348C37.0785 66.3139 37.8456 66.3521 37.8073 66.8113Z" fill="#838080"/>
<path d="M36.4641 66.9259C36.9627 68.9157 36.771 73.7753 33.4722 73.6606C32.2832 73.6223 31.3242 72.8952 31.3242 71.8621C31.3242 70.8289 32.2448 70.0636 33.0887 69.4896C34.738 68.3417 36.5408 67.6912 37.423 65.931C37.6148 65.5483 36.886 65.2805 36.6942 65.7014C35.5052 68.0738 32.0147 68.4947 30.8256 70.8672C29.9434 72.5891 31.3626 74.158 33.3955 74.3876C37.3463 74.8085 37.8066 69.1452 37.2312 66.8876C37.1162 66.4284 36.349 66.5049 36.4641 66.9259Z" fill="#838080"/>
<path d="M37.7309 66.199C37.7309 66.199 6.1246 69.6429 1.52173 49.2475C1.52173 49.2475 -2.65921 36.5051 8.5411 24.7959C19.7414 13.0485 23.3086 8.6097 25.3416 3.75001C25.3416 3.75001 26.9526 0.727051 29.1389 0.727051C31.3253 0.727051 32.7445 2.67858 34.087 3.86481C39.879 8.99236 45.4791 14.426 51.5395 19.2475C59.4795 25.5995 66.1153 34.4388 63.5837 45.3061C61.4357 54.6429 53.2273 65.472 37.7309 66.199Z" fill="#838080"/>
<path d="M1.52173 49.2475C6.16295 69.6429 37.731 66.199 37.731 66.199C53.2273 65.472 61.4357 54.6429 63.5837 45.2679C65.1564 38.4184 63.0851 32.3342 59.3644 27.2067C59.3644 29.6557 56.4493 27.0536 56.4493 27.0536C52.3834 22.8062 46.7449 19.324 36.235 20.8546C25.7251 22.3852 14.1413 31.2245 10.8042 30.574C7.77396 29.9618 9.03975 24.9873 9.30825 23.9924C9.0781 24.2602 8.8096 24.5281 8.5411 24.796C-2.65921 36.5434 1.52173 49.2475 1.52173 49.2475Z" fill="#838080"/>
<path d="M17.9378 56.6711C16.7103 51.8114 17.5158 46.7221 19.0885 42.0155C20.7762 36.8879 23.3461 32.0283 26.4147 27.5895C26.5681 27.3599 26.7216 27.1303 26.875 26.939L22.5406 27.9339C22.5406 27.9339 12.1842 39.8726 15.0993 52.9211C18.0145 65.9696 20.8913 64.6303 20.8913 64.6303L21.8886 64.7834C20.0858 62.3726 18.6666 59.5793 17.9378 56.6711Z" fill="#838080"/>
<path d="M11.3401 60.268C-2.50684 46.0716 6.62218 31.4925 6.62218 31.4925L4.12896 30.689C-1.39448 40.4466 1.52067 49.2476 1.52067 49.2476C3.13167 56.3267 7.96468 60.5359 13.6416 62.9849C13.0662 62.143 12.299 61.2629 11.3401 60.268Z" fill="#838080"/>
<path d="M56.4484 27.0536C52.3826 22.8062 46.7441 19.324 36.2342 20.8546C25.7243 22.3852 14.1404 31.2245 10.8033 30.574C7.77312 29.9618 9.0389 24.9873 9.3074 23.9924C9.07726 24.2602 8.80876 24.5281 8.54026 24.796C6.20047 27.2449 4.55111 29.6939 3.40039 32.1046C7.46626 34.5153 14.3322 31.0715 18.8584 29.7704C25.1106 27.972 31.8615 26.097 38.4205 26.5562C43.5604 26.9006 48.3934 28.1633 52.9963 30.421C55.8731 31.7985 59.4403 33.3291 62.7007 33.2143C61.8952 31.1097 60.7444 29.1199 59.3636 27.2449C59.3636 29.6557 56.4484 27.0536 56.4484 27.0536Z" fill="#838080"/>
<path d="M1.52096 49.2474C6.16218 69.6428 37.7302 66.1989 37.7302 66.1989C53.2265 65.4719 61.4349 54.6428 63.5829 45.2678C64.772 40.1402 63.8898 35.4336 61.8185 31.2627C61.8569 31.4158 61.8952 31.6071 61.9336 31.7984C64.4268 41.7857 59.7856 50.6632 59.7856 50.6632C48.7387 69.7193 22.1188 63.6734 22.1188 63.6734C-3.5422 59.6938 2.63332 33.7882 2.63332 33.7882V33.7499C-0.818834 42.2066 1.52096 49.2474 1.52096 49.2474Z" fill="#838080"/>
<path d="M54.607 54.7195C54.4536 54.1838 54.2618 53.6481 54.07 53.1506C54.4919 52.921 54.9139 52.5384 55.2974 51.8879C56.1029 50.5103 56.5632 47.296 55.681 47.1047C55.2974 47.0282 54.7604 47.3343 54.1851 47.7935C54.7604 45.3445 56.218 43.2016 57.5221 41.0205C58.8263 38.8394 59.8236 36.5817 59.44 34.018C58.7496 29.3879 54.2234 26.1353 50.2726 24.3751C48.7767 23.7246 47.2424 23.342 45.6698 23.0358C43.5601 22.6149 41.297 22.2705 39.149 22.6149C39.0723 22.6149 39.0723 22.6914 39.1107 22.7297L38.9956 22.8062L38.7271 22.768C38.7271 22.7297 38.7271 22.6914 38.6887 22.7297C33.2804 23.7246 28.2939 26.2501 24.4966 30.1914C22.8472 31.8751 21.4664 33.7884 20.2006 35.7782C18.5896 38.3037 17.5156 41.0971 16.9402 44.0435C16.4416 46.569 16.2498 49.0945 16.2881 51.6583C16.2881 52.4236 16.3265 53.2272 16.4032 53.9925C15.4059 53.0358 13.5264 51.8496 12.5291 51.9644C11.2633 52.1175 11.9538 55.3318 13.1428 56.7476C14.5621 58.393 16.4416 58.4695 17.2087 58.393C17.2471 58.5078 17.2854 58.6608 17.3238 58.7756C18.0909 60.9568 19.5101 63.0613 21.5047 64.2858C22.3486 64.7833 23.2691 65.0894 24.2281 65.2425C24.7651 65.319 25.3021 65.3573 25.8391 65.3573C26.4144 65.3573 27.1049 65.4338 27.6419 65.2807C27.7953 65.2425 27.7953 65.0129 27.6802 64.9746H27.6419C27.4117 64.9363 27.1432 64.9363 26.9131 64.9363C25.2637 64.745 23.7678 64.0562 22.6171 62.8317C22.0417 62.2578 21.5814 61.569 21.1979 60.8802C23.6911 62.4874 25.3404 63.1379 27.4117 63.9032C30.557 65.0511 34.6229 65.5103 37.9983 65.5103C42.0642 65.5486 46.8588 62.6404 50.3493 59.0435C51.3083 58.0486 52.0754 56.7476 52.6124 55.3318C52.8042 56.3266 52.8809 57.3598 52.7275 58.3547C52.4974 60.4593 51.2316 62.1047 49.3904 63.0996C49.3137 63.1379 49.3137 63.2144 49.3904 63.2527C51.1932 62.3726 52.8042 61.3011 54.2618 60.1532C54.3001 60.0766 54.3769 59.9619 54.4152 59.8853C55.1824 58.3547 55.0673 56.3266 54.607 54.7195Z" fill="#838080"/>
<path d="M52.2293 48.9414L51.8457 52.6149C51.8457 52.6149 53.6485 53.2272 54.8759 51.1226C55.6814 49.745 56.1417 46.5307 55.2595 46.3394C54.3773 46.1863 52.5745 48.0613 52.2293 48.9414Z" fill="#838080"/>
<path d="M51.7305 51.8494C52.2675 50.5866 53.9552 47.2193 55.2977 47.755C55.2977 47.755 55.1826 52.4999 52.0757 52.2703L51.7305 51.8494Z" fill="#838080"/>
<path d="M51.6914 51.8114C52.075 50.9313 52.4969 50.1277 52.9955 49.3624V49.3241C53.0723 49.171 53.149 49.0563 53.264 48.9415C53.7627 48.1761 54.4915 47.3726 55.2586 47.7552V47.7935C54.4915 47.6404 53.686 48.5971 53.149 49.3241C53.3408 49.3241 53.4942 49.6302 53.5709 49.8981C53.686 50.319 53.5709 50.8165 53.3408 51.1226C53.4942 50.8547 53.4942 50.4721 53.4942 50.1277C53.4942 49.9363 53.4175 49.7833 53.3408 49.6685C53.264 49.5537 53.149 49.5537 53.0339 49.5537C52.5353 50.2807 52.1133 51.1226 51.7298 51.9644C51.7298 51.8879 51.6914 51.8496 51.6914 51.8114Z" fill="#838080"/>
<path d="M51.4621 51.9645C53.0731 55.8676 53.1882 60.3446 49.084 62.4875C49.084 62.4875 54.1471 61.5691 54.4156 57.2834C54.6841 53.036 52.9964 52.6916 53.0731 50.0513L51.4621 51.9645Z" fill="#838080"/>
<path d="M53.2259 54.5663L53.6861 52.8443C53.3409 52.0025 52.9957 51.2372 53.0341 50.0127L51.4231 51.926C53.0341 55.829 53.1491 60.3061 49.0449 62.4489C49.0449 62.4489 49.3901 62.3724 49.9271 62.2193C54.2615 59.8086 53.2259 54.5663 53.2259 54.5663Z" fill="#838080"/>
<path d="M51.4246 51.9643C52.1534 53.7628 52.5753 55.7143 52.3452 57.6658C52.115 59.7704 50.8492 61.4158 49.0081 62.4107C48.893 62.449 48.9697 62.6021 49.0848 62.6021C51.041 62.2577 53.1507 61.0332 53.9945 59.1965C54.7233 57.6276 54.6466 55.6378 54.1863 53.9924C53.8027 52.6531 53.1123 51.5051 53.1123 50.0511C53.1123 49.9745 52.9972 49.9745 52.9972 50.0511C52.9205 51.2755 53.4192 52.2704 53.8411 53.4184C54.4548 55.0638 54.6083 57.1301 53.9945 58.7755C53.2657 60.7271 51.0794 62.0281 49.0848 62.4107C49.1232 62.4873 49.1232 62.5255 49.1615 62.6021C50.926 61.6454 52.1534 60.1148 52.4986 58.125C52.8438 56.0204 52.2685 53.8776 51.4246 51.9643Z" fill="#838080"/>
<path d="M53.1124 49.1327C52.9973 47.3342 52.7288 43.1251 52.7288 43.1251L53.074 39.8725C53.074 39.8725 49.9671 34.5536 48.3561 32.87C46.7451 31.2245 32.5529 34.5154 29.7528 34.6302C26.9527 34.745 20.8539 43.0868 18.8977 45.7654C16.9415 48.4439 17.8621 52.3853 18.0155 54.7577C18.1689 57.0919 20.5471 60.0766 20.5471 60.0766C23.1554 61.7985 24.8431 62.449 26.9911 63.2143C30.1364 64.3623 34.2023 64.8215 37.5777 64.8215C41.6436 64.8598 46.4382 61.9516 49.9287 58.3547C52.1918 56.0587 53.3425 52.1939 53.1124 49.1327ZM12.0701 51.2373C10.8043 51.3904 11.4948 54.6047 12.6839 56.0205C14.4866 58.1633 17.0949 57.6276 17.0949 57.6276L16.4812 53.9159C16.0209 53.074 13.3359 51.0842 12.0701 51.2373Z" fill="#838080"/>
<path d="M17.2849 56.8621C16.4794 55.5993 13.9479 52.1554 12.0684 52.6146C12.0684 52.6146 12.2985 57.3595 16.8247 57.2447L17.2849 56.8621Z" fill="#838080"/>
<path d="M17.3245 56.862C16.7875 55.9819 16.0971 55.1401 15.4067 54.3365L15.3683 54.2983C15.2533 54.1452 15.1382 54.0304 14.9848 53.8773C14.256 53.0738 13.182 52.2702 12.0312 52.6146V52.6529C13.1436 52.4998 14.3327 53.533 15.0998 54.26C14.8313 54.26 14.6012 54.5661 14.5245 54.7957C14.4094 55.2166 14.5628 55.7141 14.8697 56.0202H14.908C14.7163 55.7524 14.6779 55.3697 14.6779 55.0253C14.6779 54.834 14.7546 54.6809 14.8697 54.5661C14.9848 54.4513 15.1382 54.4896 15.2916 54.4513C16.0204 55.1784 16.6725 56.0585 17.2095 56.9386C17.2862 56.9386 17.3629 56.9003 17.3245 56.862Z" fill="#838080"/>
<path d="M48.3169 57.6659C48.547 59.6174 44.7113 61.722 39.6865 62.3342C34.6617 62.9465 30.404 61.8751 30.1739 59.9235C29.9438 57.972 33.7795 55.8674 38.8043 55.2552C43.7907 54.6429 48.0484 55.7143 48.3169 57.6659Z" fill="#838080"/>
<path d="M28.141 54.1839C28.3711 50.74 25.7628 47.7936 22.3107 47.564C20.5846 47.4492 18.9353 48.0615 17.7462 49.1329C17.5544 51.161 17.938 53.3038 18.053 54.7579C18.2065 56.7094 19.8558 59.0819 20.4312 59.8472C20.7764 59.9237 21.16 60.0002 21.5435 60.0002C24.9573 60.2298 27.9108 57.5895 28.141 54.1839Z" fill="#838080"/>
<path d="M53.1105 49.1327C53.0338 48.2526 52.9571 46.7985 52.8804 45.5358C52.8037 45.5358 52.727 45.5358 52.6119 45.4975C49.1597 45.2679 46.2062 47.8699 45.9761 51.3138C45.7843 54.2985 47.7022 56.9006 50.4639 57.7041C52.3434 55.4082 53.3023 51.9261 53.1105 49.1327Z" fill="#838080"/>
<path d="M53.0727 39.8344C53.0727 39.8344 49.9658 34.5155 48.3548 32.8319C46.7438 31.1865 32.5516 34.4773 29.7515 34.5921C26.9514 34.7069 20.8526 43.0487 18.8964 45.7273C17.7073 47.3344 17.5923 49.4007 17.669 51.2757L18.4361 51.6967C18.4361 51.6967 25.1103 44.4263 38.1517 43.9671C48.6616 43.5844 52.1138 46.6074 53.0344 47.7553C52.9193 45.7655 52.7275 43.0487 52.7275 43.0487L53.0727 39.8344Z" fill="#838080"/>
<path d="M54.2239 39.7575C54.5308 38.3034 53.6486 36.9258 52.2293 36.6197C51.5773 36.4667 50.5033 36.3519 49.2375 36.2753C49.8128 35.2422 50.043 34.4386 50.043 34.0559C50.0046 33.0993 45.9388 30.6503 45.4401 30.8417C44.9415 31.033 34.1247 35.6248 32.5904 35.9692C32.0151 36.1223 31.2863 36.2753 30.5959 36.4284C31.4397 33.5585 31.4397 33.0228 30.6342 33.1758C29.6753 33.3672 24.5354 37.1172 24.5354 37.1172L21.3901 40.5228L19.6641 48.9412C19.6641 48.9412 22.771 46.9131 25.5711 44.311C25.6478 44.311 35.4289 44.311 41.2975 42.6274C41.7578 42.7039 46.9361 43.5457 50.3498 42.9335C50.8101 43.6988 51.9608 45.6121 52.8814 46.033C54.0321 46.5687 54.2623 42.6274 54.2623 42.6274C54.2623 42.6274 54.339 41.0585 54.2239 39.7575Z" fill="#838080"/>
<path d="M40.4537 49.4006C40.4154 50.0511 40.5304 50.6633 41.0674 51.0077C41.7962 51.5052 42.7551 51.4286 42.525 52.6531C42.2949 53.8011 41.1441 54.4516 39.2263 54.1455C39.2263 54.1455 37.4618 53.4949 38.0372 51.9643C38.6126 50.4337 39.2263 49.171 39.7633 49.1327C40.3386 49.0944 40.4537 49.4006 40.4537 49.4006Z" fill="#838080"/>
<path d="M39.227 54.1456C39.227 54.1456 38.69 53.9543 38.3065 53.4951C38.2297 53.6099 38.153 53.763 38.1147 53.916C37.8845 54.9109 38.9969 55.5232 39.8408 55.4849C40.6846 55.4466 41.2983 54.7196 41.4518 53.9543C41.6435 53.916 41.797 53.8012 41.9504 53.6482C41.375 54.1456 40.4545 54.337 39.227 54.1456Z" fill="#838080"/>
<path d="M42.4089 52.6914C41.987 54.4516 39.1485 52.347 38.3047 53.495C38.6883 53.9542 39.2253 54.1455 39.2253 54.1455C40.4911 54.3368 41.3733 54.1072 41.9486 53.648C42.1021 53.495 42.2171 53.3419 42.3322 53.1889L42.4089 52.6914Z" fill="#838080"/>
<path d="M40.4535 49.4004C40.4151 49.9744 40.4535 50.5483 40.837 50.9693C41.2206 51.4284 41.9494 51.4284 42.2946 51.9259C42.7165 52.5381 42.1028 53.4948 41.5658 53.8009C40.837 54.2218 40.0315 54.1836 39.226 54.107C39.1877 54.107 39.1877 54.1453 39.226 54.1836C40.4918 54.4514 42.0261 54.2218 42.6015 52.9208C42.8316 52.3851 42.7549 51.7728 42.2563 51.4285C42.0261 51.2754 41.7192 51.1606 41.4507 51.0458C40.6836 50.7397 40.4918 50.1657 40.4535 49.4004Z" fill="#838080"/>
<path d="M23.3471 56.9387C23.3471 57.1683 23.1169 57.3596 22.8868 57.3596C22.6566 57.3596 22.4648 57.13 22.4648 56.9004C22.4648 56.6708 22.695 56.4795 22.9251 56.4795C23.1936 56.5178 23.3854 56.7091 23.3471 56.9387Z" fill="#838080"/>
<path d="M49.2748 55.0637C49.2748 55.2933 49.0447 55.4846 48.8145 55.4846C48.5844 55.4846 48.3926 55.255 48.3926 55.0254C48.3926 54.7958 48.6227 54.6045 48.8529 54.6045C49.083 54.6045 49.2748 54.7958 49.2748 55.0637Z" fill="#838080"/>
<path d="M48.8158 55.2168C46.5527 57.9719 43.9061 59.9234 40.569 60.6122C34.9689 61.875 27.5659 60.2678 23.0781 57.0918C23.0781 57.0918 28.6399 62.7551 38.3827 62.028C38.3827 62.028 43.7143 61.7602 47.7802 56.7091L48.8158 55.2168Z" fill="#838080"/>
<path d="M48.8158 55.2168C46.5527 57.9719 43.9061 59.9234 40.569 60.6122C34.9689 61.875 27.5659 60.2678 23.0781 57.0918C23.0781 57.0918 30.9414 60.8801 38.421 60.0765C45.9007 59.3112 48.8158 55.2168 48.8158 55.2168Z" fill="#838080"/>
<path d="M23.1152 57.092C26.9126 59.9237 31.9758 61.2247 36.6553 61.2247C41.45 61.1864 45.9378 59.0818 48.8529 55.2553C48.8913 55.217 48.8146 55.1788 48.7762 55.217C47.2036 57.0155 45.5159 58.6226 43.3678 59.6941C41.2966 60.689 38.7266 60.9186 36.4635 60.9186C31.8607 60.9186 26.9893 59.6558 23.1152 57.092Z" fill="#838080"/>
<path d="M20.6224 50.4719C20.6224 50.4719 20.3923 44.4642 25.9541 44.1964C30.7871 43.9668 31.4392 48.5204 31.4392 48.5204L20.6224 50.4719Z" fill="#838080"/>
<path d="M31.5167 48.7118C29.1002 42.7041 21.2753 44.3113 20.7383 50.472C20.7383 50.472 22.963 52.9592 26.9522 52.5001C30.9797 52.0791 31.5167 48.7118 31.5167 48.7118Z" fill="#838080"/>
<path d="M24.8812 52.2323C26.9525 52.3471 28.7169 50.8165 28.8704 48.7502C28.9854 47.0282 27.8731 45.4594 26.3004 44.9619C24.3442 45.0002 22.4263 46.1099 21.4291 48.0614C21.4291 48.1379 21.3907 48.2145 21.3907 48.291C21.2756 50.3191 22.8483 52.0793 24.8812 52.2323Z" fill="#838080"/>
<path d="M24.9194 51.8497C26.7606 51.9645 28.3716 50.587 28.4866 48.712C28.6017 46.8753 27.2208 45.2681 25.3413 45.1533C25.1879 45.1533 25.0345 45.1533 24.8427 45.1533C23.8454 45.4594 22.9248 46.0334 22.196 46.8753C21.9659 47.2962 21.8125 47.7554 21.7741 48.2528C21.659 50.1278 23.0783 51.735 24.9194 51.8497Z" fill="#838080"/>
<path d="M24.9199 51.8499C26.7611 51.9647 28.3721 50.5871 28.4871 48.7504C28.1036 47.7555 27.3364 46.9519 26.1474 47.3345C25.2651 47.6024 24.6131 48.4825 24.1528 49.2478C23.6158 50.1662 23.0404 50.6254 22.1582 50.0897C22.6952 51.0463 23.7309 51.7733 24.9199 51.8499Z" fill="#838080"/>
<path d="M27.489 48.6737C27.4122 49.9747 26.2615 50.9696 24.9574 50.8931C23.6532 50.8165 22.6559 49.6686 22.7327 48.3676C22.8094 47.0665 23.9601 46.0716 25.2642 46.1482C26.6067 46.2247 27.604 47.3727 27.489 48.6737Z" fill="#838080"/>
<path d="M27.5278 47.7169C27.5278 47.9847 27.2593 48.2143 26.9908 48.2143C26.7223 48.2143 26.4922 47.9465 26.4922 47.6786C26.4922 47.4107 26.7607 47.1812 27.0292 47.1812C27.336 47.1812 27.5278 47.449 27.5278 47.7169Z" fill="#838080"/>
<path d="M25.6096 47.0667C25.6096 47.2581 25.4179 47.4111 25.2261 47.4111C25.0343 47.4111 24.8809 47.2198 24.8809 47.0285C24.8809 46.8371 25.0726 46.6841 25.2644 46.6841C25.4562 46.6841 25.6096 46.8754 25.6096 47.0667Z" fill="#838080"/>
<path d="M20.7754 50.4718C21.0439 47.9463 22.885 45.7269 25.4166 45.2294C26.529 44.9998 27.6797 45.1912 28.7153 45.6504C30.0578 46.2626 30.8633 47.4488 31.5154 48.7116C31.5154 48.7498 31.5921 48.7116 31.5538 48.6733C30.7099 46.0713 28.14 44.3876 25.455 44.8085C24.2275 44.9998 23.0768 45.6504 22.233 46.5687C21.2357 47.7167 20.8521 49.056 20.7754 50.4718Z" fill="#838080"/>
<path d="M51.5006 47.3341C51.5006 47.3341 49.9279 42.0152 45.4018 43.1249C41.1441 44.1581 41.9113 48.6351 41.9113 48.6351L51.5006 47.3341Z" fill="#838080"/>
<path d="M41.9102 48.8648C42.2937 42.5893 49.2364 42.0918 51.4227 47.3724C51.4227 47.3724 50.4255 50.2423 47.0117 51.0459C43.3677 51.926 41.9102 48.8648 41.9102 48.8648Z" fill="#838080"/>
<path d="M44.6337 50.7397C46.3981 51.1989 48.2009 49.9744 48.6228 47.9846C49.0064 45.9948 47.8557 44.1198 46.0912 43.7754C44.3652 43.9667 42.8309 45.1147 42.1788 47.2575C42.1404 48.8647 43.1377 50.357 44.6337 50.7397Z" fill="#838080"/>
<path d="M44.7101 50.3954C46.2828 50.8163 47.8938 49.7066 48.2774 47.9081C48.6226 46.1479 47.5869 44.4642 46.0143 44.1199C45.4773 44.0051 44.9403 44.0816 44.4416 44.2729C43.8663 44.6173 43.3293 45.0765 42.9073 45.6887C42.7539 45.9566 42.6388 46.2627 42.6005 46.5688C42.2169 48.2908 43.1375 49.9744 44.7101 50.3954Z" fill="#838080"/>
<path d="M44.7112 50.3953C46.2839 50.8162 47.8949 49.7066 48.2401 47.9463C48.0099 46.9515 47.4346 46.0714 46.3606 46.2627C45.5551 46.4157 44.903 47.1428 44.4044 47.8316C43.829 48.6351 43.292 48.9795 42.6016 48.329C42.9084 49.2856 43.6756 50.1275 44.7112 50.3953Z" fill="#838080"/>
<path d="M47.3567 47.7168C47.0882 48.9796 45.9759 49.7449 44.8635 49.477C43.7511 49.2092 43.0991 48.0229 43.3292 46.7984C43.5594 45.6122 44.6717 44.8086 45.7457 45.0382C46.8964 45.2678 47.6252 46.454 47.3567 47.7168Z" fill="#838080"/>
<path d="M47.5107 46.7985C47.4724 47.0664 47.2039 47.2577 46.9737 47.1812C46.7436 47.1429 46.5518 46.875 46.6285 46.6072C46.6669 46.3393 46.9354 46.148 47.1655 46.2245C47.3957 46.2628 47.5874 46.5306 47.5107 46.7985Z" fill="#838080"/>
<path d="M45.9376 45.9183C45.8992 46.1096 45.7458 46.2244 45.554 46.1862C45.4006 46.1479 45.2855 45.9566 45.3238 45.8035C45.3622 45.6122 45.5156 45.4974 45.7074 45.5357C45.8608 45.5739 45.9759 45.727 45.9376 45.9183Z" fill="#838080"/>
<path d="M51.3856 47.3724C50.4267 45.2295 48.3171 43.7372 46.1307 43.8902C45.1334 43.9668 44.2128 44.4259 43.4457 45.153C42.4868 46.1096 42.1032 47.4489 41.9114 48.8265C41.9114 48.8647 41.873 48.8647 41.873 48.8265C41.873 46.1096 43.5991 43.852 46.0156 43.5458C47.0896 43.3928 48.202 43.6989 49.1226 44.3111C50.2349 45.0382 50.9254 46.1096 51.3856 47.3724Z" fill="#838080"/>
<path d="M46.4755 22.6913C44.1357 22.1938 41.1055 21.6581 38.7273 21.9642L38.5739 22.079L38.267 22.0408C28.4092 23.9923 23.5378 29.2729 19.7405 35.2423C16.365 40.4081 15.5595 47.7168 16.2116 53.954C16.4801 56.9005 17.3623 59.6173 19.4336 61.9897C21.7351 64.477 24.0748 64.63 27.2201 64.477C20.9679 64.3239 18.935 57.704 18.7432 51.7729L18.7815 51.8112C19.8939 44.8469 26.5297 42.4362 29.9435 37.2704L30.212 37.9591C29.0229 39.8724 28.2174 41.7857 26.4913 43.2015C33.434 42.8954 42.563 42.704 46.6672 36.1989V37.2704C46.322 39.1071 44.5576 40.7525 43.2151 41.9387C45.9001 42.13 48.8536 42.2066 51.3468 41.2499L51.4619 41.403C51.3468 43.1632 52.3058 44.5025 52.8044 46.0331C53.303 47.5637 53.188 48.9795 53.1113 50.6249L53.5715 48.903C53.6099 44.5408 56.7552 41.4795 58.3662 37.6913C61.4731 30.2295 52.7277 24.1071 46.4755 22.6913Z" fill="#838080"/>
<path d="M18.8203 38.6862C18.8203 38.6862 25.9548 22.3086 42.5634 22.5765C42.5634 22.5382 28.985 22.8444 18.8203 38.6862Z" fill="#838080"/>
<path d="M49.2383 24.7192C49.2383 24.7192 61.0523 28.2779 57.0632 38.0738C57.0248 38.0738 58.981 31.1861 49.2383 24.7192Z" fill="#838080"/>
<path d="M26.9133 43.1249C33.6258 42.8187 42.2178 42.5126 46.3987 36.5815L47.3193 34.6682L48.0097 32.9463C42.4096 41.8238 26.8749 43.0483 26.8749 43.0483L26.9133 43.1249ZM58.7114 36.505C58.6347 36.6198 58.5963 36.7346 58.5196 36.9259C57.2538 39.9871 54.3387 41.9004 54.7606 40.9055C55.1825 39.8723 55.336 37.5381 55.336 37.5381C50.7331 41.6708 43.3685 41.7856 43.3685 41.7856V41.9004C46.0152 42.0534 48.9303 42.1682 51.3852 41.2116L51.5003 41.3647C51.3852 43.1249 52.3441 44.4641 52.8428 45.9948C53.3414 47.5254 53.2263 48.9412 53.1496 50.5866L53.6099 48.8647C53.6483 44.5024 56.7936 41.4412 58.4046 37.6529C58.4813 37.232 58.5963 36.8493 58.7114 36.505ZM18.7432 51.7346L18.7815 51.7728C19.8555 45.0381 26.1078 42.5509 29.5983 37.6912C30.1353 36.658 30.5572 35.8162 30.5572 35.8162C29.2531 37.6147 26.9516 39.3366 23.8447 41.9386C20.7378 44.5407 18.8966 47.8315 18.8966 47.8315C18.8199 46.5687 18.935 45.4973 18.935 45.4973C17.1705 51.1223 17.4007 54.6427 19.3185 59.7703C21.0446 64.4386 26.1461 64.5152 27.0667 64.4769C27.1434 64.4769 27.2201 64.4769 27.2201 64.4769C21.0063 64.2856 18.935 57.6657 18.7432 51.7346Z" fill="#838080"/>
<path d="M29.0609 26.709C28.8691 27.1682 28.5623 27.6274 28.4089 28.0483C29.5212 27.8569 29.8281 27.6274 30.6336 28.3927C31.4391 29.158 31.324 29.5406 32.6665 29.6171C34.4693 29.6937 36.2721 29.311 38.0749 29.158C40.5297 28.9666 43.138 29.2728 45.5162 29.7319C47.7409 30.1529 51.4615 32.334 53.6479 31.2243C54.7603 30.6503 56.1028 29.5789 54.8753 28.3161C57.0617 30.2294 58.0973 31.9896 57.6754 34.936C57.4069 33.5585 56.5247 34.4768 55.6425 34.4768C54.7603 34.4768 53.9548 33.5967 53.1109 33.1376C51.0396 31.9513 49.0834 31.3391 46.7053 31.0712C42.9462 30.6503 39.801 31.3774 36.2337 32.5253C33.472 33.4437 32.1295 33.2524 29.7514 31.9513C28.639 31.3391 27.6801 30.9564 26.4143 30.9564C25.417 30.9564 24.0361 31.4539 23.3457 31.4539C23.3457 31.4539 24.1128 30.459 25.9924 28.584C27.9102 26.7473 29.0609 26.709 29.0609 26.709Z" fill="#838080"/>
<path d="M42.2569 29.885C40.4925 29.8467 39.1883 30.1911 37.4239 30.4207C35.4293 30.6886 33.1662 31.1095 31.2867 30.2294C29.9059 29.5789 29.1387 28.6222 27.6044 28.6605C27.5661 28.3926 27.6428 28.0865 27.7195 27.8569L27.6428 27.9717C25.8784 28.8518 24.5742 30.6503 24.5742 30.6503C27.4127 29.9615 28.3332 30.4972 30.2894 31.5687C32.2457 32.6401 34.1635 32.2957 38.0376 31.2243C41.95 30.1529 46.5146 30.5355 46.5146 30.5355C45.5173 30.1146 43.3693 29.9233 42.2569 29.885ZM55.6819 29.7319C55.2216 32.1809 52.1147 31.9896 52.1147 31.9896C52.1147 31.9896 53.5339 32.8697 54.3778 33.2906C55.2216 33.7498 55.8354 33.7115 56.4874 33.5202C57.1395 33.3289 57.4847 33.8263 57.4847 33.8263C57.5614 31.1095 55.6819 29.7319 55.6819 29.7319Z" fill="#838080"/>
<path d="M27.2979 64.2858H27.2596C27.0294 64.2476 26.7609 64.2476 26.5308 64.2476C24.8814 64.0562 23.3855 63.3675 22.2348 62.143C20.8923 60.7271 20.0868 58.8521 19.5881 57.0154C18.5909 53.3802 18.5525 49.2858 19.2429 45.6123C18.4758 49.4006 18.5525 53.4185 19.5114 57.1685C20.3169 60.3445 22.1964 63.3292 25.3417 64.2858C24.6129 64.2858 23.9225 64.2093 23.2321 64.018C21.7745 63.6736 20.5087 62.7935 19.5498 61.6838C17.4018 59.2348 16.673 56.1353 16.4045 52.9976C15.8675 46.6455 16.7881 40.1021 20.2786 34.7067C22.1581 31.8368 24.3828 29.1583 27.1062 27.0537C30.4049 24.4899 34.3173 23.0358 38.3832 22.1557C38.4599 22.1557 38.4215 22.0409 38.3448 22.0409C32.9365 23.0358 27.95 25.5613 24.1527 29.5409C22.5033 31.2246 21.1224 33.1379 19.8566 35.1277C18.2456 37.6532 17.1716 40.4465 16.5963 43.393C16.0976 45.9185 15.9058 48.444 15.9442 51.0078C15.9826 53.4185 16.2127 55.8675 17.0182 58.1634C17.7853 60.3445 19.2046 62.4491 21.1991 63.6736C22.043 64.171 22.9636 64.4771 23.9225 64.6302C24.4595 64.7067 24.9965 64.745 25.5335 64.745C26.1089 64.745 26.7993 64.8215 27.3363 64.6685C27.413 64.5537 27.413 64.3241 27.2979 64.2858ZM30.635 35.893C28.9089 38.8777 26.2623 41.0205 23.7691 43.3547C21.2759 45.6889 19.2813 48.3292 18.7826 51.7731C19.4347 48.1761 21.7745 45.5741 24.3828 43.2016C26.7609 41.0588 29.4076 38.9542 30.7501 35.9695C30.8268 35.893 30.6734 35.8164 30.635 35.893ZM30.0213 38.2271C30.098 38.1124 30.1747 37.9976 30.2514 37.8828C30.1364 37.9976 30.098 38.1124 30.0213 38.2271ZM26.4924 43.2782C33.9721 43.0486 43.9066 42.6659 47.4738 34.7833C47.5122 34.745 47.3971 34.6685 47.3971 34.745C43.5614 42.3598 34.2406 42.5129 26.7993 42.972C27.0294 42.6659 27.413 42.3598 27.6432 42.0919C28.0267 41.671 28.3336 41.2118 28.6404 40.7144C29.024 40.1021 29.3309 39.4516 29.7144 38.8394C29.3692 39.4134 29.024 39.9491 28.6788 40.5231C28.4103 40.944 28.1418 41.3649 27.8349 41.7476C27.5281 42.1302 27.0294 42.8572 26.5308 43.0103C26.339 43.0486 26.3007 43.2782 26.4924 43.2782ZM51.5781 41.3649C51.5781 41.3266 51.5397 41.2884 51.5397 41.2501C53.1124 40.5613 54.4932 39.4899 55.3754 37.768C55.4138 37.6914 55.3371 37.6532 55.2604 37.6914C53.9946 39.7195 52.1534 40.9057 49.8136 41.4414C47.704 41.9389 45.5943 41.7476 43.4463 41.7093C43.7148 41.3649 44.1751 41.0588 44.4436 40.7527C44.7505 40.4465 45.0573 40.1021 45.3642 39.7578C46.0163 38.9925 46.4766 38.1124 46.6683 37.1557C46.4766 38.0741 45.9779 38.8394 45.4026 39.5664C45.0957 39.9491 44.7505 40.3317 44.3669 40.6761C44.0601 40.9822 43.5998 41.5562 43.1778 41.7093C43.0244 41.7476 43.0628 41.9389 43.1778 41.9771C45.7861 42.3215 48.778 42.2833 51.2712 41.2884C51.1945 42.7425 51.8466 44.0052 52.4219 45.3062C53.1124 46.9899 53.1124 48.7118 53.074 50.5103C53.2274 48.9032 53.3041 47.3343 52.8055 45.7271C52.3836 44.3113 51.5014 42.972 51.5781 41.3649ZM59.0577 33.2909C58.3673 28.6608 53.8411 25.4083 49.8903 23.6481C48.3944 22.9976 46.8601 22.6149 45.2875 22.3088C43.1778 21.8879 40.9148 21.5435 38.7668 21.8879C38.69 21.8879 38.69 22.0409 38.8051 22.0409C41.797 21.8113 45.019 22.347 47.8574 23.2271C50.1972 23.9542 52.3836 25.1404 54.3014 26.6328C56.2193 28.1251 57.8687 30.0766 58.5591 32.4108C59.3646 35.1277 58.3289 37.5766 56.9864 39.9108C55.3754 42.7042 53.5343 45.4593 53.5726 48.7884C53.5726 48.8266 53.611 48.8266 53.611 48.7884C53.7261 45.5358 55.6056 42.9338 57.1782 40.2552C58.4057 38.1123 59.4413 35.8547 59.0577 33.2909Z" fill="#838080"/>
</svg>
