<?xml version="1.0" encoding="utf-8"?>
<!-- Generator: Adobe Illustrator 25.2.3, SVG Export Plug-In . SVG Version: 6.00 Build 0)  -->
<svg version="1.1" id="OBJECTS" xmlns="http://www.w3.org/2000/svg" xmlns:xlink="http://www.w3.org/1999/xlink" x="0px" y="0px"
	 viewBox="0 0 750 500" style="enable-background:new 0 0 750 500;" xml:space="preserve">
<style type="text/css">
	.st0{opacity:0.43;}
	.st1{fill:#0C7846;}
	.st2{opacity:0.21;}
	.st3{fill:#1C3F2D;}
	.st4{opacity:0.46;}
	.st5{fill:#175B3B;}
	.st6{fill:#80BF78;}
	.st7{fill:#95DB8A;}
	.st8{clip-path:url(#SVGID_2_);}
	.st9{fill:#FEFFFF;}
	.st10{fill:#EA9640;}
	.st11{clip-path:url(#SVGID_4_);}
	.st12{fill:#173323;}
	.st13{fill:#142D1F;}
	.st14{fill:#173525;}
</style>
<g>
	<g class="st0">
		<path class="st1" d="M526.1,151.9c11.1,45.9,32.4,89,32.4,89l-38.1-19.3l-27.6-14l-13.8-7c0,0-4.4-9.5-3.8-29.1
			c0.3-11,2.2-25.2,7.3-42.7c1.8-6.2,3.2-12.5,4.2-18.7C493.9,67.2,485,26,485,26l23.8-5.4c0,0,1.3,7.2,3,19.7
			c1.3,9.1,2.9,21.1,4.4,35.3c0,0,0,0.1,0,0.3c0,0.1,0,0.1,0,0.2c0,0.1,0,0.2,0,0.3c0,0.1,0,0.2,0,0.2c0,0,0,0.1,0,0.1
			c1.3,11.8,2.6,25,3.7,39.4C521,127.8,523.2,140,526.1,151.9z"/>
		<g class="st2">
			<path class="st3" d="M511.8,40.3c1.3,9.1,2.9,21.1,4.4,35.3c0,0,0,0.1,0,0.3c0,0.1,0,0.1,0,0.2c0,0.1,0,0.2,0,0.3
				c0,0.1,0,0.2,0,0.2c0,0,0,0.1,0,0.1c0.6,7,1.7,46.3-41.2,94.8c0.3-11,2.2-25.2,7.3-42.7c1.8-6.2,3.2-12.5,4.2-18.7
				C486.7,110.1,506.1,83.5,511.8,40.3z"/>
			<path class="st3" d="M526.1,151.9c1.4,12.8,3.1,41.7-5.7,69.7l-27.6-14c0,0,26.7-40.4,27.3-91.5C521,127.8,523.2,140,526.1,151.9
				z"/>
		</g>
	</g>
	<g class="st0">
		<path class="st1" d="M641.8,203.4c-10.1,20.9-23.7,29.6-34.3,33.2c-9.3,3.2-16.2,2.4-16.2,2.4c-1-4.3-2-10.8-2.7-18.9
			c-1-10.9-1.4-24.7-0.9-39.9c0.6-15.6,2.3-32.8,5.7-49.8c0.6-3,1.3-6,2-9c11.6-48.6,3.6-67,3.6-67c8.4-19.4,16.9-10.6,16.9-10.6
			c1.5,7.3,1.8,15.3,1.8,23.8c-0.1,7.9-0.6,16.2-1,24.8v0c-0.4,7.7-0.8,15.5-0.8,23.4c0,7.9,0.3,15.8,1.4,23.6c0,0,0,0,0,0
			c0.3,2.4,0.7,4.8,1.2,7.2C625.2,182.8,641.8,203.4,641.8,203.4z"/>
		<g class="st2">
			<g>
				<path class="st3" d="M617.7,67.8c-0.1,7.9-0.6,16.2-1,24.8v0c-9.3,49.4-26.6,83.4-28.8,87.7c0.6-15.6,2.3-32.8,5.7-49.8
					C610.8,100.5,616.1,77.8,617.7,67.8z"/>
				<path class="st3" d="M607.6,236.6c-9.3,3.2-16.2,2.4-16.2,2.4c-1-4.3-2-10.8-2.7-18.9c0,0,18.9-29.7,27.1-104.1c0,0,0,0,0,0
					c0,7.9,0.3,15.8,1.4,23.6c0,0,0,0,0,0C617.2,140.4,617.5,185.6,607.6,236.6z"/>
			</g>
		</g>
	</g>
	<g class="st0">
		<path class="st1" d="M133.5,190.8c7.6,20.9,17.8,29.6,25.8,33.2c7,3.2,12.2,2.3,12.2,2.3c0.8-4.3,1.5-10.8,2-18.9
			c0.7-10.9,1.1-24.7,0.7-39.9c-0.4-15.6-1.7-32.8-4.3-49.8c-0.5-3-0.9-6-1.5-9c-8.7-48.6-2.7-67-2.7-67
			C159.4,22.5,153,31.3,153,31.3c-1.1,7.3-1.4,15.3-1.3,23.8c0.1,7.9,0.4,16.2,0.8,24.8v0c0.3,7.7,0.6,15.5,0.6,23.4
			c0,7.9-0.2,15.8-1,23.6c0,0,0,0,0,0c-0.2,2.4-0.5,4.8-0.9,7.2C146,170.1,133.5,190.8,133.5,190.8z"/>
		<g class="st2">
			<g>
				<path class="st3" d="M151.6,55.2c0.1,7.9,0.4,16.2,0.8,24.8v0c7,49.4,20,83.4,21.7,87.7c-0.4-15.6-1.7-32.8-4.3-49.8
					C156.8,87.8,152.8,65.2,151.6,55.2z"/>
				<path class="st3" d="M159.2,224c7,3.2,12.2,2.3,12.2,2.3c0.8-4.3,1.5-10.8,2-18.9c0,0-14.2-29.7-20.4-104.1c0,0,0,0,0,0
					c0,7.9-0.2,15.8-1,23.6c0,0,0,0,0,0C152,127.8,151.8,172.9,159.2,224z"/>
			</g>
		</g>
	</g>
	<g class="st0">
		<path class="st1" d="M289.7,200.5c-11,45.9-31.2,89.2-31.2,89.2l34.6-20.1l25.1-14.6l12.5-7.3c0,0,4.2-9.5,4.1-29
			c0-10.9-1.4-25-5.6-42.3c-1.5-6.1-2.6-12.3-3.4-18.5c-5.4-42.5,3.5-83.7,3.5-83.7l-21.2-4.8c0,0-1.3,7.1-3.2,19.7
			c-1.4,9.1-3.1,21.1-4.8,35.2c0,0,0,0.1,0,0.3c0,0.1,0,0.1,0,0.2c0,0.1,0,0.2,0,0.3c0,0.1,0,0.2,0,0.2c0,0,0,0.1,0,0.1
			c-1.4,11.7-2.9,25-4.3,39.3C294.8,176.3,292.6,188.5,289.7,200.5z"/>
		<g class="st2">
			<path class="st3" d="M305.1,89.1c-1.4,9.1-3.1,21.1-4.8,35.2c0,0,0,0.1,0,0.3c0,0.1,0,0.1,0,0.2c0,0.1,0,0.2,0,0.3
				c0,0.1,0,0.2,0,0.2c0,0,0,0.1,0,0.1c-0.7,7-2.7,46.1,34.7,93.3c0-10.9-1.4-25-5.6-42.3c-1.5-6.1-2.6-12.3-3.4-18.5
				C326,157.9,309.2,131.9,305.1,89.1z"/>
			<path class="st3" d="M289.7,200.5c-1.6,12.7-3.8,41.5,3.4,69.2l25.1-14.6c0,0-23-39.6-22.3-90.3
				C294.8,176.3,292.6,188.5,289.7,200.5z"/>
		</g>
	</g>
	<g class="st4">
		<path class="st1" d="M93.6,225.2c0,0-16.5,10.4-40.7-0.5c-7.6-3.4-15.9-8.9-24.7-17.4c-4.4-4.3-9-9.4-13.6-15.3c0,0,0-0.7,0.2-2
			c0.5-5.4,2.6-22,10.5-52.2c0,0,0,0,0,0c0.4-1.5,0.8-3,1.2-4.6c11-41-2-76.7-2-76.7l16-1.9c0,0,3.1,5.8,7,15.2
			c1.6,3.7,3.3,8,5,12.7c2.7,7.4,5.3,15.8,7.4,24.7c2.1,8.9,3.7,18.3,4.3,27.7c0.2,2.7,0.4,5.3,0.6,7.8v0
			C69.9,192.5,93.6,225.2,93.6,225.2z"/>
		<g class="st2">
			<path class="st3" d="M14.8,189.9c0.5-5.4,2.6-22,10.5-52.2c0,0,0,0,0,0c0.4-0.6,19.4-28.3,22.1-67.9c1.6,3.7,3.3,8,5,12.7
				C52.4,82.5,59.4,141.8,14.8,189.9z"/>
			<path class="st3" d="M64.7,142.8L64.7,142.8c-1.3,45.7-10.6,77.9-11.8,81.9c-7.6-3.4-15.9-8.9-24.7-17.4
				c40.7-45.8,31.6-100,31.6-100s0,0,0,0c2.1,8.9,3.7,18.3,4.3,27.7C64.3,137.6,64.5,140.2,64.7,142.8z"/>
		</g>
	</g>
	<g class="st4">
		<path class="st1" d="M480.2,230.3c0,0-14.5,13.4-35.8-0.7c-6.7-4.4-14-11.5-21.7-22.5c-3.9-5.6-7.9-12.1-12-19.8
			c0,0,0-0.9,0.1-2.6c0.4-7,2.3-28.4,9.2-67.5c0,0,0,0,0,0c0.3-1.9,0.7-3.9,1.1-5.9c9.7-53.1-1.8-99.2-1.8-99.2l14.1-2.4
			c0,0,2.7,7.5,6.2,19.7c1.4,4.8,2.9,10.3,4.4,16.4c2.3,9.5,4.7,20.4,6.6,32c1.9,11.5,3.3,23.7,3.8,35.8c0.1,3.4,0.3,6.8,0.6,10.1v0
			C459.3,188,480.2,230.3,480.2,230.3z"/>
		<g class="st2">
			<path class="st3" d="M410.8,184.7c0.4-7,2.3-28.4,9.2-67.5c0,0,0,0,0,0c0.4-0.8,17.1-36.7,19.5-87.8c1.4,4.8,2.9,10.3,4.4,16.4
				C443.9,45.8,450.1,122.5,410.8,184.7z"/>
			<path class="st3" d="M454.8,123.7L454.8,123.7c-1.2,59.1-9.4,100.8-10.4,105.9c-6.7-4.4-14-11.5-21.7-22.5
				c35.8-59.2,27.8-129.4,27.8-129.4s0,0,0,0c1.9,11.5,3.3,23.7,3.8,35.8C454.4,117,454.6,120.4,454.8,123.7z"/>
		</g>
	</g>
	<g class="st4">
		<path class="st1" d="M749.2,269.9c0,0-14.5,13.4-35.8-0.7c-6.7-4.4-14-11.5-21.7-22.5c-3.9-5.6-7.9-12.1-12-19.8
			c0,0,0-0.9,0.1-2.6c0.4-7,2.3-28.4,9.2-67.5c0,0,0,0,0,0c0.3-1.9,0.7-3.9,1.1-5.9c9.7-53.1-1.8-99.2-1.8-99.2l14.1-2.4
			c0,0,2.7,7.5,6.2,19.7c1.4,4.8,2.9,10.3,4.4,16.4c2.3,9.5,4.7,20.4,6.6,32c1.9,11.5,3.3,23.7,3.8,35.8c0.1,3.4,0.3,6.8,0.6,10.1v0
			C728.4,227.6,749.2,269.9,749.2,269.9z"/>
		<g class="st2">
			<path class="st3" d="M679.8,224.3c0.4-7,2.3-28.4,9.2-67.5c0,0,0,0,0,0c0.4-0.8,17.1-36.7,19.5-87.8c1.4,4.8,2.9,10.3,4.4,16.4
				C712.9,85.4,719.2,162.1,679.8,224.3z"/>
			<path class="st3" d="M723.8,163.3L723.8,163.3c-1.2,59.1-9.4,100.8-10.4,105.9c-6.7-4.4-14-11.5-21.7-22.5
				c35.8-59.2,27.8-129.4,27.8-129.4s0,0,0,0c1.9,11.5,3.3,23.7,3.8,35.8C723.4,156.6,723.6,160,723.8,163.3z"/>
		</g>
	</g>
</g>
<path class="st5" d="M0,126.2c0,0,8.2-18.6,24.7-16.2c16.5,2.3,14.8,23.9,14.8,23.9s6.8-16.2,18.8-12.1
	c11.9,4.1,10.2,21.5,10.2,21.5s21.9-23.8,49.4-15.5s18.5,45.9,18.5,45.9s9-9,16.9-6.2c7.8,2.8,5.5,16.4,5.5,16.4s5.1-12.4,21.1-9
	c15.9,3.4,13.6,18,13.6,18s8.4-8.4,20.2,0.1c11.7,8.5,9.5,21.2,9.5,21.2s11.9-12.7,25-4c13.1,8.8,8.3,31.8,8.3,31.8
	s0.3-12.4,14.2-11.4c13.9,1,13.9,14.3,13.9,14.3s-1.5-18.1,13.7-21.2c15.2-3,24.4,12.5,24.4,12.5s-9.2-49.9,26.1-57.7
	c35.3-7.7,55.3,23.2,55.3,23.2s-2.8-26.1,13.3-31.3c16.1-5.2,26.9,13.5,26.9,13.5s-3.9-32.3,31-39.5c34.9-7.2,40.2,26,40.2,26
	s5-25.8,30-23.5c25,2.3,29,26.8,29,26.8s9.4-9.4,21.2-3.3c11.8,6.1,8.9,19.8,8.9,19.8s10.3-7.4,17.1-2.3c6.8,5.1,4.5,18.3,4.5,18.3
	s11.9-17.8,33.5-8.7s17.1,38.7,17.1,38.7s6.3-12.9,18.8-9c12.5,3.9,10.8,23.2,10.8,23.2s-0.6-21.7,17.1-27.6
	c17.6-5.9,26.6,4.4,26.6,4.4v236.5H-0.1L0,126.2z"/>
<g>
	<path class="st6" d="M750,346.5c0,0-324.2-82-750.1,31.6V500H750V346.5z"/>
	<g>
		<ellipse class="st7" cx="629.8" cy="343.9" rx="13.9" ry="6.8"/>
		<ellipse class="st7" cx="611.8" cy="485" rx="13.9" ry="6.8"/>
		<ellipse class="st7" cx="354.5" cy="404.7" rx="20.5" ry="10"/>
		<ellipse class="st7" cx="298.2" cy="354" rx="20.5" ry="10"/>
		<ellipse class="st7" cx="646.6" cy="467.7" rx="21.6" ry="10.5"/>
		<ellipse class="st7" cx="558.7" cy="394.3" rx="8.9" ry="4.3"/>
		<ellipse class="st7" cx="544.7" cy="445.1" rx="17.9" ry="8.7"/>
		<ellipse class="st7" cx="436.1" cy="487.3" rx="8.9" ry="4.3"/>
		<ellipse class="st7" cx="389.9" cy="436.4" rx="14.1" ry="6.8"/>
		<ellipse class="st7" cx="387.3" cy="390.4" rx="8.9" ry="4.3"/>
		<ellipse class="st7" cx="648.2" cy="403.7" rx="8.9" ry="4.3"/>
	</g>
	<path class="st6" d="M622.3,331.4c0,0-7.4-19.5-3.5-20.1s5.5,15.2,5.5,15.2s10.1-15.8,13-13C640.3,316.2,629.2,327.9,622.3,331.4z"
		/>
	<path class="st6" d="M303.6,332.7c0,0-17.4-24.4-12.2-26.1c5.2-1.7,12.9,20.6,12.9,20.6s6.3-24,12.5-21
		C323,309.3,312,330,303.6,332.7z"/>
</g>
<g>
	<defs>
		<rect id="SVGID_1_" width="750" height="500"/>
	</defs>
	<clipPath id="SVGID_2_">
		<use xlink:href="#SVGID_1_"  style="overflow:visible;"/>
	</clipPath>
	<g class="st8">
		<g>
			<g>
				<path class="st1" d="M673.7,409.2c0,0,3.3,7,5.4,20.1c2,13-0.7,21.9,0,22.4c0.7,0.5,2.8-0.5,3.8-1.9c1-1.3,0.5-23.4-8.2-40.6
					H673.7z"/>
				<path class="st1" d="M681,434.8c0,0-2.4-12.2,9.2-13.8C690.2,421,689.9,432.1,681,434.8z"/>
			</g>
			<g>
				<g>
					<path class="st9" d="M671.4,405.9c0,0-3.1-0.7-7.9-1.2c-4.9-0.5-3.4-5.2,1.6-10.3c5.1-5.1,8.9-3.6,8.6,1.5
						c-0.3,5.1-1,8.6-1,8.6L671.4,405.9z"/>
					<path class="st9" d="M671.4,405.9c0,0-8.4-2.6-12-0.5c-3.6,2.1-5.1,8.7-2.3,9.6C659.9,415.9,670.3,409.9,671.4,405.9z"/>
					<path class="st9" d="M671.4,405.9c0,0-10.9,5.6-12.3,10.3s3.7,6.8,9.2,4.4C673.7,418,671.4,405.9,671.4,405.9z"/>
					<path class="st9" d="M671.9,405.4c-0.3,0-1.1,10,1.4,12.4c2.5,2.4,9.2-1.8,10.8-6.6C685.7,406.5,678,405.7,671.9,405.4z"/>
					<path class="st9" d="M671.9,405.4c0,0,8.9,1.9,13.6,0.5c4.7-1.4,6.5-11.2,2.3-11.4S678.1,398.1,671.9,405.4z"/>
					<path class="st9" d="M671.9,405.4c0,0-0.4-13,3.8-15.5c4.2-2.5,10.5-1.3,10.7,2.8S674.3,401.2,671.9,405.4z"/>
				</g>
				<path class="st10" d="M673.3,403.5c1.3,0.8-0.9,4.5-2.5,3.6C669.2,406.3,671.6,402.5,673.3,403.5z"/>
			</g>
		</g>
		<g>
			<g>
				<path class="st1" d="M388.4,444.1c0,0,3,6.4,4.9,18.3c1.9,11.9-0.7,20,0,20.5c0.7,0.5,2.6-0.5,3.5-1.7
					c0.9-1.2,0.5-21.4-7.5-37.1H388.4z"/>
				<path class="st1" d="M395.1,467.5c0,0-2.2-11.2,8.4-12.6C403.5,454.9,403.2,465.1,395.1,467.5z"/>
			</g>
			<g>
				<g>
					<path class="st9" d="M386.3,441.1c0,0-2.8-0.7-7.2-1.1c-4.5-0.5-3.1-4.8,1.5-9.4c4.6-4.6,8.1-3.3,7.9,1.4
						c-0.2,4.6-0.9,7.8-0.9,7.8L386.3,441.1z"/>
					<path class="st9" d="M386.3,441.1c0,0-7.7-2.4-10.9-0.5c-3.3,1.9-4.7,8-2.1,8.8C375.8,450.2,385.3,444.8,386.3,441.1z"/>
					<path class="st9" d="M386.3,441.1c0,0-9.9,5.1-11.3,9.4c-1.4,4.3,3.4,6.2,8.4,4C388.4,452.2,386.3,441.1,386.3,441.1z"/>
					<path class="st9" d="M386.7,440.6c-0.2,0-1,9.1,1.3,11.3c2.3,2.2,8.4-1.7,9.9-6C399.4,441.6,392.3,440.9,386.7,440.6z"/>
					<path class="st9" d="M386.7,440.6c0,0,8.1,1.7,12.5,0.4c4.3-1.2,5.9-10.3,2.1-10.4C397.5,430.6,392.4,434,386.7,440.6z"/>
					<path class="st9" d="M386.7,440.6c0,0-0.4-11.9,3.5-14.2c3.9-2.3,9.6-1.2,9.7,2.6C400.1,432.8,388.9,436.8,386.7,440.6z"/>
				</g>
				<path class="st10" d="M388.1,438.9c1.2,0.7-0.8,4.2-2.3,3.3C384.3,441.4,386.5,438,388.1,438.9z"/>
			</g>
		</g>
		<g>
			<g>
				<path class="st1" d="M702.7,358.9c0,0,3.8,4.2,7.9,12.9c4.1,8.7,4,15.4,4.6,15.6c0.6,0.2,1.8-1,2.3-2.1
					c0.4-1.1-4.4-16.4-14-26.7L702.7,358.9z"/>
				<path class="st1" d="M713,375.3c0,0-4.2-8,3.6-11.5C716.6,363.7,718.7,371.6,713,375.3z"/>
			</g>
			<g>
				<g>
					<path class="st9" d="M700.4,357.1c0,0-2.3,0.1-5.8,0.8c-3.5,0.6-3.5-2.9-1-7.5c2.5-4.6,5.5-4.3,6.3-0.7s1.1,6.2,1.1,6.2
						L700.4,357.1z"/>
					<path class="st9" d="M700.4,357.1c0,0-6.4-0.1-8.5,2.1s-1.8,7.1,0.3,7.2C694.4,366.4,700.4,360.1,700.4,357.1z"/>
					<path class="st9" d="M700.4,357.1c0,0-6.4,6.1-6.5,9.7c-0.1,3.6,4,4,7.3,1.2S700.4,357.1,700.4,357.1z"/>
					<path class="st9" d="M700.6,356.6c-0.2,0,1.3,7.2,3.5,8.3c2.2,1.2,6-3.1,6.2-6.8C710.5,354.5,704.9,355.6,700.6,356.6z"/>
					<path class="st9" d="M700.6,356.6c0,0,6.6-0.5,9.6-2.5c3-1.9,2.2-9.2-0.7-8.4C706.6,346.5,703.5,350.3,700.6,356.6z"/>
					<path class="st9" d="M700.6,356.6c0,0-3-9-0.5-11.6c2.4-2.6,7.1-3.1,8-0.2C709.1,347.7,701.5,353.2,700.6,356.6z"/>
				</g>
				<path class="st10" d="M701.3,355c1.1,0.3,0.3,3.4-1,3.1S699.9,354.6,701.3,355z"/>
			</g>
		</g>
		<g>
			<g>
				<path class="st1" d="M636.7,513.4c0,0,7.6,8.6,16,26.3c8.3,17.7,8.1,31.4,9.3,31.8c1.3,0.5,3.8-1.9,4.6-4.2
					c0.8-2.3-9-33.5-28.5-54.3L636.7,513.4z"/>
				<path class="st1" d="M657.7,546.7c0,0-8.5-16.3,7.2-23.4C664.9,523.3,669.2,539.2,657.7,546.7z"/>
			</g>
			<g>
				<g>
					<path class="st9" d="M631.9,509.7c0,0-4.6,0.3-11.8,1.6c-7.1,1.3-7.1-5.9-2-15.3s11.1-8.8,12.9-1.5c1.7,7.3,2.2,12.6,2.2,12.6
						L631.9,509.7z"/>
					<path class="st9" d="M631.9,509.7c0,0-13-0.3-17.2,4.2c-4.2,4.5-3.7,14.5,0.7,14.7C619.8,528.7,632.1,515.8,631.9,509.7z"/>
					<path class="st9" d="M631.9,509.7c0,0-13.1,12.5-13.3,19.7c-0.2,7.3,8.1,8.1,14.8,2.4C640.2,526,631.9,509.7,631.9,509.7z"/>
					<path class="st9" d="M632.4,508.8c-0.4,0.1,2.7,14.6,7.2,17c4.5,2.4,12.3-6.4,12.6-13.8C652.5,504.5,641.2,506.6,632.4,508.8z"
						/>
					<path class="st9" d="M632.4,508.8c0,0,13.4-1.1,19.6-5c6.2-3.9,4.5-18.7-1.4-17.1C644.6,488.2,638.3,495.9,632.4,508.8z"/>
					<path class="st9" d="M632.4,508.8c0,0-6-18.3-1-23.6c5-5.3,14.4-6.2,16.3-0.4C649.6,490.5,634.1,501.9,632.4,508.8z"/>
				</g>
				<path class="st10" d="M633.7,505.5c2.2,0.6,0.6,6.8-2.1,6.2C629,511.1,630.9,504.7,633.7,505.5z"/>
			</g>
		</g>
	</g>
</g>
<g>
	<defs>
		<rect id="SVGID_3_" width="750" height="500"/>
	</defs>
	<clipPath id="SVGID_4_">
		<use xlink:href="#SVGID_3_"  style="overflow:visible;"/>
	</clipPath>
	<g class="st11">
		<g>
			<path class="st3" d="M427.3,500H0l0-31.9l-0.1-147.6c0,0,13.9-6.4,35.4-19.4h0c11.2-6.8,24.5-15.5,39-26
				c20.1-14.6,42.5-32.9,64.8-54.9c24.5-24.2,37.7-55.3,44.4-85.3h0c12.2-54.4,3.3-105.4,3.3-105.4h95.8c0,0,4.3,17.5,7.1,45.9v0.1
				c0,0.1,0,0.1,0,0.1s0,0,0,0c0.8,8,1.5,16.8,1.9,26.4c0.5,11.8,0.7,24.7,0.2,38.4v0c0,0.1,0,0.3,0,0.4c-0.1,2.3-0.2,4.6-0.3,6.9
				c0,0,0,0.1,0,0.1c-1,18.5-3.1,38.3-6.9,58.8c-2.2,11.6-4.1,23.3-5.6,34.8c0,0,0,0,0,0v0c-0.7,4.9-1.3,9.7-1.9,14.5c0,0,0,0,0,0.1
				c-3.4,29.2-4.9,57.1-4.4,81.5c0.8,40.4,7,71.4,18.9,83.2c23.1,23,51.1,6.3,72.2,16.9C384.8,448.2,401.4,491.4,427.3,500z"/>
			<g>
				<g>
					<path class="st12" d="M289.6,75.7C289.6,75.7,289.6,75.7,289.6,75.7c0,1.7-1,88.2-215.4,199.4c20.1-14.6,42.5-32.9,64.8-54.9
						c24.5-24.2,37.7-55.3,44.4-85.3h0c1.1-1,54.6-48.2,76.6-105.4h22.5c0,0,4.3,17.5,7.1,45.9v0.1
						C289.6,75.7,289.6,75.7,289.6,75.7z"/>
					<path class="st12" d="M291.7,140.5L291.7,140.5C291.6,140.5,291.6,140.5,291.7,140.5c0,0.1,0,0.2,0,0.4c0,0.9,0,3.2-0.3,6.9
						c0,0,0,0.1,0,0.1C288.6,184,261.5,345.1,0,468.1l-0.1-147.6c0,0,13.9-6.4,35.4-19.4h0c0,0,207.6-20.8,256.1-198.8
						c0-0.1,0-0.1,0.1-0.2C292,113.9,292.1,126.8,291.7,140.5z"/>
					<path class="st12" d="M272.5,337.6C248.7,450.3,175.8,497.6,172,500H54.6C231.9,425.4,269.3,298.9,277,256.1
						C273.5,285.3,272,313.2,272.5,337.6z"/>
				</g>
			</g>
		</g>
		<g>
			<path class="st13" d="M507.1,0c0,0,15,26.4-3.3,45.7s-47.2,4.4-47.2,4.4s-0.5,13.1-11.9,16.2c-11.4,3.1-17.4-8.7-17.4-8.7
				s-1.6,13.7-8.4,14.3c-6.7,0.6-11.3-11.1-11.3-11.1s0.9,15.7-15,21.2c-15.9,5.5-25.2-9.4-25.2-9.4s-8.7,18.3-32.4,25
				c-23.6,6.7-38.5-9.4-38.5-9.4s-1.2,26.8-32,26.1c-30.9-0.6-29.6-38.6-29.6-38.6s-1.2,12.4-11.2,14.3c-10,1.9-10.1-19.3-10.1-19.3
				S211.7,88,193.4,93c-18.3,5-21.5-14.3-21.5-14.3s-4.9,19.9-21.7,21.2c-16.7,1.2-18.1-20.5-18.1-20.5s-8.9,26.8-32.4,20.5
				c-23.5-6.2-13.5-34.2-13.5-34.2S78.1,78.7,66.9,75c-11.2-3.7,0-17.9,0-17.9S42,82.4,21.5,73.7C0.9,65-0.1,25.2-0.1,25.2V0H507.1z
				"/>
			<path class="st13" d="M486.3,0c0,0-16.8,12.3-4.8,29.6c12,17.2,29,5.8,29,5.8s-6.1,16.2,5.8,21.7c11.9,5.5,19.6-10.9,19.6-10.9
				s-3.1,17.3,25.3,20.3c28.4,2.9,30.1-15.6,30.1-15.6s-5.7,15.8,5.5,22.3c11.1,6.5,20.5-6.7,20.5-6.7s-0.6,15.4,21.6,17.8
				c22.3,2.5,29.1-13.5,29.1-13.5s2.6,12.8,13.2,13.8c10.6,0.9,15.8-10.8,15.8-10.8s7,14.7,27.6,13.5S750,69.1,750,69.1V0H486.3z"/>
		</g>
	</g>
</g>
<g>
	<path class="st14" d="M384.7,500.1H0V279.4c0,0-2.1-19.3,13.5-19.5S29,279.4,29,279.4s6-11.1,17.4-6.9c11.3,4.2,8.1,19.9,8,20.5
		c0.3-0.2,4.5-3.6,9.1-3.4c1.4,0.1,2.8,0.5,4.2,1.4c6,4,1.7,13.9,1.7,13.9s15.7-3.9,25.5,10.3c9.8,14.2-3.4,34.6-3.4,34.6
		s13.2-3.3,17,2.6c3.8,5.9,0,18.4,0,18.4s10.9-7.8,16.5-5c5.6,2.7,0.1,17.9,0,18.2c0.3-0.3,7.2-6,11.4-2.7c4.3,3.3,1.9,10.7,1.8,11
		c0.3-0.3,6.6-7.5,14.4-2.7c7.9,4.8,3.3,21.1,3.1,21.7c0.2-0.3,3.9-6.2,9.6-5c5.9,1.3,4.6,14.5,4.6,14.5s5.9-18.5,20.2-19.9
		c2-0.2,4.2,0,6.6,0.6c19.1,4.8,15.7,32.6,15.7,32.6s5.9-8.7,15.7-5.7c9.8,3,9.3,18.2,9.3,18.2s4.2-8.1,11.5-8.8
		c7.2-0.8,10.6,10.5,10.6,10.5s0-11.4,7.7-10.5c7.6,0.9,8.2,12.4,8.2,12.4s7.2-7.6,15.9-3.6c8.7,4,9.2,14.2,9.2,14.2
		s6.9-10.5,18.9-8.7c12,1.9,15,18.4,15,18.4s3.2-8.8,10.9-6.3c7.8,2.5,3.2,15.2,3.2,15.2s7.5-8.9,21.5-2.6
		C384.2,483.3,384.7,500.1,384.7,500.1z"/>
</g>
</svg>
