<?xml version="1.0" encoding="utf-8"?>
<!-- Generator: Adobe Illustrator 25.2.3, SVG Export Plug-In . SVG Version: 6.00 Build 0)  -->
<svg version="1.1" xmlns="http://www.w3.org/2000/svg" xmlns:xlink="http://www.w3.org/1999/xlink" x="0px" y="0px"
	 viewBox="0 0 750 500" style="enable-background:new 0 0 750 500;" xml:space="preserve">
<style type="text/css">
	.st0{fill:#FFCE55;}
	.st1{fill:#EDEDED;}
	.st2{fill:#EFEFEF;}
	.st3{clip-path:url(#SVGID_2_);}
	.st4{fill:#545454;}
	.st5{fill:#919191;}
	.st6{fill:#6FA102;}
	.st7{fill:#B7DD40;}
	.st8{fill:#145141;}
	.st9{fill:#1B7F68;}
	.st10{fill:#155E4D;}
	.st11{fill:#126D5A;}
	.st12{fill:#FFEEA9;}
	.st13{fill:#EDE9D3;}
	.st14{fill:#18841F;}
	.st15{fill:#176D19;}
	.st16{fill:#8DB71C;}
	.st17{fill:#F2E994;}
</style>
<g id="BACKGROUND">
	<g>
		<circle class="st0" cx="558.64" cy="90.63" r="48.4"/>
		<g>
			
				<ellipse transform="matrix(0.9239 -0.3827 0.3827 0.9239 -37.4805 213.1828)" class="st1" cx="517.13" cy="200.8" rx="11.64" ry="11.64"/>
			
				<ellipse transform="matrix(0.9239 -0.3827 0.3827 0.9239 -34.8256 226.5301)" class="st1" cx="552.01" cy="200.8" rx="11.64" ry="11.64"/>
			<circle class="st1" cx="534.16" cy="193.34" r="19.11"/>
		</g>
		<g>
			
				<ellipse transform="matrix(0.7071 -0.7071 0.7071 0.7071 90.6723 440.1841)" class="st2" cx="576.69" cy="110.64" rx="25.52" ry="25.52"/>
			
				<ellipse transform="matrix(0.9239 -0.3827 0.3827 0.9239 7.3762 258.3642)" class="st2" cx="653.13" cy="110.64" rx="25.52" ry="25.52"/>
			<circle class="st2" cx="614" cy="94.28" r="41.88"/>
			
				<ellipse transform="matrix(0.7071 -0.7071 0.7071 0.7071 128.3696 482.6768)" class="st2" cx="646.83" cy="86.38" rx="25.52" ry="25.52"/>
			
				<ellipse transform="matrix(0.7071 -0.7071 0.7071 0.7071 90.1432 471.3194)" class="st2" cx="614" cy="126.85" rx="25.52" ry="25.52"/>
		</g>
		<g>
			<circle class="st2" cx="329.94" cy="148.82" r="16.38"/>
			<circle class="st2" cx="379.02" cy="148.82" r="16.38"/>
			<circle class="st2" cx="353.9" cy="138.31" r="26.89"/>
			<circle class="st2" cx="346.32" cy="158.43" r="16.38"/>
			<circle class="st2" cx="370.28" cy="165.2" r="16.38"/>
			<circle class="st2" cx="395.4" cy="165.2" r="16.38"/>
		</g>
		<g>
			<circle class="st2" cx="77.17" cy="97.47" r="19.26"/>
			<circle class="st2" cx="134.86" cy="97.47" r="19.26"/>
			<circle class="st2" cx="105.33" cy="85.12" r="31.61"/>
			<circle class="st2" cx="147.21" cy="67.67" r="31.61"/>
			<circle class="st2" cx="105.33" cy="85.12" r="31.61"/>
			<circle class="st2" cx="178.82" cy="94.28" r="31.61"/>
			<circle class="st2" cx="182.85" cy="62.66" r="19.26"/>
			<circle class="st2" cx="92.98" cy="105.64" r="19.26"/>
			<circle class="st2" cx="206.8" cy="99.28" r="19.26"/>
		</g>
		<g>
			<defs>
				<rect id="SVGID_1_" width="750" height="500"/>
			</defs>
			<clipPath id="SVGID_2_">
				<use xlink:href="#SVGID_1_"  style="overflow:visible;"/>
			</clipPath>
			<g class="st3">
				<g>
					<path class="st4" d="M758.4,404.79l-393.31-25.61c78.19-133.89,117.82-61.05,117.82-61.05
						c72.84-112.47,132.82-20.89,132.82-20.89c34.76-91.65,90.71-148.76,142.67-184.02V404.79z"/>
					<path class="st5" d="M758.4,400.86l-285.13-46.32c81.4-67.48,113.54-19.28,113.54-19.28c42.84-48.2,84.62,0,84.62,0
						c27-54.9,57.34-89.61,86.98-111.17V400.86z"/>
				</g>
				<g>
					<path class="st6" d="M-4.38,539.61V383.88c92.11-18.06,224.39-36.09,378.55-36.4c157.98-0.32,285.15,18.09,378.55,36.4
						c0,51.91,0,103.82,0,155.73H-4.38z"/>
					<path class="st7" d="M-4.38,392.95v-9.07c92.11-18.06,224.39-36.09,378.55-36.4c117.08-0.23,217.21,9.82,299.24,22.49
						C539.56,353.89,274.65,335.68-4.38,392.95z"/>
				</g>
				<g>
					<polygon class="st8" points="584.32,257.32 589.87,361.6 578.77,361.6 					"/>
				</g>
				<g>
					<polygon class="st9" points="590.9,363.18 660.68,363.18 625.79,231.42 					"/>
					<polygon class="st10" points="625.79,240.87 632.52,367.38 619.05,367.38 					"/>
				</g>
				<g>
					<polygon class="st11" points="634.47,370.17 718.93,370.17 676.7,210.69 					"/>
					<polygon class="st8" points="676.7,222.13 684.85,375.25 668.55,375.25 					"/>
				</g>
				<g>
					<ellipse class="st12" cx="87.78" cy="499.66" rx="13.01" ry="2.14"/>
					<path class="st13" d="M71.86,491.16c0,0.55,1.54,0.99,3.44,0.99c1.9,0,3.44-0.45,3.44-0.99c0-0.55-1.54-0.99-3.44-0.99
						C73.4,490.17,71.86,490.61,71.86,491.16z"/>
					<path class="st12" d="M44.61,483.89c0,1.18,4.76,2.14,10.64,2.14s10.64-0.96,10.64-2.14c0-1.18-4.76-2.14-10.64-2.14
						S44.61,482.71,44.61,483.89z"/>
					<path class="st13" d="M53.95,490.78c0,0.42,1.03,0.77,2.3,0.77c1.27,0,2.3-0.34,2.3-0.77s-1.03-0.77-2.3-0.77
						C54.98,490.02,53.95,490.36,53.95,490.78z"/>
					<path class="st12" d="M-7.28,502.34c0,1.35,4.45,2.45,9.95,2.45c5.5,0,9.95-1.1,9.95-2.45c0-1.35-4.45-2.45-9.95-2.45
						C-2.83,499.89-7.28,500.99-7.28,502.34z"/>
					<path class="st13" d="M61.76,514.2c0,0.76,1.75,1.38,3.9,1.38c2.16,0,3.9-0.62,3.9-1.38c0-0.76-1.75-1.38-3.9-1.38
						C63.5,512.82,61.76,513.44,61.76,514.2z"/>
					<path class="st13" d="M29.99,499.89c0,1.78,5.96,3.21,13.32,3.21c7.35,0,13.32-1.44,13.32-3.21c0-1.78-5.96-3.21-13.32-3.21
						C35.96,496.67,29.99,498.11,29.99,499.89z"/>
					<path class="st12" d="M68.11,473.64c0,0.34,1.47,0.61,3.29,0.61c1.82,0,3.29-0.27,3.29-0.61c0-0.34-1.47-0.61-3.29-0.61
						C69.58,473.02,68.11,473.3,68.11,473.64z"/>
					<ellipse class="st13" cx="23.33" cy="489.48" rx="7.96" ry="1"/>
					<path class="st13" d="M89.31,511.45c0,1.14,2.93,2.07,6.54,2.07c3.61,0,6.54-0.93,6.54-2.07c0-1.14-2.93-2.07-6.54-2.07
						C92.24,509.38,89.31,510.3,89.31,511.45z"/>
					<path class="st13" d="M92.52,484.01c0,0.82,2.98,1.49,6.66,1.49c3.68,0,6.66-0.67,6.66-1.49c0-0.82-2.98-1.49-6.66-1.49
						C95.51,482.52,92.52,483.18,92.52,484.01z"/>
					<path class="st12" d="M110.66,495.95c0,0.95,2.26,1.72,5.05,1.72c2.79,0,5.05-0.77,5.05-1.72c0-0.95-2.26-1.72-5.05-1.72
						C112.92,494.23,110.66,495,110.66,495.95z"/>
					<path class="st12" d="M40.17,520.97c0,0.95,2.26,1.72,5.05,1.72c2.79,0,5.05-0.77,5.05-1.72c0-0.95-2.26-1.72-5.05-1.72
						C42.43,519.25,40.17,520.02,40.17,520.97z"/>
					<path class="st12" d="M39.48,510.64c0,0.95,2.98,1.72,6.66,1.72c3.68,0,6.66-0.77,6.66-1.72c0-0.95-2.98-1.72-6.66-1.72
						C42.47,508.92,39.48,509.69,39.48,510.64z"/>
				</g>
				<g>
					<path class="st14" d="M759.57,394.14c0,0-457.62-34.1-703.48,154.33h707.07L759.57,394.14z"/>
					<path class="st15" d="M759.89,408.08l3.26,140.39H340.99C477.35,515.32,609.79,387.84,759.89,408.08z"/>
				</g>
				<g>
					<path class="st15" d="M470.57,350.49c0,0,9.17-10.65,19.57-5.45c0,0,14.61-15.36,31.71,0c0,0,5.7-5.2,10.16-0.5
						c0,0,12.63-6.69,24.03,10.9l-26.26-1.57c0,0,4.29-0.08,8.75,2.81l-52.6-2.39c0,0,2.97-3.47,6.94-2.56c0,0-2.72-2.31-6.36,0.08
						L470.57,350.49z"/>
					<path class="st6" d="M504.88,362.36c0,0,12.01-13.95,25.63-7.14c0,0,19.15-20.12,41.54,0c0,0,7.46-6.81,13.3-0.65
						c0,0,16.55-8.76,31.48,14.28l-34.4-2.06c0,0,5.62-0.11,11.47,3.68l-68.9-3.14c0,0,3.89-4.54,9.09-3.35c0,0-3.57-3.03-8.33,0.11
						L504.88,362.36z"/>
					<path class="st16" d="M558.88,369.92c0,0,13.69-19.69,29.24-10.07c0,0,21.84-28.39,47.37,0c0,0,8.51-9.61,15.17-0.92
						c0,0,18.88-12.36,35.9,20.15l-39.23-2.9c0,0,6.42-0.15,13.08,5.19l-78.59-4.43c0,0,4.44-6.41,10.36-4.73
						c0,0-4.07-4.27-9.5,0.15L558.88,369.92z"/>
				</g>
				<g>
					<polygon class="st9" points="676.64,379.12 778.07,379.12 727.36,187.59 					"/>
					<polygon class="st10" points="727.36,201.33 737.14,385.22 717.57,385.22 					"/>
					<path class="st7" d="M639.09,381.06c0,0,13.69-19.69,29.24-10.07c0,0,21.84-28.39,47.37,0c0,0,8.51-9.61,15.17-0.92
						c0,0,18.88-12.36,35.9,20.15l-39.23-2.9c0,0,6.42-0.15,13.08,5.19l-78.59-4.43c0,0,4.44-6.41,10.36-4.73
						c0,0-4.07-4.27-9.5,0.15L639.09,381.06z"/>
				</g>
				<g>
					<g>
						<polygon class="st11" points="362.77,354.79 256.39,354.79 309.58,153.93 						"/>
						<polygon class="st8" points="309.58,168.33 299.32,361.19 319.84,361.19 						"/>
					</g>
					<g>
						<polygon class="st9" points="297.41,364.1 168.36,364.1 232.89,120.44 						"/>
						<polygon class="st10" points="232.89,137.91 220.44,371.87 245.34,371.87 						"/>
					</g>
					<g>
						<polygon class="st11" points="216.83,377.03 60.62,377.03 138.73,82.09 						"/>
						<polygon class="st8" points="138.73,103.24 123.66,386.43 153.79,386.43 						"/>
					</g>
					<g>
						<polygon class="st9" points="138.84,393.58 -48.75,393.58 45.05,39.38 						"/>
						<polygon class="st10" points="45.05,64.78 26.95,404.87 63.14,404.87 						"/>
					</g>
				</g>
				<path class="st16" d="M209.67,363.34c0,0-33.57-32.61-67.14-1.92c0,0-46.04-28.78-76.73,25.42c0,0-30.69-22.54-50.36,24.94
					h52.75c0,0,10.55-13.43,29.25-12.95c0,0-17.27,6.71-21.58,17.74c0,0,54.67,1.92,76.73-16.31l139.56-23.02
					C292.15,377.25,272.01,333.12,209.67,363.34z"/>
				<path class="st16" d="M120.57,456.56c0,0-16.67-20.44-45.11-5.33c0,0-7.78-14-18.22-8.89c0,0-23.78-16.22-44.67,14.44h35.11
					l-8.44,3.78c0,0,35.78,12.67,51.78-0.89C91.01,459.67,109.24,467.44,120.57,456.56z"/>
				<path class="st7" d="M116.76,403.7c0,0-16.25-21.21-35.01-5.99c0,0-11.61-9.97-22.82-1.72c0,0-8.58-4.63-19.73,4.87
					c0,0-5.72-1.53-12.36,2.85c0,0-19.73-4.63-30.2,15.46h47.59c0,0,10.3-7.74,18.08-5.93c0,0-8.69,3.61-11.21,6.96
					c0,0,24.94,8,37.52-2.84c0,0,58.4,1.73,64.35-10.91C152.97,406.46,133.07,393.25,116.76,403.7z"/>
				<path class="st17" d="M462.13,350.7c139.32,30.51,35.7,25.83-105.93,55.21C214.57,435.3,40.17,548.47,40.17,548.47h-72.12
					l-13.63-65.96c0,0,89.31-66.73,286.43-89.57c197.12-22.84,289.86-18.1,208.38-38.84L462.13,350.7z"/>
			</g>
		</g>
	</g>
</g>
<g id="OBJECTS">
</g>
</svg>
