<?xml version="1.0" encoding="utf-8"?>
<!-- Generator: Adobe Illustrator 25.2.3, SVG Export Plug-In . SVG Version: 6.00 Build 0)  -->
<svg version="1.1" id="OBJECTS" xmlns="http://www.w3.org/2000/svg" xmlns:xlink="http://www.w3.org/1999/xlink" x="0px" y="0px"
	 viewBox="0 0 750 500" style="enable-background:new 0 0 750 500;" xml:space="preserve">
<style type="text/css">
	.st0{clip-path:url(#SVGID_2_);}
	.st1{fill:#F2F8F9;}
	.st2{fill:#307364;}
	.st3{fill:#46917B;}
	.st4{fill:#195E59;}
	.st5{fill:#2B756D;}
	.st6{fill:#24615A;}
	.st7{fill:#59392B;}
	.st8{fill:#4F2B22;}
	.st9{fill:#7BC276;}
	.st10{fill:#107152;}
	.st11{fill:none;stroke:#2A403F;stroke-linecap:round;stroke-miterlimit:10;}
	.st12{fill:none;stroke:#2A403F;stroke-width:2;stroke-linecap:round;stroke-miterlimit:10;}
	.st13{fill:#FAD00F;}
	.st14{fill:#F14F26;}
	.st15{fill:#FC855D;}
	.st16{fill:none;stroke:#2A403F;stroke-linecap:round;stroke-linejoin:round;stroke-miterlimit:10;}
	.st17{fill:#FEDA6C;}
	.st18{fill:#F2C033;}
	.st19{fill:#ED760E;}
	.st20{fill:#7C8DC2;}
	.st21{fill:#ADC0E1;}
	.st22{fill:#2B8073;}
</style>
<g>
	<defs>
		<polygon id="SVGID_1_" points="-9.3,0 804.6,0 816.3,500 -9.3,509 		"/>
	</defs>
	<clipPath id="SVGID_2_">
		<use xlink:href="#SVGID_1_"  style="overflow:visible;"/>
	</clipPath>
	<g class="st0">
		<g>
			<path class="st1" d="M-5.8,376.5c183.5,3.1,605.7,9.8,789.3,12.9c-7.1-65.3-9.3-59-4.7-123.3c5.8-192.1-117.6-95.1-127-100.5
				c-9.4-5.4-21.5-5.4-30.8,0.1c-10-10.2-26.7-11.5-39.3-5c-12.6,6.5-21.3,19.4-25.5,33.2c-4.2,13.8-4.3,28.6-3.5,43.1
				c-24.5-1.1-48.5,17.4-54.3,41.9c-7.4-11.7-21.8-18.3-35.2-15.9c10.4-19.5,8.3-40.7-3.2-54.6c-11.4-13.9-31.4-19.8-48.2-14
				c-8.4-56.7-59.1-48.4-67.5-31.9C364.3,122.6,363,26,290.4,49.5c-23.6,7.6-36,34-46,57.2c-2.9-27.1-21.3-46.5-48.7-36.3
				c1.3-26-11.9-51.1-32.9-61.5s-48.3-5.3-65.3,13C-83.2,119.6-14,260.1-5.8,376.5z"/>
			<g>
				<g>
					<g>
						<path class="st2" d="M641.5,367.3c-0.6,8-2.2,17.4-9.5,20.7c-4,1.8-8.6,1.1-12.9,0.4c-63.1-10.4-126.3-20.8-194.3-30.3
							c1.6-12.2,17.2-20,27.9-14c3.4-8.6,8.3-17.3,16.4-21.5c0.4-0.2,0.8-0.4,1.2-0.6c8.8-4,21.5-0.1,23.4,9.3
							c5.1-5.9,16.2-4.6,19.9,2.3c3.2-9,11.3-16.1,20.6-18.2c7.3-1.6,15.2-0.2,21.5,3.8c1.8,1.1,3.4,2.4,4.9,3.9
							c1.5-3.9,3.9-7.4,6.9-10.2c4.3-4.1,9.8-6.9,15.7-7.7c10-1.4,20.6,3,26.6,11.1c7.1-2.5,14.8-0.1,20.6,4.8
							c3.5,2.9,6.4,6.6,8.2,10.8C643.3,342.8,642.4,355.4,641.5,367.3z"/>
						<path class="st3" d="M555.5,319.3c-1.6,1.3-3,2.7-4.4,4.2c-14.7-4.9-32.6,4.4-37,19.3c-5.5-7.3-17-9.2-24.6-4.1
							c-1.5-7.4-7.4-13.6-14.7-15.5c-1.9-0.5-3.9-0.7-5.8-0.5c0.4-0.2,0.8-0.4,1.2-0.6c8.8-4,21.5-0.1,23.4,9.3
							c5.1-5.9,16.2-4.6,19.9,2.3c3.2-9,11.3-16.1,20.6-18.2C541.2,313.9,549.1,315.3,555.5,319.3z"/>
						<path class="st3" d="M630.2,321c-7.7-2-16.3-0.7-22.7,4.1c-6.6-8.5-17.1-13.8-27.8-14.1c-4.2-0.1-8.4,0.5-12.5,1.9
							c4.3-4.1,9.8-6.9,15.7-7.7c10-1.4,20.6,3,26.6,11.1C616.6,313.7,624.3,316.2,630.2,321z"/>
					</g>
					<g>
						<path class="st2" d="M253.6,357.1c-51.5,0-103,0-165.6-1.9c-7.1-8-9.3-20.2-5.4-30.2c3.9-10,13.7-17.5,24.4-18.6
							c-1.3-10.4,3.7-21.1,11.9-27.5c3-2.4,6.5-4.1,10.3-5.1c13.9-3.5,29.8,4.7,35,18.1c6.5-4.3,15.3-4.8,22.2-1.2
							c5.1,2.6,9,7.4,10.8,12.9c0.6,1.9,1,3.9,1.1,6c1-1,2-2,3.2-2.8c4.6-3.2,10.3-4.6,15.9-4.1c3.4,0.3,6.8,1.4,9.7,3.2
							c8.9,5.6,12.9,17.7,9.1,27.5C247.7,332.5,257.8,346.2,253.6,357.1z"/>
						<path class="st3" d="M197.1,303.6c-4.8-3.3-10-5.5-15.3-6c-7.8-0.7-15.9,2.3-21.3,7.9c-0.9-14.3-12.2-24.5-24.4-26.9
							c-5.7-1.1-11.5-0.9-17.2,0.3c3-2.4,6.5-4.1,10.3-5.1c13.9-3.5,29.8,4.7,35,18.1c6.5-4.3,15.3-4.8,22.2-1.2
							C191.4,293.4,195.3,298.1,197.1,303.6z"/>
						<path class="st3" d="M217.2,302.6c-4.8,1.3-9.5,3.3-13.7,6c-0.7-0.6-1.4-1.2-2.2-1.9C205.9,303.6,211.6,302.1,217.2,302.6z"/>
					</g>
					<g>
						<path class="st4" d="M464.6,358.5c-42.4-0.6-84.9-1.3-133.8-0.2c-1.3-7.5,1.7-15.6,7.6-20.5s14.3-6.4,21.5-3.8
							c2.1-6.9,7.5-12.7,14.2-15.4c2-0.8,4.1-1.3,6.2-1.5c9.3-0.9,19,4.2,23.4,12.5c8.5-5.6,21.9-0.5,24.3,9.4
							c6.4-6.4,17-8,25.1-3.9c0.1,0.1,0.3,0.1,0.4,0.2C461.7,339.5,466.4,349.4,464.6,358.5z"/>
						<path class="st5" d="M453.1,335c-10.1-0.9-20.8,3-27.4,10.8c-3.9-10.3-17.8-15.4-27.4-9.9c-2.5-7.3-8.4-13.3-15.6-15.8
							c-2.7-1-5.6-1.5-8.6-1.4c2-0.8,4.1-1.3,6.2-1.5c9.3-0.9,19,4.2,23.4,12.5c8.5-5.6,21.9-0.5,24.3,9.4
							C434.5,332.5,445.1,330.9,453.1,335z"/>
					</g>
				</g>
				<g>
					<g>
						<path class="st2" d="M378.2-13.1C363.3-9.4,350.4,1.8,344.5,16c15.4,3.6,32.7-4.4,39.9-18.5c-5.8,12.3-4.5,27.6,3.2,38.8
							c13.5-9.9,22.1-26.2,22.6-43c-0.9,12.3,3.9,24.9,12.7,33.5c6.1-9.4,8.1-21.5,5.4-32.4c5.1,14.9,17.6,27,32.7,31.6
							c4.2-9.8,4.7-21.1,1.3-31.2c-2,15.5,0.9,31.7,9.9,45.3c8-8.4,12.9-19.7,13.6-31.3c-6,12.4-5.3,27.9,2,39.7
							c8.4-7.8,12.7-19.8,11.1-31.1c7.8,14.1,25.5,21.8,41.1,18.1c-1.1-7.4-5.3-14.3-11.5-18.7c9.1,7.9,22.8,10.3,34,5.8
							c-2.1-6.3-6.4-11.9-12-15.4c4.9,13.3,12.5,25.6,22.2,35.8c4.5-7.7,5-17.5,1.3-25.6c5.6,9.4,16.1,15.7,27,16.3
							c0.8-7.2-2.2-14.7-7.7-19.5c11.3,8.5,27.9,9.3,40,1.9c-3.4-5.1-8.9-8.8-14.9-10.2c8.9,3,18.7,3.6,27.9,1.7
							c-2.9-8.8-8.2-16.7-12.6-23.1C556.2-46.7,469.8-36.2,378.2-13.1z"/>
						<path class="st6" d="M477.8-17.4c-27.8-6.2-58.1-1.1-82.3,14c11.1,0.4,22.4-3.4,31-10.6c-3.6,5.7-5.4,12.6-4.9,19.4
							c5.7-5.1,9.8-12,11.6-19.4c1.1,8.9,6.1,17.3,13.4,22.5c2.2-6.2,3-12.9,2.1-19.4c3,4.6,9.1,7.1,14.5,5.8
							c-2.3,7.7-0.6,16.3,4.3,22.6c5.8-5.9,8.9-14.2,8.6-22.4c1.5,8.8,6.9,16.8,14.5,21.5c2.9-3.9,4.5-8.7,5.9-13.2
							c7.4,3.1,15.4,4.8,26.6,5.3c4.8,3.1,9.7,6.2,14.5,9.4c2.1-4.1,2.6-9,1.4-13.5c3.3,0.4,6.6,0.3,9.8-0.3
							c0.3,5.8,0.5,11.7,0.8,17.5c6.3-1.5,11.3-7.6,11.4-14.1c4.1,3.8,10.4,5,15.2,3.6c3.9,4.9,8.5,9.2,13.7,12.7
							c2.1-5.9,2.3-12.5,0.7-18.6c5.5,0.5,10.9,1.1,16.4,1.6c-0.4-3.7-1.4-7.4-2.9-10.8c0,0.1,0,0.2,0.3-0.6
							C561.5-8.4,517.9-8.4,477.8-17.4z"/>
					</g>
					<g>
						<g>
							<g>
								<polygon class="st7" points="581.9,-6.8 536.5,107.7 532.3,91.3 528.3,75.6 570.9,-8.1 574.2,-7.7 								"/>
								<polygon class="st8" points="574.2,-7.7 532.3,91.3 528.3,75.6 570.9,-8.1 								"/>
							</g>
							<g>
								<path class="st7" d="M633.4,380.9l-89-10.5l-29.1-3.4c0,0,18.7-13.9,21.4-34.6c5.5-42.4-43-343.8-43-343.8l3.9-1.3l24-8.2
									c0,0,44.2,307.9,74.7,362.3C610.8,367.3,633.4,380.9,633.4,380.9z"/>
								<path class="st8" d="M558.8,370.3l-14.4,0.1l-29.1-3.4c0,0,18.7-13.9,21.4-34.6c5.5-42.4-43-343.8-43-343.8l3.9-1.3
									c6.2,33.7,35.5,194.5,44.8,273.2c0,0,1.4-56.9-3-94.6C539.4,165.9,572.5,329.1,558.8,370.3z"/>
							</g>
						</g>
						<path class="st2" d="M490.6-20.2c-3.3,6.2-6.7,12.4-10,18.6c8.2-0.7,15.9-5.5,20.1-12.6c2.2,7.3,7.2,13.8,13.7,17.8
							c3.8-5.4,5.4-12.3,4.5-18.9c5.1,6.9,12.5,12.1,20.7,14.6c0.5-8.9-0.8-17.9-3.4-27.5c7.9,3.8,15.8,7.7,23.7,11.5
							c-1.2,6.4-3.8,12.6-7.4,18c6.9,1.6,14.6-0.4,19.8-5.3c1.5,5.4,5,10.2,9.6,13.2c6.4-5.4,10-13.9,11.8-20.7
							C566.3-33.1,527-38.9,490.6-20.2z"/>
					</g>
				</g>
			</g>
		</g>
		<g>
			<path class="st9" d="M798.7,374.1l-29.3,124.6L0,505.5l-6.8-171.7C-6.8,333.8,546.9,344.4,798.7,374.1z"/>
		</g>
		<g>
			<g>
				<g>
					<g>
						<g>
							<path class="st10" d="M271.2,492.9c0-8.3-3.1-16.7-8.8-23.6c-5.7-7-13.9-12.4-23-15.1c2.8,7.8,5.7,15.7,10.6,22.8
								C254.8,484,262,490.4,271.2,492.9z"/>
							<g>
								<path class="st11" d="M270.9,493c-6.2-12.4-15.2-23.6-25.9-32.5"/>
								<path class="st11" d="M252.7,461.7c-0.9,1.1-1.6,2.5-1.8,3.9c-1.5-0.5-3.2-0.5-4.7-0.2"/>
								<path class="st11" d="M262.1,470.5c-1.2,1.4-2.2,3-2.7,4.7c-2.2-1-4.8-1.2-7.1-0.6"/>
								<path class="st11" d="M267.9,480.8c-0.8,0.9-1.5,1.9-2,3.1c-2.1-0.8-4.4-0.8-6.4-0.1"/>
							</g>
						</g>
						<path class="st12" d="M259.4,434.5c9.4,23.8,13.1,49.8,10.8,75.3"/>
						<g>
							<path class="st13" d="M259.6,426.3c-0.8-6.8-1.1-13.8,0.7-20.4c0.3-1.1,1-2.4,2.1-2.4c0.8,0,1.5,0.9,1.5,1.7
								c0.1,0.8-0.2,1.7-0.5,2.5C261.1,413.7,259.9,420,259.6,426.3z"/>
							<path class="st13" d="M251.7,432.3c-3.3-5.1-7.6-9.5-12.6-12.9c-1.7-1.1-3.7-2.2-5.6-1.7c-0.4,0.1-0.9,0.4-1,0.8
								c-0.1,0.5,0.3,0.9,0.6,1.2c2.7,2.5,6.2,3.9,9.5,5.6C245.9,427,249.2,429,251.7,432.3z"/>
							<g>
								<path class="st14" d="M274.5,418.7c-0.5,2-1.2,3.9-2,5.7c-2.4,5.8-6,11.1-10.5,15.6c-5.2,0.4-10.1,0.3-14.8-0.3
									c-3-0.4-5.9-0.9-8.7-1.5c-3.4-0.8-7.3-2.1-8.3-5.3c-1.1-3.8,3-7.6,7.1-7.9s8,1.8,11.3,4.1c-5.7-5.6-8.9-13.4-8.7-21.2
									c0.1-3.5,1.8-7.8,5.4-7.9c2.3-0.1,4.3,1.6,5.7,3.3c4.7,5.5,7.6,12.3,8.3,19.4c1.6-3.2,2.3-6.8,4.6-9.6c2.2-2.8,7-4.4,9.6-2
									C275.6,413,275.2,416.1,274.5,418.7z"/>
								<path class="st15" d="M272.6,424.4c-2.4,5.8-6,11.1-10.4,15.6c-5.2,0.4-10.1,0.3-14.8-0.3c0,0-0.1,0-0.1,0
									c-1.1-0.4-2.4-0.9-3-1.9c-1.1-1.8,0.3-4.4,2.3-5.2c2-0.8,4.2-0.4,6.3,0.1c-1.9-3-3-6.5-3-10.1c0-1.4,0.3-3,1.5-3.7
									c1.6-0.9,3.6,0.5,4.8,2c1.9,2.6,3,5.8,3.2,9c1-2.5,2-5.1,4-6.9c2-1.8,5.2-2.6,7.4-1C271.6,422.7,272.2,423.5,272.6,424.4z"
									/>
							</g>
						</g>
					</g>
					<g>
						<path class="st12" d="M297.6,466.2c-1.1,14.6-5.8,28.9-13.6,41.3"/>
						<g>
							<path class="st13" d="M302.8,458.9c3.5-5.9,7.5-11.6,13-15.8c0.9-0.7,2.2-1.4,3.1-0.6c0.6,0.5,0.6,1.6,0.2,2.3
								s-1.2,1.2-1.9,1.6C311.6,449.8,306.8,454.1,302.8,458.9z"/>
							<path class="st13" d="M292.8,458.9c0.5-6-0.3-12.2-2.1-17.9c-0.6-1.9-1.6-4-3.5-4.7c-0.4-0.2-0.9-0.2-1.3,0.1
								c-0.4,0.3-0.3,0.9-0.2,1.3c0.6,3.6,2.5,6.9,4.1,10.2C291.4,451.1,292.8,454.7,292.8,458.9z"/>
							<g>
								<path class="st14" d="M319.2,462c-1.6,1.2-3.3,2.3-5.1,3.4c-5.4,3.1-11.5,5.2-17.8,6.1c-4.4-2.8-8.2-5.9-11.6-9.2
									c-2.1-2.1-4.1-4.2-6-6.5c-2.3-2.7-4.5-6.2-3.3-9.3c1.4-3.7,7-4.2,10.4-1.9s5.2,6.3,6.5,10.1c-1.1-7.9,1.1-16,6-22.1
									c2.2-2.7,6.1-5.1,9.1-3c1.9,1.3,2.4,3.9,2.6,6.1c0.4,7.2-1.5,14.4-5.2,20.4c3.2-1.5,6-4,9.5-4.9c3.5-0.9,8.3,0.8,8.8,4.3
									C323.5,458.1,321.3,460.3,319.2,462z"/>
								<path class="st15" d="M314.2,465.3c-5.4,3.1-11.5,5.2-17.8,6.1c-4.4-2.8-8.2-5.9-11.6-9.2c0,0,0,0,0-0.1
									c-0.7-1-1.3-2.1-1.2-3.3c0.2-2.1,2.9-3.3,5-2.7c2.1,0.6,3.6,2.3,5,3.9c0.3-3.5,1.6-7,3.8-9.9c0.9-1.1,2.1-2.2,3.5-2
									c1.9,0.3,2.6,2.6,2.5,4.5c-0.1,3.2-1.1,6.4-2.9,9.1c2.3-1.4,4.7-2.8,7.4-3c2.7-0.2,5.7,1.1,6.5,3.7
									C314.5,463.3,314.4,464.3,314.2,465.3z"/>
							</g>
						</g>
					</g>
				</g>
				<g>
					<g>
						<g>
							<g>
								<path class="st10" d="M628,471.4c0.8-12.4-6.9-24.2-18.6-28.7c0.5,1,1,2,1.5,3c-4.9-2.3-10.2-3.9-15.7-4.6
									c-0.1,9.3,4.4,18.2,12,23.7c-0.9-0.8-2.3-1-3.6-0.6C610.2,469.5,619.3,472.1,628,471.4z"/>
								<g>
									<path class="st16" d="M628.3,471.3c-7.4-10.1-17.3-18.4-28.8-24.3"/>
									<path class="st16" d="M615.1,448.4c2.4,3.1,3.4,7.1,3,11.1"/>
									<path class="st16" d="M624.8,467.7c-4.2,0.5-8.5,0.1-12.4-1.2"/>
									<path class="st16" d="M611,454.3c-2.8,1.3-6.2,1.4-8.9,0.4"/>
								</g>
							</g>
							<path class="st12" d="M606.3,403.5c18.4,31.6,26.9,68.8,24.1,106.2"/>
							<g>
								<g>
									<path class="st17" d="M627.7,385c-0.2,2.1-2.8,5-5.1,7.3h0c-2.1,2-4,3.5-4,3.5s3.5-0.3,6.1-0.4c2.6-0.1,3.6,4.7-1.8,9.1
										c-5.4,4.5-11.7,0.2-11.7,0.2c1,7.8-8.4,11.8-12.2,10.1c-3.8-1.7,1.1-9.4,1.1-9.4c-7.4,7.1-13.5,4.8-16.7,0.9
										c-2.4-2.8-3.2-6.5-1.9-7.9c3.1-3.2,13.8-1.8,13.8-1.8c-11.9-3.1-12.8-13.7-6.8-14.6c5.9-0.9,12.8,8.3,13,8.6
										c-8.1-17,1.8-21.8,7-17.4c5.1,4.3,3.3,16.4,3.2,16.9c0.2-0.5,4.6-12.3,8.3-13.6C623.8,375.3,628,381.2,627.7,385z"/>
								</g>
								<path class="st18" d="M623,404.5c-5.4,4.5-11.7,0.2-11.7,0.2c1,7.8-8.4,11.8-12.2,10c-3.8-1.7,1.1-9.4,1.1-9.4
									c-7.4,7.1-13.5,4.8-16.7,0.9c0,0,6.5,3.5,12.3,0.4c5.8-3.2,8-5.7,8-5.7l8-4.2c0,0,6.2-0.9,10.9-4.5c-2.1,2-4,3.5-4,3.5
									s3.5-0.3,6.1-0.4C627.3,395.3,628.4,400.1,623,404.5z"/>
								<g>
									<g>
										<path class="st19" d="M611.7,396.8c0.4,0.9-1.5,2.5-4.2,3.6c-2.7,1.1-5.1,1.2-5.5,0.4c-0.3-0.9,1.5-2.5,4.2-3.6
											C608.9,396.1,611.3,395.9,611.7,396.8z"/>
									</g>
									<g>
										<g>
											<path class="st19" d="M603.2,400.1c-1-1.3-4.1-3.1-4.1-3.1l0.3-0.5c0.1,0.1,3.2,1.8,4.3,3.2L603.2,400.1z"/>
										</g>
										<g>
											<path class="st19" d="M599.7,396.6c0.1,0.3-0.2,0.7-0.5,0.8c-0.3,0.1-0.7-0.1-0.8-0.4c-0.1-0.3,0.2-0.7,0.5-0.8
												C599.3,396.1,599.6,396.3,599.7,396.6z"/>
										</g>
									</g>
									<g>
										<g>
											<path class="st19" d="M604.7,399.1c-2.7-4.1-4.8-6.1-4.8-6.1l0.4-0.4c0.1,0.1,2.2,2,4.9,6.2L604.7,399.1z"/>
										</g>
										<g>
											<path class="st19" d="M600.7,392.5c0.1,0.3-0.2,0.7-0.5,0.8c-0.4,0.1-0.7-0.1-0.8-0.4c-0.1-0.3,0.2-0.7,0.5-0.8
												C600.3,392,600.7,392.2,600.7,392.5z"/>
										</g>
									</g>
									<g>
										<g>
											<path class="st19" d="M606.6,398.9c-1.2-2.2-2.6-6.6-2.6-6.8l0.6-0.2c0,0.1,1.5,4.5,2.6,6.7L606.6,398.9z"/>
										</g>
										<g>
											<path class="st19" d="M604.8,391.6c0.1,0.3-0.2,0.7-0.5,0.8c-0.4,0.1-0.7-0.1-0.8-0.4c-0.1-0.3,0.2-0.7,0.5-0.8
												C604.4,391.1,604.7,391.3,604.8,391.6z"/>
										</g>
									</g>
									<g>
										<g>
											<path class="st19" d="M608.2,397.7c-1.1-3.5-1.6-7.2-1.6-7.2l0.6-0.1c0,0,0.5,3.7,1.5,7.1L608.2,397.7z"/>
										</g>
										<g>
											<path class="st19" d="M607.5,390.1c0.1,0.3-0.2,0.7-0.5,0.8c-0.3,0.1-0.7-0.1-0.8-0.4c-0.1-0.3,0.2-0.7,0.5-0.8
												C607.1,389.6,607.4,389.7,607.5,390.1z"/>
										</g>
									</g>
									<g>
										<g>
											<path class="st19" d="M609.7,397.3c-0.7-2.3-0.6-7.3-0.6-7.5l0.6,0c0,0,0,5.2,0.6,7.4L609.7,397.3z"/>
										</g>
										<g>
											<path class="st19" d="M610.1,389.4c0.1,0.3-0.2,0.7-0.5,0.8c-0.3,0.1-0.7-0.1-0.8-0.4c-0.1-0.3,0.2-0.7,0.5-0.8
												C609.7,388.8,610,389,610.1,389.4z"/>
										</g>
									</g>
								</g>
							</g>
						</g>
						<g>
							<g>
								<path class="st10" d="M652.6,477.5c-2.1-12.4,3.5-25.3,13.5-31.4c-0.4,1.1-0.7,2.1-1.1,3.2c4.1-3,8.7-5.2,13.6-6.6
									c1.1,9.4-1.9,19-8.1,25.5c0.7-0.9,2-1.4,3.2-1.1C668.4,473.3,660.5,477,652.6,477.5z"/>
								<g>
									<path class="st16" d="M652.3,477.4c5.5-11.1,13.5-20.8,23.2-28.2"/>
									<path class="st16" d="M661.6,452.6c-1.8,3.4-2.3,7.6-1.4,11.6"/>
									<path class="st16" d="M655,473.3c3.9,0,7.7-1,11.1-2.8"/>
									<path class="st16" d="M665.9,458c2.7,0.9,5.7,0.7,8.1-0.8"/>
								</g>
							</g>
							<path class="st12" d="M648.5,429.6c4.8,23,5.7,46.6,2.6,69.4"/>
							<g>
								<g>
									<path class="st17" d="M673.6,419.7c-0.8,2.2-4.2,4.2-7.2,5.7h0c-2.6,1.3-4.9,2.1-4.9,2.1s3.5,1.2,6.1,2.2s2.2,6.6-4.4,9.1
										c-6.6,2.5-11.5-4.8-11.5-4.8c-1.2,8.9-11.7,9.2-14.9,5.7c-3.2-3.5,3.8-9.7,3.8-9.7c-9.3,4.5-14.6-0.6-16.7-6.2
										c-1.5-4.1-1.3-8.4,0.4-9.4c3.9-2.2,14.1,4,14.1,4c-10.8-8.5-8.5-20.3-2.4-18.8c6.1,1.5,10.1,14.5,10.2,14.9
										c-3-21.9,8.1-22.8,11.9-15.8c3.7,6.9-1.6,19.2-1.8,19.7c0.4-0.5,8.1-11.4,12.1-11.2C672.6,407.5,675,415.7,673.6,419.7z"/>
								</g>
								<path class="st18" d="M663.2,438.9c-6.6,2.5-11.5-4.8-11.5-4.8c-1.2,8.9-11.7,9.2-14.9,5.7c-3.2-3.5,3.8-9.7,3.8-9.7
									c-9.3,4.5-14.6-0.6-16.7-6.2c0,0,5.3,6.6,11.9,5.7c6.6-0.9,9.5-2.8,9.5-2.8l9.1-1.1c0,0,6.4,1.7,12-0.2
									c-2.6,1.3-4.9,2.1-4.9,2.1s3.5,1.2,6.1,2.2C670.2,430.7,669.8,436.3,663.2,438.9z"/>
								<g>
									<g>
										<path class="st19" d="M654.4,425.6c0.1,1.1-2.2,2.1-5.2,2.1c-2.9,0-5.4-0.8-5.5-2c-0.1-1.1,2.2-2.1,5.2-2.1
											C651.9,423.6,654.3,424.5,654.4,425.6z"/>
									</g>
									<g>
										<g>
											<path class="st19" d="M645.1,425.5c-0.6-1.8-3.1-5.1-3.1-5.1l0.5-0.4c0.1,0.1,2.6,3.4,3.2,5.3L645.1,425.5z"/>
										</g>
										<g>
											<path class="st19" d="M642.7,420.3c0,0.4-0.4,0.7-0.7,0.6c-0.4-0.1-0.7-0.4-0.6-0.8c0-0.4,0.4-0.7,0.7-0.6
												C642.5,419.5,642.7,419.9,642.7,420.3z"/>
										</g>
									</g>
									<g>
										<g>
											<path class="st19" d="M646.9,425.1c-1.4-5.5-2.9-8.6-2.9-8.6l0.5-0.3c0.1,0.1,1.6,3.2,3,8.8L646.9,425.1z"/>
										</g>
										<g>
											<path class="st19" d="M644.9,416.3c0,0.4-0.3,0.7-0.7,0.6s-0.7-0.4-0.6-0.8c0-0.4,0.3-0.7,0.7-0.6
												C644.7,415.5,645,415.9,644.9,416.3z"/>
										</g>
									</g>
									<g>
										<g>
											<path class="st19" d="M648.8,425.7c-0.5-2.9-0.6-8.2-0.6-8.4l0.6,0c0,0.1,0.1,5.5,0.6,8.4L648.8,425.7z"/>
										</g>
										<g>
											<path class="st19" d="M649.2,417c0,0.4-0.3,0.7-0.7,0.6s-0.7-0.4-0.6-0.8c0-0.4,0.3-0.7,0.7-0.6
												C648.9,416.3,649.2,416.6,649.2,417z"/>
										</g>
									</g>
									<g>
										<g>
											<path class="st19" d="M650.7,425.1c0-4.2,0.6-8.5,0.6-8.5l0.6,0.1c0,0-0.6,4.2-0.6,8.4L650.7,425.1z"/>
										</g>
										<g>
											<path class="st19" d="M652.3,416.5c0,0.4-0.3,0.7-0.7,0.6c-0.4,0-0.7-0.4-0.6-0.8c0-0.4,0.3-0.7,0.7-0.6
												C652.1,415.8,652.3,416.2,652.3,416.5z"/>
										</g>
									</g>
									<g>
										<g>
											<path class="st19" d="M652.4,425.4c0-2.7,1.5-8.2,1.6-8.4l0.6,0.2c0,0.1-1.5,5.6-1.5,8.2L652.4,425.4z"/>
										</g>
										<g>
											<path class="st19" d="M655,416.9c0,0.4-0.4,0.7-0.7,0.6c-0.4,0-0.6-0.4-0.6-0.8c0-0.4,0.4-0.7,0.7-0.6
												C654.8,416.1,655,416.5,655,416.9z"/>
										</g>
									</g>
								</g>
							</g>
						</g>
						<g>
							<g>
								<path class="st10" d="M603.6,498.7c-5.7-9.8-17.6-15.5-28.8-14c0.9,0.5,1.8,1.1,2.7,1.6c-4.9,0.3-9.7,1.4-14.3,3.2
									c4.7,7.2,12.7,12.1,21.2,13c-1.1-0.2-2.3,0.2-3.1,1.1C589.1,504.8,597.4,502.9,603.6,498.7z"/>
								<g>
									<path class="st16" d="M603.8,498.4c-10.8-4.6-22.6-6.7-34.3-6.2"/>
									<path class="st16" d="M582,486.6c3.4,1.4,6.2,4,7.9,7.2"/>
									<path class="st16" d="M599.3,497.2c-3,2.2-6.4,3.7-10.1,4.4"/>
									<path class="st16" d="M582,492.8c-1.5,2.2-4,3.7-6.6,4.1"/>
								</g>
							</g>
							<path class="st12" d="M572.2,453.4c15.8,14.9,28.2,33.4,35.9,53.8"/>
							<g>
								<g>
									<path class="st17" d="M587.7,432.7c0.4,2.1-1.4,5.5-3.2,8.2l0,0c-1.5,2.3-3,4.2-3,4.2s3.4-0.9,5.9-1.4
										c2.5-0.5,4.7,4.1,0.5,9.5s-11.4,2.1-11.4,2.1c3,7.7-5.2,13.3-9.4,12.2c-4.1-1.1-1.3-9.7-1.3-9.7c-5.5,8.4-12,7-16.1,3.7
										c-3-2.5-4.8-6.1-3.8-7.7c2.2-3.8,13-4.1,13-4.1c-12.4-1.2-15.9-11.8-10.3-13.7c5.5-1.9,14.5,6.3,14.8,6.6
										c-12.1-15.9-3.7-22.3,2.5-18.7c6,3.5,7.3,16.1,7.3,16.6c0.1-0.6,1.4-13.2,4.7-15.1C581.4,423.4,587,428.7,587.7,432.7z"/>
								</g>
								<path class="st18" d="M587.9,453.2c-4.1,5.4-11.4,2.1-11.4,2.1c3,7.7-5.2,13.3-9.4,12.2c-4.1-1.1-1.3-9.7-1.3-9.7
									c-5.4,8.4-12,7-16.1,3.7c0,0,7.2,2.5,12.1-1.6c4.9-4.2,6.4-7.1,6.4-7.1l6.8-5.5c0,0,5.9-1.9,9.5-6.3c-1.5,2.4-3,4.2-3,4.2
									s3.4-0.9,5.9-1.4C589.9,443.1,592.1,447.8,587.9,453.2z"/>
								<g>
									<g>
										<path class="st19" d="M575,447.2c0.6,0.9-0.9,2.8-3.2,4.3c-2.3,1.5-4.7,2.1-5.2,1.3c-0.6-0.9,0.9-2.8,3.2-4.3
											C572.1,446.9,574.4,446.3,575,447.2z"/>
									</g>
									<g>
										<g>
											<path class="st19" d="M567.5,451.9c-1.3-1.1-4.7-2.4-4.8-2.4l0.2-0.5c0.1,0,3.6,1.4,5,2.5L567.5,451.9z"/>
										</g>
										<g>
											<path class="st19" d="M563.2,448.9c0.2,0.3,0,0.7-0.3,0.9s-0.7,0-0.8-0.3c-0.2-0.3,0-0.7,0.3-0.9
												S563.1,448.6,563.2,448.9z"/>
										</g>
									</g>
									<g>
										<g>
											<path class="st19" d="M568.8,450.6c-3.6-3.7-6.2-5.4-6.2-5.4l0.3-0.5c0.1,0.1,2.7,1.7,6.3,5.5L568.8,450.6z"/>
										</g>
										<g>
											<path class="st19" d="M563.2,444.6c0.2,0.3,0,0.7-0.3,0.9s-0.7,0-0.8-0.3c-0.2-0.3,0-0.7,0.3-0.9
												C562.7,444.2,563.1,444.3,563.2,444.6z"/>
										</g>
									</g>
									<g>
										<g>
											<path class="st19" d="M570.5,450.1c-1.7-2-4.2-6.2-4.2-6.4l0.5-0.3c0,0,2.6,4.3,4.2,6.3L570.5,450.1z"/>
										</g>
										<g>
											<path class="st19" d="M567,443c0.1,0.3,0,0.7-0.3,0.8c-0.3,0.2-0.7,0-0.9-0.3c-0.1-0.3,0-0.7,0.3-0.9
												C566.4,442.6,566.8,442.7,567,443z"/>
										</g>
									</g>
									<g>
										<g>
											<path class="st19" d="M571.8,448.7c-1.9-3.4-3.3-7-3.3-7.1l0.5-0.2c0,0,1.4,3.7,3.3,7L571.8,448.7z"/>
										</g>
										<g>
											<path class="st19" d="M569.2,441c0.2,0.3,0,0.7-0.3,0.9s-0.7,0-0.8-0.3c-0.2-0.3,0-0.7,0.3-0.9
												C568.7,440.6,569.1,440.7,569.2,441z"/>
										</g>
									</g>
									<g>
										<g>
											<path class="st19" d="M573.2,448c-1.2-2.2-2.4-7.3-2.5-7.5l0.6-0.1c0,0,1.3,5.2,2.5,7.3L573.2,448z"/>
										</g>
										<g>
											<path class="st19" d="M571.6,439.9c0.2,0.3,0,0.7-0.3,0.8c-0.3,0.2-0.7,0-0.8-0.3c-0.2-0.3,0-0.7,0.3-0.8
												C571,439.4,571.4,439.6,571.6,439.9z"/>
										</g>
									</g>
								</g>
							</g>
						</g>
					</g>
					<g>
						<g>
							<path class="st10" d="M698.9,470.1c3.6-7.4,4.5-16.4,2.4-25.1c-2.1-8.7-7.1-17.2-14.1-23.6c-0.9,8.3-1.7,16.6-0.4,25.2
								C688,455,691.7,463.8,698.9,470.1z"/>
							<g>
								<path class="st11" d="M698.6,470c-0.2-13.9-3.4-27.9-9.2-40.6"/>
								<path class="st11" d="M695.7,434c-1.3,0.6-2.5,1.5-3.3,2.7c-1.2-1.1-2.6-1.9-4.2-2.2"/>
								<path class="st11" d="M700.4,446c-1.7,0.7-3.2,1.7-4.5,3c-1.6-1.9-3.8-3.2-6.1-3.7"/>
								<path class="st11" d="M701.1,457.7c-1.1,0.4-2.2,1.1-3.1,1.9c-1.5-1.6-3.6-2.7-5.8-2.9"/>
							</g>
						</g>
						<path class="st12" d="M713.7,412.4c-1.9,25.5-9.8,50.6-23,72.5"/>
						<g>
							<path class="st13" d="M717.4,405c2.3-6.5,5-12.9,9.5-18.1c0.8-0.9,1.9-1.8,2.9-1.2c0.7,0.4,0.9,1.4,0.6,2.2
								c-0.3,0.8-0.9,1.4-1.5,2C724.3,394.4,720.4,399.5,717.4,405z"/>
							<path class="st13" d="M707.7,407.1c-0.8-6-2.7-11.9-5.7-17.1c-1-1.8-2.3-3.6-4.3-3.9c-0.4-0.1-1,0-1.2,0.3
								c-0.3,0.4-0.1,0.9,0,1.3c1.3,3.4,3.8,6.2,6.1,9.1S706.9,402.9,707.7,407.1z"/>
							<g>
								<path class="st14" d="M734.2,404.7c-1.3,1.5-2.8,3-4.3,4.3c-4.7,4.1-10.2,7.4-16.2,9.5c-4.9-1.9-9.2-4.1-13.2-6.7
									c-2.5-1.6-4.9-3.3-7.2-5.2c-2.8-2.2-5.7-5.1-5.1-8.4c0.6-3.9,6-5.5,9.8-4c3.9,1.5,6.4,5.1,8.4,8.6
									c-2.7-7.5-2.2-15.9,1.4-22.9c1.6-3.1,4.9-6.2,8.3-4.8c2.2,0.9,3.2,3.3,3.7,5.5c1.8,7,1.5,14.4-1,21.1
									c2.9-2.2,5.1-5.1,8.3-6.7c3.3-1.6,8.3-0.9,9.5,2.4C737.6,400.1,735.9,402.7,734.2,404.7z"/>
								<path class="st15" d="M729.9,409c-4.7,4.1-10.2,7.4-16.2,9.5c-4.9-1.9-9.2-4.1-13.2-6.7c0,0,0,0-0.1-0.1
									c-0.9-0.8-1.7-1.8-1.9-3c-0.2-2.1,2.2-3.8,4.3-3.6s4,1.5,5.7,2.8c-0.5-3.5,0.1-7.2,1.7-10.4c0.6-1.3,1.6-2.6,3-2.7
									c1.9-0.1,3,2,3.4,3.9c0.6,3.2,0.2,6.5-1,9.5c2-1.8,4.1-3.7,6.6-4.5c2.6-0.8,5.8-0.1,7.1,2.3C729.8,407,730,408,729.9,409z"
									/>
							</g>
						</g>
					</g>
				</g>
				<g>
					<g>
						<g>
							<path class="st10" d="M415.2,516.3c-1.2-11.7,1.6-23.8,7.8-33.8s15.7-18,26.8-22.2c-2.4,11.2-5,22.5-10.1,32.7
								C434.5,503.3,426.3,512.5,415.2,516.3z"/>
							<g>
								<path class="st11" d="M415.5,516.4c6.1-17.8,15.8-34,28.1-46.9"/>
								<path class="st11" d="M434.2,471.6c1.3,1.5,2.3,3.5,2.8,5.5c1.9-0.7,3.9-0.9,5.9-0.4"/>
								<path class="st11" d="M423.6,484.4c1.7,1.9,3.1,4.1,4.1,6.6c2.7-1.5,5.8-1.9,8.8-1.1"/>
								<path class="st11" d="M417.7,499c1.2,1.2,2.2,2.7,2.9,4.3c2.5-1.2,5.4-1.3,8-0.3"/>
							</g>
						</g>
						<path class="st12" d="M410.9,473.5c1.1,25.6,5.3,51,12.7,75.5"/>
						<g>
							<g>
								<g>
									<path class="st13" d="M405.9,443.3c-1.4-10.7-3.7-16.7-3.7-16.7l1.2-0.5c0.1,0.2,2.3,6.2,3.8,17L405.9,443.3z"/>
								</g>
								<g>
									<path class="st13" d="M409.6,444.6c-0.2-5.5,1-15.7,1.1-16.1l1.2,0.1c0,0.1-1.3,10.5-1.1,15.9L409.6,444.6z"/>
								</g>
								<g>
									<path class="st13" d="M413.8,443.7c1.1-8.1,3.5-16,3.5-16.1l1.2,0.3c0,0.1-2.4,7.9-3.5,15.9L413.8,443.7z"/>
								</g>
								<g>
									<path class="st13" d="M417.1,444.3c0.8-5.2,5.3-15.4,5.5-15.8l1.1,0.4c-0.1,0.1-4.7,10.5-5.4,15.5L417.1,444.3z"/>
								</g>
								<g>
									<path class="st13" d="M402.1,443.9c-0.8-3.5-5-9.9-5.1-10l1.1-0.7c0.2,0.3,4.4,6.6,5.2,10.4L402.1,443.9z"/>
								</g>
								<g>
									<path class="st13" d="M398.6,433.7c-0.2,0.7-0.9,1.2-1.6,1.1c-0.8-0.1-1.2-0.8-1.1-1.6c0.2-0.7,0.9-1.2,1.6-1.1
										S398.7,432.9,398.6,433.7z"/>
								</g>
								<g>
									<path class="st13" d="M404.3,426.3c-0.2,0.7-0.9,1.2-1.6,1.1s-1.2-0.8-1.1-1.6s0.9-1.2,1.6-1.1S404.4,425.5,404.3,426.3z"
										/>
								</g>
								<g>
									<path class="st13" d="M412.8,428.1c-0.2,0.7-0.9,1.2-1.6,1.1s-1.2-0.8-1.1-1.6c0.2-0.7,0.9-1.2,1.7-1.1
										S413,427.4,412.8,428.1z"/>
								</g>
								<g>
									<path class="st13" d="M419.4,427.5c-0.2,0.7-0.9,1.2-1.7,1.1s-1.2-0.8-1.1-1.6s0.9-1.2,1.6-1.1S419.6,426.8,419.4,427.5z"
										/>
								</g>
								<g>
									<path class="st13" d="M424.9,428.4c-0.2,0.7-0.9,1.2-1.7,1.1s-1.2-0.8-1.1-1.6c0.2-0.7,0.9-1.2,1.6-1.1
										C424.6,427,425.1,427.7,424.9,428.4z"/>
								</g>
							</g>
							<path class="st20" d="M403.7,442.1c0,0-5.8-7.2-11.1-8.8c0,0-1,28.1,6.5,34.7c7.5,6.6,21.8,7.8,25.6-9.8
								c3.8-17.5,0.4-25.9,0.4-25.9s-6.6,11.1-12.2,13.7C407.3,448.6,403.7,442.1,403.7,442.1z"/>
							<path class="st21" d="M410.3,428.3c0,0-19.3,27.4-9.2,42.1c10.1,14.7,24.4,0.8,20.5-14.6
								C417.8,440.4,410.3,428.3,410.3,428.3z"/>
						</g>
					</g>
					<g>
						<g>
							<path class="st10" d="M383.8,492.6c-5.1-10.2-13.9-17.8-24.5-21.2c-10.6-3.4-22.9-2.7-34.7,2.1c8,7.1,16.1,14.3,25.9,18.6
								C360.3,496.5,372.1,497.8,383.8,492.6z"/>
							<g>
								<path class="st11" d="M383.5,492.9c-14.6-9.7-31.4-15.4-48.7-16.7"/>
								<path class="st11" d="M344,470.9c-0.3,2.2-0.1,4.4,0.5,6.5c-2,0.8-3.8,2.2-5.3,4"/>
								<path class="st11" d="M359.8,473.3c-0.5,2.8-0.5,5.6-0.1,8.3c-3.1,0.8-6,2.8-8.2,5.6"/>
								<path class="st11" d="M372.5,480.7c-0.4,1.9-0.4,3.8-0.3,5.6c-2.8,0.9-5.4,3-7.1,5.7"/>
							</g>
						</g>
						<path class="st12" d="M372.9,468.4c6,15.9,13.8,31.1,23,45.4"/>
						<g>
							<g>
								<g>
									<path class="st13" d="M360,441.2c-4.7-9.7-8.7-14.7-8.8-14.7l1-0.8c0.2,0.2,4.2,5.1,8.9,14.9L360,441.2z"/>
								</g>
								<g>
									<path class="st13" d="M364,441.2c-1.9-5.1-4-15.2-4.1-15.6l1.2-0.3c0,0.1,2.1,10.4,4,15.4L364,441.2z"/>
								</g>
								<g>
									<path class="st13" d="M367.6,439.1c-1.5-8-1.8-16.3-1.8-16.4l1.2-0.1c0,0.1,0.2,8.3,1.7,16.2L367.6,439.1z"/>
								</g>
								<g>
									<path class="st13" d="M371,438.6c-0.9-5.2,0.2-16.3,0.2-16.8l1.2,0.1c0,0.1-1.1,11.4-0.3,16.4L371,438.6z"/>
								</g>
								<g>
									<path class="st13" d="M356.6,442.9c-1.9-3.1-7.9-7.9-8-7.9l0.8-1c0.3,0.2,6.3,4.9,8.3,8.2L356.6,442.9z"/>
								</g>
								<g>
									<path class="st13" d="M350,434.3c0.1,0.7-0.5,1.4-1.2,1.5c-0.8,0.1-1.4-0.4-1.5-1.1c-0.1-0.7,0.5-1.4,1.2-1.5
										C349.3,433.1,349.9,433.6,350,434.3z"/>
								</g>
								<g>
									<path class="st13" d="M353.1,425.5c0.1,0.7-0.5,1.4-1.2,1.5c-0.8,0.1-1.4-0.4-1.5-1.1c-0.1-0.7,0.5-1.4,1.2-1.5
										C352.3,424.3,353,424.8,353.1,425.5z"/>
								</g>
								<g>
									<path class="st13" d="M361.8,424.6c0.1,0.7-0.5,1.4-1.2,1.5c-0.8,0.1-1.4-0.4-1.5-1.1c-0.1-0.7,0.5-1.4,1.2-1.5
										C361,423.3,361.7,423.9,361.8,424.6z"/>
								</g>
								<g>
									<path class="st13" d="M367.8,422c0.1,0.7-0.5,1.4-1.2,1.5c-0.8,0.1-1.4-0.4-1.5-1.1c-0.1-0.7,0.5-1.4,1.2-1.5
										C367.1,420.7,367.8,421.2,367.8,422z"/>
								</g>
								<g>
									<path class="st13" d="M373.3,421.1c0.1,0.7-0.5,1.4-1.2,1.5c-0.8,0.1-1.4-0.4-1.5-1.1c-0.1-0.7,0.5-1.4,1.2-1.5
										C372.6,419.8,373.3,420.3,373.3,421.1z"/>
								</g>
							</g>
							<path class="st20" d="M357.5,440.7c0,0-7.7-5-13.3-4.9c0,0,7.9,27,17.2,30.9s23.1,0.6,21.2-17.3c-1.9-17.8-7.8-24.7-7.8-24.7
								s-2.8,12.6-7.3,16.8C363,445.7,357.5,440.7,357.5,440.7z"/>
							<path class="st21" d="M359.4,425.5c0,0-9.7,32,4.6,42.8c14.3,10.8,23.4-6.9,14.9-20.2C370.4,434.7,359.4,425.5,359.4,425.5z"
								/>
						</g>
					</g>
					<g>
						<g>
							<path class="st10" d="M451.7,509.1c0.9-11.7,5.8-23.1,13.7-31.9c7.9-8.8,18.7-14.9,30.3-17.1c-4.4,10.6-8.9,21.3-15.8,30.4
								C473,499.7,463.3,507.3,451.7,509.1z"/>
							<g>
								<path class="st11" d="M452,509.2c9.2-16.4,21.6-30.6,36-41.2"/>
								<path class="st11" d="M478.3,468.4c1,1.8,1.6,3.8,1.8,5.9c2-0.4,4-0.1,5.9,0.6"/>
								<path class="st11" d="M465.6,479.1c1.4,2.1,2.3,4.6,2.8,7.2c2.9-1,6.1-0.9,8.9,0.4"/>
								<path class="st11" d="M457.2,492.5c0.9,1.4,1.6,3,2.1,4.7c2.7-0.8,5.6-0.3,8,1.1"/>
							</g>
						</g>
						<path class="st12" d="M464.3,443.1c-10.1,28.8-14,59.7-11.3,90"/>
						<g>
							<g>
								<g>
									<path class="st13" d="M464.4,420.3c1.2-10.7,0.5-17,0.5-17.1l1.2-0.2c0,0.3,0.8,6.6-0.5,17.4L464.4,420.3z"/>
								</g>
								<g>
									<path class="st13" d="M467.7,422.5c1.1-5.4,4.8-15,4.9-15.4l1.2,0.4c0,0.1-3.8,9.9-4.9,15.2L467.7,422.5z"/>
								</g>
								<g>
									<path class="st13" d="M472,422.6c3-7.6,7.3-14.7,7.3-14.8l1.1,0.6c0,0.1-4.2,7.1-7.2,14.6L472,422.6z"/>
								</g>
								<g>
									<path class="st13" d="M475.1,424c2-4.9,8.9-13.7,9.2-14l1,0.7c-0.1,0.1-7.1,9-9,13.8L475.1,424z"/>
								</g>
								<g>
									<path class="st13" d="M460.6,420c0.1-3.6-2.5-10.9-2.5-10.9l1.2-0.4c0.1,0.3,2.7,7.5,2.6,11.4L460.6,420z"/>
								</g>
								<g>
									<path class="st13" d="M459.7,409.2c-0.3,0.7-1.2,1-1.9,0.6s-1-1.1-0.7-1.8c0.3-0.7,1.2-1,1.9-0.6
										C459.7,407.7,460,408.5,459.7,409.2z"/>
								</g>
								<g>
									<path class="st13" d="M466.9,403.4c-0.3,0.7-1.2,1-1.9,0.6c-0.7-0.3-1-1.1-0.7-1.8c0.3-0.7,1.2-1,1.9-0.6
										C467,401.9,467.3,402.7,466.9,403.4z"/>
								</g>
								<g>
									<path class="st13" d="M474.8,407.3c-0.3,0.7-1.2,1-1.9,0.6c-0.7-0.3-1-1.1-0.7-1.8c0.3-0.7,1.2-1,1.9-0.6
										C474.8,405.8,475.1,406.6,474.8,407.3z"/>
								</g>
								<g>
									<path class="st13" d="M481.3,408.3c-0.3,0.7-1.2,1-1.9,0.6c-0.7-0.3-1-1.1-0.7-1.8c0.3-0.7,1.2-1,1.9-0.6
										C481.4,406.8,481.7,407.6,481.3,408.3z"/>
								</g>
								<g>
									<path class="st13" d="M486.5,410.4c-0.3,0.7-1.2,1-1.9,0.6c-0.7-0.3-1-1.1-0.7-1.8c0.3-0.7,1.2-1,1.9-0.6
										C486.5,409,486.8,409.8,486.5,410.4z"/>
								</g>
							</g>
							<path class="st20" d="M462.6,418.6c0,0-3.9-8.4-8.7-11.2c0,0-7.8,27-2,35.3c5.7,8.2,19.3,12.8,27.2-3.3
								c7.9-16.1,6.6-25,6.6-25s-9.1,9.2-15.1,10.3C464.5,425.8,462.6,418.6,462.6,418.6z"/>
							<path class="st21" d="M472.3,406.8c0,0-25.4,21.9-19.1,38.6c6.3,16.7,23.5,6.7,23.4-9.2C476.6,420.4,472.3,406.8,472.3,406.8
								z"/>
						</g>
					</g>
				</g>
			</g>
			<g>
				<g>
					<path class="st4" d="M751.8,421.4v80.4H509.3c0.9-3.6,2.9-7,5.6-9.7c0.5-0.5,1-0.9,1.5-1.4c6.2-5.1,15.5-7.1,23.7-5.2
						c0-7.3,3.5-14.4,9.2-19.8c4-3.8,9-6.7,14.7-8.2c1.4-0.4,2.7-0.6,4.1-0.8c12.6-1.8,26.3,3.2,33.5,12.5c12.5-6.2,29.8-4,39.7,5.2
						c7.3-8.5,21.6-11.3,32.7-7.4c2.5,0.9,4.9,2.1,7,3.7c-2.3-11.1,3.9-23.1,14.8-28.9c11-5.8,26-5.1,36.2,1.7
						c-1.4-7.7,3.9-15.1,11.5-19.2C746.1,422.9,748.9,421.9,751.8,421.4z"/>
					<path class="st22" d="M743.6,424.2c-5.4,8.2-7.5,17.8-7.9,27.3c-10.8-5.2-25.1-4.5-35.2,1.9s-15.4,17.9-13.1,28.6
						c-15-7.8-35.1-7.1-49.4,1.6c-10.6-10-28.3-12.2-40.1-5.2c-7.9-8.6-22.1-12.3-34.1-8.9c-12,3.4-21,13.7-21.6,24.7
						c-8.2-4.2-18.4-4.7-27.3-2c0.5-0.5,1-0.9,1.5-1.4c6.2-5.1,15.5-7.1,23.7-5.2c0-7.3,3.5-14.4,9.2-19.8c4-3.8,9-6.7,14.7-8.2
						c1.4-0.4,2.7-0.6,4.1-0.8c12.6-1.8,26.3,3.2,33.5,12.5c12.5-6.2,29.8-4,39.7,5.2c7.3-8.5,21.6-11.3,32.7-7.4
						c2.5,0.9,4.9,2.1,7,3.7c-2.3-11.1,3.9-23.1,14.8-28.9c11-5.8,26-5.1,36.2,1.7C730.6,435.7,735.9,428.3,743.6,424.2z"/>
				</g>
				<g>
					<path class="st4" d="M208.6,504.4H-6.8v-49.9c4.2-0.4,8.4,0.1,12.3,1.6c8.9,3.2,16.1,11.1,18.1,21.4
						c11.2-3.9,24.4-1.3,33.2,6.5c11.8-17,39.8-19.3,54.1-4.4c6.1-11.7,20-18.9,33.2-17c13.1,1.9,24.5,12.6,27.1,25.6
						c7.6-3.1,16.3-2.4,23.5,1.1C201.1,492.4,206.4,497.7,208.6,504.4z"/>
					<path class="st22" d="M-6.8,460.8c9.6,4.8,17.4,13.3,20.7,23.6c15.5-2.7,32.1,0.8,45.2,9.7c12.6-15.3,38.5-16.9,52.9-3.3
						c6.8-7.8,17.4-12.1,27.7-11.4c10.3,0.8,20.1,6.7,25.6,15.5c9.1-4.5,19.4-6.4,29.5-5.7c-7.2-3.5-15.9-4.2-23.5-1.1
						c-2.6-13-14-23.7-27.1-25.6c-13.1-1.9-27,5.3-33.2,17c-14.4-14.9-42.3-12.6-54.1,4.4c-8.9-7.8-22.1-10.4-33.2-6.5
						c-2-10.3-9.2-18.2-18.1-21.4c-3.9-1.4-8.2-1.9-12.3-1.6"/>
				</g>
			</g>
			<g>
				<g>
					<g>
						<g>
							<path class="st10" d="M210.7,514.8c0-8.3-3.1-16.7-8.8-23.7s-13.9-12.4-23-15.1c2.8,7.8,5.7,15.7,10.6,22.9
								C194.4,505.9,201.5,512.3,210.7,514.8z"/>
							<g>
								<path class="st11" d="M210.4,514.9c-6.2-12.4-15.1-23.6-25.9-32.5"/>
								<path class="st11" d="M192.2,483.6c-0.9,1.1-1.5,2.5-1.8,3.9c-1.5-0.5-3.2-0.5-4.7-0.2"/>
								<path class="st11" d="M201.6,492.4c-1.2,1.4-2.2,3-2.7,4.7c-2.2-1-4.8-1.2-7.1-0.6"/>
								<path class="st11" d="M207.4,502.7c-0.8,0.9-1.5,1.9-2,3.1c-2.1-0.8-4.4-0.8-6.4-0.1"/>
							</g>
						</g>
						<path class="st12" d="M199,456.4c9.4,23.8,13.1,49.8,10.8,75.3"/>
						<g>
							<path class="st13" d="M199.1,448.2c-0.8-6.8-1.1-13.8,0.7-20.4c0.3-1.1,1-2.4,2.1-2.4c0.8,0,1.5,0.9,1.5,1.7
								s-0.2,1.7-0.5,2.5C200.6,435.6,199.4,441.9,199.1,448.2z"/>
							<path class="st13" d="M191.2,454.2c-3.3-5.1-7.6-9.5-12.6-12.9c-1.7-1.1-3.7-2.2-5.6-1.7c-0.4,0.1-0.9,0.4-1,0.8
								c-0.1,0.5,0.3,0.9,0.6,1.2c2.7,2.5,6.2,3.9,9.4,5.6C185.4,448.9,188.7,450.9,191.2,454.2z"/>
							<g>
								<path class="st14" d="M214,440.6c-0.5,2-1.2,3.9-2,5.7c-2.4,5.8-6,11.1-10.4,15.6c-5.2,0.4-10.1,0.3-14.8-0.3
									c-3-0.4-5.9-0.9-8.7-1.5c-3.4-0.8-7.3-2.1-8.3-5.3c-1.1-3.8,3-7.6,7.1-7.9s8,1.8,11.3,4.1c-5.7-5.6-8.9-13.4-8.7-21.2
									c0.1-3.5,1.8-7.8,5.4-8c2.3-0.1,4.3,1.6,5.7,3.3c4.7,5.5,7.6,12.3,8.3,19.4c1.6-3.2,2.3-6.8,4.6-9.6c2.2-2.8,7-4.4,9.6-1.9
									C215.1,434.9,214.7,438,214,440.6z"/>
								<path class="st15" d="M212.1,446.3c-2.4,5.8-6,11.1-10.4,15.6c-5.2,0.4-10.1,0.3-14.8-0.3c0,0-0.1,0-0.1,0
									c-1.1-0.4-2.3-0.9-3-1.9c-1.1-1.8,0.3-4.4,2.3-5.2s4.2-0.4,6.3,0.1c-1.9-3-3-6.5-3-10.1c0-1.4,0.3-3,1.5-3.7
									c1.6-0.9,3.6,0.5,4.8,2c1.9,2.6,3,5.8,3.2,9c1-2.5,2.1-5.1,4-6.9c2-1.8,5.2-2.6,7.4-1C211.2,444.6,211.7,445.4,212.1,446.3z
									"/>
							</g>
						</g>
					</g>
					<g>
						<path class="st12" d="M237.1,488.1c-1.1,14.6-5.8,28.9-13.6,41.3"/>
						<g>
							<path class="st13" d="M242.3,480.8c3.5-5.9,7.5-11.6,12.9-15.8c0.9-0.7,2.2-1.4,3.1-0.6c0.7,0.5,0.6,1.6,0.2,2.3
								s-1.2,1.2-1.9,1.6C251.2,471.7,246.3,476,242.3,480.8z"/>
							<path class="st13" d="M232.3,480.8c0.5-6-0.3-12.2-2.2-17.9c-0.6-1.9-1.6-4-3.4-4.7c-0.4-0.2-0.9-0.2-1.3,0.1
								c-0.3,0.3-0.3,0.9-0.2,1.3c0.6,3.6,2.5,6.9,4.1,10.2C230.9,473,232.4,476.6,232.3,480.8z"/>
							<g>
								<path class="st14" d="M258.7,483.9c-1.6,1.2-3.3,2.3-5.1,3.4c-5.4,3.1-11.5,5.2-17.8,6.1c-4.4-2.8-8.2-5.9-11.6-9.2
									c-2.2-2.1-4.1-4.2-6-6.5c-2.3-2.7-4.5-6.2-3.3-9.3c1.4-3.7,7-4.2,10.4-1.9c3.5,2.3,5.2,6.3,6.5,10.1c-1.1-7.9,1-16,6-22.1
									c2.2-2.7,6.1-5.1,9.1-3c1.9,1.3,2.4,3.8,2.6,6.1c0.4,7.2-1.5,14.4-5.2,20.4c3.2-1.5,6-4,9.5-4.9c3.5-0.9,8.3,0.8,8.8,4.3
									C263,480,260.9,482.2,258.7,483.9z"/>
								<path class="st15" d="M253.7,487.2c-5.4,3.1-11.5,5.2-17.8,6.1c-4.4-2.8-8.2-5.9-11.6-9.2c0,0,0,0-0.1-0.1
									c-0.7-1-1.3-2.1-1.2-3.3c0.2-2.2,2.9-3.3,5-2.7c2.1,0.6,3.6,2.3,5,3.9c0.3-3.5,1.6-7,3.8-9.8c0.9-1.1,2.1-2.2,3.5-2
									c1.9,0.3,2.6,2.6,2.5,4.5c-0.1,3.2-1.1,6.4-2.9,9.1c2.3-1.4,4.7-2.8,7.4-3c2.7-0.2,5.7,1.1,6.5,3.7
									C254,485.2,254,486.2,253.7,487.2z"/>
							</g>
						</g>
					</g>
				</g>
				<g>
					<g>
						<g>
							<g>
								<path class="st10" d="M73.6,488.2c0.8-12.4-6.9-24.2-18.6-28.7c0.5,1,1,2,1.5,3c-4.9-2.3-10.2-3.9-15.7-4.6
									c-0.1,9.3,4.4,18.2,12,23.7c-0.9-0.8-2.3-1-3.6-0.6C55.8,486.3,64.9,488.9,73.6,488.2z"/>
								<g>
									<path class="st16" d="M73.9,488.1c-7.4-10.1-17.3-18.4-28.8-24.3"/>
									<path class="st16" d="M60.6,465.2c2.4,3.1,3.4,7.1,3,11.1"/>
									<path class="st16" d="M70.4,484.5c-4.2,0.5-8.5,0.1-12.4-1.2"/>
									<path class="st16" d="M56.6,471c-2.8,1.3-6.2,1.4-8.9,0.4"/>
								</g>
							</g>
							<path class="st12" d="M51.9,420.3c18.4,31.6,26.9,68.8,24.1,106.2"/>
							<g>
								<g>
									<path class="st17" d="M73.3,401.8c-0.2,2.1-2.8,5-5.1,7.3h0c-2.1,2-4,3.5-4,3.5s3.5-0.3,6.1-0.4c2.6-0.1,3.6,4.7-1.8,9.1
										c-5.4,4.5-11.7,0.2-11.7,0.2c1,7.8-8.4,11.8-12.2,10.1c-3.8-1.7,1.1-9.4,1.1-9.4c-7.4,7.1-13.5,4.8-16.7,0.9
										c-2.4-2.8-3.2-6.5-1.9-7.9c3.1-3.2,13.8-1.8,13.8-1.8c-11.9-3.1-12.8-13.7-6.8-14.6c5.9-1,12.8,8.3,13,8.6
										c-8.1-17,1.8-21.8,7-17.4c5.1,4.3,3.3,16.4,3.2,16.9c0.2-0.5,4.6-12.3,8.3-13.6C69.4,392,73.6,397.9,73.3,401.8z"/>
								</g>
								<path class="st18" d="M68.5,421.3c-5.4,4.5-11.7,0.2-11.7,0.2c1,7.8-8.4,11.8-12.2,10c-3.8-1.7,1.1-9.4,1.1-9.4
									c-7.4,7.1-13.5,4.8-16.7,0.9c0,0,6.5,3.5,12.3,0.4c5.8-3.2,8-5.7,8-5.7l8-4.2c0,0,6.2-0.9,10.9-4.5c-2.1,2-4,3.5-4,3.5
									s3.5-0.3,6.1-0.4C72.9,412.1,73.9,416.9,68.5,421.3z"/>
								<g>
									<g>
										<path class="st19" d="M57.2,413.6c0.3,0.9-1.5,2.5-4.2,3.6c-2.7,1.1-5.1,1.2-5.5,0.4c-0.4-0.9,1.5-2.5,4.2-3.6
											C54.5,412.8,56.9,412.7,57.2,413.6z"/>
									</g>
									<g>
										<g>
											<path class="st19" d="M48.8,416.9c-1-1.3-4.1-3.1-4.1-3.1l0.3-0.5c0.1,0.1,3.2,1.8,4.3,3.2L48.8,416.9z"/>
										</g>
										<g>
											<path class="st19" d="M45.3,413.4c0.1,0.3-0.2,0.7-0.5,0.8c-0.4,0.1-0.7-0.1-0.8-0.4c-0.1-0.3,0.2-0.7,0.5-0.8
												C44.9,412.9,45.2,413.1,45.3,413.4z"/>
										</g>
									</g>
									<g>
										<g>
											<path class="st19" d="M50.3,415.9c-2.6-4.1-4.8-6.1-4.8-6.1l0.4-0.4c0.1,0.1,2.2,2,4.9,6.2L50.3,415.9z"/>
										</g>
										<g>
											<path class="st19" d="M46.3,409.3c0.1,0.3-0.2,0.7-0.5,0.8c-0.4,0.1-0.7-0.1-0.8-0.4c-0.1-0.3,0.2-0.7,0.5-0.8
												C45.9,408.8,46.2,409,46.3,409.3z"/>
										</g>
									</g>
									<g>
										<g>
											<path class="st19" d="M52.1,415.7c-1.2-2.2-2.6-6.6-2.6-6.8l0.6-0.2c0,0.1,1.5,4.5,2.6,6.7L52.1,415.7z"/>
										</g>
										<g>
											<path class="st19" d="M50.4,408.4c0.1,0.3-0.2,0.7-0.5,0.8c-0.4,0.1-0.7-0.1-0.8-0.4c-0.1-0.3,0.2-0.7,0.5-0.8
												C50,407.9,50.3,408,50.4,408.4z"/>
										</g>
									</g>
									<g>
										<g>
											<path class="st19" d="M53.8,414.5c-1.1-3.5-1.6-7.2-1.6-7.2l0.6-0.1c0,0,0.5,3.7,1.5,7.1L53.8,414.5z"/>
										</g>
										<g>
											<path class="st19" d="M53.1,406.8c0.1,0.3-0.2,0.7-0.5,0.8c-0.3,0.1-0.7-0.1-0.8-0.4c-0.1-0.3,0.2-0.7,0.5-0.8
												C52.7,406.3,53,406.5,53.1,406.8z"/>
										</g>
									</g>
									<g>
										<g>
											<path class="st19" d="M55.3,414.1c-0.7-2.3-0.7-7.3-0.6-7.5l0.6,0c0,0.1,0,5.2,0.6,7.4L55.3,414.1z"/>
										</g>
										<g>
											<path class="st19" d="M55.6,406.1c0.1,0.3-0.2,0.7-0.5,0.8c-0.3,0.1-0.7-0.1-0.8-0.4c-0.1-0.3,0.2-0.7,0.5-0.8
												C55.2,405.6,55.6,405.8,55.6,406.1z"/>
										</g>
									</g>
								</g>
							</g>
						</g>
						<g>
							<g>
								<path class="st10" d="M98.2,494.2c-2.1-12.4,3.5-25.3,13.5-31.4c-0.3,1.1-0.7,2.1-1.1,3.2c4.1-3,8.7-5.2,13.6-6.6
									c1.2,9.4-1.9,19-8.1,25.5c0.7-0.9,2-1.4,3.2-1.1C114,490,106.1,493.8,98.2,494.2z"/>
								<g>
									<path class="st16" d="M97.9,494.2c5.5-11.1,13.5-20.8,23.2-28.2"/>
									<path class="st16" d="M107.2,469.4c-1.8,3.4-2.3,7.6-1.4,11.6"/>
									<path class="st16" d="M100.6,490.1c3.9,0,7.7-1,11.1-2.8"/>
									<path class="st16" d="M111.5,474.7c2.7,0.9,5.7,0.7,8.1-0.8"/>
								</g>
							</g>
							<path class="st12" d="M94.1,446.3c4.8,23,5.7,46.6,2.6,69.4"/>
							<g>
								<g>
									<path class="st17" d="M119.2,436.5c-0.8,2.2-4.2,4.2-7.2,5.7h0c-2.6,1.3-4.9,2.1-4.9,2.1s3.6,1.2,6.1,2.2s2.2,6.6-4.4,9.1
										c-6.6,2.5-11.6-4.8-11.6-4.8c-1.2,8.9-11.7,9.2-14.9,5.7c-3.2-3.5,3.8-9.7,3.8-9.7c-9.3,4.5-14.6-0.6-16.7-6.2
										c-1.5-4.1-1.3-8.4,0.4-9.4c3.9-2.2,14.1,4,14.1,4c-10.8-8.5-8.5-20.3-2.4-18.8c6.1,1.5,10.1,14.5,10.2,14.9
										c-3-21.9,8.1-22.8,11.9-15.8c3.7,6.9-1.6,19.2-1.8,19.7c0.3-0.5,8.1-11.4,12.1-11.2C118.2,424.2,120.6,432.4,119.2,436.5z"
										/>
								</g>
								<path class="st18" d="M108.8,455.6c-6.6,2.5-11.6-4.8-11.6-4.8c-1.2,8.9-11.7,9.2-14.9,5.7c-3.2-3.5,3.8-9.7,3.8-9.7
									c-9.3,4.5-14.6-0.6-16.7-6.2c0,0,5.3,6.6,11.9,5.7c6.6-1,9.5-2.8,9.5-2.8l9.1-1.1c0,0,6.4,1.7,12-0.2
									c-2.6,1.3-4.9,2.1-4.9,2.1s3.6,1.2,6.1,2.2C115.8,447.5,115.4,453.1,108.8,455.6z"/>
								<g>
									<g>
										<path class="st19" d="M100,442.4c0.1,1.1-2.2,2.1-5.2,2.1c-2.9,0-5.4-0.8-5.5-2s2.2-2.1,5.2-2.1
											C97.5,440.4,99.9,441.3,100,442.4z"/>
									</g>
									<g>
										<g>
											<path class="st19" d="M90.7,442.3c-0.6-1.8-3.1-5.1-3.1-5.1l0.5-0.4c0.1,0.1,2.6,3.4,3.2,5.3L90.7,442.3z"/>
										</g>
										<g>
											<path class="st19" d="M88.3,437.1c0,0.4-0.3,0.7-0.7,0.6c-0.4-0.1-0.6-0.4-0.6-0.8c0-0.4,0.3-0.7,0.7-0.6
												C88,436.3,88.3,436.7,88.3,437.1z"/>
										</g>
									</g>
									<g>
										<g>
											<path class="st19" d="M92.5,441.9c-1.4-5.5-2.9-8.6-2.9-8.6l0.5-0.3c0.1,0.1,1.6,3.2,3,8.8L92.5,441.9z"/>
										</g>
										<g>
											<path class="st19" d="M90.5,433c0,0.4-0.3,0.7-0.7,0.6c-0.4,0-0.7-0.4-0.6-0.8c0-0.4,0.3-0.7,0.7-0.6
												C90.3,432.3,90.5,432.7,90.5,433z"/>
										</g>
									</g>
									<g>
										<g>
											<path class="st19" d="M94.4,442.5c-0.5-2.9-0.6-8.2-0.6-8.4l0.6,0c0,0.1,0.1,5.5,0.6,8.4L94.4,442.5z"/>
										</g>
										<g>
											<path class="st19" d="M94.8,433.8c0,0.4-0.3,0.7-0.7,0.6c-0.4,0-0.7-0.4-0.6-0.8c0-0.4,0.3-0.7,0.7-0.6
												C94.5,433.1,94.8,433.4,94.8,433.8z"/>
										</g>
									</g>
									<g>
										<g>
											<path class="st19" d="M96.3,441.9c0-4.2,0.6-8.5,0.6-8.5l0.6,0.1c0,0-0.6,4.2-0.6,8.4L96.3,441.9z"/>
										</g>
										<g>
											<path class="st19" d="M97.9,433.3c0,0.4-0.3,0.7-0.7,0.6c-0.4,0-0.7-0.4-0.6-0.8c0-0.4,0.3-0.7,0.7-0.6
												C97.6,432.6,97.9,432.9,97.9,433.3z"/>
										</g>
									</g>
									<g>
										<g>
											<path class="st19" d="M98,442.1c0-2.7,1.5-8.2,1.6-8.4l0.6,0.2c0,0.1-1.5,5.6-1.5,8.2L98,442.1z"/>
										</g>
										<g>
											<path class="st19" d="M100.6,433.6c0,0.4-0.3,0.7-0.7,0.6c-0.4,0-0.6-0.4-0.6-0.8c0-0.4,0.3-0.7,0.7-0.6
												C100.3,432.9,100.6,433.2,100.6,433.6z"/>
										</g>
									</g>
								</g>
							</g>
						</g>
						<g>
							<g>
								<path class="st10" d="M49.2,515.4c-5.7-9.8-17.6-15.5-28.8-14c0.9,0.5,1.8,1.1,2.7,1.6c-4.9,0.3-9.7,1.4-14.3,3.2
									c4.7,7.2,12.7,12.1,21.2,13c-1.1-0.2-2.3,0.2-3.1,1C34.7,521.6,43,519.7,49.2,515.4z"/>
								<g>
									<path class="st16" d="M49.4,515.2c-10.8-4.6-22.6-6.7-34.3-6.2"/>
									<path class="st16" d="M27.6,503.4c3.4,1.4,6.2,4,7.9,7.2"/>
									<path class="st16" d="M44.9,514c-3,2.2-6.4,3.7-10.1,4.4"/>
									<path class="st16" d="M27.5,509.6c-1.5,2.2-3.9,3.7-6.6,4.1"/>
								</g>
							</g>
							<path class="st12" d="M17.8,470.1c15.8,14.9,28.2,33.4,35.9,53.8"/>
							<g>
								<g>
									<path class="st17" d="M33.3,449.4c0.4,2.1-1.4,5.5-3.2,8.2l0,0c-1.5,2.3-3,4.2-3,4.2s3.4-0.9,5.9-1.4
										c2.5-0.5,4.7,4.1,0.5,9.5S22.1,472,22.1,472c3,7.7-5.2,13.3-9.4,12.2c-4.2-1.1-1.3-9.7-1.3-9.7c-5.4,8.4-12,7-16.1,3.7
										c-3-2.5-4.8-6.1-3.8-7.7c2.2-3.8,13-4.1,13-4.1c-12.4-1.2-15.9-11.8-10.3-13.7c5.5-1.9,14.5,6.3,14.8,6.6
										c-12.1-15.9-3.7-22.3,2.5-18.7c6,3.5,7.3,16.1,7.3,16.6c0.1-0.6,1.4-13.2,4.7-15.1C27,440.2,32.6,445.4,33.3,449.4z"/>
								</g>
								<path class="st18" d="M33.5,469.9c-4.1,5.4-11.4,2.1-11.4,2.1c3,7.7-5.2,13.3-9.4,12.2c-4.1-1.1-1.3-9.7-1.3-9.7
									c-5.4,8.4-12,7-16.1,3.7c0,0,7.2,2.5,12.1-1.6c4.9-4.1,6.4-7.1,6.4-7.1l6.8-5.5c0,0,5.9-1.9,9.5-6.3c-1.5,2.4-3,4.2-3,4.2
									s3.4-0.9,5.9-1.4C35.5,459.9,37.7,464.5,33.5,469.9z"/>
								<g>
									<g>
										<path class="st19" d="M20.6,463.9c0.6,0.9-0.9,2.8-3.2,4.3c-2.3,1.5-4.7,2.1-5.2,1.3c-0.6-0.9,0.9-2.8,3.2-4.3
											C17.6,463.7,20,463.1,20.6,463.9z"/>
									</g>
									<g>
										<g>
											<path class="st19" d="M13.1,468.6c-1.3-1.1-4.7-2.4-4.8-2.4l0.2-0.5c0.1,0,3.6,1.4,4.9,2.5L13.1,468.6z"/>
										</g>
										<g>
											<path class="st19" d="M8.8,465.7c0.2,0.3,0,0.7-0.3,0.9c-0.3,0.1-0.7,0-0.9-0.3c-0.2-0.3,0-0.7,0.3-0.9
												S8.7,465.4,8.8,465.7z"/>
										</g>
									</g>
									<g>
										<g>
											<path class="st19" d="M14.3,467.4c-3.6-3.7-6.2-5.4-6.2-5.4l0.3-0.5c0.1,0.1,2.7,1.7,6.3,5.5L14.3,467.4z"/>
										</g>
										<g>
											<path class="st19" d="M8.8,461.4c0.2,0.3,0,0.7-0.3,0.9c-0.3,0.1-0.7,0-0.9-0.3c-0.1-0.3,0-0.7,0.3-0.9
												C8.3,460.9,8.7,461.1,8.8,461.4z"/>
										</g>
									</g>
									<g>
										<g>
											<path class="st19" d="M16.1,466.9c-1.7-2-4.2-6.2-4.3-6.4l0.5-0.3c0,0,2.6,4.3,4.2,6.3L16.1,466.9z"/>
										</g>
										<g>
											<path class="st19" d="M12.5,459.8c0.1,0.3,0,0.7-0.3,0.9c-0.3,0.1-0.7,0-0.8-0.3c-0.2-0.3,0-0.7,0.3-0.9
												C12,459.3,12.4,459.5,12.5,459.8z"/>
										</g>
									</g>
									<g>
										<g>
											<path class="st19" d="M17.4,465.4c-1.9-3.4-3.3-7-3.3-7.1l0.5-0.2c0,0,1.4,3.7,3.3,7L17.4,465.4z"/>
										</g>
										<g>
											<path class="st19" d="M14.8,457.8c0.2,0.3,0,0.7-0.3,0.9c-0.3,0.1-0.7,0-0.9-0.3s0-0.7,0.3-0.9
												C14.3,457.4,14.7,457.5,14.8,457.8z"/>
										</g>
									</g>
									<g>
										<g>
											<path class="st19" d="M18.8,464.8c-1.2-2.2-2.4-7.3-2.5-7.5l0.6-0.1c0,0,1.3,5.2,2.5,7.3L18.8,464.8z"/>
										</g>
										<g>
											<path class="st19" d="M17.1,456.7c0.2,0.3,0,0.7-0.3,0.8c-0.3,0.2-0.7,0-0.8-0.3c-0.2-0.3,0-0.7,0.3-0.8
												C16.6,456.2,17,456.3,17.1,456.7z"/>
										</g>
									</g>
								</g>
							</g>
						</g>
					</g>
					<g>
						<g>
							<path class="st10" d="M144.4,486.8c3.6-7.4,4.5-16.4,2.4-25.1c-2.1-8.7-7.1-17.2-14.1-23.6c-0.9,8.3-1.7,16.6-0.4,25.2
								C133.6,471.8,137.3,480.6,144.4,486.8z"/>
							<g>
								<path class="st11" d="M144.2,486.8c-0.2-13.9-3.4-27.9-9.2-40.6"/>
								<path class="st11" d="M141.3,450.7c-1.3,0.6-2.5,1.5-3.3,2.7c-1.2-1.1-2.6-1.9-4.2-2.2"/>
								<path class="st11" d="M146,462.7c-1.7,0.7-3.2,1.7-4.5,3c-1.6-1.9-3.8-3.2-6.1-3.7"/>
								<path class="st11" d="M146.7,474.5c-1.1,0.4-2.2,1.1-3.1,1.9c-1.5-1.6-3.6-2.7-5.8-2.9"/>
							</g>
						</g>
						<path class="st12" d="M159.3,429.2c-1.9,25.5-9.9,50.6-23,72.5"/>
						<g>
							<path class="st13" d="M163,421.8c2.3-6.5,5-12.9,9.5-18.1c0.8-0.9,1.9-1.8,2.9-1.2c0.7,0.4,0.9,1.4,0.6,2.2
								c-0.3,0.8-0.9,1.4-1.5,2C169.9,411.1,166,416.3,163,421.8z"/>
							<path class="st13" d="M153.3,423.8c-0.8-6-2.7-11.9-5.7-17.1c-1-1.8-2.4-3.6-4.3-3.9c-0.4-0.1-1,0-1.2,0.3
								c-0.3,0.4-0.1,0.9,0,1.3c1.3,3.4,3.8,6.2,6.1,9.1S152.4,419.7,153.3,423.8z"/>
							<g>
								<path class="st14" d="M179.7,421.5c-1.3,1.5-2.8,3-4.3,4.3c-4.7,4.1-10.2,7.4-16.2,9.5c-4.9-1.9-9.2-4.1-13.2-6.7
									c-2.5-1.6-4.9-3.3-7.2-5.2c-2.8-2.2-5.7-5.1-5.2-8.4c0.6-3.9,6-5.5,9.8-4s6.4,5.1,8.4,8.6c-2.7-7.5-2.2-15.9,1.4-22.9
									c1.6-3.1,4.9-6.2,8.3-4.8c2.2,0.9,3.2,3.3,3.7,5.5c1.8,7,1.5,14.4-1,21.1c2.9-2.2,5.1-5.1,8.3-6.7c3.3-1.6,8.3-0.9,9.5,2.4
									C183.1,416.8,181.5,419.5,179.7,421.5z"/>
								<path class="st15" d="M175.5,425.8c-4.7,4.1-10.2,7.4-16.2,9.5c-4.9-1.9-9.2-4.1-13.2-6.7c0,0,0,0-0.1-0.1
									c-0.9-0.8-1.7-1.8-1.8-3c-0.2-2.1,2.2-3.8,4.3-3.6s4,1.5,5.7,2.8c-0.5-3.5,0.1-7.2,1.7-10.4c0.6-1.3,1.6-2.6,3-2.7
									c1.9-0.1,3,2,3.4,3.9c0.6,3.2,0.2,6.5-1,9.5c2-1.8,4.1-3.7,6.6-4.5c2.6-0.8,5.8-0.1,7.1,2.3
									C175.4,423.8,175.6,424.8,175.5,425.8z"/>
							</g>
						</g>
					</g>
				</g>
				<g>
					<g>
						<g>
							<path class="st10" d="M-89.2,543.1c-1.2-11.7,1.6-23.8,7.8-33.8c6.2-10,15.7-17.9,26.8-22.2c-2.4,11.2-5,22.5-10.1,32.7
								C-69.9,530.1-78,539.3-89.2,543.1z"/>
							<g>
								<path class="st11" d="M-88.9,543.2c6.2-17.8,15.8-34,28.1-46.9"/>
								<path class="st11" d="M-70.2,498.4c1.3,1.6,2.3,3.5,2.8,5.5c1.9-0.7,3.9-0.9,5.9-0.4"/>
								<path class="st11" d="M-80.8,511.1c1.7,1.9,3.1,4.1,4.1,6.6c2.7-1.5,5.8-1.9,8.8-1.1"/>
								<path class="st11" d="M-86.7,525.8c1.2,1.2,2.2,2.7,2.9,4.3c2.5-1.2,5.4-1.3,8-0.3"/>
							</g>
						</g>
						<path class="st12" d="M-93.5,500.3c1.1,25.6,5.3,51,12.7,75.5"/>
						<g>
							<g>
								<g>
									<path class="st13" d="M-98.5,470.1c-1.4-10.7-3.7-16.7-3.7-16.7l1.2-0.5c0.1,0.2,2.3,6.2,3.8,17L-98.5,470.1z"/>
								</g>
								<g>
									<path class="st13" d="M-94.8,471.4c-0.2-5.5,1-15.7,1.1-16.1l1.2,0.1c0,0.1-1.3,10.5-1.1,15.9L-94.8,471.4z"/>
								</g>
								<g>
									<path class="st13" d="M-90.6,470.5c1.1-8.1,3.5-16.1,3.5-16.1l1.2,0.3c0,0.1-2.4,8-3.5,15.9L-90.6,470.5z"/>
								</g>
								<g>
									<path class="st13" d="M-87.3,471.1c0.8-5.2,5.3-15.4,5.5-15.8l1.2,0.5c-0.1,0.1-4.7,10.5-5.4,15.5L-87.3,471.1z"/>
								</g>
								<g>
									<path class="st13" d="M-102.3,470.7c-0.8-3.6-5-10-5.1-10l1.1-0.7c0.2,0.3,4.4,6.6,5.2,10.4L-102.3,470.7z"/>
								</g>
								<g>
									<path class="st13" d="M-105.8,460.5c-0.2,0.7-0.9,1.2-1.6,1.1s-1.2-0.8-1.1-1.6c0.2-0.7,0.9-1.2,1.7-1.1
										S-105.6,459.7-105.8,460.5z"/>
								</g>
								<g>
									<path class="st13" d="M-100.1,453.1c-0.2,0.7-0.9,1.2-1.6,1.1c-0.8-0.1-1.2-0.8-1.1-1.6c0.2-0.7,0.9-1.2,1.7-1.1
										S-100,452.3-100.1,453.1z"/>
								</g>
								<g>
									<path class="st13" d="M-91.6,454.9c-0.2,0.7-0.9,1.2-1.7,1.1s-1.2-0.8-1.1-1.6c0.2-0.7,0.9-1.2,1.7-1.1
										C-91.9,453.5-91.4,454.2-91.6,454.9z"/>
								</g>
								<g>
									<path class="st13" d="M-85,454.3c-0.2,0.7-0.9,1.2-1.7,1.1c-0.8-0.1-1.2-0.8-1.1-1.6c0.2-0.7,0.9-1.2,1.7-1.1
										S-84.8,453.6-85,454.3z"/>
								</g>
								<g>
									<path class="st13" d="M-79.5,455.2c-0.2,0.7-0.9,1.2-1.7,1.1s-1.2-0.8-1.1-1.6c0.2-0.7,0.9-1.2,1.7-1.1
										C-79.8,453.7-79.3,454.4-79.5,455.2z"/>
								</g>
							</g>
							<path class="st20" d="M-100.7,468.9c0,0-5.8-7.2-11.1-8.8c0,0-1,28.1,6.5,34.7c7.5,6.6,21.8,7.8,25.6-9.8
								c3.8-17.6,0.4-25.9,0.4-25.9s-6.6,11.1-12.2,13.7S-100.7,468.9-100.7,468.9z"/>
							<path class="st21" d="M-94.1,455c0,0-19.3,27.4-9.2,42.1c10.1,14.7,24.4,0.8,20.5-14.6C-86.6,467.2-94.1,455-94.1,455z"/>
						</g>
					</g>
					<g>
						<g>
							<path class="st10" d="M-120.6,519.4c-5.1-10.2-13.9-17.8-24.5-21.2c-10.6-3.4-22.9-2.7-34.7,2.1c8,7.1,16.1,14.3,25.9,18.6
								C-144.1,523.3-132.2,524.6-120.6,519.4z"/>
							<g>
								<path class="st11" d="M-120.9,519.7c-14.6-9.7-31.4-15.4-48.7-16.7"/>
								<path class="st11" d="M-160.4,497.7c-0.3,2.2-0.1,4.4,0.5,6.5c-2,0.8-3.8,2.2-5.3,4"/>
								<path class="st11" d="M-144.6,500.1c-0.5,2.8-0.5,5.6-0.1,8.3c-3.1,0.8-6,2.8-8.2,5.6"/>
								<path class="st11" d="M-131.9,507.5c-0.3,1.9-0.4,3.8-0.3,5.6c-2.8,0.9-5.4,3-7.1,5.7"/>
							</g>
						</g>
						<path class="st12" d="M-131.5,495.2c6.1,15.9,13.8,31.1,23,45.4"/>
						<g>
							<g>
								<g>
									<path class="st13" d="M-144.4,467.9c-4.7-9.7-8.7-14.6-8.8-14.7l1-0.8c0.2,0.2,4.2,5.1,8.9,14.9L-144.4,467.9z"/>
								</g>
								<g>
									<path class="st13" d="M-140.4,468c-1.9-5.1-4-15.2-4.1-15.6l1.2-0.3c0,0.1,2.1,10.4,4,15.4L-140.4,468z"/>
								</g>
								<g>
									<path class="st13" d="M-136.7,465.8c-1.5-8-1.8-16.3-1.8-16.4l1.2-0.1c0,0.1,0.2,8.3,1.7,16.2L-136.7,465.8z"/>
								</g>
								<g>
									<path class="st13" d="M-133.4,465.3c-0.9-5.2,0.2-16.3,0.2-16.8l1.2,0.1c0,0.1-1.1,11.4-0.3,16.4L-133.4,465.3z"/>
								</g>
								<g>
									<path class="st13" d="M-147.8,469.7c-1.9-3.1-7.9-7.9-8-7.9l0.8-1c0.3,0.2,6.3,4.9,8.3,8.2L-147.8,469.7z"/>
								</g>
								<g>
									<path class="st13" d="M-154.4,461.1c0.1,0.7-0.5,1.4-1.2,1.5c-0.8,0.1-1.4-0.4-1.5-1.2c-0.1-0.7,0.5-1.4,1.2-1.5
										C-155.1,459.8-154.5,460.4-154.4,461.1z"/>
								</g>
								<g>
									<path class="st13" d="M-151.3,452.3c0.1,0.7-0.5,1.4-1.2,1.5c-0.8,0.1-1.4-0.4-1.5-1.1c-0.1-0.7,0.5-1.4,1.2-1.5
										C-152.1,451-151.4,451.6-151.3,452.3z"/>
								</g>
								<g>
									<path class="st13" d="M-142.6,451.4c0.1,0.7-0.5,1.4-1.2,1.5c-0.8,0.1-1.4-0.4-1.5-1.1c-0.1-0.7,0.5-1.4,1.2-1.5
										C-143.4,450.1-142.7,450.6-142.6,451.4z"/>
								</g>
								<g>
									<path class="st13" d="M-136.6,448.7c0.1,0.7-0.5,1.4-1.2,1.5c-0.8,0.1-1.4-0.4-1.5-1.1c-0.1-0.7,0.5-1.4,1.2-1.5
										C-137.3,447.5-136.6,448-136.6,448.7z"/>
								</g>
								<g>
									<path class="st13" d="M-131,447.8c0.1,0.7-0.5,1.4-1.2,1.5c-0.8,0.1-1.4-0.4-1.5-1.2c-0.1-0.7,0.5-1.4,1.2-1.5
										C-131.8,446.6-131.1,447.1-131,447.8z"/>
								</g>
							</g>
							<path class="st20" d="M-146.9,467.5c0,0-7.7-5-13.3-4.8c0,0,7.9,27,17.2,30.9s23.2,0.6,21.3-17.3
								c-1.9-17.8-7.8-24.6-7.8-24.6s-2.8,12.6-7.3,16.8C-141.4,472.5-146.9,467.5-146.9,467.5z"/>
							<path class="st21" d="M-145,452.3c0,0-9.7,32,4.6,42.8c14.3,10.8,23.4-6.9,14.9-20.2C-134,461.5-145,452.3-145,452.3z"/>
						</g>
					</g>
					<g>
						<g>
							<path class="st10" d="M-52.7,535.9c0.9-11.7,5.8-23.1,13.7-31.9c7.9-8.8,18.7-14.9,30.3-17.1c-4.4,10.6-8.9,21.3-15.8,30.4
								C-31.4,526.4-41.1,534-52.7,535.9z"/>
							<g>
								<path class="st11" d="M-52.4,536c9.2-16.5,21.6-30.6,36-41.2"/>
								<path class="st11" d="M-26.1,495.2c1,1.8,1.6,3.8,1.8,5.9c2-0.4,4-0.1,5.8,0.6"/>
								<path class="st11" d="M-38.8,505.9c1.3,2.1,2.3,4.6,2.8,7.2c2.9-1,6.1-0.9,8.9,0.4"/>
								<path class="st11" d="M-47.2,519.3c0.9,1.4,1.6,3,2.1,4.7c2.7-0.8,5.6-0.3,8,1.1"/>
							</g>
						</g>
						<path class="st12" d="M-40.1,469.9c-10.1,28.8-14,59.7-11.3,90"/>
						<g>
							<g>
								<g>
									<path class="st13" d="M-39.9,447.1c1.2-10.7,0.5-17.1,0.4-17.1l1.2-0.1c0,0.3,0.8,6.6-0.4,17.4L-39.9,447.1z"/>
								</g>
								<g>
									<path class="st13" d="M-36.6,449.3c1.1-5.4,4.8-15,4.9-15.4l1.2,0.4c0,0.1-3.8,9.9-4.9,15.2L-36.6,449.3z"/>
								</g>
								<g>
									<path class="st13" d="M-32.4,449.4c3-7.6,7.3-14.7,7.3-14.8l1.1,0.6c0,0.1-4.2,7.1-7.2,14.6L-32.4,449.4z"/>
								</g>
								<g>
									<path class="st13" d="M-29.3,450.7c2-4.9,8.9-13.7,9.2-14l1,0.7c-0.1,0.1-7.1,9-9,13.8L-29.3,450.7z"/>
								</g>
								<g>
									<path class="st13" d="M-43.8,446.7c0.1-3.6-2.5-10.9-2.5-10.9l1.2-0.4c0.1,0.3,2.7,7.5,2.6,11.3L-43.8,446.7z"/>
								</g>
								<g>
									<path class="st13" d="M-44.7,436c-0.3,0.7-1.2,1-1.9,0.6c-0.7-0.3-1-1.1-0.7-1.8c0.3-0.7,1.2-1,1.9-0.6
										C-44.7,434.5-44.4,435.3-44.7,436z"/>
								</g>
								<g>
									<path class="st13" d="M-37.4,430.2c-0.3,0.7-1.2,1-1.9,0.6c-0.7-0.3-1-1.1-0.7-1.8c0.3-0.7,1.2-1,1.9-0.6
										C-37.4,428.7-37.1,429.5-37.4,430.2z"/>
								</g>
								<g>
									<path class="st13" d="M-29.6,434c-0.3,0.7-1.2,1-1.9,0.7s-1-1.1-0.7-1.8c0.3-0.7,1.2-1,1.9-0.7
										C-29.6,432.6-29.3,433.4-29.6,434z"/>
								</g>
								<g>
									<path class="st13" d="M-23.1,435c-0.3,0.7-1.2,1-1.9,0.7s-1-1.1-0.7-1.8c0.3-0.7,1.2-1,1.9-0.7
										C-23,433.6-22.7,434.4-23.1,435z"/>
								</g>
								<g>
									<path class="st13" d="M-17.9,437.2c-0.3,0.7-1.2,1-1.9,0.6c-0.7-0.3-1-1.1-0.7-1.8c0.3-0.7,1.2-1,1.9-0.6
										C-17.9,435.8-17.6,436.5-17.9,437.2z"/>
								</g>
							</g>
							<path class="st20" d="M-41.8,445.4c0,0-3.9-8.4-8.7-11.2c0,0-7.8,27-2,35.3s19.3,12.8,27.2-3.3s6.6-25,6.6-25
								s-9.1,9.2-15.1,10.3C-39.9,452.5-41.8,445.4-41.8,445.4z"/>
							<path class="st21" d="M-32.1,433.6c0,0-25.3,21.9-19,38.6s23.5,6.7,23.4-9.2C-27.8,447.2-32.1,433.6-32.1,433.6z"/>
						</g>
					</g>
				</g>
			</g>
		</g>
	</g>
</g>
</svg>
