<?xml version="1.0" encoding="utf-8"?>
<!-- Generator: Adobe Illustrator 25.2.3, SVG Export Plug-In . SVG Version: 6.00 Build 0)  -->
<svg version="1.1" xmlns="http://www.w3.org/2000/svg" xmlns:xlink="http://www.w3.org/1999/xlink" x="0px" y="0px"
	 viewBox="0 0 700 500" style="enable-background:new 0 0 700 500;" xml:space="preserve">
<style type="text/css">
	.st0{opacity:0.3;}
	.st1{clip-path:url(#SVGID_2_);}
	.st2{fill-rule:evenodd;clip-rule:evenodd;fill:url(#SVGID_3_);}
	.st3{fill-rule:evenodd;clip-rule:evenodd;fill:url(#SVGID_4_);}
	.st4{fill-rule:evenodd;clip-rule:evenodd;fill:url(#SVGID_5_);}
	.st5{fill-rule:evenodd;clip-rule:evenodd;fill:url(#SVGID_6_);}
	.st6{fill-rule:evenodd;clip-rule:evenodd;fill:url(#SVGID_7_);}
	.st7{fill-rule:evenodd;clip-rule:evenodd;fill:url(#SVGID_8_);}
	.st8{fill-rule:evenodd;clip-rule:evenodd;fill:url(#SVGID_9_);}
	.st9{fill-rule:evenodd;clip-rule:evenodd;fill:url(#SVGID_10_);}
	.st10{fill-rule:evenodd;clip-rule:evenodd;fill:url(#SVGID_11_);}
	.st11{opacity:0.5;fill-rule:evenodd;clip-rule:evenodd;fill:#838383;}
	.st12{fill-rule:evenodd;clip-rule:evenodd;fill:url(#SVGID_12_);}
	.st13{fill-rule:evenodd;clip-rule:evenodd;fill:url(#SVGID_13_);}
	.st14{fill-rule:evenodd;clip-rule:evenodd;fill:#303030;}
	.st15{fill-rule:evenodd;clip-rule:evenodd;fill:#474747;}
	.st16{fill-rule:evenodd;clip-rule:evenodd;fill:#212121;}
	.st17{fill-rule:evenodd;clip-rule:evenodd;fill:url(#SVGID_14_);}
	.st18{fill-rule:evenodd;clip-rule:evenodd;fill:#1C1C1C;}
	.st19{opacity:0.8;fill-rule:evenodd;clip-rule:evenodd;fill:#838383;}
	.st20{clip-path:url(#SVGID_16_);}
	.st21{fill-rule:evenodd;clip-rule:evenodd;fill:url(#SVGID_17_);}
	.st22{fill-rule:evenodd;clip-rule:evenodd;fill:#6B6B6B;}
	.st23{fill-rule:evenodd;clip-rule:evenodd;fill:#838383;}
	.st24{fill-rule:evenodd;clip-rule:evenodd;fill:#DFDFDF;}
	.st25{fill-rule:evenodd;clip-rule:evenodd;fill:url(#SVGID_18_);}
	.st26{fill-rule:evenodd;clip-rule:evenodd;fill:url(#SVGID_19_);}
	.st27{clip-path:url(#SVGID_16_);fill-rule:evenodd;clip-rule:evenodd;fill:#3B3B3B;}
	.st28{clip-path:url(#SVGID_16_);fill-rule:evenodd;clip-rule:evenodd;fill:url(#SVGID_20_);}
	.st29{clip-path:url(#SVGID_16_);fill-rule:evenodd;clip-rule:evenodd;fill:url(#SVGID_21_);}
	.st30{clip-path:url(#SVGID_16_);fill-rule:evenodd;clip-rule:evenodd;fill:url(#SVGID_22_);}
	.st31{clip-path:url(#SVGID_16_);fill-rule:evenodd;clip-rule:evenodd;fill:#424242;}
	.st32{clip-path:url(#SVGID_16_);fill-rule:evenodd;clip-rule:evenodd;fill:#353535;}
	.st33{clip-path:url(#SVGID_16_);fill-rule:evenodd;clip-rule:evenodd;fill:#414141;}
	.st34{clip-path:url(#SVGID_16_);fill-rule:evenodd;clip-rule:evenodd;fill:#323232;}
	.st35{fill-rule:evenodd;clip-rule:evenodd;fill:#555555;}
	.st36{fill-rule:evenodd;clip-rule:evenodd;fill:#363636;}
	.st37{fill-rule:evenodd;clip-rule:evenodd;fill:#2F2F2F;}
	.st38{clip-path:url(#SVGID_16_);fill-rule:evenodd;clip-rule:evenodd;fill:#C1C1C1;}
	.st39{clip-path:url(#SVGID_16_);fill-rule:evenodd;clip-rule:evenodd;fill:#777777;}
	.st40{clip-path:url(#SVGID_16_);fill-rule:evenodd;clip-rule:evenodd;fill:url(#SVGID_23_);}
	.st41{clip-path:url(#SVGID_16_);fill-rule:evenodd;clip-rule:evenodd;fill:#999999;}
	.st42{clip-path:url(#SVGID_16_);fill-rule:evenodd;clip-rule:evenodd;fill:#595959;}
	.st43{fill-rule:evenodd;clip-rule:evenodd;fill:#C1C1C1;}
	.st44{fill-rule:evenodd;clip-rule:evenodd;fill:#8E8E8E;}
	.st45{fill-rule:evenodd;clip-rule:evenodd;fill:#4D4D4D;}
	.st46{fill-rule:evenodd;clip-rule:evenodd;fill:#CBCBCB;}
	.st47{fill-rule:evenodd;clip-rule:evenodd;fill:#414141;}
	.st48{fill-rule:evenodd;clip-rule:evenodd;fill:#595959;}
	.st49{fill-rule:evenodd;clip-rule:evenodd;fill:#E3E3E3;}
	.st50{fill-rule:evenodd;clip-rule:evenodd;fill:#D3D3D3;}
	.st51{fill-rule:evenodd;clip-rule:evenodd;fill:#ACACAC;}
	.st52{clip-path:url(#SVGID_16_);fill-rule:evenodd;clip-rule:evenodd;fill:#A3A3A3;}
	.st53{clip-path:url(#SVGID_16_);fill-rule:evenodd;clip-rule:evenodd;fill:#212121;}
	.st54{clip-path:url(#SVGID_16_);fill-rule:evenodd;clip-rule:evenodd;fill:#545454;}
	.st55{opacity:0.3;clip-path:url(#SVGID_16_);fill-rule:evenodd;clip-rule:evenodd;fill:#545454;}
	.st56{opacity:0.5;clip-path:url(#SVGID_16_);fill-rule:evenodd;clip-rule:evenodd;fill:#545454;}
</style>
<g id="background">
	<g class="st0">
		<defs>
			<rect id="SVGID_1_" class="st0" width="700" height="500"/>
		</defs>
		<clipPath id="SVGID_2_">
			<use xlink:href="#SVGID_1_"  style="overflow:visible;"/>
		</clipPath>
		<g class="st1">
			<linearGradient id="SVGID_3_" gradientUnits="userSpaceOnUse" x1="-195.3541" y1="396.4758" x2="414.8247" y2="396.4758">
				<stop  offset="0" style="stop-color:#C3C3C3"/>
				<stop  offset="0.1533" style="stop-color:#B4B4B4"/>
				<stop  offset="0.4657" style="stop-color:#9C9C9C"/>
				<stop  offset="0.7543" style="stop-color:#8E8E8E"/>
				<stop  offset="0.9944" style="stop-color:#888888"/>
			</linearGradient>
			<path class="st2" d="M414.8,432.9c-80.2,10.2-447.6-100.2-610.2-204.6v214.9l328.9,121.5L414.8,432.9z"/>
			<linearGradient id="SVGID_4_" gradientUnits="userSpaceOnUse" x1="336.5461" y1="568.877" x2="336.5461" y2="206.0629">
				<stop  offset="0" style="stop-color:#767676"/>
				<stop  offset="0.3939" style="stop-color:#8A8A8A"/>
				<stop  offset="0.9888" style="stop-color:#A6A6A6"/>
			</linearGradient>
			<path class="st3" d="M810.4,206.1c0,0-142,208.6-241.8,191.4C485.1,383,362.3,461.7,227.9,477C93.6,492.2,12.3,466,12.3,466
				l-149.7,102.8h947.8V206.1z"/>
			<linearGradient id="SVGID_5_" gradientUnits="userSpaceOnUse" x1="-159.5226" y1="424.552" x2="-159.5226" y2="-59.7449">
				<stop  offset="5.587020e-03" style="stop-color:#6E6E6E"/>
				<stop  offset="0.7124" style="stop-color:#535353"/>
				<stop  offset="1" style="stop-color:#464646"/>
			</linearGradient>
			<path class="st4" d="M-195.4-59.7h36.4c0,0-16.2,353.7,35.3,484.3l-71.7-35.7V-59.7z"/>
			<linearGradient id="SVGID_6_" gradientUnits="userSpaceOnUse" x1="141.5211" y1="568.877" x2="141.5211" y2="515.5981">
				<stop  offset="5.587020e-03" style="stop-color:#616161"/>
				<stop  offset="1" style="stop-color:#4B4B4B"/>
			</linearGradient>
			<path class="st5" d="M0.8,515.6c0,0,86.1,29,150.9,38.6l-13.8,1.9c0,0,36.7,12.8,152.9,12.8H-7.8C-7.8,568.9-3.2,534.7,0.8,515.6
				z"/>
			<linearGradient id="SVGID_7_" gradientUnits="userSpaceOnUse" x1="225.6591" y1="164.3516" x2="225.6591" y2="-92.1873">
				<stop  offset="5.587020e-03" style="stop-color:#797979"/>
				<stop  offset="1" style="stop-color:#636363"/>
			</linearGradient>
			<path class="st6" d="M88.4,161.5c5.2,0.8,10.7,2,15.9,2.6c7.9,1,16.2-1.2,23.6-3.5c6.7-2.1,13.4-4.4,20.1-6.4
				c2.2-0.7,5.3-1,7-2.8c-4,0.2-6.4-1.5-10.5-1.3c1.4-1.9,5.4-2.7,7.5-3.7c11.1-5.5,21.5-11.7,32.8-16.9
				c17.7-8.3,35.1-17.1,53.7-23.6c3.2-1.1,7-1.8,10.2-3c1.3-0.5,2-1.8,3.6-1.4c-1.5,0.3-3.5-1.3-5.2-1.5c-2.2-0.2-4.5,0-6.7,0
				c7.3-0.1,14.7-1.3,21.6-3.6c20.4-6.8,40.1-18.6,55.2-34.1c27.8-28.6,56.6-66.1,58.6-107.6c0.5,2.6-4.2,8.5-5.7,10.2
				c-3.2,3.8-6.4,7.1-10.2,10.1c3.8-2.8,6-10.6,7-14.8c1-4.3,2-8.8,3.2-13c0.6-2.3,1.7-4.6,1.5-7c-1.4,3.1-2.8,6.3-5.1,8.9
				c-2.4,2.7-5.8,3.4-8.1,5.9c8.5-7.4,11.1-15.7,13.5-26.5c0.7-3.1,1-5.6,1-8.8c0-1.3,0.7-5.3-0.1-6.3c-1.5-2.1-4.2-0.1-6.2,0.3
				c-3.8,0.8-8.1,0.3-11.9,0.3c-7.7,0-15.4,1.1-23.1,1.4c-20.5,0.9-40.9-2.5-61.4-2.8c-24.3-0.5-48.8-0.7-73-2.1
				c-13.9-0.8-27.9,0.1-41.7-1.4c-3.3-0.4-11.9-2.6-15.3-0.5c-2.9,1.8-4.9,8.5-6,11.2c-4.6,10.8-9.9,21.4-14.8,32.1
				c-7.7,16.6-16.2,33-22.9,50.1c-6.8,17.1-11.9,34.7-15.8,52.6c-5.4,24.7-5.9,49.8-3.6,74.9c0.6,6.9,1.1,13.8,2.2,20.6
				C79.4,152.5,79.4,155.6,88.4,161.5z"/>
			<linearGradient id="SVGID_8_" gradientUnits="userSpaceOnUse" x1="266.7162" y1="483.0787" x2="266.7162" y2="422.4128">
				<stop  offset="5.587020e-03" style="stop-color:#C1C1C1"/>
				<stop  offset="1" style="stop-color:#C1C1C1"/>
			</linearGradient>
			<path class="st7" d="M129.7,478.2c0,0,118.7-21.2,181.1-55.8c0,0,38.2,9,92.9,10.7c0,0-93.1,37.9-194.5,49
				C179.6,485.4,161.8,479.5,129.7,478.2z"/>
			<linearGradient id="SVGID_9_" gradientUnits="userSpaceOnUse" x1="63.1485" y1="568.877" x2="63.1485" y2="542.2376">
				<stop  offset="1.117360e-02" style="stop-color:#909090"/>
				<stop  offset="1" style="stop-color:#767676"/>
			</linearGradient>
			<path class="st8" d="M-3.9,542.2c0,0,69.8,0,138,26.6H-7.8L-3.9,542.2z"/>
			<linearGradient id="SVGID_10_" gradientUnits="userSpaceOnUse" x1="434.997" y1="659.076" x2="346.0725" y2="385.3943">
				<stop  offset="5.587020e-03" style="stop-color:#7A7A7A"/>
				<stop  offset="0.3861" style="stop-color:#969696"/>
				<stop  offset="0.7527" style="stop-color:#AAAAAA"/>
				<stop  offset="1" style="stop-color:#B1B1B1"/>
			</linearGradient>
			<path class="st9" d="M68.5,475.6c0,0,48,47.6,98.9,59c0,0,122.9-2.7,205.8-7.8c0,0-54.1,14-129.1,7.8c0,0,63.8,5.5,98.6,13.6
				s43.8,20.7,43.8,20.7h326c0,0-130.2-29.9-168.3-32.3c-38.1-2.4-71.5-2.9-71.5-2.9l58.6-1.9c0,0-109.3-31.6-172.9-31.3
				c-63.5,0.3-85.4,0.3-142.5-4.9c-24.8-2.3-42.6-5.2-54.9-7.8c-15.9-3.3,44.2-6.4,44.2-6.4L68.5,475.6z"/>
			<g>
				<linearGradient id="SVGID_11_" gradientUnits="userSpaceOnUse" x1="232.2219" y1="396.0814" x2="232.2219" y2="-59.7449">
					<stop  offset="5.587020e-03" style="stop-color:#878787"/>
					<stop  offset="0.4659" style="stop-color:#6B6B6B"/>
					<stop  offset="1" style="stop-color:#464646"/>
				</linearGradient>
				<path class="st10" d="M348-14.7c0,0-51,22.9-55.7,38.1c-4.8,15.2-8.1,31.4-28.1,65.7c0,0,10.2,0.5,20.3-15.2
					c0,0,9.7,9.1,3.5,26.7c0,0-7.6-2.1-28.5,17.4c-3.7,3.5-7.9,7.6-12.5,12.6c-5.2,5.6-10.1,10.8-14.6,15.6
					c-20.4,21.6-33.6,34.9-39.1,40.1c-0.4,0.4-0.8,0.7-1.1,1c-1.3,1.1-3.4,5.3-6,11.6c-0.6,1.5-1.2,3.1-1.9,4.8
					c-0.4,1-0.7,1.9-1.1,3c-4.8,13-10.2,31.1-14.1,49.9c-3.6,17.2-5.8,35.1-5,50.2c2.4,45.3,29.1,89.2,29.1,89.2s-10.3-2.3-23.5-5.6
					c-18.5-4.6-42.9-11.3-53.2-16.5c0,0,18.6-25.1,0-48c0,0,6.8-33.6,18.1-80.7c0.8-3.4,1.7-6.9,2.5-10.5c0.8-3.1,1.5-6.2,2.3-9.4
					c1.5-6.1,3.1-12.4,4.7-18.8c2.5-9.7,5.1-19.8,7.8-30c2.2-8.1,4.5-16.3,6.8-24.6c0,0,0,0,0,0c1.1-3.8,2.2-7.7,3.3-11.6
					c0,0,0,0,0-0.1c1.4-4.8,2.8-9.6,4.2-14.4c0,0,0,0,0,0c8.3-27.8,17.2-55.2,26.7-79.9c0,0,0-0.4,0.1-1.2c0.1-3,0.3-11.1-0.3-22.4
					c-0.4-7-1-15.1-2.2-24.1c-0.5-3.7-1-7.6-1.7-11.6c-2.5-14.7-6.4-30.7-12.4-46.4h6.7c0,0,4.1,20.4,9.5,46.4
					c0.8,3.9,1.7,8,2.6,12.1c0.1,0.3,0.1,0.6,0.2,0.8c0.2,1,0.5,1.8,0.9,2.5c4.3,9.5,15.6-2.7,26.5-18.6
					c13-18.9,25.5-43.2,25.5-43.2h10.2c0,0-9,20.3-22.2,41.4c-9.8,15.6-22.1,31.7-34.7,39.9c0,0-3.6,17.6,6.4,44.8
					c0,0-3.6,7.9-7.8,19.7c0,0,0,0,0,0c-7.6,21.3-17.3,55.5-12.5,80.3c0,0,1.2-0.6,3.4-1.8c2.8-1.6,7.3-4.4,12.6-8.5h0
					c2.5-1.9,5.1-4,7.9-6.5c0,0,0,0,0,0c8.9-7.8,19-18.5,28.1-32.7c0,0,0,0,0-0.1c2.7-4.2,5.3-8.6,7.7-13.4
					c2.3-4.5,4.5-9.3,6.4-14.3c1.7-4.2,3.2-8.7,4.6-13.4c0,0,22.8-21.8,24.1-54.8c0,0,13.5,0.8,25.1-19C307.5,2,330.3-16.6,348-14.7
					z"/>
				<path class="st11" d="M195.4-0.4c-0.2,0-0.4-0.1-0.6-0.1c-1.4-0.3-2.8-0.9-4.2-1.2c-0.5-3.7-1-7.6-1.7-11.6c1.2,0,2.5,0,3.7,0
					c0.8,3.9,1.7,8,2.6,12.1C195.3-0.9,195.3-0.7,195.4-0.4z"/>
			</g>
			<linearGradient id="SVGID_12_" gradientUnits="userSpaceOnUse" x1="88.71" y1="479.3202" x2="88.71" y2="436.457">
				<stop  offset="5.587020e-03" style="stop-color:#909090"/>
				<stop  offset="1" style="stop-color:#8B8B8B"/>
			</linearGradient>
			<path class="st12" d="M134.1,478.4c0,0-24.3-38.3-54.8-41.8c-30.5-3.5-35.9,38-35.9,38S100.2,481.8,134.1,478.4z"/>
			<linearGradient id="SVGID_13_" gradientUnits="userSpaceOnUse" x1="505.8835" y1="522.2351" x2="505.8835" y2="482.0734">
				<stop  offset="5.587020e-03" style="stop-color:#747474"/>
				<stop  offset="1" style="stop-color:#797979"/>
			</linearGradient>
			<path class="st13" d="M458.2,511.3c0,0,38.9-30.3,68.4-29.2c29.5,1.1,13.3,33.5,13.3,33.5l4.4-2.2l9.1,8.8
				C553.6,522.2,489.4,518.4,458.2,511.3z"/>
			<g>
				<path class="st14" d="M-141.3,124.4c6.8,10.6,8.1,24.4,7.7,36.7c-0.2,6.5-0.6,14-4.6,19.5c-2.7,3.7-6.9,5.9-9.5,9.5
					c-2.4,3.4-1.7,8.1-1.3,12c0.9,8,2.7,16,2.8,24.1c0.1,8.7-3.8,17.6-8.8,24.5c-5.6,7.7-13.2,15.2-22.2,18.8
					c-7.9,3.1-16.9,4.7-25.1,2.1c-11.8-3.8-20-14-25.6-24.7c-8.8-16.8-13.3-35.3-16.3-53.9c-2.8-17.3-3.1-34.9-0.9-52.3
					c1.1-9,3.5-17.9,6.8-26.3c2.8-7.2,6.4-14.2,11.6-20c7.5-8.3,17.8-13.8,29.1-11.6c10.4,2,18.8,7.8,27.2,14
					C-161.3,103.8-153.6,111.7-141.3,124.4z"/>
				<path class="st14" d="M-153.1,172.7c-2.5-1.3-5.7-2.6-7.3-4.8c-1.2-1.7-1.9-4.4-2.6-6.4c-1-2.8-3.4-7.1-0.8-10.1
					c2.4-2.8,8-0.5,9.8,1.6c-1.6-1.3-1.8-3.5-2.5-5.3c-1-2.7-2.8-5.4-1.7-8.7c1.4-0.3,2.7-1.1,4-1.4c1.6-0.4,1.6-0.1,2.9,0.3
					c0.5-1.6-0.3-3.2,1.3-4.5c1.3-1,2.8-0.4,3.9-2c-9.4-5.5-17-13.8-23.1-22.1c-6.4-8.8-12.5-18.3-17.2-28.1
					c-3.2-7.2-6.1-14.5-8.6-22.1c-2.2-6.1-4-12.4-5.3-19.1c-0.8-5.4-2.1-16.9,3.7-22.9c4-4.1,10.2-3,13.7-2.4
					c8.6,1.3,17.4,4.8,24.6,9.6c1.7,1.2,6.4,3.3,7,5.8c0.1-1.5-1.3-2.8-1.8-4c-0.8-2.2-2.2-5.4-1.4-8.4c0.6-2.2,1.2-2.2,3.5-2.8
					c1.2-0.3,4.1,0.2,5-0.5c1.4-1.1,0.4-2.9,0.7-4.2c0.4-1.8,1.6-3.5,3.2-5c2.7-2.5,6.9-4.1,9.8-4c3.7,0,7.6,5.4,11.7,3.9
					c1.6-5.4-2.1-15.7,6.1-18.8c13.4-5.1,29.2,0.1,39.3,4.1c20.1,8,34.6,22.6,48.1,38.9C-9.9,49.7,2.8,76,2.6,104.6
					c-0.2,28.2-6.1,56.3-26.5,80.9c-14,16.8-35.9,32.6-59.4,32.7c-18.9,0.1-33.4-8.6-42-20.5L-153.1,172.7z"/>
				<path class="st14" d="M-194.6-31c3,11.4,10.4,17.9,20.2,22.2c4.4,1.9,9.3,3.2,14.9,2.7c2.2-0.2,6.3-0.2,8.6-2.3
					c2.2-2.1,1.6-4.7,1.3-6.6c-1.4-6.8-6.9-12.1-11-16.4c-4.7-4.9-9.6-9.7-16.1-11.9C-180.7-44.6-185.3-44.9-194.6-31z"/>
				<path class="st14" d="M-134.3-34.9c3.1,3.3,6,5,9.5,7.6c1.7,1.2,6,5,9.4,3.2c6.7-11.8-16.6-26.8-22.3-16.6L-134.3-34.9z"/>
				<path class="st14" d="M-68.1-11.8c-3.8-0.6-7.2-1.7-10.2-3.4c-3.7-3.4-7.1-7-10.3-10.7c-8.4-9.8-15.6-21-19.8-34
					c-1.5-4.6-4.3-9.5,3.3-15.1c8.5-6.3,18.3-4.8,24.9-3.4C-59.2-74.2-43-60-36.7-39.3c1.7,5.7,2.5,11.8-6.1,17.9
					C-48.1-17.6-54.1-16.3-68.1-11.8z"/>
				<path class="st15" d="M-118.7-8.9c0.8,1.8,1.5,3.6,2.3,5.4c1.5,0.8,2.8,1.9,3.8,3.4c3.9,4.1,7.3,8.9,12.2,12.1
					c4.3,2.8,14.4,7.1,18.3-3.7c3.1-8.6-2.6-15.8-8.5-18.6c-3.4-1.6-7.1-3.1-10.8-4.2C-104.3-15.3-108.2-16.4-118.7-8.9z"/>
				<path class="st15" d="M-120.2,6.5c1.7,2.1,3,4.3,5.1,6c1.1,0.9,3,3.7,5.2,2.6c1.2-2.5-1.5-4.5-2.5-5.9c-1.9-2.5-3.6-4.2-6.8-5.3
					L-120.2,6.5z"/>
				<path class="st15" d="M-109.3-67.1c5.7,8.8,11,17.4,19.2,24.1c4.2,3.4,9.7,7.1,17.2,5.6c3.3-0.7,7.4-1.7,10.2-5.2
					c2.8-3.5,2.6-8,2.3-10.9c-0.7-5.9-3.5-10.8-6.7-14.9C-73.1-76-86.2-79.2-109.3-67.1z"/>
				<path class="st15" d="M-55-41.1c-1.5-3.3-2.6-6-2.9-10c-0.1-2-0.9-8.2,2-10.5c2.8-2.3,4.4,3,5.1,4.4c2,4.2,3.4,9.1,0.9,15.2
					L-55-41.1z"/>
				<path class="st15" d="M-132.9-41c2.2,1.9,3.9,4.1,6.7,5.1c1.5,0.5,5.6,2.8,7.9,1.1c1.9-4-2.4-6.7-4.4-8c-1.7-1-3.5-1.8-5.5-2.3
					c-1.1,0.1-1.8-0.2-2.2-1L-132.9-41z"/>
				<path class="st15" d="M-191.2-39.1c0.1,3.1-0.2,5.3,0.9,7.4c1.8,3.3,6.7,6.2,9.7,7.8c4.1,2.1,9.1,4.2,13.7,5.5
					c1.6,0.5,4.5,1.5,6.7-0.9c6.2-6.9-4.1-15.9-6.7-17.4c-2.8-1.7-6.1-2.4-9.4-3.2C-178.6-40.6-181.4-42.3-191.2-39.1z"/>
				<path class="st15" d="M-150.8-13.8c-2.7-1.9-6.7-4.2-4.9-9.6c1.5-0.8,3.6,0.7,4.3,1.5c1.3,1.5,1.8,3.8,1.5,6.2L-150.8-13.8z"/>
				<path class="st15" d="M-140.8,7.8c0.5,3.8,0.3,4.5,2.3,6.5c1.3,1.3,2.8,2.5,4.4,3.5c1.4,0.9,8.2,4.5,10.1,0.3
					c1.8-4.1-1.9-8.8-3.9-10.7c-1.7-1.6-3.4-3.3-5.8-4c-2-0.6-4.4-0.3-6.2-1.2L-140.8,7.8z"/>
				<path class="st15" d="M-153.1,17c0.7,2,1.7,3.7,2.9,5.3c0.7,0.1,1.4,0.4,2.1,0.6c1.2,0.5,2.9,2.6,4.8,1.4c5.5-3.3-5.6-8.2-6-9.3
					L-153.1,17z"/>
				<path class="st15" d="M-199.3,18.7c1.5,7.5,5.6,12.3,10.8,16.7c3.9,3.3,8.1,6.1,13.1,7.9c3.3,1.2,10.2,2.7,14.6,1.5
					c2.2-0.6,4.9-1.5,6.3-3.9c1.5-2.6,0.4-5.3-0.1-7.5c-3.1-12.7-14.6-17-24.7-21.5L-199.3,18.7z"/>
				<path class="st16" d="M-191.1,71c-2.8-4.2-5.6-9.2-5.8-15c-0.1-3.3,0.1-7.7,1.3-11.2c0.5-1.6,1.3-3.2,2.7-4.4
					c4-3.6,8.7-2.5,12.2-1.3c2.6,0.9,4.4,3,6.5,4.6c2.6,1.9,4.7,4.3,7,6.6c2.7,2.7,5.4,5.3,7.5,8.7c0.6,1,2,1.9,0.1,2.6
					c-1.8,0.7-3.1,0.5-4.7,0.3c-2.1-0.2-4.2-0.4-6.2-0.6c0.7,2.2,2.9,4.2,4.4,5.9c2.6,3,4.5,6.8,6.5,10.4c2.9,5.3,5.6,10.6,7.8,16.4
					c1.4,4,3.7,8.5,3.3,13.1c-0.3,3.6-3.6,3.8-6.2,3.1c-5.6-1.5-9.7-4.7-13.3-8.8c-5.8-6.5-11-13.4-14.4-21.7L-191.1,71z"/>
				<path class="st16" d="M-156.5,66.1c2,5.3,5.2,9.8,9.3,13.5c2.5,2.3,5.4,4.7,8.8,6.1c1.2,0.5,4.6,1.4,6.1,0
					c2.6-2.4-1.2-8.6-2.1-10.2c-1.8-3.2-4-5.8-7.1-7.8C-144.9,65.5-148.4,64.5-156.5,66.1z"/>
				<path class="st16" d="M-152.8,25.9c1.4,2.9,2.4,6.1,4.2,8.7c1.9,2.9,4.3,5.8,6.7,8.3c1,1,7.4,7,8.8,1.5c1.4-5.3-1.1-10.3-4-13.3
					C-140.7,27.3-146.1,25.2-152.8,25.9z"/>
				<path class="st16" d="M-143.5,14.1c0.8,3.4,1.4,5.8,3.2,8.5c0.8,1.3,2.1,3.9,4.4,3.2c1.6-2.9,0.5-5.7-0.8-7.6
					c-0.6-0.9-1.3-2-2.1-2.6c-0.9-0.6-2-0.4-3-0.9L-143.5,14.1z"/>
				<path class="st16" d="M-106.1-54.6c1.5,3.4,2.9,5.6,5.3,8.3c3.5,4,6.7,8.3,9.9,12.6c2.3,3,4.7,5.5,7.9,7.6
					c1.2,0.8,3.4,2.9,5.5,2.3c4.9-1.3-1.3-13.2-2-14.3C-85.5-47-96.8-49.7-106.1-54.6z"/>
				<path class="st16" d="M-142.4,135.9c-3.4-2.7-5.7-5.5-5.6-10.4c0.3-6.6,2.7-11.2,8.4-16.4c8.2-7.6,18.9-6.8,27.4-3.9
					c11.8,4,23.3,10.2,32.5,18.3c9.7,8.5,16.9,19.4,18.1,32.3c0.6,6.7,1.1,18.1-9,21.7c-4.5,1.6-10.4-0.9-14.2-2
					c-6.2-1.9-12-4.9-17.6-7.4c-8.3-3.8-15.2-8.8-22.1-13.8C-130.4,149.8-136,145.2-142.4,135.9z"/>
				<path class="st16" d="M-157.4,141.7c-0.1,2.3-0.2,2.9,0.3,4.5c0.6,1.8,1.2,3.7,2.3,5.3c1.1,1.6,5.3,6.9,8.5,5.4
					c3.6-1.8,1-7.6,0-9.4C-148.4,143.8-152.2,140.4-157.4,141.7z"/>
				<path class="st16" d="M-163.4,160c-1-1.6-2.8-3.7-1.8-5.9c0.9-2,3.4-1.2,4.7-0.5c1.6,0.9,3,2.5,4.3,3.8c1.7,1.6,3.2,3.2,4.5,5.1
					c1.5,2.1,4,5.9,3.9,8.8c-2.2,1.5-6.3-1.1-7.7-2.1L-163.4,160z"/>
			</g>
			<linearGradient id="SVGID_14_" gradientUnits="userSpaceOnUse" x1="568.5264" y1="524.4572" x2="568.5264" y2="502.3973">
				<stop  offset="5.587020e-03" style="stop-color:#747474"/>
				<stop  offset="1" style="stop-color:#797979"/>
			</linearGradient>
			<path class="st17" d="M555.9,522.6c0,0,8.9-12.5,17-19.2c8.1-6.7,8.3,21,8.3,21L555.9,522.6z"/>
			<path class="st18" d="M-186.6-61.8c10.1,1,3.8,272,3.8,272l10.8-39.8c0,0-7-49.5-4.5-83.9c2.5-34.5,17.3-25.9,32-59.9
				c14.7-34,2.6-86.4,2.6-86.4h-2.6c0,0,5,39.3,1,69.3c-4,30.1-28.9,52.8-31.2,50.1s-5.7-63.1-1.8-71.6c4-8.5,11.9-5.9,16.9-17.6
				s5.9-30,5.9-30l-6.8-1c0,0,2.2,24-5,32.7c-7.1,8.7-9.2,7.7-9.2,7.7l-1.8-39.4L-186.6-61.8z"/>
			<path class="st19" d="M307.5,568.9c0,0,404.1-16.6,502.9-55.7v55.7H307.5z"/>
		</g>
	</g>
</g>
<g id="objects">
	<g class="st0">
		<defs>
			<rect id="SVGID_15_" class="st0" width="700" height="500"/>
		</defs>
		<clipPath id="SVGID_16_">
			<use xlink:href="#SVGID_15_"  style="overflow:visible;"/>
		</clipPath>
		<g class="st20">
			<g>
				<path class="st18" d="M-111.2,26.5c13.5-29.4-22.2-89.8-22.2-89.8h12.6c0,0,7.7,24.7,12.6,47.3c4.9,22.6,13,6,13,6
					S-101.2,14.2-111.2,26.5z"/>
				<linearGradient id="SVGID_17_" gradientUnits="userSpaceOnUse" x1="-191.4184" y1="251.0016" x2="593.4538" y2="251.0016">
					<stop  offset="0" style="stop-color:#2B2B2B"/>
					<stop  offset="0.9944" style="stop-color:#171717"/>
				</linearGradient>
				<path class="st21" d="M593.5-63.3c-17.1,15-60,25.5-60,25.5c-40.5,8.5-127.7,22.4-158.1,44.7c-30.4,22.3-26.8,47.7-52.5,58.7
					c-9.7,4.1-37.2,9.2-69.3,17.2c-52.9,13.2-118.3,34.4-137.2,72.3c-1.4,2.9-2.9,5.9-4.2,9.1C84,228,64.7,345.9,36.5,405.8
					C7,468.7-3.8,565.3-3.8,565.3h-187.6V284.4c17.6-149.3,61.8-235,61.8-235s4-5.2,11-13.8c2.2-2.7,4.7-5.8,7.4-9.1
					c5-6.1,11.9-24.3,18-42.7c7.8-23.4,14.4-47.2,14.4-47.2h288.4C181.6-30,162.3,13.3,152.5,39c-5.1,13.3-7.7,21.8-7.7,21.8
					s10-1.9,25.5-5.3c49.1-10.5,153-34.9,164-55.5c14.5-27.1,53.7-40.3,53.7-40.3c48.1,2.4,80.7-8.3,80.7-8.3
					c8.9-9.5,11.4-14.9,11.4-14.9h7.9c-3.8,6.3-0.2,15.8-0.2,15.8C543.7-59.9,552-63.3,552-63.3H593.5z"/>
				<path class="st11" d="M-129.6,49.4c57.5-56.2,86.1,91.5,45.1,232.5c-41,141-115.5,34.9-88.6-79
					C-146.2,88.9-129.6,49.4-129.6,49.4z"/>
				<path class="st19" d="M-150.3,342c-40-66.9-3.9-214.5,16.9-267.8s49.7-21.5,49.7-21.5s-15.3-34.2-45.9-3.2
					c0,0-41.6,111.5-49.2,188.2C-186.5,314.3-150.3,342-150.3,342z"/>
				<g class="st0">
					<path class="st22" d="M-190.3,569.7c0.5-4.4,0.6-8.9,1.1-13.3c0.8-6.4,2.2-12.7,2.9-19.2c1.2-10.3,4.1-21.3,7.4-31.2
						c3-9.1,8.2-17.5,12.2-26.2c3.9-8.5,7.8-17.1,11.3-25.8c6.9-17.3,13.9-34.4,20.9-51.7c3.7-9.1,9.2-18.3,14.7-26.4
						c2.9-4.3,7.8-8,9.4-12.9c-1.6,0-4,3.6-4.8,4.6c-1.5,1.8-3.3,3-4.8,4.8c-1.7,2-3.5,4-5.6,5.6c-3,2.3-5.9,4.2-9.4,1.9
						c-6.1-3.9-11.7-8.3-16.6-13.6c-3.3-3.6-5.8-7.6-8.2-11.9c-2.3-4.1-5-8-6.8-12.4c-1.9-4.5-3-9.3-4.7-13.9
						c-1.9-5.3-3.8-10.6-5.2-16.1c-2.4-9.5-2.8-20.4-3.4-30.2c-0.1-1-0.6-12-1.7-12.2c-0.8,2-1.1,5-1.2,7.2c-0.1,3.7,0,7.5,0,11.2
						c0,11.3-0.2,23.1,3.3,33.9c1.6,5,2.6,10.2,4.3,15.3c1.4,4.2,3.2,8.1,4.3,12.4c1.2,5.1,2.2,9.8,2.4,14.9
						c0.2-1.2-0.7-1.6-1.2-2.5c-1.3-2.1-2.2-4.4-3.3-6.7c-1.7-3.5-4.3-6.3-6-9.7c-2.2-4.2-3.5-8.8-4.8-13.3
						c-0.9-3.3-2.6-6.3-3.6-9.5c-0.8-2.5-1.2-5.1-2.1-7.6c-0.6-1.5-1.6-11.3-2.6-11.4c-1.1,2.9,0.3,6.5,0.7,9.4
						c0.6,4.6,0.1,9.7,0.1,14.3c0,6.2,0.3,12.5,0,18.7c-0.3,7.9-1.6,15.8-2,23.7c-1.1,22.7-2.2,45.4-3.6,68.2
						c-0.4,6.9-0.1,13.9-0.4,20.8c-0.4,8.8-0.8,17.5-0.8,26.2c0,11.9-0.4,23.8,0.6,35.7c0.8,9.4,2.9,18.5,4.2,27.7L-190.3,569.7z"/>
					<path class="st22" d="M-115,35.1c5.6-0.9,6.5-0.9,11.3,1.1c4.9,2,9.3,4.9,13.3,8.4c8.1,7.2,14.6,18.6,18.6,28.6
						c2.4,6.2,4.4,12.4,6.6,18.6c2,5.6,4.4,10.9,6,16.6c1.1,3.9,2.8,7.6,3.8,11.5c0.3,1,1.2,4.3,2.2,4.6c0.4-1,0.2-1.9,0.2-2.9
						c0-3.1,0.7-6,0.9-9c0.5-8.2,1.1-16.5,1.1-24.8c0-15.5-3.4-30.3-12.2-43.3c-3.1-4.5-5.7-9.8-10-13.4c-3.8-3.2-8.5-5.5-13-7.6
						c-2.8-1.3-5.6-2.3-8.8-1.9c-1.5,0.2-2.6,0.7-3.9,1.5c-0.8,0.5-0.6,1.3-1.7,1.3c0.2-1.2,0.8-0.2,1.5-0.9
						c1.2-1.1,1.1-1.7,2.8-2.5c2-1,5.3-2.1,7.5-2.2c5.1-0.1,10.6,4,14.6,6.5c1.3,0.8,2.6,1.1,3.9,2.1c1,0.8,1.9,2,2.9,2.9
						c3.7,3.2,7.7,6.4,10.5,10.4c1.9,2.8,3,6.1,4.4,9.1c1.5,3.1,3.3,6,4.9,9.1c0.9,1.8,2.5,8.2,4.7,8.4c0.6-1.9,0.1-4-0.4-5.9
						c-1.4-5.3-4.1-10.2-6.3-15.2c-4.3-9.8-10.5-18.6-18.7-25.5c-4.1-3.4-8.3-6.2-13-8.4c-1.5-0.7-3.2-0.7-4.7-1.1
						c-0.6-0.2-0.8-0.8-1.5-0.9c-0.9-0.2-1.8,0.2-2.8-0.1c0.2-1.1,3.9-2.9,5-3.8c3.8-2.9,8.2-5.3,12.2-7.7c6.7-4,12.1-7.1,20.1-6.6
						c7.7,0.4,14.1,5.3,18.8,11c2,2.4,4.3,4.7,5.8,7.4c2.1,3.6,3.4,8.3,4.5,12.2c2.3,8.2,2.6,16.6,4.5,24.9
						c1.5,6.7,2.1,13.6,4.1,20.1c0.6,1.8,0.7,5,2.1,6.2c5.1-10.6,4-23.4,3.9-34.8C-9.3,17.4-14-4.2-24.1-23.4
						c-3.5-6.7-7.9-12.8-12.7-18.7c-4.7-5.8-10.6-8.8-16.9-12.4c-6.6-3.7-13-7.6-20.5-9.2c-1.2-0.3-2.8-0.6-3.6,0.3
						c-0.3,0.3-0.5,2.3-0.5,2.6c-0.6,3.4-0.8,6.9-1.4,10.3c-1.3,7.3-3.4,14.4-5.2,21.5c-1.4,5.8-3.7,11.2-5.4,16.9
						c-2.4,8.1-6.6,15.7-10,23.4C-103.9,19.8-108.5,27.9-115,35.1z"/>
				</g>
				<path class="st19" d="M-148,168.6c0.2-4.4,1.1-9.2,2.7-13.4c1.7-4.6,3.3-9.2,5.1-13.8c1.7-4.2,2.9-8.6,5-12.6
					c4.1-8,7.6-16.4,14-22.9c2.6-2.7,5.6-5.1,8.2-7.7c0.6-0.5,1-1.5,1.7-1.7c-0.3,1.2-1.7,2.1-2.4,3c-2.3,2.8-4.3,6.1-6.4,9.1
					c-6.5,9.4-10.1,21.5-12.7,32.5c-4.1,17.3-8.8,34.4-11.8,52c-1.5,8.8-1.8,17.6-2.7,26.5c-0.5,5.4-0.5,10.7-0.8,16.1
					c-0.2,5.4-0.6,10.7-0.5,16c0.3,18.2,2.1,37.3,7.7,54.7c2,6.3,3.3,12.6,6.3,18.6c1.8,3.5,3.7,7.8,7,10.1c2.1,1.5,4.3,2.5,7,2.1
					c3.1-0.5,5.9-3,8.1-5.1c3.5-3.4,5.6-8,8.3-12c2.9-4.4,5.7-9,7.8-13.9c4.7-11.2,8.6-22.8,12.5-34.3c1-2.9,1.6-6,2.2-9
					c0.8-3.6,2.1-7,3.5-10.4c1.3-3,2.2-6.1,2.8-9.3c0.4-1.9,1.1-3.7,1.8-5.5c1-2.8,1.6-5.6,2.1-8.6c1.5-8.5,2.9-17,4-25.6
					c0.8-6.5,2-13.1,2.2-19.6c0.1-4,0.9-8.2,1.2-12.2c0.4-5.1,0.3-10.6,0.1-15.8c-0.3-8.1-1.3-16-1.3-24.1c0-4.6-0.6-9.1-1.1-13.7
					c-0.3-3.1-1.1-6.1-1.4-9.1c-0.3-3.2-1.2-6.4-1.7-9.7c-0.4-2.2-0.5-4.4-0.9-6.5c-0.5-3.2-1.9-6.1-0.5-5.3
					c-0.2-1.2-0.2-4.3-0.7-5.8c-0.6-2-2.4-3.5-3.7-4.9c-1.9-2-3.5-4.3-5.9-5.8c-2.2-1.5-5.3-3.1-7.8-4c-5.5-2.1-12.4-1.2-17.6,1.4
					c-5.6,2.8-9.1,9.4-12.1,14.6c-8.7,15.1-16.3,30.9-21.1,47.6c-2.7,9.4-5,18.8-6.7,28.4c-0.3,1.8-0.8,3.7-1.4,5.4
					c-1,2.6-2.4,4.9-3.5,7.4c-1.7,3.9-2.2,8-2.8,12.2c-0.7,5.2-1.2,10.4-1.7,15.6c-0.6,7.1-1.1,14.2-1.6,21.2
					c-0.6,7.6-1.3,15.3-2.1,22.9c-0.5,5.6-0.9,11.8-2.2,17.2c-0.7-0.3-0.6-1.3-0.8-2c-0.5-2.5-0.9-5.1-1.3-7.6c-0.6-4-0.4-8-0.1-12
					c0.4-5.1,0.7-10.1,1.3-15.2c2-16.2,3-33.2,7.3-49L-148,168.6z"/>
				<path class="st19" d="M-144.2,197.4c0.4-2.6,0.5-4.4,2-6.5c1.6-2.2,3.2-4.3,5.2-6.1c5.5-4.8,11.3-8.2,18.3-10.3
					c6.1-1.9,11.8-2.8,17.8-0.1c4.7,2.2,8.3,6.2,11.2,10.4c3.1,4.5,4.4,8.9,5.5,14.2c1.1,5,2.4,9.9,3.5,14.9
					c0.6,2.6,0.5,4.9,0.7,7.5c0.2,1.8,0.7,3.6,1,5.4c0.2,1.4-0.6,3.7,0.8,4.6c0.8-0.8,1.4-1.9,1.9-2.8c1.7-3.3,3.3-7.4,4.2-11
					c1.1-4.8,3-9.7,3.5-14.5c0.5-5.3,0.5-10.6,1-15.8c1.3-12.2,2.8-24.6,2.7-36.9c0-6.4,0-12.8,0-19.2c0-6.2-0.8-11.6-2.2-17.6
					c-1.3-5.6-2.1-14.8-7.7-18.1c-4.4-2.6-10.4-0.4-14.2,2.1c-3.6,2.5-7,5.8-10.1,8.9c-5.2,5-9.7,10.9-14,16.7
					c-6.9,9.3-13.4,19-17.4,30c-4.2,11.5-7,24-8.7,36.1L-144.2,197.4z"/>
				<path class="st19" d="M-129.3,556c0-0.3,0-0.6-0.1-0.8C-129.2,555.4-129.2,555.7-129.3,556z"/>
				<path class="st19" d="M-129.4,565.8c6.8,0,13.8,0.2,20.6,0.7c-3.1,0.1-6,0.5-9.1,0.9c-4,0.6-7.6,2.4-13.6,5.4
					c-0.4-2.5-0.9-4.7-1.1-7C-131.6,565.8-130.5,565.8-129.4,565.8z"/>
				<path class="st19" d="M-52.1,386.8c3.7-7.6,6.7-15.4,9.7-23.4c-3.1,9.3-5.5,18.8-8.7,28.1c-2.3,6.6-4.4,13.3-6.5,20
					c-1.2,3.8-2.5,7.6-3.3,11.4c-0.4,2.1-0.5,4-1.1,6c-0.5,1.9-1.1,3.6-1.5,5.5c-0.9,5.3-2.2,10.5-3.5,15.7
					c-0.8,3.1-1.7,6.2-1.7,9.3c0-1.2-0.2-1.9-0.5-3.1c-0.6-2.3-0.1-5.1-0.1-7.4v-6.5c-0.2,1-0.6,1.9-0.7,3c-0.1,2.3,0,4.6-0.3,6.9
					c-1.4,11.2-3.5,22.4-4.5,33.6c-0.1,1-0.2,2-0.3,3.1c-0.1,0.2-0.2,0.4-0.3,0.6c-3.5-0.3-1.6-18.8-1.2-21.4
					c1.8-11.3,2.8-22.8,5.2-33.9c1.5-6.9,3.5-14.2,5.9-20.9c1.5-4.2,3.6-8.1,5.8-12C-56.7,396.7-54.5,391.7-52.1,386.8z"/>
				<path class="st19" d="M-29.3,332.8c-0.9,2.5-2.1,5.1-3.4,7.5c-1.4,2.6-2.7,5.3-3.9,8c0.3-1.7,0.2-3.3-0.4-4.5
					c-1,0.3-3.7,3.9-4.5,4.7c-0.2,0.3-0.5,0.6-0.7,0.8c0.6-0.9,1.3-1.8,1.9-2.7c2.5-3.4,4.8-6.9,7.6-10.1
					C-32,335.8-30.5,332.8-29.3,332.8z"/>
				<path class="st19" d="M-128.3,568.4c-2.1-4.4-3.1-8.3-3.2-13.3c-0.1-6.5,0-12.9,0-19.4c0-15.2,0.5-30,4.3-44.9
					c1.8-7,3.4-13.9,5.9-20.7c2.2-6,4.5-12.4,7.6-18.1c6.6-11.9,14-23.5,21.8-34.8c7.1-10.1,15-19.6,22.1-29.7
					c3.3-4.7,7.4-8.9,10.7-13.6c4-5.7,6.8-12.1,11-17.7c3.7-4.9,7.5-10,10-15.7c2.1-4.7,5.2-9,7.6-13.6c2.4-4.5,5.6-8.5,9-12.4
					c1.4-1.7,2.8-3.5,3.9-5.4c3.3,0.7-0.7,10.2-1.1,11.7c-2.7,8.9-6,17.5-8.6,26.5c-1.4,5-2.8,9.9-4.3,14.9
					c-2.2,7.1-3.3,14.6-5,21.8c-0.8,3.6-1.9,7.1-2.5,10.7c-0.6,3.5-1.2,7.1-1.9,10.6c-0.8,3.7-1.8,7.4-2.8,11.1
					c-1.2,4.4-1.7,8.8-2.5,13.3c-1.4,7.6-2.7,15.1-3.4,22.9c-0.6,7.3-1.2,14.7-1.7,22c-0.4,6-0.2,12.1,0.4,18
					c0.6,5.9,0.4,12,1.1,17.9c1.3,11.7,2.3,23.5,5.4,35c1.9,7,3.9,14,6.4,20.8c0.3,0.8,0.7,1.6,0.7,2.5c-0.1,1.2,0,0.9-0.9,1.3
					c-1.2,0.5-3,0.5-4.2,0.8c-3.2,0.6-6.4,1.3-9.6,2.2c-10.6,2.8-22.1,1.7-32.9,0.6C-100.2,572.4-114.5,568.2-128.3,568.4z"/>
				<path class="st23" d="M268.2,82.5c-0.6,0.2-1.2,0.2-1.8,0.3C267.2,82.6,267.8,82.5,268.2,82.5z"/>
				<path class="st19" d="M209.6-63.3C181.6-30,162.3,13.3,152.5,39c-5,1.4-10.4,1.8-15-0.9c-3.2-1.9-4.4-5.6-5.9-8.8
					c-2.2-4.9-5-9.5-7.2-14.4C120,5.3,118.1-5,112.8-14.2c-6.8-11.7-18.2-19-31.7-20.2c-9.4-0.8-18.2,1-27.2,3.8
					c-11.5,3.5-21.3,9.9-32.1,15.1C12.3-10.8,2.4-7.2-8-4.8c-9.6,2.2-19.1,2.5-28.8,3.6c-9.3,1.1-18.6,2.7-27.6,5.6
					C-74.5,7.7-83.3,13-92.2,18.7c-7.7,4.9-15.5,9.4-23,14.6c-1.2,0.7-2.3,1.5-3.3,2.4h-0.1c2.2-2.7,4.7-5.8,7.4-9.1
					c5-6.1,11.9-24.3,18-42.7c7.8-23.4,14.4-47.2,14.4-47.2H209.6z"/>
				<path class="st24" d="M-108,253.7c0,1.9-1.6,3.5-3.5,3.5s-3.5-1.6-3.5-3.5c0-1.9,1.6-3.5,3.5-3.5S-108,251.8-108,253.7z"/>
				<path class="st24" d="M-84.2,253.7c0,1.9-1.6,3.5-3.5,3.5c-1.9,0-3.5-1.6-3.5-3.5c0-1.9,1.6-3.5,3.5-3.5
					C-85.7,250.2-84.2,251.8-84.2,253.7z"/>
			</g>
			<radialGradient id="SVGID_18_" cx="-111.923" cy="253" r="14.4647" gradientUnits="userSpaceOnUse">
				<stop  offset="5.587020e-03" style="stop-color:#C0C0C0"/>
				<stop  offset="0.1341" style="stop-color:#A1A1A1"/>
				<stop  offset="0.4408" style="stop-color:#5C5C5C"/>
				<stop  offset="0.6976" style="stop-color:#2A2A2A"/>
				<stop  offset="0.8915" style="stop-color:#0C0C0C"/>
				<stop  offset="1" style="stop-color:#000000"/>
			</radialGradient>
			<circle class="st25" cx="-111.9" cy="253" r="14.5"/>
			<radialGradient id="SVGID_19_" cx="-88.2561" cy="253" r="10.3763" gradientUnits="userSpaceOnUse">
				<stop  offset="5.587020e-03" style="stop-color:#C0C0C0"/>
				<stop  offset="0.1341" style="stop-color:#A1A1A1"/>
				<stop  offset="0.4408" style="stop-color:#5C5C5C"/>
				<stop  offset="0.6976" style="stop-color:#2A2A2A"/>
				<stop  offset="0.8915" style="stop-color:#0C0C0C"/>
				<stop  offset="1" style="stop-color:#000000"/>
			</radialGradient>
			<circle class="st26" cx="-88.3" cy="253" r="10.4"/>
		</g>
		<path class="st27" d="M463.1,411.5c0,0,50.3-15,94.8-19.4l-3.4-38.2l-92.5-10L463.1,411.5z"/>
		<linearGradient id="SVGID_20_" gradientUnits="userSpaceOnUse" x1="359.5213" y1="432.8722" x2="359.5213" y2="170.4189">
			<stop  offset="5.587020e-03" style="stop-color:#8F8F8F"/>
			<stop  offset="0.1761" style="stop-color:#7F7F7F"/>
			<stop  offset="0.5097" style="stop-color:#545454"/>
			<stop  offset="0.5447" style="stop-color:#4F4F4F"/>
			<stop  offset="1" style="stop-color:#2B2B2B"/>
		</linearGradient>
		<path class="st28" d="M260.8,334.3l-4.9,73.6c0,0,82.3,27.6,151.5,24.8l55.7-21.2l-1.1-67.6c0,0-28.5-11.3-33-24.4
			c-8.2-20.2-65.3-149.1-65.3-149.1l-79.1,151.7C284.7,322.1,279.7,334.2,260.8,334.3z"/>
		<linearGradient id="SVGID_21_" gradientUnits="userSpaceOnUse" x1="356.7405" y1="356.6382" x2="356.7405" y2="134.7512">
			<stop  offset="5.587020e-03" style="stop-color:#6D6D6D"/>
			<stop  offset="0.8994" style="stop-color:#888888"/>
			<stop  offset="1" style="stop-color:#8C8C8C"/>
		</linearGradient>
		<path class="st29" d="M225.6,334.4c0,0,25,4.5,58-14.9l73.3-148.2v-33.1l17.1-3.3l-1.6,41l60.5,147.4c0,0,29.2,17.8,55.6,23.2
			l-2.1,10.3c0,0-38.3-17.2-57.1-30.1l-66-148.3l-76.8,146.2c0,0-32.7,21.4-61.3,16.4L225.6,334.4z"/>
		<linearGradient id="SVGID_22_" gradientUnits="userSpaceOnUse" x1="470.0162" y1="350.5619" x2="470.0162" y2="134.7512">
			<stop  offset="5.587020e-03" style="stop-color:#4A4A4A"/>
			<stop  offset="1" style="stop-color:#4F4F4F"/>
		</linearGradient>
		<path class="st30" d="M373.9,134.8c0,0,50.8,47.9,88.1,62.8l2.5,22.5l49.6,111.8c0,0,14,10.9,53.7,18.8l-79.4-4.3
			c0,0-36.3-7.6-55.6-23.2l-60.5-147.4L373.9,134.8z"/>
		<polygon class="st31" points="488.3,346.3 567.8,350.6 567.8,358.4 486.3,356.6 		"/>
		<path class="st32" d="M225.1,340.8l35,4.4c0,0,22.6-8.1,36.8-16.9l69.5-142.7l-3.3-7.3l-76.8,146.2
			C286.4,324.4,259.9,339.6,225.1,340.8z"/>
		<polygon class="st33" points="422,223.5 432.5,258 451.5,262.6 443.3,230.1 		"/>
		<polygon class="st34" points="423.7,228.9 441.1,234.6 447.9,261.7 432.5,258 		"/>
		<g class="st20">
			<g>
				<polygon class="st35" points="422.5,168.6 440.5,152.9 449,167.8 				"/>
				<polygon class="st36" points="456.9,172.3 449,167.8 440.5,152.9 				"/>
				<polygon class="st37" points="422.5,168.6 435.6,172.7 456.9,172.3 449,167.8 				"/>
			</g>
			<polygon class="st36" points="424.5,168.5 432.5,175.7 433.5,175.7 426.3,168.5 			"/>
			<polygon class="st36" points="446.4,167.9 444.5,174.4 445.4,174.4 447.5,167.9 			"/>
			<polygon class="st36" points="456.5,172.1 449.8,179.2 449.5,178.7 455.9,171.8 			"/>
			<polygon class="st37" points="435.5,172 437.2,175.2 437.8,175.2 436.5,172.4 			"/>
		</g>
		<polygon class="st38" points="425.9,236.3 430.9,174.6 445.5,173.9 442.1,260.3 432.5,258 		"/>
		<polygon class="st39" points="450.7,178.2 445.5,173.9 442.1,260.3 447.9,261.7 		"/>
		<polygon class="st31" points="463.1,328.2 468.1,328.2 496.5,275.2 510,330.2 514.3,330.2 499.3,268 494.5,268 		"/>
		<polygon class="st32" points="490.6,286.2 500.4,328.2 510,330.2 496.5,275.2 		"/>
		<polygon class="st31" points="500.4,328.2 469.2,326 490.6,286.2 		"/>
		<linearGradient id="SVGID_23_" gradientUnits="userSpaceOnUse" x1="465.1432" y1="328.242" x2="465.1432" y2="267.9993">
			<stop  offset="5.587020e-03" style="stop-color:#6D6D6D"/>
			<stop  offset="1" style="stop-color:#6C6C6C"/>
		</linearGradient>
		<path class="st40" d="M494.5,268c0,0-28.2,10.5-58.8,13l15,43.2l12.4,4.1L494.5,268L494.5,268z"/>
		<polygon class="st41" points="299.5,317.5 424.3,315.6 429.2,326.5 295.8,326.5 		"/>
		<polygon class="st42" points="295.8,326.5 297,328.2 429.2,327.4 429.2,326.5 		"/>
		<g class="st20">
			<path class="st43" d="M336.8,427.4l0.9-52.5H384l-2.6,58C381.4,432.9,352.7,432,336.8,427.4z"/>
			<polygon class="st44" points="383.5,374.9 386,374.9 384,432.6 381.4,432.9 			"/>
			<path class="st44" d="M342.1,428.2l2.2-46.1h32.6v50.6C376.9,432.7,354,430.7,342.1,428.2z"/>
			<path class="st45" d="M345.6,429.2l1-45.9l30.2,0.6v48.8C376.9,432.7,358.7,431.6,345.6,429.2z"/>
		</g>
		<g class="st20">
			<polygon class="st43" points="396.9,397.1 398.1,344.1 430.9,343.2 431.6,397.1 			"/>
			<polygon class="st44" points="430.9,343.2 434.1,344.1 432.5,397.2 431.6,397.1 			"/>
			<polygon class="st44" points="401,391.3 427.1,392 427.1,347.9 402.9,347.9 			"/>
			<polygon class="st46" points="402,391.4 404,348.9 427.1,349.9 427.1,392 			"/>
			<polygon class="st24" points="407.6,349.1 413.4,391.7 427.1,392 427.1,349.9 			"/>
			<polygon class="st43" points="402.4,358.7 427.1,359 427.1,361.2 402.4,360.7 			"/>
			<polygon class="st43" points="413.4,348.9 415.1,348.9 414.7,358.8 413.4,358.8 			"/>
		</g>
		<g class="st20">
			<polygon class="st47" points="525.6,393.7 524.8,361.2 502.2,360.7 501.8,393.7 			"/>
			<polygon class="st48" points="502.2,360.7 498.6,361.6 499.2,394 501.8,393.7 			"/>
			<polygon class="st48" points="522.8,390.2 504.9,390.6 504.9,363.6 521.5,363.6 			"/>
			<polygon class="st16" points="520.8,390.2 519.6,364.9 504.9,365.5 504.9,390.6 			"/>
		</g>
		<g class="st20">
			<polygon class="st43" points="290.1,396.9 291.4,343.9 324.2,343 324.8,396.9 			"/>
			<polygon class="st44" points="324.2,343 327.3,343.9 325.8,397 324.8,396.9 			"/>
			<polygon class="st44" points="294.3,391.1 320.3,391.8 320.3,347.7 296.1,347.7 			"/>
			<polygon class="st49" points="295.3,391.1 297.2,348.7 320.3,349.6 320.3,391.8 			"/>
			<polygon class="st50" points="300.5,348.9 298.3,391.1 295.3,391.1 297.2,348.7 			"/>
			<polygon class="st50" points="314.9,349.4 313.9,391.5 320.3,391.8 320.3,349.6 			"/>
			<polygon class="st43" points="295.7,358.4 320.3,358.8 320.3,360.9 295.7,360.4 			"/>
			<polygon class="st43" points="306.7,348.7 308.4,348.7 308,358.6 306.7,358.6 			"/>
		</g>
		<g class="st20">
			<polygon class="st43" points="342.1,264.6 365,232.4 388.1,264.6 			"/>
			<polygon class="st44" points="365,232.4 368,233.6 390.1,264.6 388.1,264.6 			"/>
			<polygon class="st44" points="350.9,258.9 365.1,240.1 378.4,258.9 			"/>
			<polygon class="st51" points="353.6,258.9 365.8,241.1 378.4,258.9 			"/>
		</g>
		<polygon class="st41" points="255.9,407.9 263.1,410.2 267.7,340.3 259.6,343.2 		"/>
		<polygon class="st41" points="455.3,341.7 456.8,413.9 465.1,410.9 463.9,346 		"/>
		<polygon class="st42" points="463.9,346 466.1,347.1 466.8,410.4 465.1,410.9 		"/>
		<polygon class="st42" points="267.7,340.3 270,341.3 265.6,410.9 263.1,410.2 		"/>
		<polygon class="st41" points="350,406.1 370.9,406.7 372.3,385.2 350,385.1 		"/>
		<polygon class="st52" points="352.8,402.5 368.5,404 369.6,387.9 352.8,387.8 		"/>
		<rect x="352.8" y="387.8" class="st27" width="1.8" height="14.7"/>
		<polygon class="st42" points="554.9,358.3 549.1,358.1 550.7,392.9 558,392.1 		"/>
		<polygon class="st33" points="549.1,358.1 550.1,357.8 552.7,392.4 558,392.1 554.9,358.3 		"/>
		<polygon class="st41" points="236.3,341.8 242,341.7 242.2,403.9 236.3,402.2 		"/>
		<polygon class="st42" points="242,341.7 244.7,343.2 243.9,404.4 242.2,403.9 		"/>
		<polygon class="st42" points="553.3,358.1 558,397.2 562.8,396.9 558.9,358.4 		"/>
		<polygon class="st33" points="558.9,358.4 560.3,358.4 564.5,396.9 562.8,396.9 		"/>
		<polygon class="st41" points="288.4,337.8 288.4,344.4 326,343.9 326.6,336 		"/>
		<polygon class="st42" points="326.6,336 331.1,337 330,343.6 326,343.5 		"/>
		<polygon class="st41" points="395.9,337.2 395.9,343.9 434.5,344.1 434.5,337.2 		"/>
		<polygon class="st42" points="434.5,337.2 436.8,337.4 436.8,344.3 434.5,344.3 		"/>
		<polygon class="st42" points="476.5,321.8 488.2,303.5 494.5,322.9 		"/>
		<polygon class="st53" points="481,319.4 491.1,319.8 488.3,310.7 		"/>
		<polygon class="st33" points="476.5,321.8 475.2,321.8 486,303.9 488.2,303.5 		"/>
		<polygon class="st33" points="487.1,312.2 489.5,319.7 491.1,319.8 488.3,310.7 		"/>
		<polygon class="st54" points="425.9,236.3 435.3,257.7 447.9,261.7 447.9,261.7 432.5,258 		"/>
		<path class="st55" d="M486,294.7c4.3-4.7,14.4,33.5,14.4,33.5s-4.9-25.1-4.6-26.6c0.3-1.4,4.8,0.4,4.8,0.4l8.9,28.1l0.4,0.1
			l-13.5-55L486,294.7z"/>
		<path class="st55" d="M486.3,356.6l2.1-10.3l58.8,3.2c0,0-46.7-1.4-49.1-0.4c-2.4,1-4,7.8-4,7.8L486.3,356.6z"/>
		<polygon class="st42" points="372.3,385.2 373.3,385.5 371.8,406.4 370.9,406.7 		"/>
		<path class="st56" d="M342.6,417.4c0,0,1.5-22.6,2.1-23.6c0.6-1,0.8,35.4,0.8,35.4l2.9,0.5c0,0-1.5-33.4,1-40
			c2.5-6.7,27.5-2.2,27.5-2.2v-5.4h-32.6L342.6,417.4z"/>
		<polygon class="st41" points="480.3,353.9 481.7,408.6 486.3,409 487.7,356.7 486.3,356.6 		"/>
		<polygon class="st42" points="487.7,356.7 490.2,356.7 488.7,409 486.3,409 		"/>
	</g>
</g>
</svg>
