<?xml version="1.0" encoding="utf-8"?>
<!-- Generator: Adobe Illustrator 25.2.3, SVG Export Plug-In . SVG Version: 6.00 Build 0)  -->
<svg version="1.1" id="OBJECTS" xmlns="http://www.w3.org/2000/svg" xmlns:xlink="http://www.w3.org/1999/xlink" x="0px" y="0px"
	 viewBox="0 0 750 500" style="enable-background:new 0 0 750 500;" xml:space="preserve">
<style type="text/css">
	.st0{opacity:0.3;}
	.st1{fill:#A4A4A4;}
	.st2{fill:#BDBDBD;}
	.st3{clip-path:url(#SVGID_2_);}
	.st4{fill:#525252;}
	.st5{fill:#FFFFFF;}
	.st6{fill:#A6A6A6;}
	.st7{clip-path:url(#SVGID_4_);}
	.st8{fill:#333333;}
	.st9{fill:#292929;}
	.st10{fill:#242424;}
	.st11{fill:#2A2A2A;}
</style>
<g class="st0">
	<path class="st1" d="M750,346.5c0,0-324.2-82-750.1,31.6V500H750V346.5z"/>
	<g>
		<ellipse class="st2" cx="629.8" cy="343.9" rx="13.9" ry="6.8"/>
		<ellipse class="st2" cx="611.8" cy="485" rx="13.9" ry="6.8"/>
		<ellipse class="st2" cx="354.5" cy="404.7" rx="20.5" ry="10"/>
		<ellipse class="st2" cx="298.2" cy="354" rx="20.5" ry="10"/>
		<ellipse class="st2" cx="646.6" cy="467.7" rx="21.6" ry="10.5"/>
		<ellipse class="st2" cx="558.7" cy="394.3" rx="8.9" ry="4.3"/>
		<ellipse class="st2" cx="544.7" cy="445.1" rx="17.9" ry="8.7"/>
		<ellipse class="st2" cx="436.1" cy="487.3" rx="8.9" ry="4.3"/>
		<ellipse class="st2" cx="389.9" cy="436.4" rx="14.1" ry="6.8"/>
		<ellipse class="st2" cx="387.3" cy="390.4" rx="8.9" ry="4.3"/>
		<ellipse class="st2" cx="648.2" cy="403.7" rx="8.9" ry="4.3"/>
	</g>
	<path class="st1" d="M622.3,331.4c0,0-7.4-19.5-3.5-20.1s5.5,15.2,5.5,15.2s10.1-15.8,13-13C640.3,316.2,629.2,327.9,622.3,331.4z"
		/>
	<path class="st1" d="M303.6,332.7c0,0-17.4-24.4-12.2-26.1c5.2-1.7,12.9,20.6,12.9,20.6s6.3-24,12.5-21
		C323,309.3,312,330,303.6,332.7z"/>
</g>
<g class="st0">
	<defs>
		<rect id="SVGID_1_" class="st0" width="750" height="500"/>
	</defs>
	<clipPath id="SVGID_2_">
		<use xlink:href="#SVGID_1_"  style="overflow:visible;"/>
	</clipPath>
	<g class="st3">
		<g>
			<g>
				<path class="st4" d="M685.7,409.2c0,0,3.3,7,5.4,20.1c2,13-0.7,21.9,0,22.4c0.7,0.5,2.8-0.5,3.8-1.9c1-1.3,0.5-23.4-8.2-40.6
					H685.7z"/>
				<path class="st4" d="M693,434.8c0,0-2.4-12.2,9.2-13.8C702.2,421,701.9,432.1,693,434.8z"/>
			</g>
			<g>
				<g>
					<path class="st5" d="M683.4,405.9c0,0-3.1-0.7-7.9-1.2c-4.9-0.5-3.4-5.2,1.6-10.3c5.1-5.1,8.9-3.6,8.6,1.5
						c-0.3,5.1-1,8.6-1,8.6L683.4,405.9z"/>
					<path class="st5" d="M683.4,405.9c0,0-8.4-2.6-12-0.5c-3.6,2.1-5.1,8.7-2.3,9.6C671.9,415.9,682.3,409.9,683.4,405.9z"/>
					<path class="st5" d="M683.4,405.9c0,0-10.9,5.6-12.3,10.3s3.7,6.8,9.2,4.4C685.7,418,683.4,405.9,683.4,405.9z"/>
					<path class="st5" d="M683.9,405.4c-0.3,0-1.1,10,1.4,12.4c2.5,2.4,9.2-1.8,10.8-6.6C697.7,406.5,690,405.7,683.9,405.4z"/>
					<path class="st5" d="M683.9,405.4c0,0,8.9,1.9,13.6,0.5c4.7-1.4,6.5-11.2,2.3-11.4S690.1,398.1,683.9,405.4z"/>
					<path class="st5" d="M683.9,405.4c0,0-0.4-13,3.8-15.5c4.2-2.5,10.5-1.3,10.7,2.8S686.3,401.2,683.9,405.4z"/>
				</g>
				<path class="st6" d="M685.3,403.5c1.3,0.8-0.9,4.5-2.5,3.6C681.2,406.3,683.7,402.5,685.3,403.5z"/>
			</g>
		</g>
		<g>
			<g>
				<path class="st4" d="M400.4,444.1c0,0,3,6.4,4.9,18.3c1.9,11.9-0.7,20,0,20.5c0.7,0.5,2.6-0.5,3.5-1.7
					c0.9-1.2,0.5-21.4-7.5-37.1H400.4z"/>
				<path class="st4" d="M407.1,467.5c0,0-2.2-11.2,8.4-12.6C415.5,454.9,415.2,465.1,407.1,467.5z"/>
			</g>
			<g>
				<g>
					<path class="st5" d="M398.3,441.1c0,0-2.8-0.7-7.2-1.1c-4.5-0.5-3.1-4.8,1.5-9.4c4.6-4.6,8.1-3.3,7.9,1.4
						c-0.2,4.6-0.9,7.8-0.9,7.8L398.3,441.1z"/>
					<path class="st5" d="M398.3,441.1c0,0-7.7-2.4-10.9-0.5c-3.3,1.9-4.7,8-2.1,8.8C387.8,450.2,397.3,444.8,398.3,441.1z"/>
					<path class="st5" d="M398.3,441.1c0,0-9.9,5.1-11.3,9.4c-1.4,4.3,3.4,6.2,8.4,4C400.4,452.2,398.3,441.1,398.3,441.1z"/>
					<path class="st5" d="M398.7,440.6c-0.2,0-1,9.1,1.3,11.3c2.3,2.2,8.4-1.7,9.9-6C411.4,441.6,404.3,440.9,398.7,440.6z"/>
					<path class="st5" d="M398.7,440.6c0,0,8.1,1.7,12.5,0.4c4.3-1.2,5.9-10.3,2.1-10.4C409.5,430.6,404.4,434,398.7,440.6z"/>
					<path class="st5" d="M398.7,440.6c0,0-0.4-11.9,3.5-14.2c3.9-2.3,9.6-1.2,9.7,2.6C412.1,432.8,400.9,436.8,398.7,440.6z"/>
				</g>
				<path class="st6" d="M400.1,438.9c1.2,0.7-0.8,4.2-2.3,3.3C396.3,441.4,398.5,438,400.1,438.9z"/>
			</g>
		</g>
		<g>
			<g>
				<path class="st4" d="M714.7,358.9c0,0,3.8,4.2,7.9,12.9c4.1,8.7,4,15.4,4.6,15.6c0.6,0.2,1.8-1,2.3-2.1
					c0.4-1.1-4.4-16.4-14-26.7L714.7,358.9z"/>
				<path class="st4" d="M725,375.3c0,0-4.2-8,3.6-11.5C728.6,363.7,730.7,371.6,725,375.3z"/>
			</g>
			<g>
				<g>
					<path class="st5" d="M712.4,357.1c0,0-2.3,0.1-5.8,0.8c-3.5,0.6-3.5-2.9-1-7.5c2.5-4.6,5.5-4.3,6.3-0.7s1.1,6.2,1.1,6.2
						L712.4,357.1z"/>
					<path class="st5" d="M712.4,357.1c0,0-6.4-0.1-8.5,2.1c-2.1,2.2-1.8,7.1,0.3,7.2C706.4,366.4,712.5,360.1,712.4,357.1z"/>
					<path class="st5" d="M712.4,357.1c0,0-6.4,6.1-6.5,9.7c-0.1,3.6,4,4,7.3,1.2C716.5,365.1,712.4,357.1,712.4,357.1z"/>
					<path class="st5" d="M712.6,356.6c-0.2,0,1.3,7.2,3.5,8.3c2.2,1.2,6-3.1,6.2-6.8C722.5,354.5,717,355.6,712.6,356.6z"/>
					<path class="st5" d="M712.6,356.6c0,0,6.6-0.5,9.6-2.5c3-1.9,2.2-9.2-0.7-8.4S715.5,350.3,712.6,356.6z"/>
					<path class="st5" d="M712.6,356.6c0,0-3-9-0.5-11.6c2.4-2.6,7.1-3.1,8-0.2C721.1,347.7,713.5,353.2,712.6,356.6z"/>
				</g>
				<path class="st6" d="M713.3,355c1.1,0.3,0.3,3.4-1,3.1C710.9,357.8,711.9,354.6,713.3,355z"/>
			</g>
		</g>
		<g>
			<g>
				<path class="st4" d="M648.7,513.4c0,0,7.6,8.6,16,26.3c8.3,17.7,8.1,31.4,9.3,31.8c1.3,0.5,3.8-1.9,4.6-4.2
					c0.8-2.3-9-33.5-28.5-54.3L648.7,513.4z"/>
				<path class="st4" d="M669.7,546.7c0,0-8.5-16.3,7.2-23.4C676.9,523.3,681.2,539.2,669.7,546.7z"/>
			</g>
			<g>
				<g>
					<path class="st5" d="M643.9,509.7c0,0-4.6,0.3-11.8,1.6c-7.1,1.3-7.1-5.9-2-15.3s11.1-8.8,12.9-1.5c1.7,7.3,2.2,12.6,2.2,12.6
						L643.9,509.7z"/>
					<path class="st5" d="M643.9,509.7c0,0-13-0.3-17.2,4.2c-4.2,4.5-3.7,14.5,0.7,14.7C631.8,528.7,644.1,515.8,643.9,509.7z"/>
					<path class="st5" d="M643.9,509.7c0,0-13.1,12.5-13.3,19.7c-0.2,7.3,8.1,8.1,14.8,2.4C652.2,526,643.9,509.7,643.9,509.7z"/>
					<path class="st5" d="M644.4,508.8c-0.4,0.1,2.7,14.6,7.2,17c4.5,2.4,12.3-6.4,12.6-13.8C664.5,504.5,653.2,506.6,644.4,508.8z"
						/>
					<path class="st5" d="M644.4,508.8c0,0,13.4-1.1,19.6-5c6.2-3.9,4.5-18.7-1.4-17.1C656.6,488.2,650.3,495.9,644.4,508.8z"/>
					<path class="st5" d="M644.4,508.8c0,0-6-18.3-1-23.6c5-5.3,14.4-6.2,16.3-0.4C661.6,490.5,646.1,501.9,644.4,508.8z"/>
				</g>
				<path class="st6" d="M645.7,505.5c2.2,0.6,0.6,6.8-2.1,6.2C641,511.1,642.9,504.7,645.7,505.5z"/>
			</g>
		</g>
	</g>
</g>
<g class="st0">
	<defs>
		<rect id="SVGID_3_" class="st0" width="750" height="500"/>
	</defs>
	<clipPath id="SVGID_4_">
		<use xlink:href="#SVGID_3_"  style="overflow:visible;"/>
	</clipPath>
	<g class="st7">
		<g>
			<path class="st8" d="M427.3,500H0l0-31.9l-0.1-147.6c0,0,13.9-6.4,35.4-19.4h0c11.2-6.8,24.5-15.5,39-26
				c20.1-14.6,42.5-32.9,64.8-54.9c24.5-24.2,37.7-55.3,44.4-85.3h0c12.2-54.4,3.3-105.4,3.3-105.4h95.8c0,0,4.3,17.5,7.1,45.9v0.1
				c0,0.1,0,0.1,0,0.1s0,0,0,0c0.8,8,1.5,16.8,1.9,26.4c0.5,11.8,0.7,24.7,0.2,38.4v0c0,0.1,0,0.3,0,0.4c-0.1,2.3-0.2,4.6-0.3,6.9
				c0,0,0,0.1,0,0.1c-1,18.5-3.1,38.3-6.9,58.8c-2.2,11.6-4.1,23.3-5.6,34.8c0,0,0,0,0,0v0c-0.7,4.9-1.3,9.7-1.9,14.5c0,0,0,0,0,0.1
				c-3.4,29.2-4.9,57.1-4.4,81.5c0.8,40.4,7,71.4,18.9,83.2c23.1,23,51.1,6.3,72.2,16.9C384.8,448.2,401.4,491.4,427.3,500z"/>
			<g>
				<g>
					<path class="st9" d="M289.6,75.7C289.6,75.7,289.6,75.7,289.6,75.7c0,1.7-1,88.2-215.4,199.4c20.1-14.6,42.5-32.9,64.8-54.9
						c24.5-24.2,37.7-55.3,44.4-85.3h0c1.1-1,54.6-48.2,76.6-105.4h22.5c0,0,4.3,17.5,7.1,45.9v0.1
						C289.6,75.7,289.6,75.7,289.6,75.7z"/>
					<path class="st9" d="M291.7,140.5L291.7,140.5C291.6,140.5,291.6,140.5,291.7,140.5c0,0.1,0,0.2,0,0.4c0,0.9,0,3.2-0.3,6.9
						c0,0,0,0.1,0,0.1C288.6,184,261.5,345.1,0,468.1l-0.1-147.6c0,0,13.9-6.4,35.4-19.4h0c0,0,207.6-20.8,256.1-198.8
						c0-0.1,0-0.1,0.1-0.2C292,113.9,292.1,126.8,291.7,140.5z"/>
					<path class="st9" d="M272.5,337.6C248.7,450.3,175.8,497.6,172,500H54.6C231.9,425.4,269.3,298.9,277,256.1
						C273.5,285.3,272,313.2,272.5,337.6z"/>
				</g>
			</g>
		</g>
		<g>
			<path class="st10" d="M507.1,0c0,0,15,26.4-3.3,45.7s-47.2,4.4-47.2,4.4s-0.5,13.1-11.9,16.2c-11.4,3.1-17.4-8.7-17.4-8.7
				s-1.6,13.7-8.4,14.3c-6.7,0.6-11.3-11.1-11.3-11.1s0.9,15.7-15,21.2c-15.9,5.5-25.2-9.4-25.2-9.4s-8.7,18.3-32.4,25
				c-23.6,6.7-38.5-9.4-38.5-9.4s-1.2,26.8-32,26.1c-30.9-0.6-29.6-38.6-29.6-38.6s-1.2,12.4-11.2,14.3c-10,1.9-10.1-19.3-10.1-19.3
				S211.7,88,193.4,93c-18.3,5-21.5-14.3-21.5-14.3s-4.9,19.9-21.7,21.2c-16.7,1.2-18.1-20.5-18.1-20.5s-8.9,26.8-32.4,20.5
				c-23.5-6.2-13.5-34.2-13.5-34.2S78.1,78.7,66.9,75c-11.2-3.7,0-17.9,0-17.9S42,82.4,21.5,73.7C0.9,65-0.1,25.2-0.1,25.2V0H507.1z
				"/>
			<path class="st10" d="M486.3,0c0,0-16.8,12.3-4.8,29.6c12,17.2,29,5.8,29,5.8s-6.1,16.2,5.8,21.7c11.9,5.5,19.6-10.9,19.6-10.9
				s-3.1,17.3,25.3,20.3c28.4,2.9,30.1-15.6,30.1-15.6s-5.7,15.8,5.5,22.3c11.1,6.5,20.5-6.7,20.5-6.7s-0.6,15.4,21.6,17.8
				c22.3,2.5,29.1-13.5,29.1-13.5s2.6,12.8,13.2,13.8c10.6,0.9,15.8-10.8,15.8-10.8s7,14.7,27.6,13.5S750,69.1,750,69.1V0H486.3z"/>
		</g>
	</g>
</g>
<g class="st0">
	<path class="st11" d="M384.7,500.1H0V279.4c0,0-2.1-19.3,13.5-19.5S29,279.4,29,279.4s6-11.1,17.4-6.9c11.3,4.2,8.1,19.9,8,20.5
		c0.3-0.2,4.5-3.6,9.1-3.4c1.4,0.1,2.8,0.5,4.2,1.4c6,4,1.7,13.9,1.7,13.9s15.7-3.9,25.5,10.3c9.8,14.2-3.4,34.6-3.4,34.6
		s13.2-3.3,17,2.6c3.8,5.9,0,18.4,0,18.4s10.9-7.8,16.5-5c5.6,2.7,0.1,17.9,0,18.2c0.3-0.3,7.2-6,11.4-2.7c4.3,3.3,1.9,10.7,1.8,11
		c0.3-0.3,6.6-7.5,14.4-2.7c7.9,4.8,3.3,21.1,3.1,21.7c0.2-0.3,3.9-6.2,9.6-5c5.9,1.3,4.6,14.5,4.6,14.5s5.9-18.5,20.2-19.9
		c2-0.2,4.2,0,6.6,0.6c19.1,4.8,15.7,32.6,15.7,32.6s5.9-8.7,15.7-5.7c9.8,3,9.3,18.2,9.3,18.2s4.2-8.1,11.5-8.8
		c7.2-0.8,10.6,10.5,10.6,10.5s0-11.4,7.7-10.5c7.6,0.9,8.2,12.4,8.2,12.4s7.2-7.6,15.9-3.6c8.7,4,9.2,14.2,9.2,14.2
		s6.9-10.5,18.9-8.7c12,1.9,15,18.4,15,18.4s3.2-8.8,10.9-6.3c7.8,2.5,3.2,15.2,3.2,15.2s7.5-8.9,21.5-2.6
		C384.2,483.3,384.7,500.1,384.7,500.1z"/>
</g>
</svg>
