<?xml version="1.0" encoding="utf-8"?>
<!-- Generator: Adobe Illustrator 25.2.3, SVG Export Plug-In . SVG Version: 6.00 Build 0)  -->
<svg version="1.1" id="BACKGROUND" xmlns="http://www.w3.org/2000/svg" xmlns:xlink="http://www.w3.org/1999/xlink" x="0px" y="0px"
	 viewBox="0 0 750 500" style="enable-background:new 0 0 750 500;" xml:space="preserve">
<style type="text/css">
	.st0{opacity:0.4;}
	.st1{fill:#CFCFCF;}
	.st2{fill:#EFEFEF;}
	.st3{clip-path:url(#SVGID_2_);}
	.st4{fill:none;stroke:#F3F3F3;stroke-width:5;stroke-linecap:round;stroke-linejoin:round;stroke-miterlimit:10;}
	.st5{fill:#C0C0C0;}
	.st6{fill:#757575;}
	.st7{fill:#818181;}
	.st8{fill:#505050;}
	.st9{fill:#3D3D3D;}
	.st10{fill:#5E5E5E;}
	.st11{fill:#464646;}
	.st12{fill:#ECECEC;}
	.st13{fill:#E8E8E8;}
	.st14{fill:#585858;}
	.st15{fill:#4A4A4A;}
	.st16{fill:#999999;}
	.st17{fill:#E2E2E2;}
</style>
<g class="st0">
	<circle class="st1" cx="558.6" cy="90.6" r="48.4"/>
	<g>
		
			<ellipse transform="matrix(0.7071 -0.7071 0.7071 0.7071 82.7621 452.969)" class="st2" cx="588.2" cy="126.6" rx="25.5" ry="25.5"/>
		
			<ellipse transform="matrix(0.9239 -0.3827 0.3827 0.9239 2.1495 263.9699)" class="st2" cx="664.6" cy="126.6" rx="25.5" ry="25.5"/>
		<circle class="st2" cx="625.5" cy="110.2" r="41.9"/>
		
			<ellipse transform="matrix(0.7071 -0.7071 0.7071 0.7071 120.4594 495.4617)" class="st2" cx="658.3" cy="102.3" rx="25.5" ry="25.5"/>
		
			<ellipse transform="matrix(0.7071 -0.7071 0.7071 0.7071 82.233 484.1042)" class="st2" cx="625.5" cy="142.8" rx="25.5" ry="25.5"/>
	</g>
	<g>
		<circle class="st2" cx="341.4" cy="164.8" r="16.4"/>
		<circle class="st2" cx="390.5" cy="164.8" r="16.4"/>
		<circle class="st2" cx="365.4" cy="154.3" r="26.9"/>
		<circle class="st2" cx="357.8" cy="174.4" r="16.4"/>
		<circle class="st2" cx="381.8" cy="181.1" r="16.4"/>
		<circle class="st2" cx="406.9" cy="181.1" r="16.4"/>
	</g>
	<g>
		<circle class="st2" cx="88.6" cy="113.4" r="19.3"/>
		<circle class="st2" cx="146.3" cy="113.4" r="19.3"/>
		<circle class="st2" cx="116.8" cy="101.1" r="31.6"/>
		<circle class="st2" cx="158.7" cy="83.6" r="31.6"/>
		<circle class="st2" cx="116.8" cy="101.1" r="31.6"/>
		<circle class="st2" cx="190.3" cy="110.2" r="31.6"/>
		<circle class="st2" cx="194.3" cy="78.6" r="19.3"/>
		<circle class="st2" cx="104.5" cy="121.6" r="19.3"/>
		<circle class="st2" cx="218.3" cy="115.2" r="19.3"/>
	</g>
	<g>
		<defs>
			<rect id="SVGID_1_" width="750" height="500"/>
		</defs>
		<clipPath id="SVGID_2_">
			<use xlink:href="#SVGID_1_"  style="overflow:visible;"/>
		</clipPath>
		<g class="st3">
			<path class="st4" d="M81.2,207c0,0-33.2-33.2-89.5-21.9"/>
			<path class="st4" d="M126.3,217.7"/>
			<path class="st4" d="M339.6,270.4"/>
			<path class="st4" d="M646,244.3"/>
			<g>
				<path class="st5" d="M758.4,404.8l-393.3-25.6c78.2-133.9,117.8-61.1,117.8-61.1c72.8-112.5,132.8-20.9,132.8-20.9
					c34.8-91.6,90.7-148.8,142.7-184V404.8z"/>
				<path class="st6" d="M758.4,400.9l-285.1-46.3c81.4-67.5,113.5-19.3,113.5-19.3c42.8-48.2,84.6,0,84.6,0
					c27-54.9,57.3-89.6,87-111.2V400.9z"/>
			</g>
			<g>
				<path class="st7" d="M-4.4,539.6V383.9c92.1-18.1,224.4-36.1,378.5-36.4c158-0.3,285.1,18.1,378.5,36.4c0,51.9,0,103.8,0,155.7
					H-4.4z"/>
				<path class="st5" d="M-4.4,392.9v-9.1c92.1-18.1,224.4-36.1,378.5-36.4c117.1-0.2,217.2,9.8,299.2,22.5
					C539.6,353.9,274.6,335.7-4.4,392.9z"/>
			</g>
			<g>
				<line class="st8" x1="555.6" y1="358.1" x2="613.1" y2="358.1"/>
				<polygon class="st9" points="584.3,257.3 589.9,361.6 578.8,361.6 				"/>
			</g>
			<g>
				<polygon class="st10" points="590.9,363.2 660.7,363.2 625.8,231.4 				"/>
				<polygon class="st11" points="625.8,240.9 632.5,367.4 619.1,367.4 				"/>
			</g>
			<g>
				<polygon class="st8" points="634.5,370.2 718.9,370.2 676.7,210.7 				"/>
				<polygon class="st9" points="676.7,222.1 684.9,375.2 668.6,375.2 				"/>
			</g>
			<g>
				<ellipse class="st12" cx="87.8" cy="499.7" rx="13" ry="2.1"/>
				<path class="st13" d="M71.9,491.2c0,0.5,1.5,1,3.4,1c1.9,0,3.4-0.4,3.4-1c0-0.5-1.5-1-3.4-1C73.4,490.2,71.9,490.6,71.9,491.2z"
					/>
				<path class="st12" d="M44.6,483.9c0,1.2,4.8,2.1,10.6,2.1s10.6-1,10.6-2.1c0-1.2-4.8-2.1-10.6-2.1S44.6,482.7,44.6,483.9z"/>
				<path class="st13" d="M53.9,490.8c0,0.4,1,0.8,2.3,0.8c1.3,0,2.3-0.3,2.3-0.8s-1-0.8-2.3-0.8C55,490,53.9,490.4,53.9,490.8z"/>
				<path class="st12" d="M-7.3,502.3c0,1.4,4.5,2.4,9.9,2.4c5.5,0,9.9-1.1,9.9-2.4c0-1.4-4.5-2.4-9.9-2.4
					C-2.8,499.9-7.3,501-7.3,502.3z"/>
				<path class="st13" d="M61.8,514.2c0,0.8,1.7,1.4,3.9,1.4c2.2,0,3.9-0.6,3.9-1.4c0-0.8-1.7-1.4-3.9-1.4
					C63.5,512.8,61.8,513.4,61.8,514.2z"/>
				<path class="st13" d="M30,499.9c0,1.8,6,3.2,13.3,3.2c7.4,0,13.3-1.4,13.3-3.2c0-1.8-6-3.2-13.3-3.2C36,496.7,30,498.1,30,499.9
					z"/>
				<path class="st12" d="M68.1,473.6c0,0.3,1.5,0.6,3.3,0.6c1.8,0,3.3-0.3,3.3-0.6c0-0.3-1.5-0.6-3.3-0.6
					C69.6,473,68.1,473.3,68.1,473.6z"/>
				<ellipse class="st13" cx="23.3" cy="489.5" rx="8" ry="1"/>
				<path class="st13" d="M89.3,511.4c0,1.1,2.9,2.1,6.5,2.1c3.6,0,6.5-0.9,6.5-2.1c0-1.1-2.9-2.1-6.5-2.1
					C92.2,509.4,89.3,510.3,89.3,511.4z"/>
				<path class="st13" d="M92.5,484c0,0.8,3,1.5,6.7,1.5c3.7,0,6.7-0.7,6.7-1.5c0-0.8-3-1.5-6.7-1.5C95.5,482.5,92.5,483.2,92.5,484
					z"/>
				<path class="st12" d="M110.7,495.9c0,1,2.3,1.7,5.1,1.7c2.8,0,5.1-0.8,5.1-1.7c0-1-2.3-1.7-5.1-1.7
					C112.9,494.2,110.7,495,110.7,495.9z"/>
				<path class="st12" d="M40.2,521c0,1,2.3,1.7,5.1,1.7c2.8,0,5.1-0.8,5.1-1.7c0-1-2.3-1.7-5.1-1.7C42.4,519.3,40.2,520,40.2,521z"
					/>
				<path class="st12" d="M39.5,510.6c0,1,3,1.7,6.7,1.7c3.7,0,6.7-0.8,6.7-1.7c0-1-3-1.7-6.7-1.7C42.5,508.9,39.5,509.7,39.5,510.6
					z"/>
			</g>
			<g>
				<path class="st14" d="M759.6,394.1c0,0-457.6-34.1-703.5,154.3h707.1L759.6,394.1z"/>
				<path class="st15" d="M759.9,408.1l3.3,140.4H341C477.3,515.3,609.8,387.8,759.9,408.1z"/>
			</g>
			<g>
				<path class="st15" d="M470.6,350.5c0,0,9.2-10.7,19.6-5.4c0,0,14.6-15.4,31.7,0c0,0,5.7-5.2,10.2-0.5c0,0,12.6-6.7,24,10.9
					l-26.3-1.6c0,0,4.3-0.1,8.8,2.8l-52.6-2.4c0,0,3-3.5,6.9-2.6c0,0-2.7-2.3-6.4,0.1L470.6,350.5z"/>
				<path class="st7" d="M504.9,362.4c0,0,12-14,25.6-7.1c0,0,19.1-20.1,41.5,0c0,0,7.5-6.8,13.3-0.6c0,0,16.5-8.8,31.5,14.3
					l-34.4-2.1c0,0,5.6-0.1,11.5,3.7l-68.9-3.1c0,0,3.9-4.5,9.1-3.4c0,0-3.6-3-8.3,0.1L504.9,362.4z"/>
				<path class="st16" d="M558.9,369.9c0,0,13.7-19.7,29.2-10.1c0,0,21.8-28.4,47.4,0c0,0,8.5-9.6,15.2-0.9c0,0,18.9-12.4,35.9,20.1
					l-39.2-2.9c0,0,6.4-0.2,13.1,5.2l-78.6-4.4c0,0,4.4-6.4,10.4-4.7c0,0-4.1-4.3-9.5,0.2L558.9,369.9z"/>
			</g>
			<g>
				<polygon class="st10" points="676.6,379.1 778.1,379.1 727.4,187.6 				"/>
				<polygon class="st11" points="727.4,201.3 737.1,385.2 717.6,385.2 				"/>
				<path class="st5" d="M639.1,381.1c0,0,13.7-19.7,29.2-10.1c0,0,21.8-28.4,47.4,0c0,0,8.5-9.6,15.2-0.9c0,0,18.9-12.4,35.9,20.1
					l-39.2-2.9c0,0,6.4-0.2,13.1,5.2l-78.6-4.4c0,0,4.4-6.4,10.4-4.7c0,0-4.1-4.3-9.5,0.2L639.1,381.1z"/>
			</g>
			<g>
				<g>
					<polygon class="st8" points="362.8,354.8 256.4,354.8 309.6,153.9 					"/>
					<polygon class="st9" points="309.6,168.3 299.3,361.2 319.8,361.2 					"/>
				</g>
				<g>
					<polygon class="st10" points="297.4,364.1 168.4,364.1 232.9,120.4 					"/>
					<polygon class="st11" points="232.9,137.9 220.4,371.9 245.3,371.9 					"/>
				</g>
				<g>
					<polygon class="st8" points="216.8,377 60.6,377 138.7,82.1 					"/>
					<polygon class="st9" points="138.7,103.2 123.7,386.4 153.8,386.4 					"/>
				</g>
				<g>
					<polygon class="st10" points="138.8,393.6 -48.8,393.6 45,39.4 					"/>
					<polygon class="st11" points="45,64.8 26.9,404.9 63.1,404.9 					"/>
				</g>
			</g>
			<path class="st16" d="M209.7,363.3c0,0-33.6-32.6-67.1-1.9c0,0-46-28.8-76.7,25.4c0,0-30.7-22.5-50.4,24.9h52.8
				c0,0,10.6-13.4,29.3-12.9c0,0-17.3,6.7-21.6,17.7c0,0,54.7,1.9,76.7-16.3l139.6-23C292.2,377.2,272,333.1,209.7,363.3z"/>
			<path class="st16" d="M120.6,456.6c0,0-16.7-20.4-45.1-5.3c0,0-7.8-14-18.2-8.9c0,0-23.8-16.2-44.7,14.4h35.1l-8.4,3.8
				c0,0,35.8,12.7,51.8-0.9C91,459.7,109.2,467.4,120.6,456.6z"/>
			<path class="st5" d="M116.8,403.7c0,0-16.2-21.2-35-6c0,0-11.6-10-22.8-1.7c0,0-8.6-4.6-19.7,4.9c0,0-5.7-1.5-12.4,2.9
				c0,0-19.7-4.6-30.2,15.5h47.6c0,0,10.3-7.7,18.1-5.9c0,0-8.7,3.6-11.2,7c0,0,24.9,8,37.5-2.8c0,0,58.4,1.7,64.4-10.9
				C153,406.5,133.1,393.3,116.8,403.7z"/>
			<path class="st17" d="M462.1,350.7c139.3,30.5,35.7,25.8-105.9,55.2c-141.6,29.4-316,142.6-316,142.6h-72.1l-13.6-66
				c0,0,89.3-66.7,286.4-89.6c197.1-22.8,289.9-18.1,208.4-38.8L462.1,350.7z"/>
		</g>
	</g>
</g>
</svg>
