<?xml version="1.0" encoding="utf-8"?>
<!-- Generator: Adobe Illustrator 25.2.3, SVG Export Plug-In . SVG Version: 6.00 Build 0)  -->
<svg version="1.1" xmlns="http://www.w3.org/2000/svg" xmlns:xlink="http://www.w3.org/1999/xlink" x="0px" y="0px"
	 viewBox="0 0 700 500" style="enable-background:new 0 0 700 500;" xml:space="preserve">
<style type="text/css">
	.st0{fill-rule:evenodd;clip-rule:evenodd;fill:#EEFFFE;}
	.st1{clip-path:url(#SVGID_2_);}
	.st2{fill-rule:evenodd;clip-rule:evenodd;fill:#3C8E25;}
	.st3{fill-rule:evenodd;clip-rule:evenodd;fill:url(#SVGID_3_);}
	.st4{fill-rule:evenodd;clip-rule:evenodd;fill:url(#SVGID_4_);}
	.st5{fill-rule:evenodd;clip-rule:evenodd;fill:#188209;}
	.st6{fill-rule:evenodd;clip-rule:evenodd;fill:url(#SVGID_5_);}
	.st7{fill-rule:evenodd;clip-rule:evenodd;fill:url(#SVGID_6_);}
	.st8{fill-rule:evenodd;clip-rule:evenodd;fill:#BC9B11;}
	.st9{fill-rule:evenodd;clip-rule:evenodd;fill:#804000;}
	.st10{opacity:0.5;fill-rule:evenodd;clip-rule:evenodd;fill:#804000;}
	.st11{fill-rule:evenodd;clip-rule:evenodd;fill:#1D4403;}
	.st12{fill-rule:evenodd;clip-rule:evenodd;fill:#02511A;}
	.st13{fill-rule:evenodd;clip-rule:evenodd;fill:#303030;}
	.st14{fill-rule:evenodd;clip-rule:evenodd;fill:#474747;}
	.st15{fill-rule:evenodd;clip-rule:evenodd;fill:#212121;}
	.st16{fill-rule:evenodd;clip-rule:evenodd;fill:url(#SVGID_7_);}
	.st17{fill-rule:evenodd;clip-rule:evenodd;fill:#1C1C1C;}
	.st18{opacity:0.8;fill-rule:evenodd;clip-rule:evenodd;fill:#838383;}
	.st19{fill-rule:evenodd;clip-rule:evenodd;fill:#B33620;}
	.st20{fill-rule:evenodd;clip-rule:evenodd;fill:#812720;}
	.st21{fill-rule:evenodd;clip-rule:evenodd;fill:#4C2502;}
	.st22{opacity:0.5;fill-rule:evenodd;clip-rule:evenodd;fill:#4C2502;}
	.st23{opacity:0.8;fill-rule:evenodd;clip-rule:evenodd;fill:#4C2502;}
	.st24{opacity:0.3;}
	.st25{fill-rule:evenodd;clip-rule:evenodd;fill:#86182C;}
	.st26{fill-rule:evenodd;clip-rule:evenodd;fill:url(#SVGID_8_);}
	.st27{fill-rule:evenodd;clip-rule:evenodd;fill:url(#SVGID_9_);}
	.st28{fill-rule:evenodd;clip-rule:evenodd;fill:url(#SVGID_10_);}
	.st29{fill-rule:evenodd;clip-rule:evenodd;fill:#81112A;}
	.st30{fill-rule:evenodd;clip-rule:evenodd;fill:#981B22;}
	.st31{fill-rule:evenodd;clip-rule:evenodd;fill:#7C0E2C;}
	.st32{fill-rule:evenodd;clip-rule:evenodd;fill:#754553;}
	.st33{fill-rule:evenodd;clip-rule:evenodd;fill:#572342;}
	.st34{fill-rule:evenodd;clip-rule:evenodd;fill:#511B3B;}
	.st35{fill-rule:evenodd;clip-rule:evenodd;fill:#FFB074;}
	.st36{fill-rule:evenodd;clip-rule:evenodd;fill:#BE575E;}
	.st37{fill-rule:evenodd;clip-rule:evenodd;fill:#981D22;}
	.st38{fill-rule:evenodd;clip-rule:evenodd;fill:#962016;}
	.st39{fill-rule:evenodd;clip-rule:evenodd;fill:url(#SVGID_11_);}
	.st40{fill-rule:evenodd;clip-rule:evenodd;fill:#FF7C20;}
	.st41{fill-rule:evenodd;clip-rule:evenodd;fill:#EA6B51;}
	.st42{fill-rule:evenodd;clip-rule:evenodd;fill:#B32700;}
	.st43{fill-rule:evenodd;clip-rule:evenodd;fill:#6B1916;}
	.st44{fill-rule:evenodd;clip-rule:evenodd;fill:#FFDC0B;}
	.st45{fill-rule:evenodd;clip-rule:evenodd;fill:#8C2024;}
	.st46{fill-rule:evenodd;clip-rule:evenodd;fill:#570716;}
	.st47{fill-rule:evenodd;clip-rule:evenodd;fill:#A54016;}
	.st48{fill-rule:evenodd;clip-rule:evenodd;fill:#A43138;}
	.st49{opacity:0.3;fill-rule:evenodd;clip-rule:evenodd;fill:#A43138;}
	.st50{opacity:0.5;fill-rule:evenodd;clip-rule:evenodd;fill:#B12038;}
	.st51{opacity:0.5;fill-rule:evenodd;clip-rule:evenodd;fill:#A43138;}
</style>
<g id="Capa_3">
	<rect x="-156.52" y="-6.96" class="st0" width="928.7" height="452.17"/>
</g>
<g id="background">
	<g>
		<defs>
			<rect id="SVGID_1_" width="700" height="500"/>
		</defs>
		<clipPath id="SVGID_2_">
			<use xlink:href="#SVGID_1_"  style="overflow:visible;"/>
		</clipPath>
		<g class="st1">
			<path class="st2" d="M416.5,433.78C336.3,444.01-31.1,333.62-193.68,229.15v214.87L135.25,565.5L416.5,433.78z"/>
			<path class="st2" d="M820.62,205.21c0,0-141.23,207.35-241.06,190.09c-83.5-14.44-207.11,65.6-341.47,80.84
				c-134.35,15.25-215.57-10.96-215.57-10.96l-149.69,102.85h947.79V205.21z"/>
			<linearGradient id="SVGID_3_" gradientUnits="userSpaceOnUse" x1="-157.8522" y1="424.8339" x2="-157.8522" y2="-59.463">
				<stop  offset="5.587020e-03" style="stop-color:#6E6E6E"/>
				<stop  offset="0.7124" style="stop-color:#535353"/>
				<stop  offset="1" style="stop-color:#464646"/>
			</linearGradient>
			<path class="st3" d="M-193.68-59.46h36.41c0,0-16.2,353.72,35.26,484.3l-71.66-35.7V-59.46z"/>
			<linearGradient id="SVGID_4_" gradientUnits="userSpaceOnUse" x1="143.1915" y1="569.1589" x2="143.1915" y2="515.88">
				<stop  offset="5.587020e-03" style="stop-color:#616161"/>
				<stop  offset="1" style="stop-color:#4B4B4B"/>
			</linearGradient>
			<path class="st4" d="M2.43,515.88c0,0,86.13,29.05,150.93,38.58l-13.82,1.91c0,0,36.69,12.8,152.93,12.8H-6.09
				C-6.09,569.16-1.56,534.95,2.43,515.88z"/>
			<path class="st5" d="M119.61,164.35c5.23,0.82,10.65,1.96,15.92,2.64c7.87,1.01,16.17-1.18,23.63-3.47
				c6.73-2.06,13.36-4.43,20.11-6.42c2.21-0.65,5.35-1.01,7.04-2.83c-4.03,0.2-6.39-1.52-10.45-1.29c1.41-1.87,5.39-2.66,7.47-3.69
				c11.08-5.51,21.5-11.68,32.77-16.93c17.75-8.25,35.15-17.09,53.66-23.6c3.16-1.11,7.05-1.79,10.16-3.04
				c1.28-0.52,1.98-1.76,3.56-1.41c-1.49,0.29-3.54-1.28-5.19-1.46c-2.18-0.25-4.55,0.03-6.75,0.03c7.25-0.07,14.73-1.28,21.64-3.58
				c20.4-6.8,40.14-18.64,55.15-34.09c27.84-28.64,56.57-66.15,58.6-107.65c0.49,2.57-4.22,8.5-5.7,10.25
				c-3.19,3.77-6.37,7.11-10.23,10.14c3.76-2.75,6.02-10.63,7-14.76c1.03-4.34,2.04-8.76,3.21-13.03c0.62-2.27,1.66-4.59,1.5-7
				c-1.43,3.15-2.78,6.34-5.05,8.95c-2.38,2.74-5.78,3.41-8.11,5.87c8.54-7.42,11.12-15.74,13.48-26.46c0.68-3.09,1.03-5.63,1-8.79
				c-0.01-1.29,0.71-5.27-0.05-6.3c-1.51-2.06-4.2-0.11-6.22,0.34c-3.78,0.84-8.07,0.25-11.89,0.27
				c-7.72,0.04-15.41,1.09-23.13,1.42c-20.46,0.87-40.95-2.45-61.41-2.84c-24.29-0.45-48.75-0.73-73-2.13
				c-13.86-0.8-27.9,0.13-41.69-1.41c-3.33-0.37-11.89-2.59-15.32-0.49c-2.87,1.75-4.85,8.48-6.02,11.23
				c-4.62,10.84-9.85,21.41-14.79,32.11c-7.68,16.65-16.18,33.02-22.95,50.06c-6.77,17.06-11.9,34.72-15.84,52.63
				c-5.43,24.69-5.9,49.79-3.62,74.9c0.62,6.86,1.15,13.84,2.2,20.65C110.66,155.36,110.65,158.47,119.61,164.35z"/>
			<linearGradient id="SVGID_5_" gradientUnits="userSpaceOnUse" x1="268.3867" y1="483.3606" x2="268.3867" y2="422.6947">
				<stop  offset="5.587020e-03" style="stop-color:#F7BF38"/>
				<stop  offset="0.144" style="stop-color:#F6C036"/>
				<stop  offset="1" style="stop-color:#F4C22F"/>
			</linearGradient>
			<path class="st6" d="M131.39,478.5c0,0,118.68-21.24,181.05-55.81c0,0,38.16,9.02,92.95,10.68c0,0-93.08,37.87-194.46,49.01
				C181.23,485.65,163.44,479.8,131.39,478.5z"/>
			<linearGradient id="SVGID_6_" gradientUnits="userSpaceOnUse" x1="64.8189" y1="569.1589" x2="64.8189" y2="542.5195">
				<stop  offset="0.0112" style="stop-color:#909090"/>
				<stop  offset="1" style="stop-color:#767676"/>
			</linearGradient>
			<path class="st7" d="M-2.24,542.52c0,0,69.84,0,137.97,26.64H-6.09L-2.24,542.52z"/>
			<path class="st8" d="M70.14,477.01c0,0,47.96,47.61,98.94,59.05c0,0,122.92-2.65,205.82-7.76c0,0-54.07,13.95-129.11,7.76
				c0,0,63.84,5.48,98.62,13.58s43.83,20.66,43.83,20.66h326.04c0,0-130.22-29.95-168.34-32.33c-38.11-2.38-71.46-2.86-71.46-2.86
				l58.6-1.91c0,0-109.33-31.58-172.85-31.27c-63.52,0.32-85.37,0.3-142.54-4.94c-24.83-2.28-42.65-5.19-54.86-7.75
				c-15.91-3.34,44.2-6.36,44.2-6.36L70.14,477.01z"/>
			<g>
				<path class="st9" d="M349.65-14.4c0,0-50.98,22.87-55.75,38.12c-4.76,15.24-8.1,31.44-28.11,65.74c0,0,10.17,0.48,20.33-15.24
					c0,0,9.69,9.05,3.5,26.68c0,0-7.56-2.06-28.48,17.41c-3.73,3.47-7.88,7.62-12.5,12.6c-5.21,5.61-10.06,10.81-14.56,15.59
					c-20.39,21.64-33.58,34.86-39.13,40.09c-0.41,0.38-0.78,0.72-1.11,1.02c-1.26,1.14-3.41,5.32-5.97,11.63
					c-0.62,1.48-1.24,3.08-1.9,4.79c-0.36,0.96-0.73,1.95-1.11,2.98c-4.75,13.01-10.22,31.1-14.12,49.94
					c-3.56,17.22-5.81,35.06-5.02,50.24c2.39,45.26,29.14,89.18,29.14,89.18s-10.26-2.29-23.51-5.61
					c-18.53-4.64-42.92-11.29-53.23-16.51c0,0,18.62-25.13,0-48c0,0,6.78-33.58,18.08-80.73c0.82-3.41,1.66-6.9,2.53-10.46
					c0.75-3.09,1.53-6.25,2.33-9.44c1.51-6.14,3.09-12.43,4.73-18.85c2.49-9.74,5.1-19.76,7.85-29.96
					c2.19-8.11,4.45-16.33,6.78-24.59c0-0.01,0-0.01,0.01-0.03c1.08-3.83,2.18-7.71,3.29-11.55c0-0.03,0-0.04,0.01-0.06
					c1.4-4.8,2.8-9.59,4.24-14.4c0.01-0.01,0.01-0.01,0.01-0.03c8.27-27.77,17.25-55.21,26.65-79.9c0,0,0.03-0.41,0.05-1.22
					c0.11-2.95,0.33-11.08-0.25-22.42c-0.35-6.97-1.01-15.14-2.16-24.08c-0.48-3.73-1.04-7.61-1.71-11.57
					c-2.49-14.68-6.39-30.71-12.43-46.44h6.66c0,0,4.07,20.44,9.5,46.42c0.83,3.92,1.68,7.98,2.56,12.11
					c0.06,0.28,0.13,0.55,0.19,0.8c0.24,0.97,0.53,1.81,0.85,2.51c4.31,9.5,15.58-2.67,26.53-18.65
					c12.96-18.92,25.47-43.2,25.47-43.2h10.17c0,0-8.98,20.34-22.2,41.35c-9.84,15.64-22.05,31.66-34.66,39.92
					c0,0-3.65,17.63,6.36,44.78c0,0-3.56,7.87-7.78,19.74c-0.01,0.01-0.01,0.03-0.01,0.04c-7.59,21.31-17.32,55.51-12.53,80.27
					c0,0,1.22-0.59,3.37-1.82c2.84-1.63,7.28-4.41,12.64-8.47h0.01c2.48-1.87,5.13-4.02,7.92-6.47c0,0,0-0.01,0.01-0.01
					c8.89-7.78,19.01-18.52,28.09-32.65c0.03-0.01,0.04-0.04,0.03-0.05c2.69-4.16,5.28-8.61,7.71-13.38
					c2.31-4.49,4.48-9.25,6.45-14.31c1.68-4.25,3.23-8.7,4.61-13.35c0,0,22.78-21.75,24.05-54.79c0,0,13.47,0.84,25.08-19.05
					C309.21,2.28,332.02-16.3,349.65-14.4z"/>
				<path class="st10" d="M197.06-0.13c-0.2-0.03-0.4-0.05-0.59-0.09c-1.36-0.26-2.79-0.91-4.19-1.23
					c-0.48-3.73-1.04-7.61-1.71-11.57c1.24-0.01,2.49-0.01,3.73-0.03c0.83,3.92,1.68,7.98,2.56,12.11
					C196.93-0.66,196.99-0.39,197.06-0.13z"/>
			</g>
			<path class="st11" d="M135.73,478.71c0,0-24.3-38.27-54.79-41.76c-30.49-3.49-35.9,37.96-35.9,37.96S101.9,482.06,135.73,478.71z
				"/>
			<path class="st12" d="M459.88,511.6c0,0,38.88-30.3,68.42-29.22c29.54,1.08,13.34,33.5,13.34,33.5l4.43-2.16l9.15,8.8
				C555.22,522.52,491.11,518.73,459.88,511.6z"/>
			<g>
				<path class="st13" d="M-139.65,124.72c6.83,10.61,8.06,24.38,7.71,36.71c-0.19,6.54-0.61,14.01-4.61,19.46
					c-2.69,3.65-6.89,5.87-9.48,9.53c-2.43,3.45-1.75,8.05-1.31,12.01c0.89,8.04,2.72,16.02,2.83,24.14
					c0.12,8.68-3.81,17.6-8.8,24.46c-5.62,7.72-13.16,15.21-22.22,18.83c-7.87,3.15-16.88,4.71-25.06,2.1
					c-11.84-3.78-20.03-14.04-25.62-24.66c-8.84-16.76-13.26-35.26-16.28-53.86c-2.81-17.29-3.11-34.89-0.89-52.28
					c1.15-8.99,3.51-17.89,6.8-26.32c2.79-7.15,6.37-14.23,11.57-19.98c7.47-8.27,17.8-13.8,29.13-11.57
					c10.36,2.04,18.84,7.8,27.16,14.02C-159.66,104.08-151.89,111.98-139.65,124.72z"/>
				<path class="st13" d="M-151.39,173.01c-2.45-1.34-5.69-2.56-7.31-4.76c-1.24-1.69-1.86-4.42-2.59-6.42
					c-1-2.75-3.4-7.07-0.79-10.12c2.43-2.84,8.02-0.54,9.8,1.56c-1.57-1.29-1.81-3.5-2.51-5.29c-1.05-2.71-2.78-5.44-1.71-8.68
					c1.44-0.26,2.73-1.09,4.04-1.39c1.63-0.38,1.57-0.08,2.89,0.31c0.53-1.6-0.31-3.23,1.35-4.54c1.32-1.05,2.78-0.41,3.93-1.98
					c-9.37-5.55-17.01-13.83-23.07-22.14c-6.42-8.8-12.55-18.26-17.23-28.14c-3.22-7.15-6.08-14.51-8.6-22.09
					c-2.23-6.09-4-12.44-5.31-19.08c-0.83-5.44-2.13-16.91,3.72-22.93c3.97-4.09,10.17-2.96,13.74-2.41
					c8.62,1.33,17.45,4.83,24.56,9.58c1.74,1.16,6.37,3.3,7.05,5.81c0.14-1.51-1.33-2.79-1.8-4.05c-0.85-2.24-2.21-5.37-1.36-8.39
					c0.62-2.21,1.24-2.24,3.46-2.79c1.21-0.3,4.14,0.21,5.02-0.48c1.38-1.09,0.42-2.88,0.7-4.2c0.38-1.83,1.61-3.51,3.24-5.04
					c2.67-2.52,6.87-4.05,9.79-4.04c3.73,0.01,7.56,5.42,11.74,3.93c1.56-5.36-2.05-15.72,6.1-18.79
					c13.41-5.06,29.23,0.09,39.27,4.09c20.15,8.01,34.6,22.57,48.05,38.85c17.01,20.59,29.7,46.87,29.54,75.54
					c-0.15,28.21-6.1,56.32-26.52,80.93c-13.95,16.81-35.89,32.64-59.4,32.75c-18.88,0.09-33.44-8.55-41.98-20.53L-151.39,173.01z"
					/>
				<path class="st13" d="M-192.9-30.69c2.95,11.37,10.38,17.92,20.15,22.18c4.39,1.92,9.32,3.17,14.88,2.72
					c2.17-0.17,6.33-0.16,8.6-2.3c2.19-2.06,1.64-4.68,1.26-6.56c-1.38-6.84-6.91-12.14-11.04-16.45
					c-4.71-4.92-9.58-9.74-16.07-11.9C-179.08-44.31-183.59-44.57-192.9-30.69z"/>
				<path class="st13" d="M-132.6-34.59c3.11,3.32,5.98,5.01,9.5,7.6c1.65,1.21,6.02,5.03,9.43,3.22
					c6.74-11.79-16.59-26.77-22.3-16.65L-132.6-34.59z"/>
				<path class="st13" d="M-66.47-11.57c-3.79-0.6-7.18-1.74-10.16-3.41c-3.67-3.39-7.11-6.95-10.33-10.7
					c-8.38-9.84-15.57-20.96-19.82-33.98c-1.5-4.6-4.33-9.46,3.26-15.07c8.5-6.28,18.26-4.77,24.91-3.43
					C-57.5-73.89-41.36-59.68-35-38.97c1.74,5.66,2.52,11.83-6.08,17.9C-46.41-17.31-52.43-16.04-66.47-11.57z"/>
				<path class="st14" d="M-117.07-8.59c0.76,1.82,1.54,3.62,2.34,5.4c1.53,0.82,2.79,1.95,3.79,3.39c3.9,4.08,7.3,8.87,12.18,12.08
					c4.27,2.81,14.4,7.06,18.25-3.72c3.08-8.62-2.63-15.81-8.49-18.6c-3.43-1.63-7.09-3.12-10.81-4.19
					C-102.62-15.04-106.49-16.1-117.07-8.59z"/>
				<path class="st14" d="M-118.56,6.78c1.66,2.15,2.96,4.28,5.07,5.96c1.14,0.91,2.99,3.68,5.18,2.56c1.24-2.49-1.46-4.55-2.5-5.9
					c-1.94-2.53-3.64-4.22-6.82-5.25L-118.56,6.78z"/>
				<path class="st14" d="M-107.68-66.85c5.67,8.8,10.97,17.39,19.17,24.14c4.19,3.45,9.66,7.12,17.18,5.6
					c3.28-0.66,7.41-1.74,10.16-5.24c2.77-3.53,2.6-8.05,2.26-10.88c-0.7-5.9-3.49-10.85-6.68-14.94
					C-71.44-75.67-84.54-78.91-107.68-66.85z"/>
				<path class="st14" d="M-53.3-40.86c-1.52-3.25-2.64-6.04-2.92-9.98c-0.14-2-0.92-8.15,1.97-10.5c2.83-2.29,4.42,3.01,5.07,4.39
					c1.99,4.19,3.37,9.13,0.87,15.18L-53.3-40.86z"/>
				<path class="st14" d="M-131.19-40.73c2.2,1.9,3.89,4.09,6.74,5.13c1.49,0.55,5.6,2.8,7.92,1.13c1.94-3.99-2.38-6.74-4.36-8.02
					c-1.67-1.05-3.51-1.82-5.51-2.33c-1.09,0.14-1.82-0.18-2.19-0.98L-131.19-40.73z"/>
				<path class="st14" d="M-189.49-38.82c0.07,3.09-0.24,5.31,0.86,7.37c1.78,3.34,6.72,6.2,9.73,7.79
					c4.07,2.15,9.06,4.16,13.75,5.48c1.61,0.45,4.52,1.49,6.65-0.89c6.18-6.91-4.1-15.93-6.69-17.45c-2.85-1.67-6.11-2.42-9.38-3.21
					C-176.98-40.3-179.71-42.05-189.49-38.82z"/>
				<path class="st14" d="M-149.13-13.52c-2.67-1.94-6.67-4.24-4.91-9.57c1.51-0.81,3.57,0.72,4.25,1.51
					c1.28,1.49,1.77,3.78,1.46,6.24L-149.13-13.52z"/>
				<path class="st14" d="M-139.13,8.08c0.54,3.84,0.29,4.54,2.3,6.54c1.32,1.31,2.84,2.49,4.44,3.48
					c1.37,0.85,8.17,4.53,10.05,0.27c1.82-4.11-1.87-8.77-3.9-10.69c-1.67-1.58-3.43-3.26-5.76-3.98c-1.98-0.61-4.42-0.26-6.18-1.24
					L-139.13,8.08z"/>
				<path class="st14" d="M-151.43,17.3c0.71,1.97,1.67,3.74,2.87,5.31c0.73,0.15,1.43,0.36,2.09,0.64c1.2,0.54,2.9,2.61,4.81,1.44
					c5.46-3.33-5.64-8.19-6.02-9.33L-151.43,17.3z"/>
				<path class="st14" d="M-197.6,18.98c1.54,7.51,5.63,12.32,10.8,16.71c3.85,3.27,8.12,6.08,13.08,7.9
					c3.34,1.22,10.21,2.67,14.64,1.45c2.18-0.6,4.91-1.5,6.33-3.87c1.53-2.55,0.39-5.27-0.14-7.47
					c-3.07-12.73-14.64-17.02-24.75-21.54L-197.6,18.98z"/>
				<path class="st15" d="M-189.42,71.31c-2.8-4.21-5.64-9.18-5.76-15.03c-0.07-3.34,0.13-7.67,1.33-11.18
					c0.55-1.61,1.33-3.18,2.65-4.36c3.98-3.55,8.69-2.51,12.16-1.27c2.59,0.92,4.36,3.01,6.52,4.6c2.63,1.94,4.71,4.26,7.02,6.59
					c2.68,2.69,5.43,5.33,7.5,8.67c0.64,1.02,1.96,1.9,0.06,2.6c-1.84,0.67-3.07,0.5-4.7,0.33c-2.09-0.21-4.25-0.39-6.2-0.62
					c0.75,2.24,2.94,4.22,4.42,5.94c2.61,3.04,4.49,6.8,6.47,10.38c2.93,5.28,5.64,10.63,7.76,16.44c1.44,3.96,3.66,8.52,3.31,13.13
					c-0.28,3.6-3.59,3.79-6.19,3.09c-5.64-1.51-9.7-4.73-13.26-8.77c-5.76-6.54-11.01-13.43-14.41-21.67L-189.42,71.31z"/>
				<path class="st15" d="M-154.85,66.37c1.99,5.31,5.17,9.83,9.31,13.5c2.55,2.26,5.45,4.74,8.79,6.14
					c1.21,0.5,4.57,1.43,6.11-0.01c2.59-2.42-1.23-8.62-2.12-10.18c-1.83-3.22-4.02-5.75-7.09-7.8
					C-143.25,65.76-146.69,64.77-154.85,66.37z"/>
				<path class="st15" d="M-151.11,26.2c1.39,2.9,2.42,6.11,4.17,8.75c1.9,2.85,4.33,5.79,6.68,8.28c0.95,1.01,7.41,6.99,8.81,1.51
					c1.36-5.3-1.09-10.29-3.97-13.3C-139.07,27.62-144.41,25.48-151.11,26.2z"/>
				<path class="st15" d="M-141.81,14.4c0.76,3.39,1.43,5.83,3.19,8.55c0.81,1.25,2.14,3.95,4.36,3.15c1.6-2.94,0.45-5.69-0.76-7.57
					c-0.57-0.89-1.26-2.02-2.11-2.64c-0.87-0.64-2.03-0.45-2.99-0.91L-141.81,14.4z"/>
				<path class="st15" d="M-104.4-54.35c1.5,3.44,2.94,5.64,5.31,8.34c3.49,3.98,6.65,8.31,9.92,12.56c2.28,2.97,4.72,5.54,7.94,7.6
					c1.23,0.79,3.36,2.89,5.55,2.31c4.9-1.31-1.27-13.21-2.04-14.32C-83.83-46.72-95.12-49.42-104.4-54.35z"/>
				<path class="st15" d="M-140.78,136.19c-3.41-2.73-5.74-5.5-5.55-10.39c0.26-6.62,2.74-11.17,8.39-16.36
					c8.22-7.55,18.86-6.82,27.39-3.9c11.83,4.05,23.35,10.21,32.49,18.25c9.68,8.51,16.86,19.42,18.09,32.26
					c0.64,6.68,1.11,18.11-8.96,21.72c-4.46,1.6-10.45-0.85-14.19-2.02c-6.25-1.94-11.99-4.86-17.62-7.43
					c-8.3-3.78-15.24-8.78-22.06-13.8C-128.78,150.12-134.35,145.51-140.78,136.19z"/>
				<path class="st15" d="M-155.7,141.99c-0.09,2.27-0.23,2.85,0.32,4.53c0.61,1.85,1.2,3.65,2.3,5.25
					c1.07,1.56,5.32,6.92,8.48,5.36c3.58-1.77,1-7.59-0.01-9.38C-146.71,144.05-150.55,140.68-155.7,141.99z"/>
				<path class="st15" d="M-161.71,160.25c-0.97-1.55-2.81-3.66-1.79-5.88c0.9-1.97,3.39-1.2,4.65-0.5c1.6,0.89,2.99,2.55,4.27,3.76
					c1.67,1.58,3.17,3.24,4.51,5.1c1.53,2.13,4.05,5.91,3.91,8.83c-2.24,1.53-6.34-1.05-7.7-2.13L-161.71,160.25z"/>
			</g>
			<linearGradient id="SVGID_7_" gradientUnits="userSpaceOnUse" x1="570.1968" y1="524.7391" x2="570.1968" y2="502.6792">
				<stop  offset="5.587020e-03" style="stop-color:#747474"/>
				<stop  offset="1" style="stop-color:#797979"/>
			</linearGradient>
			<path class="st16" d="M557.53,522.93c0,0,8.89-12.54,16.99-19.21c8.1-6.67,8.35,21.02,8.35,21.02L557.53,522.93z"/>
			<path class="st17" d="M-184.91-61.56c10.11,0.99,3.81,272.03,3.81,272.03l10.82-39.75c0,0-7.01-49.47-4.51-83.95
				c2.5-34.48,17.32-25.85,32.02-59.86c14.71-34.01,2.62-86.38,2.62-86.38h-2.62c0,0,4.99,39.25,0.96,69.31
				c-4.04,30.06-28.86,52.75-31.22,50.14c-2.36-2.61-5.75-63.08-1.76-71.56c3.98-8.48,11.91-5.94,16.93-17.57s5.87-30.05,5.87-30.05
				l-6.83-1.05c0,0,2.15,24.03-4.98,32.71c-7.14,8.68-9.23,7.73-9.23,7.73l-1.76-39.38L-184.91-61.56z"/>
			<path class="st18" d="M309.21,569.16c0,0,404.13-16.61,502.9-55.68v55.68H309.21z"/>
		</g>
	</g>
</g>
<g id="objects">
	<polygon class="st19" points="558.74,359.14 563.38,398.26 568.25,397.87 564.35,359.43 	"/>
	<polygon class="st20" points="564.35,359.43 565.74,359.43 569.92,397.87 568.25,397.87 	"/>
	<g>
		<g>
			<path class="st21" d="M-111.18,26.54c13.45-29.42-22.23-89.85-22.23-89.85h12.63c0,0,7.72,24.73,12.63,47.29
				c4.91,22.55,12.95,5.95,12.95,5.95S-101.17,14.21-111.18,26.54z"/>
			<path class="st21" d="M593.45-63.31c-17.15,14.97-60.02,25.53-60.02,25.53c-40.5,8.51-127.69,22.39-158.06,44.71
				c-30.36,22.32-26.79,47.71-52.53,58.68c-9.72,4.14-37.2,9.23-69.3,17.24c-52.89,13.21-118.29,34.37-137.22,72.33
				c-1.45,2.89-2.85,5.92-4.25,9.09c-28.06,63.75-47.42,181.6-75.57,241.52C6.97,468.67-3.83,565.31-3.83,565.31h-187.59V284.44
				C-173.83,135.16-129.6,49.4-129.6,49.4s4.05-5.15,11.03-13.78c2.19-2.7,4.66-5.76,7.39-9.09c5.03-6.15,11.91-24.28,18.03-42.66
				c7.79-23.38,14.37-47.18,14.37-47.18h288.4C181.57-30,162.34,13.33,152.5,39.01c-5.1,13.28-7.68,21.84-7.68,21.84
				s10.05-1.94,25.53-5.26c49.13-10.5,152.96-34.9,164.02-55.48c14.55-27.07,53.75-40.27,53.75-40.27
				c48.11,2.39,80.68-8.26,80.68-8.26c8.89-9.53,11.43-14.89,11.43-14.89h7.95c-3.81,6.31-0.24,15.77-0.24,15.77
				c55.73-12.4,64.08-15.77,64.08-15.77H593.45z"/>
			<path class="st22" d="M-129.6,49.41c57.49-56.22,86.07,91.47,45.1,232.5c-40.97,141.02-115.53,34.9-88.62-79.04
				C-146.21,88.91-129.6,49.41-129.6,49.41z"/>
			<path class="st23" d="M-150.3,341.99c-39.97-66.94-3.92-214.45,16.88-267.81s49.72-21.54,49.72-21.54s-15.26-34.2-45.91-3.23
				c0,0-41.61,111.48-49.23,188.19C-186.46,314.3-150.3,341.99-150.3,341.99z"/>
			<g class="st24">
				<path class="st21" d="M-190.27,569.67c0.55-4.44,0.55-8.89,1.09-13.28c0.78-6.42,2.16-12.74,2.93-19.19
					c1.23-10.32,4.07-21.31,7.37-31.18c3.05-9.12,8.22-17.51,12.24-26.2c3.93-8.49,7.8-17.13,11.26-25.79
					c6.9-17.26,13.92-34.44,20.92-51.69c3.67-9.06,9.2-18.28,14.67-26.39c2.87-4.25,7.8-8.04,9.41-12.9
					c-1.57,0.02-4.02,3.64-4.79,4.57c-1.45,1.76-3.33,3.01-4.81,4.75c-1.71,2.02-3.47,4.01-5.57,5.65c-2.98,2.31-5.87,4.17-9.42,1.9
					c-6.09-3.9-11.71-8.31-16.64-13.64c-3.35-3.62-5.77-7.65-8.17-11.92c-2.3-4.1-4.96-8.02-6.77-12.38
					c-1.86-4.48-3.01-9.3-4.66-13.86c-1.93-5.33-3.8-10.65-5.2-16.15c-2.42-9.5-2.8-20.37-3.37-30.2c-0.06-1.01-0.55-12-1.7-12.2
					c-0.77,2.04-1.12,5.02-1.18,7.24c-0.11,3.74,0.02,7.5,0.02,11.24c0,11.26-0.19,23.07,3.34,33.87c1.64,5.03,2.61,10.2,4.29,15.26
					c1.39,4.17,3.25,8.1,4.29,12.37c1.25,5.08,2.18,9.76,2.4,14.94c0.23-1.2-0.67-1.57-1.19-2.46c-1.26-2.15-2.17-4.43-3.26-6.67
					c-1.71-3.51-4.29-6.25-6.04-9.66c-2.18-4.23-3.47-8.79-4.76-13.34c-0.94-3.3-2.62-6.27-3.63-9.51c-0.78-2.52-1.18-5.06-2.1-7.55
					c-0.55-1.5-1.65-11.27-2.65-11.4c-1.09,2.91,0.27,6.54,0.66,9.42c0.62,4.56,0.08,9.67,0.08,14.27c0,6.22,0.25,12.51,0.05,18.73
					c-0.26,7.89-1.56,15.78-1.96,23.68c-1.14,22.71-2.18,45.45-3.6,68.16c-0.43,6.94-0.12,13.89-0.42,20.83
					c-0.38,8.77-0.78,17.46-0.76,26.24c0.03,11.91-0.44,23.84,0.59,35.72c0.81,9.37,2.94,18.46,4.2,27.75L-190.27,569.67z"/>
				<path class="st21" d="M-114.99,35.11c5.56-0.95,6.52-0.88,11.32,1.1c4.87,2.01,9.34,4.88,13.26,8.39
					c8.1,7.24,14.62,18.64,18.56,28.61c2.43,6.15,4.39,12.41,6.62,18.62c2.01,5.59,4.36,10.94,6.01,16.65
					c1.13,3.92,2.76,7.57,3.79,11.52c0.25,0.98,1.16,4.34,2.16,4.61c0.39-0.98,0.19-1.87,0.19-2.89c-0.01-3.07,0.7-6,0.89-9.05
					c0.5-8.22,1.07-16.53,1.06-24.77c-0.01-15.45-3.4-30.33-12.17-43.28c-3.05-4.51-5.71-9.84-9.95-13.39
					c-3.8-3.17-8.54-5.54-12.98-7.6c-2.79-1.29-5.6-2.34-8.76-1.91c-1.46,0.2-2.64,0.75-3.86,1.47c-0.77,0.46-0.65,1.32-1.72,1.26
					c0.18-1.22,0.76-0.22,1.54-0.95c1.22-1.15,1.07-1.66,2.83-2.51c2.04-0.98,5.26-2.12,7.54-2.16c5.08-0.09,10.57,4.04,14.63,6.53
					c1.28,0.79,2.63,1.05,3.87,2.07c1.03,0.85,1.86,1.98,2.88,2.86c3.69,3.2,7.66,6.37,10.51,10.43c1.94,2.76,2.99,6.13,4.43,9.15
					c1.48,3.12,3.35,6.03,4.86,9.14c0.87,1.77,2.55,8.2,4.74,8.4c0.63-1.94,0.07-4.04-0.43-5.95c-1.42-5.32-4.08-10.16-6.28-15.16
					c-4.3-9.75-10.47-18.63-18.72-25.55c-4.06-3.4-8.28-6.21-12.97-8.44c-1.49-0.71-3.17-0.7-4.67-1.13
					c-0.61-0.17-0.78-0.76-1.46-0.91c-0.95-0.22-1.84,0.22-2.83-0.14c0.25-1.11,3.91-2.95,5.03-3.79c3.77-2.85,8.16-5.25,12.22-7.66
					c6.69-3.97,12.06-7.06,20.05-6.61c7.68,0.43,14.07,5.27,18.81,10.98c1.99,2.39,4.26,4.69,5.84,7.4
					c2.09,3.58,3.37,8.29,4.48,12.22c2.32,8.22,2.63,16.63,4.46,24.92c1.46,6.65,2.06,13.56,4.1,20.06c0.55,1.76,0.66,4.99,2.1,6.2
					C-8,63.32-9.08,50.51-9.16,39.09C-9.31,17.43-14.04-4.2-24.07-23.44c-3.52-6.75-7.92-12.77-12.7-18.66
					c-4.69-5.79-10.56-8.83-16.89-12.44c-6.56-3.75-13.02-7.58-20.45-9.25c-1.18-0.27-2.82-0.59-3.65,0.25
					c-0.31,0.31-0.46,2.28-0.51,2.56c-0.59,3.41-0.84,6.87-1.42,10.28c-1.25,7.32-3.4,14.35-5.17,21.54
					c-1.43,5.81-3.68,11.22-5.38,16.92c-2.41,8.1-6.63,15.66-9.98,23.42C-103.93,19.78-108.52,27.91-114.99,35.11z"/>
			</g>
			<path class="st23" d="M-129.26,556.02c-0.01-0.28-0.03-0.55-0.06-0.82C-129.24,555.42-129.2,555.68-129.26,556.02z"/>
			<path class="st23" d="M-129.44,565.83c6.83-0.04,13.75,0.23,20.64,0.7c-3.07,0.13-6.01,0.45-9.1,0.89
				c-4.02,0.57-7.62,2.35-13.62,5.42c-0.39-2.46-0.91-4.68-1.14-7C-131.59,565.84-130.51,565.84-129.44,565.83z"/>
			<path class="st23" d="M-52.13,386.78c3.7-7.63,6.73-15.44,9.69-23.36c-3.12,9.32-5.53,18.82-8.69,28.1
				c-2.26,6.61-4.39,13.31-6.47,19.99c-1.17,3.76-2.54,7.56-3.27,11.44c-0.39,2.06-0.53,4.01-1.07,6.02
				c-0.49,1.86-1.14,3.65-1.46,5.54c-0.88,5.28-2.18,10.51-3.48,15.72c-0.75,3.07-1.75,6.2-1.75,9.34c0-1.19-0.2-1.92-0.49-3.07
				c-0.57-2.25-0.14-5.07-0.14-7.38v-6.54c-0.16,1.02-0.62,1.91-0.67,2.97c-0.13,2.33,0.04,4.58-0.26,6.89
				c-1.45,11.2-3.48,22.37-4.5,33.61c-0.09,1.02-0.18,2.04-0.25,3.07c-0.1,0.19-0.2,0.38-0.31,0.57c-3.46-0.3-1.56-18.83-1.16-21.36
				c1.77-11.26,2.8-22.78,5.22-33.95c1.48-6.93,3.53-14.23,5.9-20.95c1.48-4.24,3.6-8.12,5.83-11.99
				C-56.73,396.7-54.5,391.71-52.13,386.78z"/>
			<path class="st23" d="M-29.32,332.82c-0.88,2.46-2.1,5.12-3.38,7.52c-1.37,2.59-2.69,5.29-3.91,8.05c0.28-1.7,0.2-3.27-0.44-4.51
				c-1.04,0.25-3.73,3.88-4.5,4.73c-0.24,0.28-0.49,0.55-0.73,0.83c0.64-0.91,1.28-1.81,1.94-2.72c2.48-3.43,4.75-6.93,7.59-10.11
				C-32,335.77-30.5,332.84-29.32,332.82z"/>
			<path class="st23" d="M-128.33,568.4c-2.14-4.44-3.13-8.26-3.21-13.25c-0.1-6.45,0.03-12.92,0.03-19.38
				c0-15.22,0.55-30.03,4.27-44.88c1.75-6.98,3.4-13.89,5.88-20.67c2.21-6.05,4.46-12.43,7.57-18.06
				c6.61-11.95,13.99-23.55,21.79-34.75c7.06-10.13,14.97-19.64,22.1-29.72c3.34-4.73,7.38-8.89,10.7-13.63
				c3.97-5.68,6.85-12.09,11.05-17.66c3.74-4.95,7.48-9.99,10.05-15.67c2.13-4.72,5.16-9.01,7.6-13.58
				c2.43-4.55,5.6-8.53,8.95-12.41c1.44-1.66,2.82-3.53,3.93-5.44c3.26,0.74-0.66,10.24-1.11,11.73
				c-2.73,8.87-6.03,17.54-8.59,26.48c-1.42,4.97-2.8,9.93-4.31,14.86c-2.16,7.09-3.32,14.59-4.96,21.81
				c-0.82,3.6-1.89,7.09-2.51,10.74c-0.6,3.54-1.17,7.09-1.93,10.61c-0.81,3.75-1.85,7.43-2.83,11.13
				c-1.17,4.38-1.65,8.84-2.5,13.29c-1.45,7.62-2.73,15.1-3.37,22.86c-0.61,7.33-1.24,14.66-1.68,22
				c-0.35,5.98-0.17,12.06,0.44,18.01c0.61,5.95,0.41,11.99,1.08,17.95c1.31,11.73,2.35,23.52,5.42,34.95
				c1.88,7.01,3.89,14.01,6.36,20.82c0.31,0.85,0.72,1.6,0.66,2.52c-0.07,1.15-0.02,0.9-0.92,1.27c-1.18,0.47-2.96,0.53-4.21,0.76
				c-3.21,0.58-6.42,1.34-9.58,2.18c-10.59,2.8-22.11,1.66-32.9,0.61C-100.17,572.4-114.47,568.2-128.33,568.4z"/>
			<path class="st21" d="M268.24,82.52c-0.55,0.15-1.16,0.24-1.76,0.26C267.17,82.61,267.78,82.51,268.24,82.52z"/>
			<path class="st23" d="M209.62-63.31C181.57-30,162.34,13.33,152.5,39.01c-5,1.42-10.41,1.76-15.02-0.93
				c-3.24-1.89-4.4-5.56-5.87-8.8c-2.21-4.9-5.02-9.49-7.24-14.38c-4.32-9.54-6.24-19.91-11.52-29.08
				c-6.75-11.74-18.22-19-31.68-20.19c-9.37-0.83-18.22,1.01-27.16,3.76c-11.47,3.55-21.34,9.94-32.07,15.11
				C12.26-10.84,2.45-7.19-8.02-4.77c-9.61,2.21-19.07,2.48-28.8,3.61c-9.34,1.08-18.63,2.74-27.61,5.61
				c-10.11,3.23-18.85,8.57-27.72,14.23c-7.66,4.89-15.54,9.43-23.02,14.56c-1.16,0.74-2.26,1.55-3.34,2.39h-0.05
				c2.19-2.7,4.66-5.76,7.39-9.09c5.03-6.15,11.91-24.28,18.03-42.66c7.79-23.38,14.37-47.18,14.37-47.18H209.62z"/>
		</g>
		<path class="st25" d="M464.5,412.92c0,0,50.31-14.98,94.82-19.43l-3.41-38.21l-92.53-9.97L464.5,412.92z"/>
		<linearGradient id="SVGID_8_" gradientUnits="userSpaceOnUse" x1="360.891" y1="434.2977" x2="360.891" y2="171.8444">
			<stop  offset="5.587020e-03" style="stop-color:#EF7900"/>
			<stop  offset="0.1463" style="stop-color:#E46900"/>
			<stop  offset="0.4213" style="stop-color:#C73E00"/>
			<stop  offset="0.5447" style="stop-color:#B82900"/>
			<stop  offset="1" style="stop-color:#7E0031"/>
		</linearGradient>
		<path class="st26" d="M262.22,335.76l-4.94,73.57c0,0,82.25,27.55,151.54,24.77l55.69-21.18l-1.12-67.61
			c0,0-28.54-11.34-32.96-24.39c-8.16-20.21-65.26-149.07-65.26-149.07l-79.14,151.68C286.02,323.53,281.12,335.68,262.22,335.76z"
			/>
		<linearGradient id="SVGID_9_" gradientUnits="userSpaceOnUse" x1="358.1102" y1="358.0637" x2="358.1102" y2="136.1767">
			<stop  offset="5.587020e-03" style="stop-color:#DB4515"/>
			<stop  offset="0.7468" style="stop-color:#F56006"/>
			<stop  offset="1" style="stop-color:#FF6B00"/>
		</linearGradient>
		<path class="st27" d="M226.98,335.84c0,0,25.02,4.48,57.99-14.92l73.25-148.24v-33.15l17.06-3.34l-1.64,40.96l60.51,147.43
			c0,0,29.23,17.77,55.57,23.15l-2.09,10.34c0,0-38.29-17.17-57.1-30.11l-65.96-148.34L287.8,325.84c0,0-32.71,21.41-61.3,16.39
			L226.98,335.84z"/>
		<linearGradient id="SVGID_10_" gradientUnits="userSpaceOnUse" x1="471.3859" y1="351.9874" x2="471.3859" y2="136.1767">
			<stop  offset="5.587020e-03" style="stop-color:#AB2215"/>
			<stop  offset="1" style="stop-color:#BA2700"/>
		</linearGradient>
		<path class="st28" d="M375.28,136.18c0,0,50.83,47.92,88.1,62.75l2.48,22.48l49.59,111.77c0,0,14.04,10.91,53.68,18.8l-79.41-4.26
			c0,0-36.28-7.55-55.57-23.15l-60.51-147.43L375.28,136.18z"/>
		<path class="st29" d="M226.5,342.24l34.99,4.36c0,0,22.57-8.14,36.84-16.93l69.51-142.72l-3.26-7.34L287.8,325.84
			C287.8,325.84,261.25,341.04,226.5,342.24z"/>
		<polygon class="st30" points="423.39,224.88 433.91,259.41 452.92,263.99 444.68,231.5 		"/>
		<polygon class="st31" points="425.05,230.35 442.5,236.01 449.23,263.1 433.91,259.41 		"/>
		<g>
			<g>
				<polygon class="st32" points="423.83,170.02 441.87,154.28 450.4,169.25 				"/>
				<polygon class="st33" points="458.23,173.71 450.4,169.25 441.87,154.28 				"/>
				<polygon class="st34" points="423.83,170.02 436.94,174.11 458.23,173.71 450.4,169.25 				"/>
			</g>
			<polygon class="st33" points="425.92,169.96 433.83,177.1 434.84,177.12 427.71,169.91 			"/>
			<polygon class="st33" points="447.77,169.33 445.91,175.8 446.73,175.83 448.82,169.3 			"/>
			<polygon class="st33" points="457.85,173.49 451.21,180.66 450.83,180.16 457.28,173.25 			"/>
			<polygon class="st34" points="436.87,173.43 438.57,176.67 439.16,176.62 437.83,173.85 			"/>
		</g>
		<polygon class="st35" points="427.31,237.74 432.27,176.03 446.91,175.34 443.51,261.72 433.91,259.41 		"/>
		<polygon class="st36" points="452.09,179.61 446.91,175.34 443.51,261.72 449.23,263.1 		"/>
		<polygon class="st37" points="464.5,329.67 469.43,329.67 497.85,276.66 511.35,331.66 515.68,331.66 500.63,269.42 495.9,269.42 
					"/>
		<polygon class="st29" points="491.95,287.66 501.81,329.67 511.35,331.66 497.85,276.66 		"/>
		<polygon class="st38" points="501.81,329.67 470.61,327.47 491.95,287.66 		"/>
		<linearGradient id="SVGID_11_" gradientUnits="userSpaceOnUse" x1="466.5129" y1="329.6675" x2="466.5129" y2="269.4248">
			<stop  offset="5.587020e-03" style="stop-color:#DB4515"/>
			<stop  offset="1" style="stop-color:#EB4000"/>
		</linearGradient>
		<path class="st39" d="M495.9,269.42c0,0-28.18,10.48-58.78,12.99l14.96,43.2l12.41,4.05L495.9,269.42L495.9,269.42z"/>
		<polygon class="st40" points="300.84,318.94 425.67,317.03 430.53,327.96 297.17,327.96 		"/>
		<polygon class="st19" points="297.17,327.96 298.33,329.67 430.53,328.81 430.53,327.96 		"/>
		<g>
			<path class="st35" d="M338.17,428.82l0.86-52.51h46.3l-2.58,57.99C382.75,434.3,354.11,433.38,338.17,428.82z"/>
			<polygon class="st41" points="384.84,376.31 387.42,376.31 385.33,433.98 382.75,434.3 			"/>
			<path class="st41" d="M343.46,429.65l2.17-46.13h32.6v50.58C378.23,434.09,355.38,432.09,343.46,429.65z"/>
			<path class="st42" d="M346.94,430.58l1.04-45.9l30.24,0.63v48.79C378.23,434.09,360.09,433.07,346.94,430.58z"/>
		</g>
		<g>
			<polygon class="st35" points="398.24,398.53 399.47,345.56 432.28,344.64 432.94,398.53 			"/>
			<polygon class="st41" points="432.28,344.64 435.45,345.56 433.86,398.66 432.94,398.53 			"/>
			<polygon class="st41" points="402.38,392.77 428.42,393.46 428.42,349.37 404.24,349.37 			"/>
			<polygon class="st43" points="403.42,392.8 405.33,350.35 428.42,351.32 428.42,393.46 			"/>
			<polygon class="st44" points="408.98,350.5 414.79,393.1 428.42,393.46 428.42,351.32 			"/>
			<polygon class="st35" points="403.78,360.08 428.42,360.43 428.42,362.59 403.78,362.1 			"/>
			<polygon class="st35" points="414.79,350.35 416.5,350.35 416.1,360.26 414.79,360.26 			"/>
		</g>
		<g>
			<polygon class="st45" points="527.01,395.14 526.16,362.67 503.58,362.1 503.12,395.14 			"/>
			<polygon class="st19" points="503.58,362.1 499.97,363.04 500.55,395.47 503.12,395.14 			"/>
			<polygon class="st19" points="524.16,391.6 506.24,392.03 506.24,365.01 522.88,365.01 			"/>
			<polygon class="st46" points="522.17,391.63 520.94,366.37 506.24,366.95 506.24,392.03 			"/>
		</g>
		<g>
			<polygon class="st35" points="291.5,398.28 292.73,345.3 325.54,344.39 326.2,398.28 			"/>
			<polygon class="st41" points="325.54,344.39 328.7,345.3 327.12,398.41 326.2,398.28 			"/>
			<polygon class="st41" points="295.64,392.51 321.68,393.21 321.68,349.12 297.5,349.12 			"/>
			<polygon class="st44" points="296.67,392.54 298.59,350.09 321.68,351.07 321.68,393.21 			"/>
			<polygon class="st47" points="301.88,350.35 299.69,392.48 296.67,392.54 298.59,350.09 			"/>
			<polygon class="st35" points="297.04,359.83 321.68,360.18 321.68,362.33 297.04,361.85 			"/>
			<polygon class="st35" points="308.05,350.09 309.76,350.09 309.36,360 308.05,360 			"/>
		</g>
		<g>
			<polygon class="st35" points="343.46,265.99 366.38,233.78 389.5,265.99 			"/>
			<polygon class="st41" points="366.38,233.78 369.37,235.07 391.48,265.99 389.5,265.99 			"/>
			<polygon class="st41" points="352.26,260.37 366.43,241.53 379.78,260.37 			"/>
			<polygon class="st43" points="354.97,260.37 367.16,242.57 379.78,260.37 			"/>
		</g>
		<polygon class="st40" points="411.75,285.71 387.41,317.61 399.71,317.61 416.5,297.24 		"/>
		<polygon class="st40" points="316.27,284.75 310.87,293.51 331.23,318.47 345.07,318.26 		"/>
		<polygon class="st19" points="416.5,297.24 417.77,298.64 402.54,317.38 400.19,317.03 		"/>
		<polygon class="st19" points="316.27,284.75 319.47,286.26 347.56,318.22 345.07,318.26 		"/>
		<polygon class="st40" points="456.7,343.08 458.16,415.33 466.51,412.33 465.23,347.41 		"/>
		<polygon class="st19" points="465.23,347.41 467.45,348.51 468.15,411.87 466.51,412.33 		"/>
		<polygon class="st40" points="351.36,407.5 372.28,408.09 373.71,386.65 351.36,386.53 		"/>
		<polygon class="st44" points="354.14,403.89 369.86,405.41 370.94,389.3 354.14,389.21 		"/>
		<rect x="354.14" y="389.21" class="st25" width="1.81" height="14.68"/>
		<polygon class="st40" points="289.78,339.25 289.78,345.78 327.39,345.3 327.97,337.44 		"/>
		<polygon class="st19" points="327.97,337.44 332.48,338.41 331.36,345.02 327.39,344.92 		"/>
		<polygon class="st40" points="397.31,338.59 397.31,345.3 435.89,345.5 435.89,338.59 		"/>
		<polygon class="st19" points="435.89,338.59 438.22,338.83 438.22,345.68 435.89,345.68 		"/>
		<polygon class="st19" points="477.85,323.22 489.58,304.96 495.9,324.36 		"/>
		<polygon class="st46" points="482.34,320.82 492.46,321.23 489.72,312.16 		"/>
		<polygon class="st45" points="477.85,323.22 476.6,323.22 487.4,305.35 489.58,304.96 		"/>
		<polygon class="st45" points="488.43,313.67 490.89,321.17 492.46,321.23 489.72,312.16 		"/>
		<polygon class="st48" points="427.31,237.74 436.69,259.13 449.23,263.1 449.23,263.1 433.91,259.41 		"/>
		<path class="st49" d="M487.4,296.15c4.33-4.75,14.41,33.52,14.41,33.52s-4.87-25.15-4.55-26.6c0.31-1.45,4.8,0.43,4.8,0.43
			l8.86,28.07l0.43,0.09l-13.5-55.01L487.4,296.15z"/>
		<path class="st50" d="M260.95,344.64l-0.61,10.66h7.82l2.27,1.43c0,0,25.49-8.29,40.57-17.27l63.5-137.48l-9.94-22.36
			L287.8,325.84c0,0-25.56,12.28-41.74,14.26c0,0,14.37-0.16,32.45-7.39C296.59,325.48,260.95,344.64,260.95,344.64z"/>
		<path class="st49" d="M487.63,358.06l2.09-10.34l58.76,3.15c0,0-46.67-1.36-49.1-0.38c-2.43,0.98-4,7.75-4,7.75L487.63,358.06z"/>
		<polygon class="st19" points="373.71,386.65 374.69,386.95 373.12,407.87 372.28,408.09 		"/>
		<path class="st51" d="M343.98,418.79c0,0,1.51-22.59,2.13-23.56c0.63-0.97,0.83,35.35,0.83,35.35l2.86,0.51
			c0,0-1.53-33.35,0.97-40.03c2.5-6.68,27.46-2.16,27.46-2.16v-5.38h-32.6L343.98,418.79z"/>
		<path class="st51" d="M386.81,209.04l47.34,115.53c0,0,20.39,17.94,55.57,23.15c0,0-44.05-9.22-55.51-29.5
			C422.74,297.94,386.81,209.04,386.81,209.04z"/>
		<polygon class="st40" points="481.62,355.3 483.05,410.06 487.63,410.48 489.08,358.1 487.63,358.06 		"/>
		<polygon class="st19" points="489.08,358.1 491.52,358.16 490.09,410.48 487.63,410.48 		"/>
		<polygon class="st51" points="482.34,374.95 488.43,380.37 487.63,410.48 490.09,410.48 491.52,358.16 487.63,358.06 
			481.62,355.3 		"/>
		<polygon class="st37" points="489.72,347.73 569.13,351.99 569.13,359.83 487.63,358.06 		"/>
	</g>
</g>
</svg>
