<svg width="110" height="93" viewBox="0 0 110 93" fill="none" xmlns="http://www.w3.org/2000/svg">
<ellipse cx="55" cy="46.5" rx="55" ry="46.5" fill="#8B52FE"/>
<path d="M70.5 35.5H35.5C31.35 35.5 28 38.85 28 43V53C28 55.75 30.25 58 33 58H38V63C38 65.75 40.25 68 43 68H63C65.75 68 68 65.75 68 63V58H73C75.75 58 78 55.75 78 53V43C78 38.85 74.65 35.5 70.5 35.5ZM60.5 63H45.5C44.125 63 43 61.875 43 60.5V50.5H63V60.5C63 61.875 61.875 63 60.5 63ZM70.5 45.5C69.125 45.5 68 44.375 68 43C68 41.625 69.125 40.5 70.5 40.5C71.875 40.5 73 41.625 73 43C73 44.375 71.875 45.5 70.5 45.5ZM65.5 23H40.5C39.125 23 38 24.125 38 25.5V30.5C38 31.875 39.125 33 40.5 33H65.5C66.875 33 68 31.875 68 30.5V25.5C68 24.125 66.875 23 65.5 23Z" fill="#FFFD54"/>
</svg>
